<?xml version="1.0" standalone="no"?>
<!DOCTYPE svg PUBLIC "-//W3C//DTD SVG 20010904//EN"
 "http://www.w3.org/TR/2001/REC-SVG-20010904/DTD/svg10.dtd">
<svg version="1.0" xmlns="http://www.w3.org/2000/svg"
 width="1228.000000pt" height="274.000000pt" viewBox="0 0 1228.000000 274.000000"
 preserveAspectRatio="xMidYMid meet">

<g transform="translate(0.000000,274.000000) scale(0.100000,-0.100000)"
fill="#000000" stroke="none">
<path d="M1075 2720 c-564 -68 -949 -367 -1046 -813 -26 -118 -28 -315 -5
-441 75 -396 390 -673 874 -766 292 -57 646 -48 988 24 180 39 224 54 261 91
l33 33 0 457 0 458 -36 33 -35 34 -478 0 c-557 0 -511 10 -519 -114 -6 -91 2
-136 29 -164 19 -21 26 -22 274 -22 l255 0 0 -234 0 -234 -39 -15 c-88 -36
-199 -50 -345 -44 -248 9 -411 68 -549 198 -118 110 -177 232 -197 408 -25
225 47 440 194 579 153 145 348 212 623 212 229 0 412 -36 633 -125 63 -25
126 -45 140 -43 40 5 55 48 55 163 0 83 -4 106 -21 135 -41 70 -200 132 -450
176 -103 18 -527 28 -639 14z"/>
<path d="M7125 2710 c-192 -35 -325 -99 -436 -209 -110 -110 -145 -205 -137
-377 6 -136 40 -209 148 -314 94 -93 189 -144 425 -230 257 -93 275 -100 345
-137 123 -63 165 -120 158 -217 -5 -74 -33 -121 -98 -164 -79 -53 -130 -65
-292 -70 -207 -5 -324 19 -545 114 -56 24 -111 44 -122 44 -46 0 -71 -57 -71
-168 0 -79 18 -139 51 -166 96 -81 421 -156 676 -156 123 0 314 25 419 55 326
94 523 311 524 577 0 128 -37 221 -127 318 -106 114 -243 188 -543 290 -341
116 -442 193 -427 325 10 91 73 149 197 181 51 13 91 15 185 11 135 -7 250
-34 392 -92 147 -62 173 -45 173 116 0 116 -11 152 -55 179 -154 95 -568 140
-840 90z"/>
<path d="M4416 2700 c-50 -9 -68 -33 -55 -68 6 -15 56 -97 112 -184 56 -87
113 -176 127 -198 84 -136 320 -505 357 -557 24 -34 43 -64 43 -68 0 -3 25
-42 55 -88 l55 -82 0 -362 0 -362 33 -18 c27 -15 59 -18 222 -18 150 0 196 3
220 15 l30 15 3 362 2 362 79 123 c44 68 145 227 226 353 81 127 173 271 205
320 118 181 229 362 240 390 9 24 8 32 -10 49 -20 20 -31 21 -238 21 -187 0
-221 -2 -249 -17 -25 -14 -66 -79 -210 -330 -98 -172 -201 -361 -228 -420 -28
-60 -52 -108 -55 -108 -3 0 -38 64 -78 143 -39 78 -80 156 -90 172 -9 17 -38
64 -62 105 -25 41 -56 96 -70 121 -85 154 -168 288 -187 303 -12 9 -46 21 -74
26 -59 11 -345 11 -403 0z"/>
<path d="M2599 2677 c-32 -17 -47 -33 -56 -58 -9 -25 -12 -261 -12 -922 -1
-978 -4 -937 61 -977 32 -19 49 -20 719 -20 l686 0 24 26 c22 24 24 34 24 124
0 85 -3 102 -21 127 l-21 28 -477 3 -476 2 0 285 0 285 394 0 395 0 27 23 c24
21 28 32 32 104 5 83 -7 141 -35 168 -12 13 -73 15 -414 15 l-399 0 0 245 0
245 454 0 c251 0 465 4 479 9 36 14 52 64 52 163 0 73 -4 92 -21 115 l-21 28
-675 3 -675 2 -44 -23z"/>
<path d="M8583 2678 c-22 -11 -46 -32 -52 -45 -16 -35 -15 -1836 1 -1866 16
-30 32 -45 63 -57 17 -6 277 -10 711 -10 l684 0 21 33 c17 28 19 46 17 134 -2
82 -7 106 -21 120 -16 17 -54 18 -495 23 l-477 5 -3 283 -2 282 405 0 405 0
21 33 c17 28 19 46 17 133 -5 158 38 144 -445 144 l-403 0 0 245 0 245 460 0
c322 0 467 3 484 11 33 16 46 56 46 149 0 86 -13 136 -40 150 -12 6 -270 10
-687 10 -661 0 -668 0 -710 -22z"/>
<path d="M10444 2680 c-23 -11 -46 -32 -53 -46 -8 -18 -11 -280 -11 -964 l0
-940 27 -17 c24 -16 52 -18 223 -18 168 0 200 2 228 18 l32 18 0 394 0 395
108 0 c166 0 264 -31 347 -107 48 -45 123 -171 254 -428 68 -132 134 -251 147
-265 24 -25 26 -25 232 -28 250 -4 285 3 290 58 2 29 -21 80 -129 280 -72 135
-149 274 -171 310 -81 129 -175 220 -278 268 -28 13 -39 22 -30 25 275 85 416
204 465 392 29 115 16 247 -37 346 -78 148 -238 246 -489 300 -98 21 -134 23
-609 26 -496 4 -506 4 -546 -17z m969 -319 c143 -47 216 -166 187 -305 -21
-100 -82 -160 -210 -206 -59 -22 -86 -24 -282 -28 l-218 -4 0 287 0 287 228
-4 c201 -4 235 -7 295 -27z"/>
<path d="M6495 433 c-30 -7 -38 -19 -44 -65 -5 -38 -9 -43 -33 -46 -20 -2 -28
-9 -28 -23 0 -14 7 -19 30 -19 l30 0 0 -135 0 -135 25 0 25 0 0 135 0 135 40
0 c33 0 40 3 40 20 0 17 -7 20 -41 20 -39 0 -40 1 -37 33 3 30 6 32 41 32 31
0 37 3 37 21 0 28 -34 39 -85 27z"/>
<path d="M7070 405 c0 -31 3 -35 25 -35 22 0 25 4 25 35 0 31 -3 35 -25 35
-22 0 -25 -4 -25 -35z"/>
<path d="M7640 225 l0 -215 30 0 30 0 0 215 0 215 -30 0 -30 0 0 -215z"/>
<path d="M3690 365 c0 -41 -2 -45 -25 -45 -18 0 -25 -5 -25 -20 0 -15 7 -20
25 -20 l25 0 0 -107 c0 -122 11 -153 55 -164 45 -13 75 -1 75 28 0 13 -4 22
-10 18 -5 -3 -21 -3 -35 1 -25 6 -25 7 -25 115 l0 109 35 0 c28 0 35 4 35 20
0 16 -7 20 -35 20 -35 0 -35 0 -35 45 0 43 -1 45 -30 45 -29 0 -30 -2 -30 -45z"/>
<path d="M8240 365 c0 -41 -2 -45 -25 -45 -18 0 -25 -5 -25 -20 0 -15 7 -20
25 -20 l25 0 0 -107 c0 -122 11 -153 55 -164 45 -13 75 -1 75 28 0 19 -4 23
-19 18 -45 -14 -51 0 -51 116 l0 109 35 0 c28 0 35 4 35 20 0 20 -8 24 -47 20
-21 -1 -23 3 -23 44 0 44 -1 46 -30 46 -29 0 -30 -2 -30 -45z"/>
<path d="M2908 313 c-25 -16 -48 -51 -48 -73 0 -19 52 -11 57 9 9 34 86 52
151 35 25 -7 41 -49 24 -66 -6 -6 -52 -17 -103 -24 -113 -17 -139 -36 -139
-99 0 -51 22 -74 80 -85 50 -9 104 2 140 29 l27 20 11 -25 c10 -20 19 -24 52
-24 37 0 41 2 38 22 -2 13 -9 24 -15 24 -7 1 -17 2 -23 3 -6 0 -10 42 -10 102
0 109 -14 152 -54 163 -46 12 -161 6 -188 -11z m192 -169 c0 -38 -18 -64 -55
-80 -70 -29 -148 -10 -143 35 4 37 50 54 186 70 7 0 12 -10 12 -25z"/>
<path d="M4363 310 c-90 -54 -96 -211 -12 -273 64 -47 180 -39 237 16 41 39
41 57 1 57 -24 0 -30 -4 -25 -16 3 -8 2 -12 -3 -9 -5 3 -12 1 -16 -5 -10 -16
-80 -31 -114 -24 -41 9 -81 47 -81 79 l0 25 141 0 142 0 -6 40 c-11 87 -67
130 -167 130 -47 0 -74 -6 -97 -20z m148 -36 c35 -15 59 -43 59 -72 0 -4 -49
-6 -110 -4 -60 2 -110 7 -110 11 0 5 9 20 20 33 10 14 17 28 15 32 -3 3 -2 4
1 2 3 -2 17 0 32 4 40 12 48 12 93 -6z"/>
<path d="M5217 304 c-32 -29 -37 -30 -37 -4 0 15 -7 20 -25 20 l-25 0 0 -155
0 -155 25 0 c25 0 25 1 25 89 0 48 5 102 11 120 13 36 53 61 99 61 25 0 30 4
30 24 0 22 -4 25 -39 24 -26 0 -47 -8 -64 -24z"/>
<path d="M8909 306 c-63 -43 -87 -134 -55 -209 13 -32 56 -78 56 -61 0 5 4 3
9 -5 12 -19 84 -30 138 -20 48 9 113 59 113 86 0 21 -58 16 -70 -6 -13 -26
-73 -45 -114 -37 -44 8 -86 48 -86 81 l0 25 140 0 140 0 0 28 c-1 41 -31 94
-69 119 -50 34 -152 33 -202 -1z m159 -36 c23 -10 42 -23 42 -29 0 -5 3 -16 6
-25 5 -14 -8 -16 -105 -16 -116 0 -126 4 -97 42 14 19 71 47 96 47 8 0 34 -8
58 -19z"/>
<path d="M9766 305 c-33 -30 -36 -31 -36 -5 0 15 -7 20 -25 20 l-25 0 0 -155
0 -155 25 0 c25 0 25 0 25 95 0 52 5 106 12 120 14 32 56 55 98 55 25 0 30 4
30 25 0 22 -4 25 -39 25 -27 0 -46 -7 -65 -25z"/>
<path d="M10381 315 c-32 -18 -41 -34 -41 -77 0 -57 30 -76 150 -94 61 -9 80
-20 80 -48 0 -29 -36 -46 -96 -46 -37 0 -51 5 -76 30 -27 27 -78 42 -78 23 0
-18 40 -73 61 -83 12 -7 55 -12 95 -12 112 0 165 40 149 113 -9 38 -37 57
-111 70 -101 18 -124 28 -124 54 0 30 26 45 77 45 55 0 82 -10 88 -31 6 -19
50 -37 62 -26 12 12 -21 68 -48 82 -35 19 -155 18 -188 0z"/>
<path d="M1870 311 c0 -6 7 -25 14 -43 8 -18 34 -84 57 -146 42 -112 43 -113
72 -110 30 3 32 7 68 121 20 65 39 121 42 124 3 3 13 -21 22 -53 58 -207 53
-195 87 -192 31 3 33 7 90 153 32 83 58 151 58 153 0 2 -14 2 -32 0 -31 -3
-32 -5 -71 -126 -22 -67 -43 -119 -47 -115 -4 4 -14 37 -24 73 -46 175 -44
170 -81 170 -32 0 -33 -1 -55 -72 -45 -152 -54 -178 -59 -172 -3 2 -21 58 -41
122 -36 115 -37 117 -68 120 -18 2 -32 -1 -32 -7z"/>
<path d="M7070 165 l0 -155 25 0 25 0 0 155 0 155 -25 0 -25 0 0 -155z"/>
</g>
</svg>
