<?xml version="1.0" encoding="UTF-8" standalone="no"?>
<svg
   height="297mm"
   width="210mm"
   version="1.1"
   id="e8fc2cea-ad9a-11f0-bff3-0242ac110003"
   sodipodi:docname="logo_(white on green).svg"
   xml:space="preserve"
   inkscape:version="1.4 (86a8ad7, 2024-10-11)"
   xmlns:inkscape="http://www.inkscape.org/namespaces/inkscape"
   xmlns:sodipodi="http://sodipodi.sourceforge.net/DTD/sodipodi-0.dtd"
   xmlns="http://www.w3.org/2000/svg"
   xmlns:svg="http://www.w3.org/2000/svg"><defs
     id="defs1"><clipPath
       id="clipPath18"
       clipPathUnits="userSpaceOnUse"><path
         id="path16"
         d="M 0,595.28 H 841.89 V 0 H 0 Z" /></clipPath></defs><sodipodi:namedview
     id="namedview1"
     pagecolor="#505050"
     bordercolor="#eeeeee"
     borderopacity="1"
     inkscape:showpageshadow="0"
     inkscape:pageopacity="0"
     inkscape:pagecheckerboard="0"
     inkscape:deskcolor="#505050"
     showborder="true"
     inkscape:zoom="1.2152918"
     inkscape:cx="1194.7748"
     inkscape:cy="167.4495"
     inkscape:window-width="2560"
     inkscape:window-height="1369"
     inkscape:window-x="2552"
     inkscape:window-y="-8"
     inkscape:window-maximized="1"
     inkscape:current-layer="g2"
     inkscape:document-units="mm" /><g
     id="g2"
     transform="translate(1415.0377,1277.3353)"
     inkscape:export-filename="geyser-Logo (white on green).png"
     inkscape:export-xdpi="96"
     inkscape:export-ydpi="96"><rect
       style="fill:#218b29;fill-opacity:1;stroke:none;stroke-width:1.68539;stroke-linecap:round;stroke-linejoin:round;stroke-miterlimit:10;paint-order:fill markers stroke"
       id="rect27"
       width="807.03052"
       height="132.33665"
       x="-538.1438"
       y="-1246.6567"
       ry="0"
       inkscape:export-filename="geyser-Logo-return (white on green).png"
       inkscape:export-xdpi="96"
       inkscape:export-ydpi="96" /><g
       id="g26"><rect
         style="fill:#218b29;fill-opacity:1;stroke:none;stroke-width:1.83586;stroke-linecap:round;stroke-linejoin:round;stroke-miterlimit:10;paint-order:fill markers stroke"
         id="rect2"
         width="697.06256"
         height="181.79315"
         x="-1352.1395"
         y="-1246.6567"
         ry="0"
         inkscape:export-filename="geyser-Logo-return (white on green).png"
         inkscape:export-xdpi="96"
         inkscape:export-ydpi="96" /><g
         clip-path="url(#clipPath18)"
         id="g25"
         transform="matrix(1.3333333,0,0,-1.3333333,-1564.1041,-765.96034)"
         style="fill:#ffffff;fill-opacity:1"><g
           id="g23"
           transform="translate(0.88722732,0.25144048)"
           style="fill:#ffffff;fill-opacity:1"><g
             transform="translate(261.2773,338.9099)"
             id="g3"
             style="fill:#ffffff;fill-opacity:1"><path
               id="path3"
               style="fill:#ffffff;fill-opacity:1;fill-rule:nonzero;stroke:none"
               d="m 0,0 c 0,-1.212 -0.066,-2.255 -0.204,-3.135 -0.131,-0.873 -0.32,-1.575 -0.559,-2.1 -0.24,-0.52 -0.535,-0.889 -0.881,-1.096 -0.345,-0.209 -0.765,-0.31 -1.242,-0.31 -0.688,0 -1.806,0.375 -3.353,1.127 -1.545,0.753 -3.603,1.565 -6.159,2.443 -2.56,0.877 -5.61,1.693 -9.152,2.445 -3.551,0.759 -7.661,1.131 -12.356,1.131 -5.012,0 -9.548,-0.681 -13.598,-2.04 -4.056,-1.358 -7.514,-3.283 -10.395,-5.763 -2.877,-2.492 -5.095,-5.48 -6.64,-8.97 -1.544,-3.492 -2.317,-7.343 -2.317,-11.568 0,-4.638 0.784,-8.724 2.356,-12.255 1.575,-3.534 3.774,-6.491 6.601,-8.872 2.82,-2.381 6.22,-4.181 10.194,-5.39 3.971,-1.214 8.359,-1.82 13.154,-1.82 2.347,0 4.664,0.206 6.96,0.624 2.287,0.422 4.425,1.046 6.395,1.883 v 18.812 h -19.59 c -0.96,0 -1.705,0.469 -2.239,1.408 -0.534,0.943 -0.798,2.539 -0.798,4.798 0,1.163 0.061,2.152 0.196,2.944 0.136,0.793 0.336,1.432 0.602,1.912 0.263,0.482 0.586,0.836 0.958,1.064 0.375,0.232 0.801,0.349 1.281,0.349 h 34.942 c 0.858,0 1.616,-0.117 2.281,-0.349 0.665,-0.228 1.255,-0.57 1.763,-1.032 0.502,-0.458 0.891,-1.013 1.16,-1.664 0.264,-0.649 0.391,-1.386 0.391,-2.224 v -32.286 c 0,-1.254 -0.275,-2.353 -0.829,-3.293 -0.566,-0.942 -1.71,-1.68 -3.442,-2.224 -1.737,-0.544 -3.883,-1.111 -6.438,-1.694 -2.557,-0.584 -5.216,-1.087 -7.959,-1.502 -2.75,-0.419 -5.522,-0.737 -8.318,-0.943 -2.798,-0.206 -5.609,-0.311 -8.436,-0.311 -8.263,0 -15.658,0.93 -22.188,2.788 -6.532,1.86 -12.063,4.551 -16.594,8.088 -4.536,3.531 -7.997,7.834 -10.399,12.914 -2.396,5.078 -3.597,10.835 -3.597,17.272 0,6.646 1.28,12.613 3.841,17.901 2.558,5.288 6.182,9.782 10.875,13.481 4.688,3.695 10.357,6.528 16.993,8.495 6.64,1.962 14.033,2.945 22.189,2.945 4.479,0 8.559,-0.239 12.236,-0.722 3.679,-0.479 6.886,-1.065 9.641,-1.754 2.745,-0.692 5.018,-1.432 6.83,-2.224 C -4.031,8.488 -2.761,7.796 -2.042,7.21 -1.325,6.624 -0.806,5.802 -0.482,4.736 -0.163,3.669 0,2.091 0,0" /></g><g
             transform="translate(336.4121,276.8435)"
             id="g4"
             style="fill:#ffffff;fill-opacity:1"><path
               id="path4"
               style="fill:#ffffff;fill-opacity:1;fill-rule:nonzero;stroke:none"
               d="m 0,0 c 0,-1.215 -0.071,-2.225 -0.209,-3.035 -0.127,-0.82 -0.327,-1.479 -0.593,-1.981 -0.267,-0.498 -0.598,-0.865 -1.006,-1.1 -0.395,-0.228 -0.837,-0.34 -1.311,-0.34 h -51.975 c -1.768,0 -3.242,0.407 -4.449,1.227 -1.199,0.811 -1.794,2.134 -1.794,3.978 v 70.718 c 0,1.837 0.595,3.166 1.794,3.98 1.207,0.816 2.681,1.22 4.449,1.22 h 51.651 c 0.479,0 0.904,-0.103 1.276,-0.311 0.378,-0.211 0.696,-0.577 0.966,-1.099 0.267,-0.522 0.461,-1.191 0.598,-2 0.132,-0.82 0.194,-1.854 0.194,-3.108 0,-1.17 -0.062,-2.164 -0.194,-2.976 -0.137,-0.816 -0.331,-1.472 -0.598,-1.976 -0.27,-0.503 -0.588,-0.865 -0.966,-1.095 -0.372,-0.233 -0.797,-0.348 -1.276,-0.348 H -40.386 V 41.944 H -9.12 c 0.476,0 0.915,-0.117 1.32,-0.347 0.397,-0.229 0.735,-0.586 0.995,-1.064 0.263,-0.481 0.467,-1.131 0.607,-1.941 0.13,-0.816 0.196,-1.813 0.196,-2.977 0,-1.215 -0.066,-2.22 -0.196,-3.017 -0.14,-0.793 -0.344,-1.429 -0.607,-1.907 C -7.065,30.21 -7.403,29.861 -7.8,29.655 -8.205,29.446 -8.644,29.34 -9.12,29.34 H -40.386 V 6.457 h 37.267 c 0.474,0 0.916,-0.116 1.311,-0.345 C -1.4,5.887 -1.069,5.518 -0.802,5.017 -0.536,4.516 -0.336,3.856 -0.209,3.041 -0.071,2.226 0,1.216 0,0" /></g><g
             transform="translate(400.1602,301.1701)"
             id="g5"
             style="fill:#ffffff;fill-opacity:1"><path
               id="path5"
               style="fill:#ffffff;fill-opacity:1;fill-rule:nonzero;stroke:none"
               d="m 0,0 v -28.527 c 0,-0.422 -0.173,-0.798 -0.519,-1.129 -0.342,-0.334 -0.919,-0.601 -1.717,-0.816 -0.804,-0.206 -1.883,-0.376 -3.239,-0.498 -1.361,-0.125 -3.056,-0.193 -5.081,-0.193 -2.079,0 -3.78,0.068 -5.119,0.193 -1.331,0.122 -2.414,0.292 -3.236,0.498 -0.827,0.215 -1.398,0.482 -1.72,0.816 -0.322,0.331 -0.483,0.707 -0.483,1.129 V 0 l -28.303,44.198 c -1.018,1.546 -1.672,2.749 -1.964,3.604 -0.29,0.856 -0.132,1.503 0.48,1.945 0.616,0.441 1.744,0.713 3.397,0.817 1.656,0.104 3.951,0.152 6.882,0.152 2.454,0 4.406,-0.038 5.871,-0.121 1.473,-0.087 2.634,-0.241 3.479,-0.471 0.855,-0.233 1.486,-0.536 1.88,-0.911 0.402,-0.374 0.794,-0.858 1.163,-1.441 L -16.71,27.836 c 1.121,-1.925 2.223,-3.951 3.314,-6.081 1.097,-2.131 2.202,-4.367 3.321,-6.707 h 0.158 c 1.015,2.255 2.051,4.448 3.124,6.579 1.066,2.133 2.097,4.16 3.114,6.083 L 7.683,47.522 c 0.262,0.67 0.593,1.199 0.988,1.599 0.409,0.394 1.001,0.722 1.808,0.969 0.801,0.251 1.888,0.418 3.279,0.505 1.381,0.083 3.224,0.121 5.518,0.121 3.035,0 5.394,-0.048 7.075,-0.152 1.68,-0.104 2.826,-0.376 3.443,-0.817 0.604,-0.442 0.755,-1.098 0.434,-1.975 -0.32,-0.874 -0.961,-2.067 -1.915,-3.574 z" /></g><g
             transform="translate(503.0029,294.7116)"
             id="g6"
             style="fill:#ffffff;fill-opacity:1"><path
               id="path6"
               style="fill:#ffffff;fill-opacity:1;fill-rule:nonzero;stroke:none"
               d="m 0,0 c 0,-4.261 -1.015,-8.003 -3.039,-11.221 -2.025,-3.22 -4.773,-5.904 -8.238,-8.059 -3.455,-2.149 -7.517,-3.772 -12.154,-4.855 -4.641,-1.091 -9.592,-1.634 -14.874,-1.634 -3.572,0 -6.89,0.231 -9.949,0.69 -3.071,0.465 -5.779,1.016 -8.126,1.665 -2.345,0.643 -4.302,1.322 -5.874,2.036 -1.576,0.71 -2.703,1.336 -3.397,1.883 -0.7,0.544 -1.186,1.323 -1.484,2.345 -0.297,1.025 -0.432,2.498 -0.432,4.419 0,1.299 0.043,2.387 0.157,3.263 0.103,0.88 0.275,1.591 0.518,2.131 0.245,0.542 0.561,0.929 0.969,1.165 0.394,0.229 0.857,0.343 1.39,0.343 0.751,0 1.802,-0.343 3.154,-1.037 1.359,-0.685 3.103,-1.451 5.232,-2.286 2.138,-0.839 4.689,-1.601 7.651,-2.289 2.959,-0.689 6.38,-1.037 10.275,-1.037 2.555,0 4.852,0.24 6.872,0.722 2.03,0.483 3.746,1.158 5.156,2.041 1.413,0.875 2.496,1.961 3.244,3.258 0.75,1.295 1.118,2.738 1.118,4.33 0,1.835 -0.644,3.412 -1.914,4.73 -1.287,1.315 -2.949,2.485 -4.999,3.511 -2.057,1.018 -4.39,1.984 -7.001,2.884 -2.611,0.896 -5.307,1.85 -8.075,2.85 -2.773,1.006 -5.463,2.144 -8.075,3.421 -2.617,1.268 -4.944,2.795 -6.998,4.575 -2.054,1.779 -3.723,3.873 -4.997,6.303 -1.285,2.416 -1.919,5.328 -1.919,8.711 0,3.887 0.91,7.304 2.753,10.252 1.84,2.946 4.326,5.391 7.444,7.334 3.116,1.94 6.795,3.397 11.026,4.355 4.241,0.961 8.73,1.443 13.48,1.443 2.448,0 4.904,-0.146 7.361,-0.439 2.453,-0.29 4.737,-0.688 6.872,-1.191 2.141,-0.502 4.03,-1.063 5.676,-1.69 1.651,-0.63 2.754,-1.15 3.282,-1.566 0.535,-0.421 0.889,-0.775 1.079,-1.065 0.185,-0.297 0.347,-0.683 0.48,-1.163 0.133,-0.481 0.217,-1.086 0.282,-1.818 0.053,-0.73 0.086,-1.641 0.086,-2.728 0,-1.211 -0.047,-2.237 -0.127,-3.071 -0.083,-0.836 -0.218,-1.526 -0.4,-2.072 -0.18,-0.539 -0.453,-0.94 -0.801,-1.189 -0.352,-0.252 -0.823,-0.374 -1.403,-0.374 -0.583,0 -1.512,0.287 -2.795,0.874 -1.274,0.584 -2.861,1.224 -4.714,1.914 -1.871,0.691 -4.031,1.318 -6.483,1.878 -2.455,0.568 -5.141,0.853 -8.076,0.853 -2.292,0 -4.291,-0.222 -5.994,-0.661 -1.712,-0.44 -3.137,-1.046 -4.287,-1.817 -1.142,-0.778 -1.988,-1.706 -2.557,-2.793 -0.553,-1.09 -0.829,-2.234 -0.829,-3.445 0,-1.804 0.624,-3.354 1.875,-4.673 1.251,-1.318 2.931,-2.487 5.038,-3.509 2.1,-1.026 4.486,-1.99 7.159,-2.882 2.657,-0.904 5.379,-1.854 8.148,-2.858 2.779,-1 5.49,-2.14 8.164,-3.416 2.662,-1.277 5.028,-2.804 7.116,-4.575 2.074,-1.78 3.76,-3.867 5.028,-6.272 C -0.634,6.093 0,3.259 0,0" /></g><g
             transform="translate(578.3262,276.8435)"
             id="g7"
             style="fill:#ffffff;fill-opacity:1"><path
               id="path7"
               style="fill:#ffffff;fill-opacity:1;fill-rule:nonzero;stroke:none"
               d="m 0,0 c 0,-1.215 -0.069,-2.225 -0.199,-3.035 -0.139,-0.82 -0.337,-1.479 -0.609,-1.981 -0.258,-0.498 -0.587,-0.865 -0.992,-1.1 -0.4,-0.228 -0.84,-0.34 -1.321,-0.34 h -51.983 c -1.75,0 -3.237,0.407 -4.431,1.227 -1.203,0.811 -1.805,2.134 -1.805,3.978 v 70.718 c 0,1.837 0.602,3.166 1.805,3.98 1.194,0.816 2.681,1.22 4.431,1.22 h 51.668 c 0.477,0 0.91,-0.103 1.269,-0.311 0.381,-0.211 0.7,-0.577 0.966,-1.099 0.264,-0.522 0.471,-1.191 0.593,-2 0.139,-0.82 0.209,-1.854 0.209,-3.108 0,-1.17 -0.07,-2.164 -0.209,-2.976 -0.122,-0.816 -0.329,-1.472 -0.593,-1.976 -0.266,-0.503 -0.585,-0.865 -0.966,-1.095 -0.359,-0.233 -0.792,-0.348 -1.269,-0.348 H -40.38 v -19.81 h 31.257 c 0.482,0 0.923,-0.117 1.329,-0.347 0.393,-0.229 0.726,-0.586 1.002,-1.064 0.259,-0.481 0.458,-1.131 0.594,-1.941 0.133,-0.816 0.204,-1.813 0.204,-2.977 0,-1.215 -0.071,-2.22 -0.204,-3.017 C -6.334,31.805 -6.533,31.169 -6.792,30.691 -7.068,30.21 -7.401,29.861 -7.794,29.655 -8.2,29.446 -8.641,29.34 -9.123,29.34 H -40.38 V 6.457 H -3.121 C -2.64,6.457 -2.2,6.341 -1.8,6.112 -1.395,5.887 -1.066,5.518 -0.808,5.017 -0.536,4.516 -0.338,3.856 -0.199,3.041 -0.069,2.226 0,1.216 0,0" /></g><g
             transform="translate(641.7148,327.5642)"
             id="g8"
             style="fill:#ffffff;fill-opacity:1"><path
               id="path8"
               style="fill:#ffffff;fill-opacity:1;fill-rule:nonzero;stroke:none"
               d="m 0,0 c 0,2.674 -0.774,4.932 -2.32,6.77 -1.543,1.837 -4.072,3.136 -7.592,3.889 -1.067,0.206 -2.282,0.374 -3.642,0.5 -1.354,0.125 -3.237,0.187 -5.633,0.187 h -9.434 v -23.009 h 10.71 c 2.988,0 5.597,0.281 7.841,0.847 2.234,0.566 4.099,1.359 5.591,2.381 1.491,1.026 2.618,2.249 3.36,3.668 C -0.376,-3.343 0,-1.755 0,0 m 27.113,-55.048 c 0,-0.461 -0.108,-0.842 -0.324,-1.16 -0.215,-0.313 -0.717,-0.569 -1.518,-0.779 -0.794,-0.212 -1.972,-0.358 -3.517,-0.444 -1.548,-0.082 -3.647,-0.126 -6.319,-0.126 -2.231,0 -4.017,0.044 -5.355,0.126 -1.336,0.086 -2.393,0.248 -3.162,0.472 -0.761,0.229 -1.314,0.522 -1.636,0.873 -0.319,0.361 -0.588,0.789 -0.805,1.292 l -9.267,18.115 c -1.13,2.048 -2.216,3.866 -3.286,5.457 -1.059,1.589 -2.248,2.915 -3.555,3.979 -1.305,1.068 -2.813,1.872 -4.515,2.416 -1.708,0.544 -3.681,0.815 -5.922,0.815 h -6.553 v -30.909 c 0,-0.422 -0.176,-0.798 -0.525,-1.129 -0.35,-0.334 -0.915,-0.601 -1.717,-0.816 -0.798,-0.206 -1.866,-0.376 -3.199,-0.498 -1.34,-0.125 -3.038,-0.193 -5.124,-0.193 -2.029,0 -3.71,0.068 -5.078,0.193 -1.353,0.122 -2.433,0.292 -3.232,0.498 -0.804,0.215 -1.366,0.482 -1.683,0.816 -0.326,0.331 -0.48,0.707 -0.48,1.129 v 73.668 c 0,1.836 0.602,3.166 1.799,3.98 1.21,0.815 2.685,1.22 4.444,1.22 h 26.781 c 2.731,0 4.961,-0.039 6.723,-0.123 1.763,-0.085 3.361,-0.189 4.798,-0.315 4.157,-0.46 7.91,-1.254 11.231,-2.381 3.335,-1.128 6.164,-2.603 8.481,-4.42 2.315,-1.821 4.094,-3.969 5.324,-6.458 1.224,-2.485 1.832,-5.344 1.832,-8.555 0,-2.72 -0.438,-5.198 -1.318,-7.431 -0.882,-2.233 -2.167,-4.231 -3.88,-5.988 -1.702,-1.756 -3.809,-3.285 -6.318,-4.578 -2.504,-1.295 -5.359,-2.337 -8.552,-3.129 1.54,-0.59 2.994,-1.302 4.352,-2.134 1.359,-0.838 2.647,-1.852 3.838,-3.045 1.208,-1.191 2.34,-2.55 3.4,-4.073 1.067,-1.525 2.1,-3.247 3.122,-5.169 l 8.716,-15.991 c 0.795,-1.589 1.323,-2.75 1.596,-3.478 0.269,-0.735 0.403,-1.305 0.403,-1.727" /></g><g
             transform="translate(251.1343,247.0398)"
             id="g9"
             style="fill:#ffffff;fill-opacity:1"><path
               id="path9"
               style="fill:#ffffff;fill-opacity:1;fill-rule:nonzero;stroke:none"
               d="M 0,0 3.377,-10.857 6.705,0 H 9.376 L 12.509,-10.857 16.056,0 H 18.8 L 13.748,-13.068 H 11.076 L 7.992,-2.356 4.76,-13.068 H 2.064 L -2.867,0 Z" /></g><g
             transform="translate(294.6274,239.7771)"
             id="g10"
             style="fill:#ffffff;fill-opacity:1"><path
               id="path10"
               style="fill:#ffffff;fill-opacity:1;fill-rule:nonzero;stroke:none"
               d="m 0,0 c -2.55,-0.292 -3.96,-0.511 -3.96,-2.112 0,-1.241 1.044,-2.067 2.89,-2.067 3.013,0 5.029,1.483 5.029,3.135 V 0.899 C 3.279,0.485 1.967,0.219 0,0 m -1.458,-6.171 c -3.279,0 -5.004,1.508 -5.004,3.936 0,3.037 2.308,3.668 6.025,4.082 2.89,0.314 4.396,0.242 4.396,1.821 0,1.408 -1.093,2.016 -3.449,2.016 -2.648,0 -3.886,-0.753 -4.008,-2.623 h -2.454 c 0.17,3.085 2.285,4.615 6.292,4.615 4.347,0 5.975,-1.142 5.975,-4.324 v -5.294 c 0,-1.362 0.244,-2.018 1.165,-2.018 0.196,0 0.415,0.025 0.706,0.074 v -1.896 c -0.754,-0.121 -1.434,-0.17 -1.871,-0.17 -1.36,0 -2.04,0.754 -2.283,2.162 -1.19,-1.506 -3.085,-2.381 -5.49,-2.381" /></g><g
             transform="translate(324.9316,250.3669)"
             id="g11"
             style="fill:#ffffff;fill-opacity:1"><path
               id="path11"
               style="fill:#ffffff;fill-opacity:1;fill-rule:nonzero;stroke:none"
               d="M 0,0 V -3.327 H 3.206 V -5.319 H 0 v -7.748 c 0,-1.094 0.437,-1.506 1.602,-1.506 0.462,0 0.972,0.049 1.604,0.193 v -2.162 c -0.802,-0.121 -1.53,-0.219 -2.186,-0.219 -2.309,0 -3.377,0.973 -3.377,3.014 v 8.428 H -4.64 v 1.992 h 2.283 V 0 Z" /></g><g
             transform="translate(358.2266,241.696)"
             id="g12"
             style="fill:#ffffff;fill-opacity:1"><path
               id="path12"
               style="fill:#ffffff;fill-opacity:1;fill-rule:nonzero;stroke:none"
               d="M 0,0 C -0.365,2.21 -2.064,3.57 -4.591,3.57 -7.093,3.57 -8.818,2.234 -9.207,0 Z m -9.255,-1.676 c 0,-2.551 1.871,-4.226 4.664,-4.226 2.064,0 3.619,0.8 4.154,2.234 H 2.308 C 1.385,-6.486 -1.117,-8.09 -4.591,-8.09 c -4.397,0 -7.166,2.674 -7.166,6.875 0,4.227 2.793,6.972 7.166,6.972 4.47,0 7.116,-2.623 7.116,-6.972 v -0.461 z" /></g><g
             transform="translate(382.7495,244.8298)"
             id="g13"
             style="fill:#ffffff;fill-opacity:1"><path
               id="path13"
               style="fill:#ffffff;fill-opacity:1;fill-rule:nonzero;stroke:none"
               d="m 0,0 c 1.19,1.725 2.867,2.623 4.81,2.623 0.413,0 0.729,-0.049 1.044,-0.219 V -0.073 C 5.199,0.121 4.664,0.193 4.154,0.193 1.918,0.193 0,-1.701 0,-4.47 v -6.388 H -2.355 V 2.21 H 0 Z" /></g><g
             transform="translate(439.1367,249.2751)"
             id="g15"
             style="fill:#ffffff;fill-opacity:1"><path
               id="path14"
               style="fill:#ffffff;fill-opacity:1;fill-rule:nonzero;stroke:none"
               d="m 0,0 c -0.607,0.121 -1.117,0.145 -1.578,0.145 -1.215,0 -1.629,-0.364 -1.629,-1.506 V -2.235 H 0 V -4.228 H -3.207 V -15.304 H -5.562 V -4.228 H -7.87 v 1.993 h 2.308 v 1.36 c 0,2.234 1.019,3.207 3.376,3.207 0.778,0 1.481,-0.049 2.186,-0.195 z" /></g><path
             id="path15"
             style="fill:#ffffff;fill-opacity:1;fill-rule:nonzero;stroke:none"
             d="m 460.868,233.971 h -2.355 v 13.068 h 2.355 z m -2.355,17.636 h 2.355 v -2.867 h -2.355 z" /><path
             id="path17"
             style="fill:#ffffff;fill-opacity:1;fill-rule:nonzero;stroke:none"
             d="m 484.106,233.971 h -2.355 v 17.636 h 2.355 z" /><g
             transform="translate(508.2451,250.3669)"
             id="g18"
             style="fill:#ffffff;fill-opacity:1"><path
               id="path18"
               style="fill:#ffffff;fill-opacity:1;fill-rule:nonzero;stroke:none"
               d="M 0,0 V -3.327 H 3.207 V -5.319 H 0 v -7.748 c 0,-1.094 0.437,-1.506 1.603,-1.506 0.46,0 0.971,0.049 1.604,0.193 v -2.162 c -0.804,-0.121 -1.531,-0.219 -2.187,-0.219 -2.308,0 -3.375,0.973 -3.375,3.014 v 8.428 H -4.64 v 1.992 h 2.285 V 0 Z" /></g><g
             transform="translate(541.54,241.696)"
             id="g19"
             style="fill:#ffffff;fill-opacity:1"><path
               id="path19"
               style="fill:#ffffff;fill-opacity:1;fill-rule:nonzero;stroke:none"
               d="M 0,0 C -0.363,2.21 -2.065,3.57 -4.59,3.57 -7.093,3.57 -8.816,2.234 -9.206,0 Z m -9.254,-1.676 c 0,-2.551 1.868,-4.226 4.664,-4.226 2.064,0 3.617,0.8 4.153,2.234 H 2.309 C 1.384,-6.486 -1.117,-8.09 -4.59,-8.09 c -4.397,0 -7.167,2.674 -7.167,6.875 0,4.227 2.793,6.972 7.167,6.972 4.469,0 7.117,-2.623 7.117,-6.972 v -0.461 z" /></g><g
             transform="translate(566.0635,244.8298)"
             id="g21"
             style="fill:#ffffff;fill-opacity:1"><path
               id="path20"
               style="fill:#ffffff;fill-opacity:1;fill-rule:nonzero;stroke:none"
               d="m 0,0 c 1.19,1.725 2.866,2.623 4.809,2.623 0.413,0 0.729,-0.049 1.045,-0.219 V -0.073 C 5.198,0.121 4.663,0.193 4.152,0.193 1.918,0.193 0,-1.701 0,-4.47 v -6.388 H -2.355 V 2.21 H 0 Z" /></g><g
             transform="translate(599.8457,243.1052)"
             id="g22"
             style="fill:#ffffff;fill-opacity:1"><path
               id="path21"
               style="fill:#ffffff;fill-opacity:1;fill-rule:nonzero;stroke:none"
               d="m 0,0 c -0.172,1.627 -1.434,2.355 -3.792,2.355 -2.211,0 -3.399,-0.63 -3.399,-1.749 0,-1.262 0.972,-1.505 2.962,-1.845 L -1.41,-1.7 c 2.914,-0.487 4.105,-1.362 4.105,-3.717 0,-2.648 -2.163,-4.082 -6.437,-4.082 -4.058,0 -6.12,1.41 -6.413,4.617 h 2.574 c 0.219,-1.678 1.578,-2.625 3.839,-2.625 2.672,0 4.082,0.778 4.082,1.969 0,1.019 -0.731,1.359 -2.382,1.627 l -2.914,0.51 c -3.063,0.509 -4.591,1.19 -4.591,3.595 0,2.697 1.989,4.154 5.879,4.154 3.91,0 5.949,-1.531 5.949,-4.348 z" /></g></g></g></g><g
       clip-path="url(#clipPath18)"
       id="g14"
       transform="matrix(1.3333333,0,0,-1.3333333,-640.14035,-765.96034)"
       style="fill:#ffffff;fill-opacity:1"><g
         id="g1"
         transform="translate(0.88722732,0.25144048)"
         style="fill:#ffffff;fill-opacity:1"><g
           transform="translate(251.1343,247.0398)"
           id="g44"
           style="fill:#ffffff;fill-opacity:1"><path
             id="path46"
             style="fill:#ffffff;fill-opacity:1;fill-rule:nonzero;stroke:none"
             d="M 0,0 3.377,-10.857 6.705,0 H 9.376 L 12.509,-10.857 16.056,0 H 18.8 L 13.748,-13.068 H 11.076 L 7.992,-2.356 4.76,-13.068 H 2.064 L -2.867,0 Z" /></g><g
           transform="translate(294.6274,239.7771)"
           id="g48"
           style="fill:#ffffff;fill-opacity:1"><path
             id="path50"
             style="fill:#ffffff;fill-opacity:1;fill-rule:nonzero;stroke:none"
             d="m 0,0 c -2.55,-0.292 -3.96,-0.511 -3.96,-2.112 0,-1.241 1.044,-2.067 2.89,-2.067 3.013,0 5.029,1.483 5.029,3.135 V 0.899 C 3.279,0.485 1.967,0.219 0,0 m -1.458,-6.171 c -3.279,0 -5.004,1.508 -5.004,3.936 0,3.037 2.308,3.668 6.025,4.082 2.89,0.314 4.396,0.242 4.396,1.821 0,1.408 -1.093,2.016 -3.449,2.016 -2.648,0 -3.886,-0.753 -4.008,-2.623 h -2.454 c 0.17,3.085 2.285,4.615 6.292,4.615 4.347,0 5.975,-1.142 5.975,-4.324 v -5.294 c 0,-1.362 0.244,-2.018 1.165,-2.018 0.196,0 0.415,0.025 0.706,0.074 v -1.896 c -0.754,-0.121 -1.434,-0.17 -1.871,-0.17 -1.36,0 -2.04,0.754 -2.283,2.162 -1.19,-1.506 -3.085,-2.381 -5.49,-2.381" /></g><g
           transform="translate(324.9316,250.3669)"
           id="g52"
           style="fill:#ffffff;fill-opacity:1"><path
             id="path54"
             style="fill:#ffffff;fill-opacity:1;fill-rule:nonzero;stroke:none"
             d="M 0,0 V -3.327 H 3.206 V -5.319 H 0 v -7.748 c 0,-1.094 0.437,-1.506 1.602,-1.506 0.462,0 0.972,0.049 1.604,0.193 v -2.162 c -0.802,-0.121 -1.53,-0.219 -2.186,-0.219 -2.309,0 -3.377,0.973 -3.377,3.014 v 8.428 H -4.64 v 1.992 h 2.283 V 0 Z" /></g><g
           transform="translate(358.2266,241.696)"
           id="g56"
           style="fill:#ffffff;fill-opacity:1"><path
             id="path58"
             style="fill:#ffffff;fill-opacity:1;fill-rule:nonzero;stroke:none"
             d="M 0,0 C -0.365,2.21 -2.064,3.57 -4.591,3.57 -7.093,3.57 -8.818,2.234 -9.207,0 Z m -9.255,-1.676 c 0,-2.551 1.871,-4.226 4.664,-4.226 2.064,0 3.619,0.8 4.154,2.234 H 2.308 C 1.385,-6.486 -1.117,-8.09 -4.591,-8.09 c -4.397,0 -7.166,2.674 -7.166,6.875 0,4.227 2.793,6.972 7.166,6.972 4.47,0 7.116,-2.623 7.116,-6.972 v -0.461 z" /></g><g
           transform="translate(382.7495,244.8298)"
           id="g60"
           style="fill:#ffffff;fill-opacity:1"><path
             id="path62"
             style="fill:#ffffff;fill-opacity:1;fill-rule:nonzero;stroke:none"
             d="m 0,0 c 1.19,1.725 2.867,2.623 4.81,2.623 0.413,0 0.729,-0.049 1.044,-0.219 V -0.073 C 5.199,0.121 4.664,0.193 4.154,0.193 1.918,0.193 0,-1.701 0,-4.47 v -6.388 H -2.355 V 2.21 H 0 Z" /></g><g
           transform="translate(439.1367,249.2751)"
           id="g64"
           style="fill:#ffffff;fill-opacity:1"><path
             id="path66"
             style="fill:#ffffff;fill-opacity:1;fill-rule:nonzero;stroke:none"
             d="m 0,0 c -0.607,0.121 -1.117,0.145 -1.578,0.145 -1.215,0 -1.629,-0.364 -1.629,-1.506 V -2.235 H 0 V -4.228 H -3.207 V -15.304 H -5.562 V -4.228 H -7.87 v 1.993 h 2.308 v 1.36 c 0,2.234 1.019,3.207 3.376,3.207 0.778,0 1.481,-0.049 2.186,-0.195 z" /></g><path
           id="path68"
           style="fill:#ffffff;fill-opacity:1;fill-rule:nonzero;stroke:none"
           d="m 460.868,233.971 h -2.355 v 13.068 h 2.355 z m -2.355,17.636 h 2.355 v -2.867 h -2.355 z" /><path
           id="path70"
           style="fill:#ffffff;fill-opacity:1;fill-rule:nonzero;stroke:none"
           d="m 484.106,233.971 h -2.355 v 17.636 h 2.355 z" /><g
           transform="translate(508.2451,250.3669)"
           id="g72"
           style="fill:#ffffff;fill-opacity:1"><path
             id="path74"
             style="fill:#ffffff;fill-opacity:1;fill-rule:nonzero;stroke:none"
             d="M 0,0 V -3.327 H 3.207 V -5.319 H 0 v -7.748 c 0,-1.094 0.437,-1.506 1.603,-1.506 0.46,0 0.971,0.049 1.604,0.193 v -2.162 c -0.804,-0.121 -1.531,-0.219 -2.187,-0.219 -2.308,0 -3.375,0.973 -3.375,3.014 v 8.428 H -4.64 v 1.992 h 2.285 V 0 Z" /></g><g
           transform="translate(541.54,241.696)"
           id="g76"
           style="fill:#ffffff;fill-opacity:1"><path
             id="path78"
             style="fill:#ffffff;fill-opacity:1;fill-rule:nonzero;stroke:none"
             d="M 0,0 C -0.363,2.21 -2.065,3.57 -4.59,3.57 -7.093,3.57 -8.816,2.234 -9.206,0 Z m -9.254,-1.676 c 0,-2.551 1.868,-4.226 4.664,-4.226 2.064,0 3.617,0.8 4.153,2.234 H 2.309 C 1.384,-6.486 -1.117,-8.09 -4.59,-8.09 c -4.397,0 -7.167,2.674 -7.167,6.875 0,4.227 2.793,6.972 7.167,6.972 4.469,0 7.117,-2.623 7.117,-6.972 v -0.461 z" /></g><g
           transform="translate(566.0635,244.8298)"
           id="g80"
           style="fill:#ffffff;fill-opacity:1"><path
             id="path82"
             style="fill:#ffffff;fill-opacity:1;fill-rule:nonzero;stroke:none"
             d="m 0,0 c 1.19,1.725 2.866,2.623 4.809,2.623 0.413,0 0.729,-0.049 1.045,-0.219 V -0.073 C 5.198,0.121 4.663,0.193 4.152,0.193 1.918,0.193 0,-1.701 0,-4.47 v -6.388 H -2.355 V 2.21 H 0 Z" /></g><g
           transform="translate(599.8457,243.1052)"
           id="g84"
           style="fill:#ffffff;fill-opacity:1"><path
             id="path86"
             style="fill:#ffffff;fill-opacity:1;fill-rule:nonzero;stroke:none"
             d="m 0,0 c -0.172,1.627 -1.434,2.355 -3.792,2.355 -2.211,0 -3.399,-0.63 -3.399,-1.749 0,-1.262 0.972,-1.505 2.962,-1.845 L -1.41,-1.7 c 2.914,-0.487 4.105,-1.362 4.105,-3.717 0,-2.648 -2.163,-4.082 -6.437,-4.082 -4.058,0 -6.12,1.41 -6.413,4.617 h 2.574 c 0.219,-1.678 1.578,-2.625 3.839,-2.625 2.672,0 4.082,0.778 4.082,1.969 0,1.019 -0.731,1.359 -2.382,1.627 l -2.914,0.51 c -3.063,0.509 -4.591,1.19 -4.591,3.595 0,2.697 1.989,4.154 5.879,4.154 3.91,0 5.949,-1.531 5.949,-4.348 z" /></g></g></g><g
       id="g17"
       inkscape:export-filename="geyser-Logo-return (white on green).png"
       inkscape:export-xdpi="96"
       inkscape:export-ydpi="96"><g
         id="g16"
         transform="matrix(0.6546075,0,0,-0.6546075,-531.35811,-977.75378)"
         style="fill:#ffffff;fill-opacity:1"><g
           transform="translate(261.2773,338.9099)"
           id="g20"
           style="fill:#ffffff;fill-opacity:1"><path
             id="path22"
             style="fill:#ffffff;fill-opacity:1;fill-rule:nonzero;stroke:none"
             d="m 0,0 c 0,-1.212 -0.066,-2.255 -0.204,-3.135 -0.131,-0.873 -0.32,-1.575 -0.559,-2.1 -0.24,-0.52 -0.535,-0.889 -0.881,-1.096 -0.345,-0.209 -0.765,-0.31 -1.242,-0.31 -0.688,0 -1.806,0.375 -3.353,1.127 -1.545,0.753 -3.603,1.565 -6.159,2.443 -2.56,0.877 -5.61,1.693 -9.152,2.445 -3.551,0.759 -7.661,1.131 -12.356,1.131 -5.012,0 -9.548,-0.681 -13.598,-2.04 -4.056,-1.358 -7.514,-3.283 -10.395,-5.763 -2.877,-2.492 -5.095,-5.48 -6.64,-8.97 -1.544,-3.492 -2.317,-7.343 -2.317,-11.568 0,-4.638 0.784,-8.724 2.356,-12.255 1.575,-3.534 3.774,-6.491 6.601,-8.872 2.82,-2.381 6.22,-4.181 10.194,-5.39 3.971,-1.214 8.359,-1.82 13.154,-1.82 2.347,0 4.664,0.206 6.96,0.624 2.287,0.422 4.425,1.046 6.395,1.883 v 18.812 h -19.59 c -0.96,0 -1.705,0.469 -2.239,1.408 -0.534,0.943 -0.798,2.539 -0.798,4.798 0,1.163 0.061,2.152 0.196,2.944 0.136,0.793 0.336,1.432 0.602,1.912 0.263,0.482 0.586,0.836 0.958,1.064 0.375,0.232 0.801,0.349 1.281,0.349 h 34.942 c 0.858,0 1.616,-0.117 2.281,-0.349 0.665,-0.228 1.255,-0.57 1.763,-1.032 0.502,-0.458 0.891,-1.013 1.16,-1.664 0.264,-0.649 0.391,-1.386 0.391,-2.224 v -32.286 c 0,-1.254 -0.275,-2.353 -0.829,-3.293 -0.566,-0.942 -1.71,-1.68 -3.442,-2.224 -1.737,-0.544 -3.883,-1.111 -6.438,-1.694 -2.557,-0.584 -5.216,-1.087 -7.959,-1.502 -2.75,-0.419 -5.522,-0.737 -8.318,-0.943 -2.798,-0.206 -5.609,-0.311 -8.436,-0.311 -8.263,0 -15.658,0.93 -22.188,2.788 -6.532,1.86 -12.063,4.551 -16.594,8.088 -4.536,3.531 -7.997,7.834 -10.399,12.914 -2.396,5.078 -3.597,10.835 -3.597,17.272 0,6.646 1.28,12.613 3.841,17.901 2.558,5.288 6.182,9.782 10.875,13.481 4.688,3.695 10.357,6.528 16.993,8.495 6.64,1.962 14.033,2.945 22.189,2.945 4.479,0 8.559,-0.239 12.236,-0.722 3.679,-0.479 6.886,-1.065 9.641,-1.754 2.745,-0.692 5.018,-1.432 6.83,-2.224 C -4.031,8.488 -2.761,7.796 -2.042,7.21 -1.325,6.624 -0.806,5.802 -0.482,4.736 -0.163,3.669 0,2.091 0,0" /></g><g
           transform="translate(336.4121,276.8435)"
           id="g24"
           style="fill:#ffffff;fill-opacity:1"><path
             id="path26"
             style="fill:#ffffff;fill-opacity:1;fill-rule:nonzero;stroke:none"
             d="m 0,0 c 0,-1.215 -0.071,-2.225 -0.209,-3.035 -0.127,-0.82 -0.327,-1.479 -0.593,-1.981 -0.267,-0.498 -0.598,-0.865 -1.006,-1.1 -0.395,-0.228 -0.837,-0.34 -1.311,-0.34 h -51.975 c -1.768,0 -3.242,0.407 -4.449,1.227 -1.199,0.811 -1.794,2.134 -1.794,3.978 v 70.718 c 0,1.837 0.595,3.166 1.794,3.98 1.207,0.816 2.681,1.22 4.449,1.22 h 51.651 c 0.479,0 0.904,-0.103 1.276,-0.311 0.378,-0.211 0.696,-0.577 0.966,-1.099 0.267,-0.522 0.461,-1.191 0.598,-2 0.132,-0.82 0.194,-1.854 0.194,-3.108 0,-1.17 -0.062,-2.164 -0.194,-2.976 -0.137,-0.816 -0.331,-1.472 -0.598,-1.976 -0.27,-0.503 -0.588,-0.865 -0.966,-1.095 -0.372,-0.233 -0.797,-0.348 -1.276,-0.348 H -40.386 V 41.944 H -9.12 c 0.476,0 0.915,-0.117 1.32,-0.347 0.397,-0.229 0.735,-0.586 0.995,-1.064 0.263,-0.481 0.467,-1.131 0.607,-1.941 0.13,-0.816 0.196,-1.813 0.196,-2.977 0,-1.215 -0.066,-2.22 -0.196,-3.017 -0.14,-0.793 -0.344,-1.429 -0.607,-1.907 C -7.065,30.21 -7.403,29.861 -7.8,29.655 -8.205,29.446 -8.644,29.34 -9.12,29.34 H -40.386 V 6.457 h 37.267 c 0.474,0 0.916,-0.116 1.311,-0.345 C -1.4,5.887 -1.069,5.518 -0.802,5.017 -0.536,4.516 -0.336,3.856 -0.209,3.041 -0.071,2.226 0,1.216 0,0" /></g><g
           transform="translate(400.1602,301.1701)"
           id="g28"
           style="fill:#ffffff;fill-opacity:1"><path
             id="path30"
             style="fill:#ffffff;fill-opacity:1;fill-rule:nonzero;stroke:none"
             d="m 0,0 v -28.527 c 0,-0.422 -0.173,-0.798 -0.519,-1.129 -0.342,-0.334 -0.919,-0.601 -1.717,-0.816 -0.804,-0.206 -1.883,-0.376 -3.239,-0.498 -1.361,-0.125 -3.056,-0.193 -5.081,-0.193 -2.079,0 -3.78,0.068 -5.119,0.193 -1.331,0.122 -2.414,0.292 -3.236,0.498 -0.827,0.215 -1.398,0.482 -1.72,0.816 -0.322,0.331 -0.483,0.707 -0.483,1.129 V 0 l -28.303,44.198 c -1.018,1.546 -1.672,2.749 -1.964,3.604 -0.29,0.856 -0.132,1.503 0.48,1.945 0.616,0.441 1.744,0.713 3.397,0.817 1.656,0.104 3.951,0.152 6.882,0.152 2.454,0 4.406,-0.038 5.871,-0.121 1.473,-0.087 2.634,-0.241 3.479,-0.471 0.855,-0.233 1.486,-0.536 1.88,-0.911 0.402,-0.374 0.794,-0.858 1.163,-1.441 L -16.71,27.836 c 1.121,-1.925 2.223,-3.951 3.314,-6.081 1.097,-2.131 2.202,-4.367 3.321,-6.707 h 0.158 c 1.015,2.255 2.051,4.448 3.124,6.579 1.066,2.133 2.097,4.16 3.114,6.083 L 7.683,47.522 c 0.262,0.67 0.593,1.199 0.988,1.599 0.409,0.394 1.001,0.722 1.808,0.969 0.801,0.251 1.888,0.418 3.279,0.505 1.381,0.083 3.224,0.121 5.518,0.121 3.035,0 5.394,-0.048 7.075,-0.152 1.68,-0.104 2.826,-0.376 3.443,-0.817 0.604,-0.442 0.755,-1.098 0.434,-1.975 -0.32,-0.874 -0.961,-2.067 -1.915,-3.574 z" /></g><g
           transform="translate(503.0029,294.7116)"
           id="g32"
           style="fill:#ffffff;fill-opacity:1"><path
             id="path34"
             style="fill:#ffffff;fill-opacity:1;fill-rule:nonzero;stroke:none"
             d="m 0,0 c 0,-4.261 -1.015,-8.003 -3.039,-11.221 -2.025,-3.22 -4.773,-5.904 -8.238,-8.059 -3.455,-2.149 -7.517,-3.772 -12.154,-4.855 -4.641,-1.091 -9.592,-1.634 -14.874,-1.634 -3.572,0 -6.89,0.231 -9.949,0.69 -3.071,0.465 -5.779,1.016 -8.126,1.665 -2.345,0.643 -4.302,1.322 -5.874,2.036 -1.576,0.71 -2.703,1.336 -3.397,1.883 -0.7,0.544 -1.186,1.323 -1.484,2.345 -0.297,1.025 -0.432,2.498 -0.432,4.419 0,1.299 0.043,2.387 0.157,3.263 0.103,0.88 0.275,1.591 0.518,2.131 0.245,0.542 0.561,0.929 0.969,1.165 0.394,0.229 0.857,0.343 1.39,0.343 0.751,0 1.802,-0.343 3.154,-1.037 1.359,-0.685 3.103,-1.451 5.232,-2.286 2.138,-0.839 4.689,-1.601 7.651,-2.289 2.959,-0.689 6.38,-1.037 10.275,-1.037 2.555,0 4.852,0.24 6.872,0.722 2.03,0.483 3.746,1.158 5.156,2.041 1.413,0.875 2.496,1.961 3.244,3.258 0.75,1.295 1.118,2.738 1.118,4.33 0,1.835 -0.644,3.412 -1.914,4.73 -1.287,1.315 -2.949,2.485 -4.999,3.511 -2.057,1.018 -4.39,1.984 -7.001,2.884 -2.611,0.896 -5.307,1.85 -8.075,2.85 -2.773,1.006 -5.463,2.144 -8.075,3.421 -2.617,1.268 -4.944,2.795 -6.998,4.575 -2.054,1.779 -3.723,3.873 -4.997,6.303 -1.285,2.416 -1.919,5.328 -1.919,8.711 0,3.887 0.91,7.304 2.753,10.252 1.84,2.946 4.326,5.391 7.444,7.334 3.116,1.94 6.795,3.397 11.026,4.355 4.241,0.961 8.73,1.443 13.48,1.443 2.448,0 4.904,-0.146 7.361,-0.439 2.453,-0.29 4.737,-0.688 6.872,-1.191 2.141,-0.502 4.03,-1.063 5.676,-1.69 1.651,-0.63 2.754,-1.15 3.282,-1.566 0.535,-0.421 0.889,-0.775 1.079,-1.065 0.185,-0.297 0.347,-0.683 0.48,-1.163 0.133,-0.481 0.217,-1.086 0.282,-1.818 0.053,-0.73 0.086,-1.641 0.086,-2.728 0,-1.211 -0.047,-2.237 -0.127,-3.071 -0.083,-0.836 -0.218,-1.526 -0.4,-2.072 -0.18,-0.539 -0.453,-0.94 -0.801,-1.189 -0.352,-0.252 -0.823,-0.374 -1.403,-0.374 -0.583,0 -1.512,0.287 -2.795,0.874 -1.274,0.584 -2.861,1.224 -4.714,1.914 -1.871,0.691 -4.031,1.318 -6.483,1.878 -2.455,0.568 -5.141,0.853 -8.076,0.853 -2.292,0 -4.291,-0.222 -5.994,-0.661 -1.712,-0.44 -3.137,-1.046 -4.287,-1.817 -1.142,-0.778 -1.988,-1.706 -2.557,-2.793 -0.553,-1.09 -0.829,-2.234 -0.829,-3.445 0,-1.804 0.624,-3.354 1.875,-4.673 1.251,-1.318 2.931,-2.487 5.038,-3.509 2.1,-1.026 4.486,-1.99 7.159,-2.882 2.657,-0.904 5.379,-1.854 8.148,-2.858 2.779,-1 5.49,-2.14 8.164,-3.416 2.662,-1.277 5.028,-2.804 7.116,-4.575 2.074,-1.78 3.76,-3.867 5.028,-6.272 C -0.634,6.093 0,3.259 0,0" /></g><g
           transform="translate(578.3262,276.8435)"
           id="g36"
           style="fill:#ffffff;fill-opacity:1"><path
             id="path38"
             style="fill:#ffffff;fill-opacity:1;fill-rule:nonzero;stroke:none"
             d="m 0,0 c 0,-1.215 -0.069,-2.225 -0.199,-3.035 -0.139,-0.82 -0.337,-1.479 -0.609,-1.981 -0.258,-0.498 -0.587,-0.865 -0.992,-1.1 -0.4,-0.228 -0.84,-0.34 -1.321,-0.34 h -51.983 c -1.75,0 -3.237,0.407 -4.431,1.227 -1.203,0.811 -1.805,2.134 -1.805,3.978 v 70.718 c 0,1.837 0.602,3.166 1.805,3.98 1.194,0.816 2.681,1.22 4.431,1.22 h 51.668 c 0.477,0 0.91,-0.103 1.269,-0.311 0.381,-0.211 0.7,-0.577 0.966,-1.099 0.264,-0.522 0.471,-1.191 0.593,-2 0.139,-0.82 0.209,-1.854 0.209,-3.108 0,-1.17 -0.07,-2.164 -0.209,-2.976 -0.122,-0.816 -0.329,-1.472 -0.593,-1.976 -0.266,-0.503 -0.585,-0.865 -0.966,-1.095 -0.359,-0.233 -0.792,-0.348 -1.269,-0.348 H -40.38 v -19.81 h 31.257 c 0.482,0 0.923,-0.117 1.329,-0.347 0.393,-0.229 0.726,-0.586 1.002,-1.064 0.259,-0.481 0.458,-1.131 0.594,-1.941 0.133,-0.816 0.204,-1.813 0.204,-2.977 0,-1.215 -0.071,-2.22 -0.204,-3.017 C -6.334,31.805 -6.533,31.169 -6.792,30.691 -7.068,30.21 -7.401,29.861 -7.794,29.655 -8.2,29.446 -8.641,29.34 -9.123,29.34 H -40.38 V 6.457 H -3.121 C -2.64,6.457 -2.2,6.341 -1.8,6.112 -1.395,5.887 -1.066,5.518 -0.808,5.017 -0.536,4.516 -0.338,3.856 -0.199,3.041 -0.069,2.226 0,1.216 0,0" /></g><g
           transform="translate(641.7148,327.5642)"
           id="g40"
           style="fill:#ffffff;fill-opacity:1"><path
             id="path42"
             style="fill:#ffffff;fill-opacity:1;fill-rule:nonzero;stroke:none"
             d="m 0,0 c 0,2.674 -0.774,4.932 -2.32,6.77 -1.543,1.837 -4.072,3.136 -7.592,3.889 -1.067,0.206 -2.282,0.374 -3.642,0.5 -1.354,0.125 -3.237,0.187 -5.633,0.187 h -9.434 v -23.009 h 10.71 c 2.988,0 5.597,0.281 7.841,0.847 2.234,0.566 4.099,1.359 5.591,2.381 1.491,1.026 2.618,2.249 3.36,3.668 C -0.376,-3.343 0,-1.755 0,0 m 27.113,-55.048 c 0,-0.461 -0.108,-0.842 -0.324,-1.16 -0.215,-0.313 -0.717,-0.569 -1.518,-0.779 -0.794,-0.212 -1.972,-0.358 -3.517,-0.444 -1.548,-0.082 -3.647,-0.126 -6.319,-0.126 -2.231,0 -4.017,0.044 -5.355,0.126 -1.336,0.086 -2.393,0.248 -3.162,0.472 -0.761,0.229 -1.314,0.522 -1.636,0.873 -0.319,0.361 -0.588,0.789 -0.805,1.292 l -9.267,18.115 c -1.13,2.048 -2.216,3.866 -3.286,5.457 -1.059,1.589 -2.248,2.915 -3.555,3.979 -1.305,1.068 -2.813,1.872 -4.515,2.416 -1.708,0.544 -3.681,0.815 -5.922,0.815 h -6.553 v -30.909 c 0,-0.422 -0.176,-0.798 -0.525,-1.129 -0.35,-0.334 -0.915,-0.601 -1.717,-0.816 -0.798,-0.206 -1.866,-0.376 -3.199,-0.498 -1.34,-0.125 -3.038,-0.193 -5.124,-0.193 -2.029,0 -3.71,0.068 -5.078,0.193 -1.353,0.122 -2.433,0.292 -3.232,0.498 -0.804,0.215 -1.366,0.482 -1.683,0.816 -0.326,0.331 -0.48,0.707 -0.48,1.129 v 73.668 c 0,1.836 0.602,3.166 1.799,3.98 1.21,0.815 2.685,1.22 4.444,1.22 h 26.781 c 2.731,0 4.961,-0.039 6.723,-0.123 1.763,-0.085 3.361,-0.189 4.798,-0.315 4.157,-0.46 7.91,-1.254 11.231,-2.381 3.335,-1.128 6.164,-2.603 8.481,-4.42 2.315,-1.821 4.094,-3.969 5.324,-6.458 1.224,-2.485 1.832,-5.344 1.832,-8.555 0,-2.72 -0.438,-5.198 -1.318,-7.431 -0.882,-2.233 -2.167,-4.231 -3.88,-5.988 -1.702,-1.756 -3.809,-3.285 -6.318,-4.578 -2.504,-1.295 -5.359,-2.337 -8.552,-3.129 1.54,-0.59 2.994,-1.302 4.352,-2.134 1.359,-0.838 2.647,-1.852 3.838,-3.045 1.208,-1.191 2.34,-2.55 3.4,-4.073 1.067,-1.525 2.1,-3.247 3.122,-5.169 l 8.716,-15.991 c 0.795,-1.589 1.323,-2.75 1.596,-3.478 0.269,-0.735 0.403,-1.305 0.403,-1.727" /></g></g><path
         style="fill:none;stroke:#ffffff;stroke-width:21.1626;stroke-linecap:round;stroke-linejoin:round;stroke-miterlimit:10;stroke-dasharray:none;stroke-opacity:1;paint-order:fill markers stroke"
         d="m -468.16514,-1224.5386 -43.2359,43.2359 43.2359,43.2357"
         id="path27" /></g><g
       id="g29"
       inkscape:export-filename="geyser-Home (white on green).png"
       inkscape:export-xdpi="96"
       inkscape:export-ydpi="96"><rect
         style="fill:#218b29;fill-opacity:1;stroke:none;stroke-width:0.88909;stroke-linecap:round;stroke-linejoin:round;stroke-miterlimit:10;paint-order:fill markers stroke"
         id="rect1"
         width="182.06808"
         height="163.23981"
         x="-426.36145"
         y="-960.30579"
         ry="0"
         inkscape:export-filename="geyser-Logo-return (white on green).png"
         inkscape:export-xdpi="96"
         inkscape:export-ydpi="96" /><path
         style="fill:none;stroke:#ffffff;stroke-width:21.0103937;stroke-linecap:round;stroke-linejoin:round;stroke-miterlimit:10;stroke-dasharray:none;stroke-opacity:1;paint-order:fill markers stroke"
         d="m -275.76118,-871.96606 -57.74995,-57.74995 -57.74968,57.74995"
         id="path27-8" /><path
         style="fill:none;stroke:#ffffff;stroke-width:21.1616;stroke-linecap:round;stroke-linejoin:round;stroke-miterlimit:10;stroke-dasharray:none;paint-order:fill markers stroke"
         d="m -378.2701,-884.95681 v 57.67564 h 88.2223 v -58.97154"
         id="path28" /></g></g></svg>
