G04*
G04 #@! TF.GenerationSoftware,Altium Limited,Altium Designer,21.8.1 (53)*
G04*
G04 Layer_Color=128*
%FSLAX44Y44*%
%MOMM*%
G71*
G04*
G04 #@! TF.SameCoordinates,D186F9AF-6EAA-4C68-B435-6125638006CD*
G04*
G04*
G04 #@! TF.FilePolarity,Positive*
G04*
G01*
G75*
%ADD14C,0.0500*%
%ADD17C,0.1000*%
G04:AMPARAMS|DCode=46|XSize=0.8mm|YSize=2mm|CornerRadius=0.004mm|HoleSize=0mm|Usage=FLASHONLY|Rotation=90.000|XOffset=0mm|YOffset=0mm|HoleType=Round|Shape=RoundedRectangle|*
%AMROUNDEDRECTD46*
21,1,0.8000,1.9920,0,0,90.0*
21,1,0.7920,2.0000,0,0,90.0*
1,1,0.0080,0.9960,0.3960*
1,1,0.0080,0.9960,-0.3960*
1,1,0.0080,-0.9960,-0.3960*
1,1,0.0080,-0.9960,0.3960*
%
%ADD46ROUNDEDRECTD46*%
D14*
X422300Y224600D02*
X447700D01*
Y275400D01*
X422300D02*
X447700D01*
X422300Y224600D02*
Y275400D01*
X315200Y224600D02*
Y275400D01*
X289800Y224600D02*
X315200D01*
X289800D02*
Y275400D01*
X315200D01*
X259200Y969950D02*
X462400D01*
Y944550D02*
Y969950D01*
X259200Y944550D02*
X462400D01*
X259200D02*
Y969950D01*
D17*
X585000Y237500D02*
G03*
X585000Y237500I-60000J0D01*
G01*
X847502Y577499D02*
Y697498D01*
X727502Y577499D02*
X847502D01*
X727502D02*
Y697498D01*
X847502D01*
X383002Y705352D02*
Y734652D01*
X346001Y705352D02*
X383002D01*
X346001D02*
Y734652D01*
X383002D01*
X843800Y172300D02*
Y198700D01*
X874200D01*
Y172300D02*
Y198700D01*
X843800Y172300D02*
X874200D01*
X457500Y121500D02*
X477492D01*
X457500Y109500D02*
X477492D01*
X457500D02*
Y121500D01*
X477492Y109500D02*
Y121500D01*
X789250Y138508D02*
Y158500D01*
X777250Y138508D02*
Y158500D01*
X789250D01*
X777250Y138508D02*
X789250D01*
X803758Y181000D02*
X823750D01*
X803758Y193000D02*
X823750D01*
Y181000D02*
Y193000D01*
X803758Y181000D02*
Y193000D01*
X436200Y99800D02*
Y126200D01*
X405800Y99800D02*
X436200D01*
X405800D02*
Y126200D01*
X436200D01*
X895550Y193200D02*
X921950D01*
Y162800D02*
Y193200D01*
X895550Y162800D02*
X921950D01*
X895550D02*
Y193200D01*
X767500Y292301D02*
X832499D01*
X767500Y222701D02*
Y292301D01*
Y222701D02*
X832499D01*
Y292301D01*
X919999Y222701D02*
Y292301D01*
X855000Y222701D02*
X919999D01*
X855000D02*
Y292301D01*
X919999D01*
X967000Y93000D02*
X1091000D01*
X967000D02*
Y150000D01*
X1091000D01*
Y93000D02*
Y150000D01*
X611501Y300998D02*
X738501D01*
X611501Y173998D02*
X738501D01*
X611501D02*
Y300998D01*
X738501Y173998D02*
Y300998D01*
X625000Y654500D02*
X641000D01*
X625000Y662501D02*
X641000D01*
Y654500D02*
Y662501D01*
X625000Y654500D02*
Y662501D01*
X967250Y528750D02*
X983250D01*
X967250Y520749D02*
X983250D01*
X967250D02*
Y528750D01*
X983250Y520749D02*
Y528750D01*
X983000Y593499D02*
Y601500D01*
X967000Y593499D02*
Y601500D01*
Y593499D02*
X983000D01*
X967000Y601500D02*
X983000D01*
Y573499D02*
Y581500D01*
X967000Y573499D02*
Y581500D01*
Y573499D02*
X983000D01*
X967000Y581500D02*
X983000D01*
X1165993Y297498D02*
Y402499D01*
X1283993D01*
Y297498D02*
Y402499D01*
X1165993Y297498D02*
X1283993D01*
X1175000Y350000D02*
X1185000D01*
X1180000Y345000D02*
Y355000D01*
X1157748Y620252D02*
Y637751D01*
X1167248D01*
Y620252D02*
Y637751D01*
X1157748Y620252D02*
X1167248D01*
X1159500Y673500D02*
Y681501D01*
X1175500Y673500D02*
Y681501D01*
X1159500D02*
X1175500D01*
X1159500Y673500D02*
X1175500D01*
X1159500Y708500D02*
Y716501D01*
X1175500Y708500D02*
Y716501D01*
X1159500D02*
X1175500D01*
X1159500Y708500D02*
X1175500D01*
X1204450Y623800D02*
Y776200D01*
X1294450D01*
Y623800D02*
Y776200D01*
X1204450Y623800D02*
X1294450D01*
X1158008Y756500D02*
Y768500D01*
X1178000Y756500D02*
Y768500D01*
X1158008D02*
X1178000D01*
X1158008Y756500D02*
X1178000D01*
X623508Y676750D02*
X643500D01*
X623508Y688750D02*
X643500D01*
Y676750D02*
Y688750D01*
X623508Y676750D02*
Y688750D01*
X983250Y536999D02*
Y545000D01*
X967250Y536999D02*
Y545000D01*
Y536999D02*
X983250D01*
X967250Y545000D02*
X983250D01*
X967250Y512500D02*
X983250D01*
X967250Y504499D02*
X983250D01*
X967250D02*
Y512500D01*
X983250Y504499D02*
Y512500D01*
X967250Y496250D02*
X983250D01*
X967250Y488249D02*
X983250D01*
X967250D02*
Y496250D01*
X983250Y488249D02*
Y496250D01*
X987749Y178752D02*
Y196252D01*
X997248D01*
Y178752D02*
Y196252D01*
X987749Y178752D02*
X997248D01*
X1019000Y178008D02*
X1031000D01*
X1019000Y198000D02*
X1031000D01*
X1019000Y178008D02*
Y198000D01*
X1031000Y178008D02*
Y198000D01*
X1052498Y178752D02*
Y196252D01*
X1061998D01*
Y178752D02*
Y196252D01*
X1052498Y178752D02*
X1061998D01*
X1080750Y171500D02*
Y203500D01*
X1144250Y171500D02*
Y203500D01*
X1080750D02*
X1144250D01*
X1080750Y171500D02*
X1144250D01*
X941500Y168751D02*
Y206251D01*
X958500D01*
Y168751D02*
Y206251D01*
X941500Y168751D02*
X958500D01*
X1180000Y232500D02*
Y242500D01*
X1175000Y237500D02*
X1185000D01*
X1165993Y184998D02*
X1283993D01*
Y289999D01*
X1165993D02*
X1283993D01*
X1165993Y184998D02*
Y289999D01*
X1180758Y160750D02*
X1200751D01*
X1180758Y172750D02*
X1200751D01*
Y160750D02*
Y172750D01*
X1180758Y160750D02*
Y172750D01*
X1112751Y110251D02*
X1129750D01*
Y147751D01*
X1112751D02*
X1129750D01*
X1112751Y110251D02*
Y147751D01*
X1250000Y93000D02*
Y150000D01*
X1150000D02*
X1250000D01*
X1150000Y93000D02*
Y150000D01*
Y93000D02*
X1250000D01*
X905000D02*
Y150000D01*
X805000D02*
X905000D01*
X805000Y93000D02*
Y150000D01*
Y93000D02*
X905000D01*
X1093999Y232500D02*
Y282500D01*
X1120998D01*
Y232500D02*
Y282500D01*
X1093999Y232500D02*
X1120998D01*
X1044002Y282500D02*
X1071002D01*
X1044002Y232500D02*
Y282500D01*
Y232500D02*
X1071002D01*
Y282500D01*
X994002D02*
X1021001D01*
X994002Y232500D02*
Y282500D01*
Y232500D02*
X1021001D01*
Y282500D01*
X943999Y232500D02*
X970998D01*
Y282500D01*
X943999D02*
X970998D01*
X943999Y232500D02*
Y282500D01*
X933250Y420749D02*
Y428750D01*
X917250Y420749D02*
Y428750D01*
Y420749D02*
X933250D01*
X917250Y428750D02*
X933250D01*
X830008Y380750D02*
X850000D01*
X830008Y392750D02*
X850000D01*
Y380750D02*
Y392750D01*
X830008Y380750D02*
Y392750D01*
X774492Y381500D02*
Y393500D01*
X754500Y381500D02*
Y393500D01*
Y381500D02*
X774492D01*
X754500Y393500D02*
X774492D01*
X712500Y336499D02*
Y363498D01*
X662500D02*
X712500D01*
X662500Y336499D02*
Y363498D01*
Y336499D02*
X712500D01*
X748001Y365401D02*
X785002D01*
X748001Y336101D02*
Y365401D01*
Y336101D02*
X785002D01*
Y365401D01*
X955000Y336499D02*
Y363498D01*
X905000D02*
X955000D01*
X905000Y336499D02*
Y363498D01*
Y336499D02*
X955000D01*
X821998Y335849D02*
X858998D01*
Y365148D01*
X821998D02*
X858998D01*
X821998Y335849D02*
Y365148D01*
X831498Y410348D02*
X868499D01*
Y439648D01*
X831498D02*
X868499D01*
X831498Y410348D02*
Y439648D01*
X746501Y439652D02*
X783502D01*
X746501Y410352D02*
Y439652D01*
Y410352D02*
X783502D01*
Y439652D01*
X692250Y438242D02*
X704250D01*
X692250Y418250D02*
X704250D01*
Y438242D01*
X692250Y418250D02*
Y438242D01*
X1060000Y535000D02*
Y545000D01*
X1065000Y535000D02*
Y545000D01*
X1060000Y535000D02*
X1065000D01*
X1060000Y545000D02*
X1065000D01*
X1052500Y535000D02*
Y545000D01*
X1047500Y535000D02*
Y545000D01*
X1052500D01*
X1047500Y535000D02*
X1052500D01*
X1035000D02*
Y545000D01*
X1040000Y535000D02*
Y545000D01*
X1035000Y535000D02*
X1040000D01*
X1035000Y545000D02*
X1040000D01*
X667499Y552500D02*
X675500D01*
X667499Y568500D02*
X675500D01*
X667499Y552500D02*
Y568500D01*
X675500Y552500D02*
Y568500D01*
X649749Y552500D02*
X657750D01*
X649749Y568500D02*
X657750D01*
X649749Y552500D02*
Y568500D01*
X657750Y552500D02*
Y568500D01*
X982000Y767249D02*
Y775250D01*
X966000Y767249D02*
Y775250D01*
Y767249D02*
X982000D01*
X966000Y775250D02*
X982000D01*
X982000Y749499D02*
Y757500D01*
X966000Y749499D02*
Y757500D01*
Y749499D02*
X982000D01*
X966000Y757500D02*
X982000D01*
X966000Y721750D02*
X982000D01*
X966000Y713749D02*
X982000D01*
X966000D02*
Y721750D01*
X982000Y713749D02*
Y721750D01*
X966000Y704000D02*
X982000D01*
X966000Y695999D02*
X982000D01*
X966000D02*
Y704000D01*
X982000Y695999D02*
Y704000D01*
Y678499D02*
Y686500D01*
X966000Y678499D02*
Y686500D01*
Y678499D02*
X982000D01*
X966000Y686500D02*
X982000D01*
Y660499D02*
Y668500D01*
X966000Y660499D02*
Y668500D01*
Y660499D02*
X982000D01*
X966000Y668500D02*
X982000D01*
Y642749D02*
Y650750D01*
X966000Y642749D02*
Y650750D01*
Y642749D02*
X982000D01*
X966000Y650750D02*
X982000D01*
X739498Y726500D02*
Y758500D01*
X789499D01*
Y726500D02*
Y758500D01*
X739498Y726500D02*
X789499D01*
X707500Y747500D02*
X717500D01*
X707500Y752500D02*
X717500D01*
Y747500D02*
Y752500D01*
X707500Y747500D02*
Y752500D01*
Y735000D02*
X717500D01*
X707500Y740000D02*
X717500D01*
Y735000D02*
Y740000D01*
X707500Y735000D02*
Y740000D01*
X682500Y752500D02*
X692500D01*
X682500Y747500D02*
X692500D01*
X682500D02*
Y752500D01*
X692500Y747500D02*
Y752500D01*
X785000Y772500D02*
X795000D01*
X785000Y777500D02*
X795000D01*
Y772500D02*
Y777500D01*
X785000Y772500D02*
Y777500D01*
X757750Y873000D02*
X765751D01*
X757750Y857000D02*
X765751D01*
Y873000D01*
X757750Y857000D02*
Y873000D01*
X857050Y884300D02*
X887450D01*
Y910700D01*
X857050D02*
X887450D01*
X857050Y884300D02*
Y910700D01*
X819250Y881242D02*
X831250D01*
X819250Y861250D02*
X831250D01*
Y881242D01*
X819250Y861250D02*
Y881242D01*
X824000Y907500D02*
X834000D01*
X824000Y912500D02*
X834000D01*
Y907500D02*
Y912500D01*
X824000Y907500D02*
Y912500D01*
X870000Y758000D02*
Y768000D01*
X865000Y758000D02*
Y768000D01*
X870000D01*
X865000Y758000D02*
X870000D01*
X625000Y593000D02*
X641000D01*
X625000Y601001D02*
X641000D01*
Y593000D02*
Y601001D01*
X625000Y593000D02*
Y601001D01*
X625000Y613000D02*
Y621001D01*
X641000Y613000D02*
Y621001D01*
X625000D02*
X641000D01*
X625000Y613000D02*
X641000D01*
X625000Y633000D02*
Y641001D01*
X641000Y633000D02*
Y641001D01*
X625000D02*
X641000D01*
X625000Y633000D02*
X641000D01*
X564250Y348758D02*
X576250D01*
X564250Y368750D02*
X576250D01*
X564250Y348758D02*
Y368750D01*
X576250Y348758D02*
Y368750D01*
X516508Y373750D02*
Y385750D01*
X536500Y373750D02*
Y385750D01*
X516508D02*
X536500D01*
X516508Y373750D02*
X536500D01*
X441251Y141250D02*
Y158250D01*
Y141250D02*
X478751D01*
Y158250D01*
X441251D02*
X478751D01*
X305000Y150750D02*
X380000D01*
Y93250D02*
Y150750D01*
X305000Y93250D02*
X380000D01*
X305000D02*
Y150750D01*
X492500Y93250D02*
Y150750D01*
Y93250D02*
X567500D01*
Y150750D01*
X492500D02*
X567500D01*
X399752Y201248D02*
X409252D01*
X399752Y183749D02*
Y201248D01*
Y183749D02*
X409252D01*
Y201248D01*
X375252D02*
X384752D01*
X375252Y183749D02*
Y201248D01*
Y183749D02*
X384752D01*
Y201248D01*
X350252D02*
X359752D01*
X350252Y183749D02*
Y201248D01*
Y183749D02*
X359752D01*
Y201248D01*
X325252D02*
X334752D01*
X325252Y183749D02*
Y201248D01*
Y183749D02*
X334752D01*
Y201248D01*
X422300Y224600D02*
Y250000D01*
X447700D01*
X422300Y224600D02*
X447700D01*
X422300Y256350D02*
X428650Y250000D01*
X422300Y256350D02*
Y269050D01*
X428650Y275400D01*
X441350D01*
X447700Y269050D01*
Y256350D02*
Y269050D01*
X441350Y250000D02*
X447700Y256350D01*
Y224600D02*
Y250000D01*
X289800D02*
Y275400D01*
Y243650D02*
X296150Y250000D01*
X289800Y230950D02*
Y243650D01*
Y230950D02*
X296150Y224600D01*
X308850D01*
X315200Y230950D01*
Y243650D01*
X308850Y250000D02*
X315200Y243650D01*
X289800Y275400D02*
X315200D01*
X289800Y250000D02*
X315200D01*
Y275400D01*
X169000Y446992D02*
X181000D01*
X169000Y427000D02*
X181000D01*
Y446992D01*
X169000Y427000D02*
Y446992D01*
X144000Y427000D02*
Y446992D01*
X156000Y427000D02*
Y446992D01*
X144000Y427000D02*
X156000D01*
X144000Y446992D02*
X156000D01*
X346501Y769651D02*
X383501D01*
X346501Y740352D02*
Y769651D01*
Y740352D02*
X383501D01*
Y769651D01*
X384500Y432000D02*
X400500D01*
X384500Y440001D02*
X400500D01*
Y432000D02*
Y440001D01*
X384500Y432000D02*
Y440001D01*
X384250Y458500D02*
X400250D01*
X384250Y466501D02*
X400250D01*
Y458500D02*
Y466501D01*
X384250Y458500D02*
Y466501D01*
X384250Y484500D02*
Y492501D01*
X400250Y484500D02*
Y492501D01*
X384250D02*
X400250D01*
X384250Y484500D02*
X400250D01*
X384500Y508750D02*
Y516751D01*
X400500Y508750D02*
Y516751D01*
X384500D02*
X400500D01*
X384500Y508750D02*
X400500D01*
X479750Y458750D02*
Y466751D01*
X495750Y458750D02*
Y466751D01*
X479750D02*
X495750D01*
X479750Y458750D02*
X495750D01*
X480250Y482750D02*
Y490751D01*
X496250Y482750D02*
Y490751D01*
X480250D02*
X496250D01*
X480250Y482750D02*
X496250D01*
X479750Y509000D02*
Y517001D01*
X495750Y509000D02*
Y517001D01*
X479750D02*
X495750D01*
X479750Y509000D02*
X495750D01*
X479750Y534250D02*
X495750D01*
X479750Y542251D02*
X495750D01*
Y534250D02*
Y542251D01*
X479750Y534250D02*
Y542251D01*
Y559250D02*
X495750D01*
X479750Y567252D02*
X495750D01*
Y559250D02*
Y567252D01*
X479750Y559250D02*
Y567252D01*
X467250Y412250D02*
X483250D01*
X467250Y420251D02*
X483250D01*
Y412250D02*
Y420251D01*
X467250Y412250D02*
Y420251D01*
X479500Y658500D02*
X495500D01*
X479500Y666501D02*
X495500D01*
Y658500D02*
Y666501D01*
X479500Y658500D02*
Y666501D01*
Y683500D02*
X495500D01*
X479500Y691501D02*
X495500D01*
Y683500D02*
Y691501D01*
X479500Y683500D02*
Y691501D01*
Y708500D02*
X495500D01*
X479500Y716501D02*
X495500D01*
Y708500D02*
Y716501D01*
X479500Y708500D02*
Y716501D01*
X346501Y804652D02*
X383501D01*
X346501Y775352D02*
Y804652D01*
Y775352D02*
X383501D01*
Y804652D01*
X411600Y963600D02*
X417950Y969950D01*
X430650D01*
X437000Y963600D01*
Y950900D02*
Y963600D01*
X430650Y944550D02*
X437000Y950900D01*
X417950Y944550D02*
X430650D01*
X411600Y950900D02*
X417950Y944550D01*
X360800Y963600D02*
X367150Y969950D01*
X379850D01*
X386200Y963600D01*
Y950900D02*
Y963600D01*
X379850Y944550D02*
X386200Y950900D01*
X367150Y944550D02*
X379850D01*
X360800Y950900D02*
X367150Y944550D01*
X335400Y950900D02*
X341750Y944550D01*
X354450D01*
X360800Y950900D01*
Y963600D01*
X354450Y969950D02*
X360800Y963600D01*
X341750Y969950D02*
X354450D01*
X335400Y963600D02*
X341750Y969950D01*
X310000Y963600D02*
X316350Y969950D01*
X329050D01*
X335400Y963600D01*
Y950900D02*
Y963600D01*
X329050Y944550D02*
X335400Y950900D01*
X316350Y944550D02*
X329050D01*
X310000Y950900D02*
X316350Y944550D01*
X259200D02*
X284600D01*
Y950900D02*
X290950Y944550D01*
X303650D01*
X310000Y950900D01*
Y963600D01*
X303650Y969950D02*
X310000Y963600D01*
X290950Y969950D02*
X303650D01*
X284600Y963600D02*
X290950Y969950D01*
X259200Y944550D02*
Y969950D01*
X284600Y944550D02*
Y969950D01*
X259200D02*
X284600D01*
X386200Y950900D02*
X392550Y944550D01*
X405250D01*
X411600Y950900D01*
Y963600D01*
X405250Y969950D02*
X411600Y963600D01*
X392550Y969950D02*
X405250D01*
X386200Y963600D02*
X392550Y969950D01*
X437000Y950900D02*
X443350Y944550D01*
X456050D01*
X462400Y950900D01*
Y963600D01*
X456050Y969950D02*
X462400Y963600D01*
X443350Y969950D02*
X456050D01*
X437000Y963600D02*
X443350Y969950D01*
X374492Y814000D02*
Y826000D01*
X354500Y814000D02*
Y826000D01*
Y814000D02*
X374492D01*
X354500Y826000D02*
X374492D01*
Y839000D02*
Y851000D01*
X354500Y839000D02*
Y851000D01*
Y839000D02*
X374492D01*
X354500Y851000D02*
X374492D01*
Y864000D02*
Y876000D01*
X354500Y864000D02*
Y876000D01*
Y864000D02*
X374492D01*
X354500Y876000D02*
X374492D01*
X1266018Y795000D02*
Y880000D01*
X1169016D02*
X1266018D01*
X1169016Y795000D02*
Y880000D01*
Y795000D02*
X1266018D01*
X1156502Y587500D02*
X1183501D01*
X1156502Y537500D02*
Y587500D01*
Y537500D02*
X1183501D01*
Y587500D01*
X1210199Y534999D02*
Y599999D01*
Y534999D02*
X1279799D01*
Y599999D01*
X1210199D02*
X1279799D01*
X1210199Y514999D02*
X1279799D01*
Y450000D02*
Y514999D01*
X1210199Y450000D02*
X1279799D01*
X1210199D02*
Y514999D01*
X1183501Y457500D02*
Y507500D01*
X1156502Y457500D02*
X1183501D01*
X1156502D02*
Y507500D01*
X1183501D01*
X1145333Y409818D02*
X1159469Y423954D01*
X1153818Y401333D02*
X1167954Y415469D01*
X1145333Y409818D02*
X1153818Y401333D01*
X1159469Y423954D02*
X1167954Y415469D01*
X1206992Y414000D02*
Y426000D01*
X1187000Y414000D02*
Y426000D01*
Y414000D02*
X1206992D01*
X1187000Y426000D02*
X1206992D01*
X1230508Y414000D02*
Y426000D01*
X1250500Y414000D02*
Y426000D01*
X1230508D02*
X1250500D01*
X1230508Y414000D02*
X1250500D01*
X1273008D02*
Y426000D01*
X1293000Y414000D02*
Y426000D01*
X1273008D02*
X1293000D01*
X1273008Y414000D02*
X1293000D01*
X1225750Y913242D02*
X1237750D01*
X1225750Y893250D02*
X1237750D01*
Y913242D01*
X1225750Y893250D02*
Y913242D01*
X510050Y333200D02*
X540449D01*
X510050Y306800D02*
Y333200D01*
Y306800D02*
X540449D01*
Y333200D01*
X1158750Y913242D02*
X1170750D01*
X1158750Y893250D02*
X1170750D01*
Y913242D01*
X1158750Y893250D02*
Y913242D01*
X1181250D02*
X1193250D01*
X1181250Y893250D02*
X1193250D01*
Y913242D01*
X1181250Y893250D02*
Y913242D01*
X1203750D02*
X1215750D01*
X1203750Y893250D02*
X1215750D01*
Y913242D01*
X1203750Y893250D02*
Y913242D01*
X1205749Y933250D02*
X1213750D01*
X1205749Y949250D02*
X1213750D01*
X1205749Y933250D02*
Y949250D01*
X1213750Y933250D02*
Y949250D01*
X1183249Y933250D02*
X1191250D01*
X1183249Y949250D02*
X1191250D01*
X1183249Y933250D02*
Y949250D01*
X1191250Y933250D02*
Y949250D01*
X1160749Y933250D02*
X1168750D01*
X1160749Y949250D02*
X1168750D01*
X1160749Y933250D02*
Y949250D01*
X1168750Y933250D02*
Y949250D01*
X982000Y731749D02*
Y739750D01*
X966000Y731749D02*
Y739750D01*
Y731749D02*
X982000D01*
X966000Y739750D02*
X982000D01*
X479500Y633500D02*
Y641501D01*
X495500Y633500D02*
Y641501D01*
X479500D02*
X495500D01*
X479500Y633500D02*
X495500D01*
X479500Y608500D02*
Y616501D01*
X495500Y608500D02*
Y616501D01*
X479500D02*
X495500D01*
X479500Y608500D02*
X495500D01*
X585000Y237500D02*
G03*
X585000Y237500I-60000J0D01*
G01*
X782500Y637500D02*
X792500D01*
X787500Y632500D02*
Y642500D01*
X720500Y570500D02*
Y704500D01*
X854500Y570500D02*
Y704500D01*
X720500Y570500D02*
X854500D01*
X720500Y704500D02*
X854500D01*
X336000Y736000D02*
X393000D01*
Y704000D02*
Y736000D01*
X336000Y704000D02*
X393000D01*
X336000D02*
Y736000D01*
X359500Y720000D02*
X369500D01*
X364500Y715000D02*
Y725000D01*
X841500Y166250D02*
X876500D01*
X841500Y204750D02*
X876500D01*
X841500Y166250D02*
Y204750D01*
X876500Y166250D02*
Y204750D01*
X859000Y180500D02*
Y190500D01*
X854000Y185500D02*
X864000D01*
X468000Y110500D02*
Y120500D01*
X463000Y115500D02*
X473000D01*
X485000Y108500D02*
Y122500D01*
X451000Y108500D02*
Y122500D01*
Y108500D02*
X485000D01*
X451000Y122500D02*
X485000D01*
X778250Y148000D02*
X788250D01*
X783250Y143000D02*
Y153000D01*
X776250Y131000D02*
X790250D01*
X776250Y165000D02*
X790250D01*
X776250Y131000D02*
Y165000D01*
X790250Y131000D02*
Y165000D01*
X813250Y182000D02*
Y192000D01*
X808250Y187000D02*
X818250D01*
X796250Y180000D02*
Y194000D01*
X830250Y180000D02*
Y194000D01*
X796250D02*
X830250D01*
X796250Y180000D02*
X830250D01*
X403500Y132250D02*
X438500D01*
X403500Y93750D02*
X438500D01*
Y132250D01*
X403500Y93750D02*
Y132250D01*
X421000Y108000D02*
Y118000D01*
X416000Y113000D02*
X426000D01*
X889500Y160500D02*
Y195500D01*
X928000Y160500D02*
Y195500D01*
X889500D02*
X928000D01*
X889500Y160500D02*
X928000D01*
X903750Y178000D02*
X913750D01*
X908750Y173000D02*
Y183000D01*
X795000Y257500D02*
X805000D01*
X800000Y252500D02*
Y262500D01*
X764000Y214000D02*
Y301000D01*
X836000Y214000D02*
Y301000D01*
X764000Y214000D02*
X836000D01*
X764000Y301000D02*
X836000D01*
X851500D02*
X923500D01*
X851500Y214000D02*
X923500D01*
Y301000D01*
X851500Y214000D02*
Y301000D01*
X887500Y252500D02*
Y262500D01*
X882500Y257500D02*
X892500D01*
X1025000Y115000D02*
X1035000D01*
X1030000Y110000D02*
Y120000D01*
X1094100Y90870D02*
Y153100D01*
X964560D02*
X1094100D01*
X964560Y90870D02*
Y153100D01*
Y90870D02*
X1094100D01*
X675000Y232500D02*
Y242500D01*
X670000Y237500D02*
X680000D01*
X742500Y165000D02*
Y310000D01*
X607500Y165000D02*
X742500D01*
X607500D02*
Y310000D01*
X742500D01*
X619000Y651500D02*
Y665500D01*
X647000Y651500D02*
Y665500D01*
X619000D02*
X647000D01*
X619000Y651500D02*
X647000D01*
X633000Y653750D02*
Y663250D01*
X628250Y658500D02*
X637750D01*
X989250Y517750D02*
Y531750D01*
X961250Y517750D02*
Y531750D01*
Y517750D02*
X989250D01*
X961250Y531750D02*
X989250D01*
X975250Y520000D02*
Y529500D01*
X970500Y524750D02*
X980000D01*
X970250Y597500D02*
X979750D01*
X975000Y592750D02*
Y602250D01*
X961000Y604500D02*
X989000D01*
X961000Y590500D02*
X989000D01*
X961000D02*
Y604500D01*
X989000Y590500D02*
Y604500D01*
X970250Y577500D02*
X979750D01*
X975000Y572750D02*
Y582250D01*
X961000Y584500D02*
X989000D01*
X961000Y570500D02*
X989000D01*
X961000D02*
Y584500D01*
X989000Y570500D02*
Y584500D01*
X1155000Y295000D02*
Y405000D01*
Y295000D02*
X1290000D01*
X1295000D01*
Y405000D01*
X1155000D02*
X1295000D01*
X1225000Y345000D02*
Y355000D01*
X1220000Y350000D02*
X1230000D01*
X1155500Y614000D02*
Y644000D01*
X1169500D01*
Y615000D02*
Y644000D01*
Y614000D02*
Y615000D01*
X1155500Y614000D02*
X1169500D01*
X1160500Y629000D02*
X1164500D01*
X1162500Y627000D02*
Y631000D01*
X1162750Y677500D02*
X1172250D01*
X1167500Y672750D02*
Y682250D01*
X1153500Y670500D02*
X1181500D01*
X1153500Y684500D02*
X1181500D01*
Y670500D02*
Y684500D01*
X1153500Y670500D02*
Y684500D01*
X1162750Y712500D02*
X1172250D01*
X1167500Y707750D02*
Y717250D01*
X1153500Y705500D02*
X1181500D01*
X1153500Y719500D02*
X1181500D01*
Y705500D02*
Y719500D01*
X1153500Y705500D02*
Y719500D01*
X1201740Y777470D02*
X1298260D01*
X1201740Y622530D02*
Y777470D01*
Y622530D02*
X1298260D01*
Y777470D01*
X1245000Y700000D02*
X1255000D01*
X1250000Y695000D02*
Y705000D01*
X1150500Y755500D02*
X1184500D01*
X1150500Y769500D02*
X1184500D01*
Y755500D02*
Y769500D01*
X1150500Y755500D02*
Y769500D01*
X1162500Y762500D02*
X1172500D01*
X1167500Y757500D02*
Y767500D01*
X633000Y677750D02*
Y687750D01*
X628000Y682750D02*
X638000D01*
X616000Y675750D02*
Y689750D01*
X650000Y675750D02*
Y689750D01*
X616000D02*
X650000D01*
X616000Y675750D02*
X650000D01*
X970500Y541000D02*
X980000D01*
X975250Y536250D02*
Y545750D01*
X961250Y548000D02*
X989250D01*
X961250Y534000D02*
X989250D01*
X961250D02*
Y548000D01*
X989250Y534000D02*
Y548000D01*
Y501500D02*
Y515500D01*
X961250Y501500D02*
Y515500D01*
Y501500D02*
X989250D01*
X961250Y515500D02*
X989250D01*
X975250Y503750D02*
Y513250D01*
X970500Y508500D02*
X980000D01*
X989250Y485250D02*
Y499250D01*
X961250Y485250D02*
Y499250D01*
Y485250D02*
X989250D01*
X961250Y499250D02*
X989250D01*
X975250Y487500D02*
Y497000D01*
X970500Y492250D02*
X980000D01*
X985500Y172500D02*
Y202500D01*
X999500D01*
Y173500D02*
Y202500D01*
Y172500D02*
Y173500D01*
X985500Y172500D02*
X999500D01*
X990500Y187500D02*
X994500D01*
X992500Y185500D02*
Y189500D01*
X1032000Y170500D02*
Y204500D01*
X1018000Y170500D02*
Y204500D01*
X1032000D01*
X1018000Y170500D02*
X1032000D01*
X1025000Y182500D02*
Y192500D01*
X1020000Y187500D02*
X1030000D01*
X1050250Y172500D02*
Y202500D01*
X1064250D01*
Y173500D02*
Y202500D01*
Y172500D02*
Y173500D01*
X1050250Y172500D02*
X1064250D01*
X1055250Y187500D02*
X1059250D01*
X1057250Y185500D02*
Y189500D01*
X1107500Y187500D02*
X1117500D01*
X1112500Y182500D02*
Y192500D01*
X1074000Y168500D02*
X1151000D01*
X1074000Y206500D02*
X1151000D01*
Y168500D02*
Y206500D01*
X1074000Y168500D02*
Y206500D01*
X945000Y197250D02*
X955000D01*
X950000Y192250D02*
Y202250D01*
X959000Y168750D02*
Y206251D01*
X941000Y168750D02*
Y206251D01*
X959000D01*
X941000Y168750D02*
X959000D01*
X1220000Y237500D02*
X1230000D01*
X1225000Y232500D02*
Y242500D01*
X1155000Y292500D02*
X1295000D01*
Y182500D02*
Y292500D01*
X1290000Y182500D02*
X1295000D01*
X1155000D02*
X1290000D01*
X1155000D02*
Y292500D01*
X1190250Y161750D02*
Y171750D01*
X1185250Y166750D02*
X1195250D01*
X1173250Y159750D02*
Y173750D01*
X1207250Y159750D02*
Y173750D01*
X1173250D02*
X1207250D01*
X1173250Y159750D02*
X1207250D01*
X1112250Y110250D02*
X1130250D01*
X1112250Y147751D02*
X1130250D01*
X1112250Y110250D02*
Y147751D01*
X1130250Y110250D02*
Y147751D01*
X1121250Y133750D02*
Y143750D01*
X1116250Y138750D02*
X1126250D01*
X1147060Y90870D02*
X1252470D01*
X1147060D02*
Y153100D01*
X1252470D01*
Y90870D02*
Y153100D01*
X1195000Y115000D02*
X1205000D01*
X1200000Y110000D02*
Y120000D01*
X802060Y90870D02*
X907470D01*
X802060D02*
Y153100D01*
X907470D01*
Y90870D02*
Y153100D01*
X850000Y115000D02*
X860000D01*
X855000Y110000D02*
Y120000D01*
X1102500Y257500D02*
X1112500D01*
X1107500Y252500D02*
Y262500D01*
X1092500Y226500D02*
X1122500D01*
Y288500D01*
X1092500D02*
X1122500D01*
X1092500Y226500D02*
Y288500D01*
X1072500Y226500D02*
Y288500D01*
X1042500Y226500D02*
X1072500D01*
X1042500D02*
Y288500D01*
X1072500D01*
X1057500Y252500D02*
Y262500D01*
X1052500Y257500D02*
X1062500D01*
X1022500Y226500D02*
Y288500D01*
X992500Y226500D02*
X1022500D01*
X992500D02*
Y288500D01*
X1022500D01*
X1007500Y252500D02*
Y262500D01*
X1002500Y257500D02*
X1012500D01*
X942500Y226500D02*
Y288500D01*
X972500D01*
Y226500D02*
Y288500D01*
X942500Y226500D02*
X972500D01*
X957500Y252500D02*
Y262500D01*
X952500Y257500D02*
X962500D01*
X920500Y424750D02*
X930000D01*
X925250Y420000D02*
Y429500D01*
X911250Y431750D02*
X939250D01*
X911250Y417750D02*
X939250D01*
X911250D02*
Y431750D01*
X939250Y417750D02*
Y431750D01*
X839500Y381750D02*
Y391750D01*
X834500Y386750D02*
X844500D01*
X822500Y379750D02*
Y393750D01*
X856500Y379750D02*
Y393750D01*
X822500D02*
X856500D01*
X822500Y379750D02*
X856500D01*
X748000Y394500D02*
X782000D01*
X748000Y380500D02*
X782000D01*
X748000D02*
Y394500D01*
X782000Y380500D02*
Y394500D01*
X760000Y387500D02*
X770000D01*
X765000Y382500D02*
Y392500D01*
X656500Y335000D02*
X718500D01*
X656500D02*
Y365000D01*
X718500D01*
Y335000D02*
Y365000D01*
X682500Y350000D02*
X692500D01*
X687500Y345000D02*
Y355000D01*
X766500Y345750D02*
Y355750D01*
X761500Y350750D02*
X771500D01*
X738000Y334750D02*
Y366750D01*
Y334750D02*
X795000D01*
Y366750D01*
X738000D02*
X795000D01*
X899000Y335000D02*
X961000D01*
X899000D02*
Y365000D01*
X961000D01*
Y335000D02*
Y365000D01*
X925000Y350000D02*
X935000D01*
X930000Y345000D02*
Y355000D01*
X840500Y345500D02*
Y355500D01*
X835500Y350500D02*
X845500D01*
X869000Y334500D02*
Y366500D01*
X812000D02*
X869000D01*
X812000Y334500D02*
Y366500D01*
Y334500D02*
X869000D01*
X850000Y420000D02*
Y430000D01*
X845000Y425000D02*
X855000D01*
X878500Y409000D02*
Y441000D01*
X821500D02*
X878500D01*
X821500Y409000D02*
Y441000D01*
Y409000D02*
X878500D01*
X765000Y420000D02*
Y430000D01*
X760000Y425000D02*
X770000D01*
X736500Y409000D02*
Y441000D01*
Y409000D02*
X793500D01*
Y441000D01*
X736500D02*
X793500D01*
X691250Y411750D02*
Y445750D01*
X705250Y411750D02*
Y445750D01*
X691250Y411750D02*
X705250D01*
X691250Y445750D02*
X705250D01*
X698250Y423750D02*
Y433750D01*
X693250Y428750D02*
X703250D01*
X1060000Y540000D02*
X1065000D01*
X1062500Y537500D02*
Y542500D01*
X1058000Y550000D02*
X1067000D01*
X1058000Y530000D02*
X1067000D01*
Y550000D01*
X1058000Y530000D02*
Y550000D01*
X1047500Y540000D02*
X1052500D01*
X1050000Y537500D02*
Y542500D01*
X1045500Y530000D02*
X1054500D01*
X1045500Y550000D02*
X1054500D01*
X1045500Y530000D02*
Y550000D01*
X1054500Y530000D02*
Y550000D01*
X1035000Y540000D02*
X1040000D01*
X1037500Y537500D02*
Y542500D01*
X1033000Y550000D02*
X1042000D01*
X1033000Y530000D02*
X1042000D01*
Y550000D01*
X1033000Y530000D02*
Y550000D01*
X671500Y555750D02*
Y565250D01*
X666749Y560500D02*
X676250D01*
X678500Y546500D02*
Y574500D01*
X664500Y546500D02*
Y574500D01*
X678500D01*
X664500Y546500D02*
X678500D01*
X653750Y555750D02*
Y565250D01*
X649000Y560500D02*
X658500D01*
X660750Y546500D02*
Y574500D01*
X646750Y546500D02*
Y574500D01*
X660750D01*
X646750Y546500D02*
X660750D01*
X969250Y771250D02*
X978750D01*
X974000Y766500D02*
Y776000D01*
X960000Y778250D02*
X988000D01*
X960000Y764250D02*
X988000D01*
X960000D02*
Y778250D01*
X988000Y764250D02*
Y778250D01*
X969250Y753500D02*
X978750D01*
X974000Y748750D02*
Y758251D01*
X960000Y760500D02*
X987999D01*
X960000Y746500D02*
X987999D01*
X960000D02*
Y760500D01*
X987999Y746500D02*
Y760500D01*
X988000Y710750D02*
Y724750D01*
X960000Y710750D02*
Y724750D01*
Y710750D02*
X988000D01*
X960000Y724750D02*
X988000D01*
X974000Y713000D02*
Y722500D01*
X969250Y717750D02*
X978750D01*
X988000Y693000D02*
Y707000D01*
X960000Y693000D02*
Y707000D01*
Y693000D02*
X988000D01*
X960000Y707000D02*
X988000D01*
X974000Y695250D02*
Y704750D01*
X969250Y700000D02*
X978750D01*
X969250Y682500D02*
X978750D01*
X974000Y677750D02*
Y687250D01*
X960000Y689500D02*
X988000D01*
X960000Y675500D02*
X988000D01*
X960000D02*
Y689500D01*
X988000Y675500D02*
Y689500D01*
X969250Y664500D02*
X978750D01*
X974000Y659750D02*
Y669250D01*
X960000Y671500D02*
X988000D01*
X960000Y657500D02*
X988000D01*
X960000D02*
Y671500D01*
X988000Y657500D02*
Y671500D01*
X969250Y646750D02*
X978750D01*
X974000Y642000D02*
Y651500D01*
X960000Y653750D02*
X988000D01*
X960000Y639750D02*
X988000D01*
X960000D02*
Y653750D01*
X988000Y639750D02*
Y653750D01*
X765000Y740500D02*
Y744500D01*
X763000Y742500D02*
X767000D01*
X737500Y724500D02*
X791500D01*
Y760500D01*
X737500D02*
X791500D01*
X737500Y724500D02*
Y760500D01*
X712500Y747500D02*
Y752500D01*
X710000Y750000D02*
X715000D01*
X702500Y745500D02*
Y754500D01*
X722500Y745500D02*
Y754500D01*
X702500D02*
X722500D01*
X702500Y745500D02*
X722500D01*
X712500Y735000D02*
Y740000D01*
X710000Y737500D02*
X715000D01*
X702500Y733000D02*
Y742000D01*
X722500Y733000D02*
Y742000D01*
X702500D02*
X722500D01*
X702500Y733000D02*
X722500D01*
X687500Y747500D02*
Y752500D01*
X685000Y750000D02*
X690000D01*
X697500Y745500D02*
Y754500D01*
X677500Y745500D02*
Y754500D01*
Y745500D02*
X697500D01*
X677500Y754500D02*
X697500D01*
X790000Y772500D02*
Y777500D01*
X787500Y775000D02*
X792500D01*
X780000Y770500D02*
Y779500D01*
X800000Y770500D02*
Y779500D01*
X780000D02*
X800000D01*
X780000Y770500D02*
X800000D01*
X761750Y860250D02*
Y869750D01*
X757000Y865000D02*
X766500D01*
X754750Y851000D02*
Y879000D01*
X768750Y851000D02*
Y879000D01*
X754750Y851000D02*
X768750D01*
X754750Y879000D02*
X768750D01*
X867250Y897500D02*
X877250D01*
X872250Y892500D02*
Y902500D01*
X889750Y878250D02*
Y916750D01*
X854750Y878250D02*
Y916750D01*
X889750D01*
X854750Y878250D02*
X889750D01*
X818250Y854750D02*
Y888750D01*
X832250Y854750D02*
Y888750D01*
X818250Y854750D02*
X832250D01*
X818250Y888750D02*
X832250D01*
X825250Y866750D02*
Y876750D01*
X820250Y871750D02*
X830250D01*
X829000Y907500D02*
Y912500D01*
X826500Y910000D02*
X831500D01*
X819000Y905500D02*
Y914500D01*
X839000Y905500D02*
Y914500D01*
X819000D02*
X839000D01*
X819000Y905500D02*
X839000D01*
X865000Y763000D02*
X870000D01*
X867500Y760500D02*
Y765500D01*
X863000Y753000D02*
X872000D01*
X863000Y773000D02*
X872000D01*
X863000Y753000D02*
Y773000D01*
X872000Y753000D02*
Y773000D01*
X619000Y590000D02*
Y604000D01*
X647000Y590000D02*
Y604000D01*
X619000D02*
X647000D01*
X619000Y590000D02*
X647000D01*
X633000Y592250D02*
Y601750D01*
X628250Y597000D02*
X637750D01*
X628250Y617000D02*
X637750D01*
X632999Y612250D02*
Y621750D01*
X618999Y610000D02*
X647000D01*
X618999Y624000D02*
X647000D01*
Y610000D02*
Y624000D01*
X618999Y610000D02*
Y624000D01*
X628250Y637000D02*
X637750D01*
X633000Y632250D02*
Y641750D01*
X619000Y630000D02*
X647000D01*
X619000Y644000D02*
X647000D01*
Y630000D02*
Y644000D01*
X619000Y630000D02*
Y644000D01*
X577250Y341250D02*
Y375250D01*
X563250Y341250D02*
Y375250D01*
X577250D01*
X563250Y341250D02*
X577250D01*
X570250Y353250D02*
Y363250D01*
X565250Y358250D02*
X575250D01*
X509000Y372750D02*
X543000D01*
X509000Y386750D02*
X543000D01*
Y372750D02*
Y386750D01*
X509000Y372750D02*
Y386750D01*
X521000Y379750D02*
X531000D01*
X526000Y374750D02*
Y384750D01*
X441250Y140750D02*
Y158750D01*
X478751Y140750D02*
Y158750D01*
X441250D02*
X478751D01*
X441250Y140750D02*
X478751D01*
X464750Y149750D02*
X474750D01*
X469750Y144750D02*
Y154750D01*
X337500Y115000D02*
X347500D01*
X342500Y110000D02*
Y120000D01*
X382070Y90870D02*
Y153100D01*
X302060D02*
X382070D01*
X302060Y90870D02*
Y153100D01*
Y90870D02*
X382070D01*
X489560D02*
X569570D01*
X489560D02*
Y153100D01*
X569570D01*
Y90870D02*
Y153100D01*
X530000Y110000D02*
Y120000D01*
X525000Y115000D02*
X535000D01*
X520000Y237500D02*
X530000D01*
X525000Y232500D02*
Y242500D01*
X404500Y190500D02*
Y194500D01*
X402500Y192500D02*
X406500D01*
X397500Y207500D02*
X411500D01*
X397500Y206500D02*
Y207500D01*
Y177500D02*
Y206500D01*
Y177500D02*
X411500D01*
Y207500D01*
X380000Y190500D02*
Y194500D01*
X378000Y192500D02*
X382000D01*
X373000Y207500D02*
X387000D01*
X373000Y206500D02*
Y207500D01*
Y177500D02*
Y206500D01*
Y177500D02*
X387000D01*
Y207500D01*
X355000Y190500D02*
Y194500D01*
X353000Y192500D02*
X357000D01*
X348000Y207500D02*
X362000D01*
X348000Y206500D02*
Y207500D01*
Y177500D02*
Y206500D01*
Y177500D02*
X362000D01*
Y207500D01*
X330000Y190500D02*
Y194500D01*
X328000Y192500D02*
X332000D01*
X323000Y207500D02*
X337000D01*
X323000Y206500D02*
Y207500D01*
Y177500D02*
Y206500D01*
Y177500D02*
X337000D01*
Y207500D01*
X430000Y250000D02*
X440000D01*
X435000Y245000D02*
Y255000D01*
X302500Y245000D02*
Y255000D01*
X297500Y250000D02*
X307500D01*
X168000Y420500D02*
Y454500D01*
X182000Y420500D02*
Y454500D01*
X168000Y420500D02*
X182000D01*
X168000Y454500D02*
X182000D01*
X175000Y432500D02*
Y442500D01*
X170000Y437500D02*
X180000D01*
X145000D02*
X155000D01*
X150000Y432500D02*
Y442500D01*
X143000Y454500D02*
X157000D01*
X143000Y420500D02*
X157000D01*
Y454500D01*
X143000Y420500D02*
Y454500D01*
X365000Y750000D02*
Y760000D01*
X360000Y755000D02*
X370000D01*
X336500Y739000D02*
Y771000D01*
Y739000D02*
X393500D01*
Y771000D01*
X336500D02*
X393500D01*
X378500Y429000D02*
Y443000D01*
X406500Y429000D02*
Y443000D01*
X378500D02*
X406500D01*
X378500Y429000D02*
X406500D01*
X392500Y431250D02*
Y440751D01*
X387750Y436000D02*
X397250D01*
X378250Y455500D02*
Y469500D01*
X406250Y455500D02*
Y469500D01*
X378250D02*
X406250D01*
X378250Y455500D02*
X406250D01*
X392250Y457750D02*
Y467250D01*
X387500Y462500D02*
X397000D01*
X387500Y488500D02*
X397000D01*
X392250Y483750D02*
Y493250D01*
X378250Y481500D02*
X406250D01*
X378250Y495500D02*
X406250D01*
Y481500D02*
Y495500D01*
X378250Y481500D02*
Y495500D01*
X387750Y512750D02*
X397250D01*
X392500Y508000D02*
Y517500D01*
X378500Y505750D02*
X406500D01*
X378500Y519750D02*
X406500D01*
Y505750D02*
Y519750D01*
X378500Y505750D02*
Y519750D01*
X483000Y462750D02*
X492500D01*
X487750Y458000D02*
Y467500D01*
X473750Y455750D02*
X501750D01*
X473750Y469750D02*
X501750D01*
Y455750D02*
Y469750D01*
X473750Y455750D02*
Y469750D01*
X483500Y486750D02*
X493000D01*
X488250Y482000D02*
Y491500D01*
X474250Y479750D02*
X502250D01*
X474250Y493750D02*
X502250D01*
Y479750D02*
Y493750D01*
X474250Y479750D02*
Y493750D01*
X483000Y513000D02*
X492500D01*
X487750Y508250D02*
Y517750D01*
X473750Y506000D02*
X501750D01*
X473750Y520000D02*
X501750D01*
Y506000D02*
Y520000D01*
X473750Y506000D02*
Y520000D01*
X473750Y531250D02*
Y545250D01*
X501750Y531250D02*
Y545250D01*
X473750D02*
X501750D01*
X473750Y531250D02*
X501750D01*
X487750Y533500D02*
Y543000D01*
X483000Y538250D02*
X492500D01*
X473750Y556250D02*
Y570250D01*
X501750Y556250D02*
Y570250D01*
X473750D02*
X501750D01*
X473750Y556250D02*
X501750D01*
X487750Y558500D02*
Y568000D01*
X483000Y563250D02*
X492500D01*
X461250Y409250D02*
Y423250D01*
X489250Y409250D02*
Y423250D01*
X461250D02*
X489250D01*
X461250Y409250D02*
X489250D01*
X475250Y411500D02*
Y421000D01*
X470500Y416250D02*
X480000D01*
X473500Y655500D02*
Y669500D01*
X501500Y655500D02*
Y669500D01*
X473500D02*
X501500D01*
X473500Y655500D02*
X501500D01*
X487500Y657750D02*
Y667250D01*
X482750Y662500D02*
X492250D01*
X473500Y680500D02*
Y694500D01*
X501500Y680500D02*
Y694500D01*
X473500D02*
X501500D01*
X473500Y680500D02*
X501500D01*
X487500Y682750D02*
Y692250D01*
X482750Y687500D02*
X492250D01*
X473500Y705500D02*
Y719500D01*
X501500Y705500D02*
Y719500D01*
X473500D02*
X501500D01*
X473500Y705500D02*
X501500D01*
X487500Y707750D02*
Y717250D01*
X482750Y712500D02*
X492250D01*
X365000Y785000D02*
Y795000D01*
X360000Y790000D02*
X370000D01*
X336500Y774000D02*
Y806000D01*
Y774000D02*
X393500D01*
Y806000D01*
X336500D02*
X393500D01*
X355800Y957250D02*
X365800D01*
X360800Y952250D02*
Y962250D01*
X348000Y827000D02*
X382000D01*
X348000Y813000D02*
X382000D01*
X348000D02*
Y827000D01*
X382000Y813000D02*
Y827000D01*
X360000Y820000D02*
X370000D01*
X365000Y815000D02*
Y825000D01*
X348000Y852000D02*
X382000D01*
X348000Y838000D02*
X382000D01*
X348000D02*
Y852000D01*
X382000Y838000D02*
Y852000D01*
X360000Y845000D02*
X370000D01*
X365000Y840000D02*
Y850000D01*
X348000Y877000D02*
X382000D01*
X348000Y863000D02*
X382000D01*
X348000D02*
Y877000D01*
X382000Y863000D02*
Y877000D01*
X360000Y870000D02*
X370000D01*
X365000Y865000D02*
Y875000D01*
X1212500Y837500D02*
X1222500D01*
X1217500Y832500D02*
Y842500D01*
X1166500Y880500D02*
X1268500D01*
X1166500Y794500D02*
Y880500D01*
Y794500D02*
X1268500D01*
Y880500D01*
X1185000Y531500D02*
Y593500D01*
X1155000Y531500D02*
X1185000D01*
X1155000D02*
Y593500D01*
X1185000D01*
X1170000Y557500D02*
Y567500D01*
X1165000Y562500D02*
X1175000D01*
X1245000Y562500D02*
Y572500D01*
X1240000Y567500D02*
X1250000D01*
X1201500Y531500D02*
X1288500D01*
X1201500Y603500D02*
X1288500D01*
Y531500D02*
Y603500D01*
X1201500Y531500D02*
Y603500D01*
Y446500D02*
Y518500D01*
X1288500Y446500D02*
Y518500D01*
X1201500D02*
X1288500D01*
X1201500Y446500D02*
X1288500D01*
X1240000Y482500D02*
X1250000D01*
X1245000Y477500D02*
Y487500D01*
X1165000Y482500D02*
X1175000D01*
X1170000Y477500D02*
Y487500D01*
X1155000Y513500D02*
X1185000D01*
X1155000Y451500D02*
Y513500D01*
Y451500D02*
X1185000D01*
Y513500D01*
X1153464Y416536D02*
X1160536Y409464D01*
X1153464Y409465D02*
X1160536Y416536D01*
X1164071Y429971D02*
X1173971Y420071D01*
X1140030Y405929D02*
X1149929Y396030D01*
X1173971Y420071D01*
X1140030Y405929D02*
X1164071Y429971D01*
X1180500Y427000D02*
X1214500D01*
X1180500Y413000D02*
X1214500D01*
X1180500D02*
Y427000D01*
X1214500Y413000D02*
Y427000D01*
X1192500Y420000D02*
X1202500D01*
X1197500Y415000D02*
Y425000D01*
X1223000Y413000D02*
X1257000D01*
X1223000Y427000D02*
X1257000D01*
Y413000D02*
Y427000D01*
X1223000Y413000D02*
Y427000D01*
X1235000Y420000D02*
X1245000D01*
X1240000Y415000D02*
Y425000D01*
X1265500Y413000D02*
X1299500D01*
X1265500Y427000D02*
X1299500D01*
Y413000D02*
Y427000D01*
X1265500Y413000D02*
Y427000D01*
X1277500Y420000D02*
X1287500D01*
X1282500Y415000D02*
Y425000D01*
X1224750Y886751D02*
Y920751D01*
X1238750Y886751D02*
Y920751D01*
X1224750Y886751D02*
X1238750D01*
X1224750Y920751D02*
X1238750D01*
X1231750Y898751D02*
Y908751D01*
X1226750Y903750D02*
X1236750D01*
X520250Y320000D02*
X530250D01*
X525250Y315000D02*
Y325000D01*
X507750Y300750D02*
Y339250D01*
X542750Y300750D02*
Y339250D01*
X507750Y300750D02*
X542750D01*
X507750Y339250D02*
X542750D01*
X1157750Y886750D02*
Y920750D01*
X1171750Y886750D02*
Y920750D01*
X1157750Y886750D02*
X1171750D01*
X1157750Y920750D02*
X1171750D01*
X1164750Y898750D02*
Y908750D01*
X1159750Y903750D02*
X1169750D01*
X1180250Y886750D02*
Y920750D01*
X1194250Y886750D02*
Y920750D01*
X1180250Y886750D02*
X1194250D01*
X1180250Y920750D02*
X1194250D01*
X1187250Y898750D02*
Y908750D01*
X1182250Y903750D02*
X1192250D01*
X1202750Y886750D02*
Y920750D01*
X1216750Y886750D02*
Y920750D01*
X1202750Y886750D02*
X1216750D01*
X1202750Y920750D02*
X1216750D01*
X1209750Y898750D02*
Y908750D01*
X1204750Y903750D02*
X1214750D01*
X1209750Y936500D02*
Y946000D01*
X1205000Y941250D02*
X1214500D01*
X1216750Y927250D02*
Y955250D01*
X1202750Y927250D02*
Y955250D01*
X1216750D01*
X1202750Y927250D02*
X1216750D01*
X1187250Y936500D02*
Y946000D01*
X1182500Y941250D02*
X1192000D01*
X1194250Y927250D02*
Y955250D01*
X1180250Y927250D02*
Y955250D01*
X1194250D01*
X1180250Y927250D02*
X1194250D01*
X1164750Y936500D02*
Y946000D01*
X1160000Y941250D02*
X1169500D01*
X1171750Y927250D02*
Y955250D01*
X1157750Y927250D02*
Y955250D01*
X1171750D01*
X1157750Y927250D02*
X1171750D01*
X969250Y735750D02*
X978750D01*
X974000Y731000D02*
Y740500D01*
X960000Y742750D02*
X988000D01*
X960000Y728750D02*
X988000D01*
X960000D02*
Y742750D01*
X988000Y728750D02*
Y742750D01*
X482750Y637500D02*
X492250D01*
X487500Y632750D02*
Y642250D01*
X473500Y630500D02*
X501500D01*
X473500Y644500D02*
X501500D01*
Y630500D02*
Y644500D01*
X473500Y630500D02*
Y644500D01*
X482750Y612500D02*
X492250D01*
X487500Y607750D02*
Y617250D01*
X473500Y605500D02*
X501500D01*
X473500Y619500D02*
X501500D01*
Y605500D02*
Y619500D01*
X473500Y605500D02*
Y619500D01*
D46*
X367500Y262500D02*
D03*
M02*
