G04*
G04 #@! TF.GenerationSoftware,Altium Limited,Altium Designer,21.8.1 (53)*
G04*
G04 Layer_Physical_Order=2*
G04 Layer_Color=16711680*
%FSLAX44Y44*%
%MOMM*%
G71*
G04*
G04 #@! TF.SameCoordinates,D186F9AF-6EAA-4C68-B435-6125638006CD*
G04*
G04*
G04 #@! TF.FilePolarity,Positive*
G04*
G01*
G75*
%ADD10C,0.2500*%
%ADD11C,0.2000*%
%ADD14C,0.0500*%
%ADD17C,0.1000*%
G04:AMPARAMS|DCode=46|XSize=0.8mm|YSize=2mm|CornerRadius=0.004mm|HoleSize=0mm|Usage=FLASHONLY|Rotation=90.000|XOffset=0mm|YOffset=0mm|HoleType=Round|Shape=RoundedRectangle|*
%AMROUNDEDRECTD46*
21,1,0.8000,1.9920,0,0,90.0*
21,1,0.7920,2.0000,0,0,90.0*
1,1,0.0080,0.9960,0.3960*
1,1,0.0080,0.9960,-0.3960*
1,1,0.0080,-0.9960,-0.3960*
1,1,0.0080,-0.9960,0.3960*
%
%ADD46ROUNDEDRECTD46*%
%ADD90C,3.5000*%
%ADD96C,1.6000*%
%ADD97P,1.7318X8X22.5*%
%ADD108C,0.4000*%
%ADD110C,0.4000*%
%ADD111C,1.0000*%
%ADD112C,0.5000*%
%ADD113C,1.5000*%
%ADD114C,0.7500*%
%ADD116C,3.4000*%
%ADD117C,2.0000*%
%ADD118P,2.1648X8X112.5*%
%ADD119C,1.5000*%
%ADD120P,1.6236X8X22.5*%
%ADD121R,2.0000X2.0000*%
%ADD122C,1.8000*%
%ADD123R,2.0000X2.0000*%
%ADD124C,3.0000*%
%ADD125C,1.0000*%
%ADD126C,0.8000*%
%ADD127C,0.6000*%
%ADD128C,1.2700*%
%ADD129C,1.7500*%
%ADD130C,1.2000*%
%ADD131C,0.3000*%
%ADD132C,2.2000*%
%ADD133C,2.0000*%
G36*
X830000Y237186D02*
X823907Y231093D01*
X823189Y230018D01*
X822936Y228750D01*
Y205001D01*
X823189Y203732D01*
X823907Y202658D01*
X824982Y201939D01*
X825318Y201192D01*
X824656Y200000D01*
X770000D01*
Y265000D01*
X830000D01*
Y237186D01*
D02*
G37*
D10*
X623750Y781000D02*
X652500Y752250D01*
Y729750D02*
Y752250D01*
X466750Y781000D02*
X623750D01*
X613750Y776000D02*
X632000Y757750D01*
Y699000D02*
X669000Y662000D01*
X632000Y699000D02*
Y757750D01*
X762250Y621250D02*
X765250Y624250D01*
X751250Y621250D02*
X762250D01*
X742500Y612500D02*
X751250Y621250D01*
X800750Y627000D02*
Y836000D01*
X761500Y843250D02*
X793500D01*
X800750Y836000D01*
X869500Y816250D02*
X869750Y816000D01*
Y743750D02*
Y816000D01*
X811500Y685500D02*
X869750Y743750D01*
X644500Y588250D02*
X730500D01*
X757500Y615250D01*
X799723Y546420D02*
X820963Y567660D01*
Y568713D01*
X796420Y546420D02*
X799723D01*
X820963Y568713D02*
X821250Y569000D01*
X795750Y545750D02*
X796420Y546420D01*
X784500Y543000D02*
X810750Y569250D01*
X815000D01*
X742500Y537500D02*
X788447D01*
X795750Y544803D01*
Y545750D01*
X732500Y543000D02*
X784500D01*
X791750Y532750D02*
X874250Y615250D01*
X750000Y532750D02*
X791750D01*
X875250Y658250D02*
Y658464D01*
X837750Y861500D02*
X877250Y822000D01*
X875250Y658464D02*
X877250Y660464D01*
Y822000D01*
X822500Y668750D02*
X848250Y694500D01*
X863000D01*
X907750Y818750D02*
X1007078D01*
X1008328Y820000D01*
X1107250D01*
X1120400Y806850D01*
X681250Y673000D02*
X691500Y683250D01*
X681250Y666000D02*
Y673000D01*
X663750Y630750D02*
Y653500D01*
X584893Y552393D02*
X585393D01*
X506250Y473750D02*
X584893Y552393D01*
X585393D02*
X663750Y630750D01*
X701000Y658500D02*
X709500Y650000D01*
X716750D01*
X693250Y622500D02*
X705000Y610750D01*
X693250Y622500D02*
Y666500D01*
X687750Y620500D02*
X702250Y606000D01*
X710250D02*
X719250Y615000D01*
X702250Y606000D02*
X710250D01*
X876500Y544250D02*
X929500D01*
X876250Y544000D02*
X876500Y544250D01*
X869250Y538000D02*
X921000D01*
X950250Y508750D01*
X853500Y506750D02*
X942970Y417280D01*
X944720D01*
X1033999Y328001D01*
X825963Y494287D02*
Y494375D01*
X850500Y518912D01*
Y519000D01*
X847500Y525000D02*
X853750D01*
X810500Y488000D02*
X847500Y525000D01*
X765250Y527250D02*
X793000D01*
X853750Y525000D02*
X934750Y444000D01*
X711250Y458500D02*
X735500D01*
X615250Y362500D02*
X711250Y458500D01*
X865000Y615000D02*
X869250Y619250D01*
Y628750D01*
X1033999Y266750D02*
Y328001D01*
X1018500Y251250D02*
X1033999Y266750D01*
X925000Y275000D02*
X925250D01*
X941000Y290750D02*
X941250D01*
X925250Y275000D02*
X941000Y290750D01*
X879500Y553250D02*
X936250D01*
X955500Y534000D01*
X541000Y652000D02*
X541125Y651875D01*
Y616375D02*
X541250Y616250D01*
X541125Y616375D02*
Y651875D01*
X975750Y485250D02*
X996750Y464250D01*
X920250Y526000D02*
X961000Y485250D01*
X975750D01*
X996750Y464250D02*
X1108000D01*
X934750Y444000D02*
X956000D01*
X929500Y544250D02*
X951750Y522000D01*
Y521750D02*
Y522000D01*
X571453Y652297D02*
X571656Y652500D01*
X571250Y616250D02*
X571453Y616453D01*
Y652297D01*
X408250Y453250D02*
X408313Y453313D01*
X488062D01*
X488125Y453375D01*
X362250Y296000D02*
X397500Y331250D01*
X1015000Y717500D02*
X1043250Y745750D01*
X1043500D01*
X1107300Y666750D02*
X1120400Y679850D01*
X1069000Y666750D02*
X1107300D01*
X737500Y681250D02*
X761394Y657356D01*
X761893D02*
X785500Y633750D01*
X761394Y657356D02*
X761893D01*
X732807Y684807D02*
X736250Y688250D01*
X730000Y681656D02*
X732807Y684463D01*
X730000Y681250D02*
Y681656D01*
X732807Y684463D02*
Y684807D01*
X652500Y729750D02*
X732000Y650250D01*
X687750Y669750D02*
X696250Y678250D01*
X712911Y694161D02*
X734250Y715500D01*
X674000Y731000D02*
X710839Y694161D01*
X712911D01*
X672750Y724500D02*
X709589Y687661D01*
X712661D01*
X556312Y652438D02*
X556375Y652375D01*
Y616375D02*
Y652375D01*
X502125Y436125D02*
X502250Y436250D01*
X547250D01*
X795000Y570250D02*
X813000Y588250D01*
X832250D01*
X847500Y595250D02*
Y616750D01*
X831000Y578750D02*
X847500Y595250D01*
X701750Y570500D02*
X778500D01*
X691500Y560250D02*
X701750Y570500D01*
X791250Y604500D02*
X791500D01*
X784750Y598000D02*
X791250Y604500D01*
X757500Y598000D02*
X784750D01*
X835625Y628500D02*
X835750D01*
X828625Y628875D02*
X835250D01*
X835625Y628500D01*
X806000Y629625D02*
Y678250D01*
Y629625D02*
X812188Y623438D01*
X747000Y643094D02*
Y643500D01*
Y643094D02*
X750840Y639254D01*
Y638660D02*
Y639254D01*
X771312Y679812D02*
X771375Y679875D01*
X758750Y680000D02*
X759037Y679713D01*
X771312Y668063D02*
Y679812D01*
X759537Y679713D02*
X771250Y668000D01*
X759037Y679713D02*
X759537D01*
X771250Y668000D02*
X771312Y668063D01*
X829500Y642500D02*
X847250D01*
X831406Y664500D02*
X851000D01*
X861250Y674750D01*
X811500Y634250D02*
Y685500D01*
X736250Y688250D02*
X790750D01*
X796000Y683000D01*
X745000Y665000D02*
X777787Y632213D01*
Y625287D02*
Y632213D01*
X785500Y621250D02*
Y633750D01*
X719250Y682500D02*
X740000Y703250D01*
X707500Y682500D02*
X719250D01*
X673500Y716500D02*
X707500Y682500D01*
X838107Y701607D02*
X858000Y721500D01*
X836607Y701607D02*
X838107D01*
X817000Y682000D02*
X836607Y701607D01*
X383547Y836703D02*
X444249Y776000D01*
X613750D01*
X398122Y849629D02*
X466750Y781000D01*
X378000Y289000D02*
X435250Y346250D01*
Y346250D01*
X380250Y282500D02*
X412024Y314273D01*
X413023D01*
X445000Y346250D01*
X826250Y228750D02*
X848750Y251250D01*
X826250Y205001D02*
Y228750D01*
X848750Y251250D02*
X1018500D01*
X675000Y637500D02*
Y646679D01*
X677500Y649179D01*
Y656869D01*
X675000Y659369D02*
X677500Y656869D01*
X675000Y659369D02*
Y677500D01*
X732750Y581000D02*
X752500D01*
X764500Y593000D01*
X822500Y657500D02*
X822750Y657250D01*
X822500Y657500D02*
Y668750D01*
X829750Y663250D02*
X830156D01*
X831406Y664500D01*
X687750Y620500D02*
Y669750D01*
X732000Y650250D02*
X751750D01*
X732500Y548750D02*
X783750D01*
X795000Y560000D01*
X846750Y651250D02*
X869250Y628750D01*
X830000Y651250D02*
X846750D01*
X847250Y642500D02*
X863715Y626035D01*
X835750Y628500D02*
X847500Y616750D01*
X828750Y609500D02*
Y621250D01*
X828750Y621250D02*
X828750Y621250D01*
X786250Y660000D02*
Y680000D01*
Y660000D02*
X795000Y651250D01*
X778750Y658750D02*
X786250Y651250D01*
X778750Y658750D02*
Y680000D01*
X777500Y625000D02*
X777787Y625287D01*
X777844Y605000D02*
X791750Y618906D01*
X777500Y605000D02*
X777844D01*
X791750Y618906D02*
Y638250D01*
X757250Y607500D02*
X762000Y602750D01*
X767000D01*
X800750Y599750D02*
Y609422D01*
X797000Y613172D02*
Y623250D01*
Y613172D02*
X800750Y609422D01*
X863715Y621715D02*
Y626035D01*
X857250Y615250D02*
X863715Y621715D01*
X1069500Y718000D02*
X1127500D01*
X1015250Y663750D02*
X1069500Y718000D01*
X1063150Y730650D02*
X1095000D01*
X1015000Y682500D02*
X1063150Y730650D01*
X1043550Y756050D02*
X1095000D01*
X1015000Y727500D02*
X1043550Y756050D01*
X1015000Y700000D02*
Y700250D01*
X1058000Y743250D01*
X1064000D01*
X750000Y680000D02*
X791750Y638250D01*
X811500Y634250D02*
X811750Y634000D01*
X817000Y609000D02*
Y682000D01*
X775750Y574750D02*
X800750Y599750D01*
X646771Y694250D02*
X680750D01*
X643271Y697750D02*
X646771Y694250D01*
X686000Y688500D02*
X686250D01*
X675000Y677500D02*
X686000Y688500D01*
X548750Y621250D02*
Y655250D01*
X563750Y621250D02*
Y655000D01*
X712661Y687661D02*
X734500Y709500D01*
X718750Y581500D02*
X725500Y574750D01*
X775750D01*
X718750Y593500D02*
Y605750D01*
X734250Y715500D02*
X751000D01*
X756000Y710500D01*
X734500Y709500D02*
X746750D01*
X699500Y712500D02*
X716750Y729750D01*
X762750D01*
X704750Y707250D02*
X722250Y724750D01*
X757500D01*
X710000Y702000D02*
X728750Y720750D01*
X753500D01*
X751750Y650250D02*
X770500Y631500D01*
X764000Y710250D02*
X780750D01*
X753500Y720750D02*
X764000Y710250D01*
X757500Y724750D02*
X766500Y715750D01*
X762750Y729750D02*
X771750Y720750D01*
X559787Y486713D02*
X570963D01*
X618750Y534500D01*
X669000Y618500D02*
Y662000D01*
Y618500D02*
X692000Y595500D01*
X353500Y297250D02*
X644500Y588250D01*
X699250Y627500D02*
X757500D01*
X750840Y638660D02*
X754393Y635107D01*
X383547Y836703D02*
Y836703D01*
X727250Y557000D02*
X784000D01*
X699106Y528856D02*
X727250Y557000D01*
X699106Y454607D02*
Y528856D01*
X714750Y561750D02*
X781000D01*
X624563Y471563D02*
X714750Y561750D01*
X624563Y433313D02*
Y471563D01*
X581750Y390500D02*
X624563Y433313D01*
X784000Y557000D02*
X790000Y563000D01*
X781000Y561750D02*
X828750Y609500D01*
X778500Y570500D02*
X817000Y609000D01*
X795000Y560000D02*
Y570250D01*
X767000Y602750D02*
X785500Y621250D01*
X800750Y627000D02*
X811000Y616750D01*
Y610250D02*
Y616750D01*
X770500Y614000D02*
Y631500D01*
X754393Y635107D02*
X758894D01*
X765250Y628750D01*
Y624250D02*
Y628750D01*
X766500Y610000D02*
X770500Y614000D01*
X570500Y390500D02*
X581750D01*
X607750Y363250D02*
X699106Y454607D01*
X547250Y436250D02*
X578750Y404750D01*
Y397500D02*
Y404750D01*
X362250Y288750D02*
Y296000D01*
X1108000Y464250D02*
X1120400Y476650D01*
X1127500Y718000D02*
X1134500Y725000D01*
Y741950D01*
X1120400Y756050D02*
X1134500Y741950D01*
X419000Y351500D02*
X430750Y363250D01*
X370000Y292625D02*
X419000Y341625D01*
Y351500D01*
X430750Y363250D02*
X607750D01*
X370000Y292500D02*
Y292625D01*
X297300Y922950D02*
X383547Y836703D01*
X396122Y849629D02*
X398122D01*
X322700Y923050D02*
X396122Y849629D01*
X322700Y923050D02*
Y957250D01*
X297300Y922950D02*
Y957250D01*
X353500Y286500D02*
Y297250D01*
Y286500D02*
X358000Y282000D01*
D11*
X826250Y205001D02*
X828501Y202750D01*
X884250D01*
X665000Y520750D02*
X710250Y566000D01*
X779500D01*
X822250Y608750D01*
X844102Y637250D02*
X856250Y625102D01*
X826750Y637250D02*
X844102D01*
X822250Y632750D02*
X826750Y637250D01*
X822250Y608750D02*
Y632750D01*
D14*
X422300Y224600D02*
X447700D01*
Y275400D01*
X422300D02*
X447700D01*
X422300Y224600D02*
Y275400D01*
X315200Y224600D02*
Y275400D01*
X289800Y224600D02*
X315200D01*
X289800D02*
Y275400D01*
X315200D01*
X259200Y969950D02*
X462400D01*
Y944550D02*
Y969950D01*
X259200Y944550D02*
X462400D01*
X259200D02*
Y969950D01*
D17*
X585000Y237500D02*
G03*
X585000Y237500I-60000J0D01*
G01*
X847502Y577499D02*
Y697498D01*
X727502Y577499D02*
X847502D01*
X727502D02*
Y697498D01*
X847502D01*
X383002Y705352D02*
Y734652D01*
X346001Y705352D02*
X383002D01*
X346001D02*
Y734652D01*
X383002D01*
X843800Y172300D02*
Y198700D01*
X874200D01*
Y172300D02*
Y198700D01*
X843800Y172300D02*
X874200D01*
X457500Y121500D02*
X477492D01*
X457500Y109500D02*
X477492D01*
X457500D02*
Y121500D01*
X477492Y109500D02*
Y121500D01*
X789250Y138508D02*
Y158500D01*
X777250Y138508D02*
Y158500D01*
X789250D01*
X777250Y138508D02*
X789250D01*
X803758Y181000D02*
X823750D01*
X803758Y193000D02*
X823750D01*
Y181000D02*
Y193000D01*
X803758Y181000D02*
Y193000D01*
X436200Y99800D02*
Y126200D01*
X405800Y99800D02*
X436200D01*
X405800D02*
Y126200D01*
X436200D01*
X895550Y193200D02*
X921950D01*
Y162800D02*
Y193200D01*
X895550Y162800D02*
X921950D01*
X895550D02*
Y193200D01*
X767500Y292301D02*
X832499D01*
X767500Y222701D02*
Y292301D01*
Y222701D02*
X832499D01*
Y292301D01*
X919999Y222701D02*
Y292301D01*
X855000Y222701D02*
X919999D01*
X855000D02*
Y292301D01*
X919999D01*
X967000Y93000D02*
X1091000D01*
X967000D02*
Y150000D01*
X1091000D01*
Y93000D02*
Y150000D01*
X611501Y300998D02*
X738501D01*
X611501Y173998D02*
X738501D01*
X611501D02*
Y300998D01*
X738501Y173998D02*
Y300998D01*
X625000Y654500D02*
X641000D01*
X625000Y662501D02*
X641000D01*
Y654500D02*
Y662501D01*
X625000Y654500D02*
Y662501D01*
X967250Y528750D02*
X983250D01*
X967250Y520749D02*
X983250D01*
X967250D02*
Y528750D01*
X983250Y520749D02*
Y528750D01*
X983000Y593499D02*
Y601500D01*
X967000Y593499D02*
Y601500D01*
Y593499D02*
X983000D01*
X967000Y601500D02*
X983000D01*
Y573499D02*
Y581500D01*
X967000Y573499D02*
Y581500D01*
Y573499D02*
X983000D01*
X967000Y581500D02*
X983000D01*
X1165993Y297498D02*
Y402499D01*
X1283993D01*
Y297498D02*
Y402499D01*
X1165993Y297498D02*
X1283993D01*
X1175000Y350000D02*
X1185000D01*
X1180000Y345000D02*
Y355000D01*
X1157748Y620252D02*
Y637751D01*
X1167248D01*
Y620252D02*
Y637751D01*
X1157748Y620252D02*
X1167248D01*
X1159500Y673500D02*
Y681501D01*
X1175500Y673500D02*
Y681501D01*
X1159500D02*
X1175500D01*
X1159500Y673500D02*
X1175500D01*
X1159500Y708500D02*
Y716501D01*
X1175500Y708500D02*
Y716501D01*
X1159500D02*
X1175500D01*
X1159500Y708500D02*
X1175500D01*
X1204450Y623800D02*
Y776200D01*
X1294450D01*
Y623800D02*
Y776200D01*
X1204450Y623800D02*
X1294450D01*
X1158008Y756500D02*
Y768500D01*
X1178000Y756500D02*
Y768500D01*
X1158008D02*
X1178000D01*
X1158008Y756500D02*
X1178000D01*
X623508Y676750D02*
X643500D01*
X623508Y688750D02*
X643500D01*
Y676750D02*
Y688750D01*
X623508Y676750D02*
Y688750D01*
X983250Y536999D02*
Y545000D01*
X967250Y536999D02*
Y545000D01*
Y536999D02*
X983250D01*
X967250Y545000D02*
X983250D01*
X967250Y512500D02*
X983250D01*
X967250Y504499D02*
X983250D01*
X967250D02*
Y512500D01*
X983250Y504499D02*
Y512500D01*
X967250Y496250D02*
X983250D01*
X967250Y488249D02*
X983250D01*
X967250D02*
Y496250D01*
X983250Y488249D02*
Y496250D01*
X987749Y178752D02*
Y196252D01*
X997248D01*
Y178752D02*
Y196252D01*
X987749Y178752D02*
X997248D01*
X1019000Y178008D02*
X1031000D01*
X1019000Y198000D02*
X1031000D01*
X1019000Y178008D02*
Y198000D01*
X1031000Y178008D02*
Y198000D01*
X1052498Y178752D02*
Y196252D01*
X1061998D01*
Y178752D02*
Y196252D01*
X1052498Y178752D02*
X1061998D01*
X1080750Y171500D02*
Y203500D01*
X1144250Y171500D02*
Y203500D01*
X1080750D02*
X1144250D01*
X1080750Y171500D02*
X1144250D01*
X941500Y168751D02*
Y206251D01*
X958500D01*
Y168751D02*
Y206251D01*
X941500Y168751D02*
X958500D01*
X1180000Y232500D02*
Y242500D01*
X1175000Y237500D02*
X1185000D01*
X1165993Y184998D02*
X1283993D01*
Y289999D01*
X1165993D02*
X1283993D01*
X1165993Y184998D02*
Y289999D01*
X1180758Y160750D02*
X1200751D01*
X1180758Y172750D02*
X1200751D01*
Y160750D02*
Y172750D01*
X1180758Y160750D02*
Y172750D01*
X1112751Y110251D02*
X1129750D01*
Y147751D01*
X1112751D02*
X1129750D01*
X1112751Y110251D02*
Y147751D01*
X1250000Y93000D02*
Y150000D01*
X1150000D02*
X1250000D01*
X1150000Y93000D02*
Y150000D01*
Y93000D02*
X1250000D01*
X905000D02*
Y150000D01*
X805000D02*
X905000D01*
X805000Y93000D02*
Y150000D01*
Y93000D02*
X905000D01*
X1093999Y232500D02*
Y282500D01*
X1120998D01*
Y232500D02*
Y282500D01*
X1093999Y232500D02*
X1120998D01*
X1044002Y282500D02*
X1071002D01*
X1044002Y232500D02*
Y282500D01*
Y232500D02*
X1071002D01*
Y282500D01*
X994002D02*
X1021001D01*
X994002Y232500D02*
Y282500D01*
Y232500D02*
X1021001D01*
Y282500D01*
X943999Y232500D02*
X970998D01*
Y282500D01*
X943999D02*
X970998D01*
X943999Y232500D02*
Y282500D01*
X933250Y420749D02*
Y428750D01*
X917250Y420749D02*
Y428750D01*
Y420749D02*
X933250D01*
X917250Y428750D02*
X933250D01*
X830008Y380750D02*
X850000D01*
X830008Y392750D02*
X850000D01*
Y380750D02*
Y392750D01*
X830008Y380750D02*
Y392750D01*
X774492Y381500D02*
Y393500D01*
X754500Y381500D02*
Y393500D01*
Y381500D02*
X774492D01*
X754500Y393500D02*
X774492D01*
X712500Y336499D02*
Y363498D01*
X662500D02*
X712500D01*
X662500Y336499D02*
Y363498D01*
Y336499D02*
X712500D01*
X748001Y365401D02*
X785002D01*
X748001Y336101D02*
Y365401D01*
Y336101D02*
X785002D01*
Y365401D01*
X955000Y336499D02*
Y363498D01*
X905000D02*
X955000D01*
X905000Y336499D02*
Y363498D01*
Y336499D02*
X955000D01*
X821998Y335849D02*
X858998D01*
Y365148D01*
X821998D02*
X858998D01*
X821998Y335849D02*
Y365148D01*
X831498Y410348D02*
X868499D01*
Y439648D01*
X831498D02*
X868499D01*
X831498Y410348D02*
Y439648D01*
X746501Y439652D02*
X783502D01*
X746501Y410352D02*
Y439652D01*
Y410352D02*
X783502D01*
Y439652D01*
X692250Y438242D02*
X704250D01*
X692250Y418250D02*
X704250D01*
Y438242D01*
X692250Y418250D02*
Y438242D01*
X1060000Y535000D02*
Y545000D01*
X1065000Y535000D02*
Y545000D01*
X1060000Y535000D02*
X1065000D01*
X1060000Y545000D02*
X1065000D01*
X1052500Y535000D02*
Y545000D01*
X1047500Y535000D02*
Y545000D01*
X1052500D01*
X1047500Y535000D02*
X1052500D01*
X1035000D02*
Y545000D01*
X1040000Y535000D02*
Y545000D01*
X1035000Y535000D02*
X1040000D01*
X1035000Y545000D02*
X1040000D01*
X667499Y552500D02*
X675500D01*
X667499Y568500D02*
X675500D01*
X667499Y552500D02*
Y568500D01*
X675500Y552500D02*
Y568500D01*
X649749Y552500D02*
X657750D01*
X649749Y568500D02*
X657750D01*
X649749Y552500D02*
Y568500D01*
X657750Y552500D02*
Y568500D01*
X982000Y767249D02*
Y775250D01*
X966000Y767249D02*
Y775250D01*
Y767249D02*
X982000D01*
X966000Y775250D02*
X982000D01*
X982000Y749499D02*
Y757500D01*
X966000Y749499D02*
Y757500D01*
Y749499D02*
X982000D01*
X966000Y757500D02*
X982000D01*
X966000Y721750D02*
X982000D01*
X966000Y713749D02*
X982000D01*
X966000D02*
Y721750D01*
X982000Y713749D02*
Y721750D01*
X966000Y704000D02*
X982000D01*
X966000Y695999D02*
X982000D01*
X966000D02*
Y704000D01*
X982000Y695999D02*
Y704000D01*
Y678499D02*
Y686500D01*
X966000Y678499D02*
Y686500D01*
Y678499D02*
X982000D01*
X966000Y686500D02*
X982000D01*
Y660499D02*
Y668500D01*
X966000Y660499D02*
Y668500D01*
Y660499D02*
X982000D01*
X966000Y668500D02*
X982000D01*
Y642749D02*
Y650750D01*
X966000Y642749D02*
Y650750D01*
Y642749D02*
X982000D01*
X966000Y650750D02*
X982000D01*
X739498Y726500D02*
Y758500D01*
X789499D01*
Y726500D02*
Y758500D01*
X739498Y726500D02*
X789499D01*
X707500Y747500D02*
X717500D01*
X707500Y752500D02*
X717500D01*
Y747500D02*
Y752500D01*
X707500Y747500D02*
Y752500D01*
Y735000D02*
X717500D01*
X707500Y740000D02*
X717500D01*
Y735000D02*
Y740000D01*
X707500Y735000D02*
Y740000D01*
X682500Y752500D02*
X692500D01*
X682500Y747500D02*
X692500D01*
X682500D02*
Y752500D01*
X692500Y747500D02*
Y752500D01*
X785000Y772500D02*
X795000D01*
X785000Y777500D02*
X795000D01*
Y772500D02*
Y777500D01*
X785000Y772500D02*
Y777500D01*
X757750Y873000D02*
X765751D01*
X757750Y857000D02*
X765751D01*
Y873000D01*
X757750Y857000D02*
Y873000D01*
X857050Y884300D02*
X887450D01*
Y910700D01*
X857050D02*
X887450D01*
X857050Y884300D02*
Y910700D01*
X819250Y881242D02*
X831250D01*
X819250Y861250D02*
X831250D01*
Y881242D01*
X819250Y861250D02*
Y881242D01*
X824000Y907500D02*
X834000D01*
X824000Y912500D02*
X834000D01*
Y907500D02*
Y912500D01*
X824000Y907500D02*
Y912500D01*
X870000Y758000D02*
Y768000D01*
X865000Y758000D02*
Y768000D01*
X870000D01*
X865000Y758000D02*
X870000D01*
X625000Y593000D02*
X641000D01*
X625000Y601001D02*
X641000D01*
Y593000D02*
Y601001D01*
X625000Y593000D02*
Y601001D01*
X625000Y613000D02*
Y621001D01*
X641000Y613000D02*
Y621001D01*
X625000D02*
X641000D01*
X625000Y613000D02*
X641000D01*
X625000Y633000D02*
Y641001D01*
X641000Y633000D02*
Y641001D01*
X625000D02*
X641000D01*
X625000Y633000D02*
X641000D01*
X564250Y348758D02*
X576250D01*
X564250Y368750D02*
X576250D01*
X564250Y348758D02*
Y368750D01*
X576250Y348758D02*
Y368750D01*
X516508Y373750D02*
Y385750D01*
X536500Y373750D02*
Y385750D01*
X516508D02*
X536500D01*
X516508Y373750D02*
X536500D01*
X441251Y141250D02*
Y158250D01*
Y141250D02*
X478751D01*
Y158250D01*
X441251D02*
X478751D01*
X305000Y150750D02*
X380000D01*
Y93250D02*
Y150750D01*
X305000Y93250D02*
X380000D01*
X305000D02*
Y150750D01*
X492500Y93250D02*
Y150750D01*
Y93250D02*
X567500D01*
Y150750D01*
X492500D02*
X567500D01*
X399752Y201248D02*
X409252D01*
X399752Y183749D02*
Y201248D01*
Y183749D02*
X409252D01*
Y201248D01*
X375252D02*
X384752D01*
X375252Y183749D02*
Y201248D01*
Y183749D02*
X384752D01*
Y201248D01*
X350252D02*
X359752D01*
X350252Y183749D02*
Y201248D01*
Y183749D02*
X359752D01*
Y201248D01*
X325252D02*
X334752D01*
X325252Y183749D02*
Y201248D01*
Y183749D02*
X334752D01*
Y201248D01*
X422300Y224600D02*
Y250000D01*
X447700D01*
X422300Y224600D02*
X447700D01*
X422300Y256350D02*
X428650Y250000D01*
X422300Y256350D02*
Y269050D01*
X428650Y275400D01*
X441350D01*
X447700Y269050D01*
Y256350D02*
Y269050D01*
X441350Y250000D02*
X447700Y256350D01*
Y224600D02*
Y250000D01*
X289800D02*
Y275400D01*
Y243650D02*
X296150Y250000D01*
X289800Y230950D02*
Y243650D01*
Y230950D02*
X296150Y224600D01*
X308850D01*
X315200Y230950D01*
Y243650D01*
X308850Y250000D02*
X315200Y243650D01*
X289800Y275400D02*
X315200D01*
X289800Y250000D02*
X315200D01*
Y275400D01*
X169000Y446992D02*
X181000D01*
X169000Y427000D02*
X181000D01*
Y446992D01*
X169000Y427000D02*
Y446992D01*
X144000Y427000D02*
Y446992D01*
X156000Y427000D02*
Y446992D01*
X144000Y427000D02*
X156000D01*
X144000Y446992D02*
X156000D01*
X346501Y769651D02*
X383501D01*
X346501Y740352D02*
Y769651D01*
Y740352D02*
X383501D01*
Y769651D01*
X384500Y432000D02*
X400500D01*
X384500Y440001D02*
X400500D01*
Y432000D02*
Y440001D01*
X384500Y432000D02*
Y440001D01*
X384250Y458500D02*
X400250D01*
X384250Y466501D02*
X400250D01*
Y458500D02*
Y466501D01*
X384250Y458500D02*
Y466501D01*
X384250Y484500D02*
Y492501D01*
X400250Y484500D02*
Y492501D01*
X384250D02*
X400250D01*
X384250Y484500D02*
X400250D01*
X384500Y508750D02*
Y516751D01*
X400500Y508750D02*
Y516751D01*
X384500D02*
X400500D01*
X384500Y508750D02*
X400500D01*
X479750Y458750D02*
Y466751D01*
X495750Y458750D02*
Y466751D01*
X479750D02*
X495750D01*
X479750Y458750D02*
X495750D01*
X480250Y482750D02*
Y490751D01*
X496250Y482750D02*
Y490751D01*
X480250D02*
X496250D01*
X480250Y482750D02*
X496250D01*
X479750Y509000D02*
Y517001D01*
X495750Y509000D02*
Y517001D01*
X479750D02*
X495750D01*
X479750Y509000D02*
X495750D01*
X479750Y534250D02*
X495750D01*
X479750Y542251D02*
X495750D01*
Y534250D02*
Y542251D01*
X479750Y534250D02*
Y542251D01*
Y559250D02*
X495750D01*
X479750Y567252D02*
X495750D01*
Y559250D02*
Y567252D01*
X479750Y559250D02*
Y567252D01*
X467250Y412250D02*
X483250D01*
X467250Y420251D02*
X483250D01*
Y412250D02*
Y420251D01*
X467250Y412250D02*
Y420251D01*
X479500Y658500D02*
X495500D01*
X479500Y666501D02*
X495500D01*
Y658500D02*
Y666501D01*
X479500Y658500D02*
Y666501D01*
Y683500D02*
X495500D01*
X479500Y691501D02*
X495500D01*
Y683500D02*
Y691501D01*
X479500Y683500D02*
Y691501D01*
Y708500D02*
X495500D01*
X479500Y716501D02*
X495500D01*
Y708500D02*
Y716501D01*
X479500Y708500D02*
Y716501D01*
X346501Y804652D02*
X383501D01*
X346501Y775352D02*
Y804652D01*
Y775352D02*
X383501D01*
Y804652D01*
X411600Y963600D02*
X417950Y969950D01*
X430650D01*
X437000Y963600D01*
Y950900D02*
Y963600D01*
X430650Y944550D02*
X437000Y950900D01*
X417950Y944550D02*
X430650D01*
X411600Y950900D02*
X417950Y944550D01*
X360800Y963600D02*
X367150Y969950D01*
X379850D01*
X386200Y963600D01*
Y950900D02*
Y963600D01*
X379850Y944550D02*
X386200Y950900D01*
X367150Y944550D02*
X379850D01*
X360800Y950900D02*
X367150Y944550D01*
X335400Y950900D02*
X341750Y944550D01*
X354450D01*
X360800Y950900D01*
Y963600D01*
X354450Y969950D02*
X360800Y963600D01*
X341750Y969950D02*
X354450D01*
X335400Y963600D02*
X341750Y969950D01*
X310000Y963600D02*
X316350Y969950D01*
X329050D01*
X335400Y963600D01*
Y950900D02*
Y963600D01*
X329050Y944550D02*
X335400Y950900D01*
X316350Y944550D02*
X329050D01*
X310000Y950900D02*
X316350Y944550D01*
X259200D02*
X284600D01*
Y950900D02*
X290950Y944550D01*
X303650D01*
X310000Y950900D01*
Y963600D01*
X303650Y969950D02*
X310000Y963600D01*
X290950Y969950D02*
X303650D01*
X284600Y963600D02*
X290950Y969950D01*
X259200Y944550D02*
Y969950D01*
X284600Y944550D02*
Y969950D01*
X259200D02*
X284600D01*
X386200Y950900D02*
X392550Y944550D01*
X405250D01*
X411600Y950900D01*
Y963600D01*
X405250Y969950D02*
X411600Y963600D01*
X392550Y969950D02*
X405250D01*
X386200Y963600D02*
X392550Y969950D01*
X437000Y950900D02*
X443350Y944550D01*
X456050D01*
X462400Y950900D01*
Y963600D01*
X456050Y969950D02*
X462400Y963600D01*
X443350Y969950D02*
X456050D01*
X437000Y963600D02*
X443350Y969950D01*
X374492Y814000D02*
Y826000D01*
X354500Y814000D02*
Y826000D01*
Y814000D02*
X374492D01*
X354500Y826000D02*
X374492D01*
Y839000D02*
Y851000D01*
X354500Y839000D02*
Y851000D01*
Y839000D02*
X374492D01*
X354500Y851000D02*
X374492D01*
Y864000D02*
Y876000D01*
X354500Y864000D02*
Y876000D01*
Y864000D02*
X374492D01*
X354500Y876000D02*
X374492D01*
X1266018Y795000D02*
Y880000D01*
X1169016D02*
X1266018D01*
X1169016Y795000D02*
Y880000D01*
Y795000D02*
X1266018D01*
X1156502Y587500D02*
X1183501D01*
X1156502Y537500D02*
Y587500D01*
Y537500D02*
X1183501D01*
Y587500D01*
X1210199Y534999D02*
Y599999D01*
Y534999D02*
X1279799D01*
Y599999D01*
X1210199D02*
X1279799D01*
X1210199Y514999D02*
X1279799D01*
Y450000D02*
Y514999D01*
X1210199Y450000D02*
X1279799D01*
X1210199D02*
Y514999D01*
X1183501Y457500D02*
Y507500D01*
X1156502Y457500D02*
X1183501D01*
X1156502D02*
Y507500D01*
X1183501D01*
X1145333Y409818D02*
X1159469Y423954D01*
X1153818Y401333D02*
X1167954Y415469D01*
X1145333Y409818D02*
X1153818Y401333D01*
X1159469Y423954D02*
X1167954Y415469D01*
X1206992Y414000D02*
Y426000D01*
X1187000Y414000D02*
Y426000D01*
Y414000D02*
X1206992D01*
X1187000Y426000D02*
X1206992D01*
X1230508Y414000D02*
Y426000D01*
X1250500Y414000D02*
Y426000D01*
X1230508D02*
X1250500D01*
X1230508Y414000D02*
X1250500D01*
X1273008D02*
Y426000D01*
X1293000Y414000D02*
Y426000D01*
X1273008D02*
X1293000D01*
X1273008Y414000D02*
X1293000D01*
X1225750Y913242D02*
X1237750D01*
X1225750Y893250D02*
X1237750D01*
Y913242D01*
X1225750Y893250D02*
Y913242D01*
X510050Y333200D02*
X540449D01*
X510050Y306800D02*
Y333200D01*
Y306800D02*
X540449D01*
Y333200D01*
X1158750Y913242D02*
X1170750D01*
X1158750Y893250D02*
X1170750D01*
Y913242D01*
X1158750Y893250D02*
Y913242D01*
X1181250D02*
X1193250D01*
X1181250Y893250D02*
X1193250D01*
Y913242D01*
X1181250Y893250D02*
Y913242D01*
X1203750D02*
X1215750D01*
X1203750Y893250D02*
X1215750D01*
Y913242D01*
X1203750Y893250D02*
Y913242D01*
X1205749Y933250D02*
X1213750D01*
X1205749Y949250D02*
X1213750D01*
X1205749Y933250D02*
Y949250D01*
X1213750Y933250D02*
Y949250D01*
X1183249Y933250D02*
X1191250D01*
X1183249Y949250D02*
X1191250D01*
X1183249Y933250D02*
Y949250D01*
X1191250Y933250D02*
Y949250D01*
X1160749Y933250D02*
X1168750D01*
X1160749Y949250D02*
X1168750D01*
X1160749Y933250D02*
Y949250D01*
X1168750Y933250D02*
Y949250D01*
X982000Y731749D02*
Y739750D01*
X966000Y731749D02*
Y739750D01*
Y731749D02*
X982000D01*
X966000Y739750D02*
X982000D01*
X479500Y633500D02*
Y641501D01*
X495500Y633500D02*
Y641501D01*
X479500D02*
X495500D01*
X479500Y633500D02*
X495500D01*
X479500Y608500D02*
Y616501D01*
X495500Y608500D02*
Y616501D01*
X479500D02*
X495500D01*
X479500Y608500D02*
X495500D01*
X585000Y237500D02*
G03*
X585000Y237500I-60000J0D01*
G01*
X782500Y637500D02*
X792500D01*
X787500Y632500D02*
Y642500D01*
X720500Y570500D02*
Y704500D01*
X854500Y570500D02*
Y704500D01*
X720500Y570500D02*
X854500D01*
X720500Y704500D02*
X854500D01*
X336000Y736000D02*
X393000D01*
Y704000D02*
Y736000D01*
X336000Y704000D02*
X393000D01*
X336000D02*
Y736000D01*
X359500Y720000D02*
X369500D01*
X364500Y715000D02*
Y725000D01*
X841500Y166250D02*
X876500D01*
X841500Y204750D02*
X876500D01*
X841500Y166250D02*
Y204750D01*
X876500Y166250D02*
Y204750D01*
X859000Y180500D02*
Y190500D01*
X854000Y185500D02*
X864000D01*
X468000Y110500D02*
Y120500D01*
X463000Y115500D02*
X473000D01*
X485000Y108500D02*
Y122500D01*
X451000Y108500D02*
Y122500D01*
Y108500D02*
X485000D01*
X451000Y122500D02*
X485000D01*
X778250Y148000D02*
X788250D01*
X783250Y143000D02*
Y153000D01*
X776250Y131000D02*
X790250D01*
X776250Y165000D02*
X790250D01*
X776250Y131000D02*
Y165000D01*
X790250Y131000D02*
Y165000D01*
X813250Y182000D02*
Y192000D01*
X808250Y187000D02*
X818250D01*
X796250Y180000D02*
Y194000D01*
X830250Y180000D02*
Y194000D01*
X796250D02*
X830250D01*
X796250Y180000D02*
X830250D01*
X403500Y132250D02*
X438500D01*
X403500Y93750D02*
X438500D01*
Y132250D01*
X403500Y93750D02*
Y132250D01*
X421000Y108000D02*
Y118000D01*
X416000Y113000D02*
X426000D01*
X889500Y160500D02*
Y195500D01*
X928000Y160500D02*
Y195500D01*
X889500D02*
X928000D01*
X889500Y160500D02*
X928000D01*
X903750Y178000D02*
X913750D01*
X908750Y173000D02*
Y183000D01*
X795000Y257500D02*
X805000D01*
X800000Y252500D02*
Y262500D01*
X764000Y214000D02*
Y301000D01*
X836000Y214000D02*
Y301000D01*
X764000Y214000D02*
X836000D01*
X764000Y301000D02*
X836000D01*
X851500D02*
X923500D01*
X851500Y214000D02*
X923500D01*
Y301000D01*
X851500Y214000D02*
Y301000D01*
X887500Y252500D02*
Y262500D01*
X882500Y257500D02*
X892500D01*
X1025000Y115000D02*
X1035000D01*
X1030000Y110000D02*
Y120000D01*
X1094100Y90870D02*
Y153100D01*
X964560D02*
X1094100D01*
X964560Y90870D02*
Y153100D01*
Y90870D02*
X1094100D01*
X675000Y232500D02*
Y242500D01*
X670000Y237500D02*
X680000D01*
X742500Y165000D02*
Y310000D01*
X607500Y165000D02*
X742500D01*
X607500D02*
Y310000D01*
X742500D01*
X619000Y651500D02*
Y665500D01*
X647000Y651500D02*
Y665500D01*
X619000D02*
X647000D01*
X619000Y651500D02*
X647000D01*
X633000Y653750D02*
Y663250D01*
X628250Y658500D02*
X637750D01*
X989250Y517750D02*
Y531750D01*
X961250Y517750D02*
Y531750D01*
Y517750D02*
X989250D01*
X961250Y531750D02*
X989250D01*
X975250Y520000D02*
Y529500D01*
X970500Y524750D02*
X980000D01*
X970250Y597500D02*
X979750D01*
X975000Y592750D02*
Y602250D01*
X961000Y604500D02*
X989000D01*
X961000Y590500D02*
X989000D01*
X961000D02*
Y604500D01*
X989000Y590500D02*
Y604500D01*
X970250Y577500D02*
X979750D01*
X975000Y572750D02*
Y582250D01*
X961000Y584500D02*
X989000D01*
X961000Y570500D02*
X989000D01*
X961000D02*
Y584500D01*
X989000Y570500D02*
Y584500D01*
X1155000Y295000D02*
Y405000D01*
Y295000D02*
X1290000D01*
X1295000D01*
Y405000D01*
X1155000D02*
X1295000D01*
X1225000Y345000D02*
Y355000D01*
X1220000Y350000D02*
X1230000D01*
X1155500Y614000D02*
Y644000D01*
X1169500D01*
Y615000D02*
Y644000D01*
Y614000D02*
Y615000D01*
X1155500Y614000D02*
X1169500D01*
X1160500Y629000D02*
X1164500D01*
X1162500Y627000D02*
Y631000D01*
X1162750Y677500D02*
X1172250D01*
X1167500Y672750D02*
Y682250D01*
X1153500Y670500D02*
X1181500D01*
X1153500Y684500D02*
X1181500D01*
Y670500D02*
Y684500D01*
X1153500Y670500D02*
Y684500D01*
X1162750Y712500D02*
X1172250D01*
X1167500Y707750D02*
Y717250D01*
X1153500Y705500D02*
X1181500D01*
X1153500Y719500D02*
X1181500D01*
Y705500D02*
Y719500D01*
X1153500Y705500D02*
Y719500D01*
X1201740Y777470D02*
X1298260D01*
X1201740Y622530D02*
Y777470D01*
Y622530D02*
X1298260D01*
Y777470D01*
X1245000Y700000D02*
X1255000D01*
X1250000Y695000D02*
Y705000D01*
X1150500Y755500D02*
X1184500D01*
X1150500Y769500D02*
X1184500D01*
Y755500D02*
Y769500D01*
X1150500Y755500D02*
Y769500D01*
X1162500Y762500D02*
X1172500D01*
X1167500Y757500D02*
Y767500D01*
X633000Y677750D02*
Y687750D01*
X628000Y682750D02*
X638000D01*
X616000Y675750D02*
Y689750D01*
X650000Y675750D02*
Y689750D01*
X616000D02*
X650000D01*
X616000Y675750D02*
X650000D01*
X970500Y541000D02*
X980000D01*
X975250Y536250D02*
Y545750D01*
X961250Y548000D02*
X989250D01*
X961250Y534000D02*
X989250D01*
X961250D02*
Y548000D01*
X989250Y534000D02*
Y548000D01*
Y501500D02*
Y515500D01*
X961250Y501500D02*
Y515500D01*
Y501500D02*
X989250D01*
X961250Y515500D02*
X989250D01*
X975250Y503750D02*
Y513250D01*
X970500Y508500D02*
X980000D01*
X989250Y485250D02*
Y499250D01*
X961250Y485250D02*
Y499250D01*
Y485250D02*
X989250D01*
X961250Y499250D02*
X989250D01*
X975250Y487500D02*
Y497000D01*
X970500Y492250D02*
X980000D01*
X985500Y172500D02*
Y202500D01*
X999500D01*
Y173500D02*
Y202500D01*
Y172500D02*
Y173500D01*
X985500Y172500D02*
X999500D01*
X990500Y187500D02*
X994500D01*
X992500Y185500D02*
Y189500D01*
X1032000Y170500D02*
Y204500D01*
X1018000Y170500D02*
Y204500D01*
X1032000D01*
X1018000Y170500D02*
X1032000D01*
X1025000Y182500D02*
Y192500D01*
X1020000Y187500D02*
X1030000D01*
X1050250Y172500D02*
Y202500D01*
X1064250D01*
Y173500D02*
Y202500D01*
Y172500D02*
Y173500D01*
X1050250Y172500D02*
X1064250D01*
X1055250Y187500D02*
X1059250D01*
X1057250Y185500D02*
Y189500D01*
X1107500Y187500D02*
X1117500D01*
X1112500Y182500D02*
Y192500D01*
X1074000Y168500D02*
X1151000D01*
X1074000Y206500D02*
X1151000D01*
Y168500D02*
Y206500D01*
X1074000Y168500D02*
Y206500D01*
X945000Y197250D02*
X955000D01*
X950000Y192250D02*
Y202250D01*
X959000Y168750D02*
Y206251D01*
X941000Y168750D02*
Y206251D01*
X959000D01*
X941000Y168750D02*
X959000D01*
X1220000Y237500D02*
X1230000D01*
X1225000Y232500D02*
Y242500D01*
X1155000Y292500D02*
X1295000D01*
Y182500D02*
Y292500D01*
X1290000Y182500D02*
X1295000D01*
X1155000D02*
X1290000D01*
X1155000D02*
Y292500D01*
X1190250Y161750D02*
Y171750D01*
X1185250Y166750D02*
X1195250D01*
X1173250Y159750D02*
Y173750D01*
X1207250Y159750D02*
Y173750D01*
X1173250D02*
X1207250D01*
X1173250Y159750D02*
X1207250D01*
X1112250Y110250D02*
X1130250D01*
X1112250Y147751D02*
X1130250D01*
X1112250Y110250D02*
Y147751D01*
X1130250Y110250D02*
Y147751D01*
X1121250Y133750D02*
Y143750D01*
X1116250Y138750D02*
X1126250D01*
X1147060Y90870D02*
X1252470D01*
X1147060D02*
Y153100D01*
X1252470D01*
Y90870D02*
Y153100D01*
X1195000Y115000D02*
X1205000D01*
X1200000Y110000D02*
Y120000D01*
X802060Y90870D02*
X907470D01*
X802060D02*
Y153100D01*
X907470D01*
Y90870D02*
Y153100D01*
X850000Y115000D02*
X860000D01*
X855000Y110000D02*
Y120000D01*
X1102500Y257500D02*
X1112500D01*
X1107500Y252500D02*
Y262500D01*
X1092500Y226500D02*
X1122500D01*
Y288500D01*
X1092500D02*
X1122500D01*
X1092500Y226500D02*
Y288500D01*
X1072500Y226500D02*
Y288500D01*
X1042500Y226500D02*
X1072500D01*
X1042500D02*
Y288500D01*
X1072500D01*
X1057500Y252500D02*
Y262500D01*
X1052500Y257500D02*
X1062500D01*
X1022500Y226500D02*
Y288500D01*
X992500Y226500D02*
X1022500D01*
X992500D02*
Y288500D01*
X1022500D01*
X1007500Y252500D02*
Y262500D01*
X1002500Y257500D02*
X1012500D01*
X942500Y226500D02*
Y288500D01*
X972500D01*
Y226500D02*
Y288500D01*
X942500Y226500D02*
X972500D01*
X957500Y252500D02*
Y262500D01*
X952500Y257500D02*
X962500D01*
X920500Y424750D02*
X930000D01*
X925250Y420000D02*
Y429500D01*
X911250Y431750D02*
X939250D01*
X911250Y417750D02*
X939250D01*
X911250D02*
Y431750D01*
X939250Y417750D02*
Y431750D01*
X839500Y381750D02*
Y391750D01*
X834500Y386750D02*
X844500D01*
X822500Y379750D02*
Y393750D01*
X856500Y379750D02*
Y393750D01*
X822500D02*
X856500D01*
X822500Y379750D02*
X856500D01*
X748000Y394500D02*
X782000D01*
X748000Y380500D02*
X782000D01*
X748000D02*
Y394500D01*
X782000Y380500D02*
Y394500D01*
X760000Y387500D02*
X770000D01*
X765000Y382500D02*
Y392500D01*
X656500Y335000D02*
X718500D01*
X656500D02*
Y365000D01*
X718500D01*
Y335000D02*
Y365000D01*
X682500Y350000D02*
X692500D01*
X687500Y345000D02*
Y355000D01*
X766500Y345750D02*
Y355750D01*
X761500Y350750D02*
X771500D01*
X738000Y334750D02*
Y366750D01*
Y334750D02*
X795000D01*
Y366750D01*
X738000D02*
X795000D01*
X899000Y335000D02*
X961000D01*
X899000D02*
Y365000D01*
X961000D01*
Y335000D02*
Y365000D01*
X925000Y350000D02*
X935000D01*
X930000Y345000D02*
Y355000D01*
X840500Y345500D02*
Y355500D01*
X835500Y350500D02*
X845500D01*
X869000Y334500D02*
Y366500D01*
X812000D02*
X869000D01*
X812000Y334500D02*
Y366500D01*
Y334500D02*
X869000D01*
X850000Y420000D02*
Y430000D01*
X845000Y425000D02*
X855000D01*
X878500Y409000D02*
Y441000D01*
X821500D02*
X878500D01*
X821500Y409000D02*
Y441000D01*
Y409000D02*
X878500D01*
X765000Y420000D02*
Y430000D01*
X760000Y425000D02*
X770000D01*
X736500Y409000D02*
Y441000D01*
Y409000D02*
X793500D01*
Y441000D01*
X736500D02*
X793500D01*
X691250Y411750D02*
Y445750D01*
X705250Y411750D02*
Y445750D01*
X691250Y411750D02*
X705250D01*
X691250Y445750D02*
X705250D01*
X698250Y423750D02*
Y433750D01*
X693250Y428750D02*
X703250D01*
X1060000Y540000D02*
X1065000D01*
X1062500Y537500D02*
Y542500D01*
X1058000Y550000D02*
X1067000D01*
X1058000Y530000D02*
X1067000D01*
Y550000D01*
X1058000Y530000D02*
Y550000D01*
X1047500Y540000D02*
X1052500D01*
X1050000Y537500D02*
Y542500D01*
X1045500Y530000D02*
X1054500D01*
X1045500Y550000D02*
X1054500D01*
X1045500Y530000D02*
Y550000D01*
X1054500Y530000D02*
Y550000D01*
X1035000Y540000D02*
X1040000D01*
X1037500Y537500D02*
Y542500D01*
X1033000Y550000D02*
X1042000D01*
X1033000Y530000D02*
X1042000D01*
Y550000D01*
X1033000Y530000D02*
Y550000D01*
X671500Y555750D02*
Y565250D01*
X666749Y560500D02*
X676250D01*
X678500Y546500D02*
Y574500D01*
X664500Y546500D02*
Y574500D01*
X678500D01*
X664500Y546500D02*
X678500D01*
X653750Y555750D02*
Y565250D01*
X649000Y560500D02*
X658500D01*
X660750Y546500D02*
Y574500D01*
X646750Y546500D02*
Y574500D01*
X660750D01*
X646750Y546500D02*
X660750D01*
X969250Y771250D02*
X978750D01*
X974000Y766500D02*
Y776000D01*
X960000Y778250D02*
X988000D01*
X960000Y764250D02*
X988000D01*
X960000D02*
Y778250D01*
X988000Y764250D02*
Y778250D01*
X969250Y753500D02*
X978750D01*
X974000Y748750D02*
Y758251D01*
X960000Y760500D02*
X987999D01*
X960000Y746500D02*
X987999D01*
X960000D02*
Y760500D01*
X987999Y746500D02*
Y760500D01*
X988000Y710750D02*
Y724750D01*
X960000Y710750D02*
Y724750D01*
Y710750D02*
X988000D01*
X960000Y724750D02*
X988000D01*
X974000Y713000D02*
Y722500D01*
X969250Y717750D02*
X978750D01*
X988000Y693000D02*
Y707000D01*
X960000Y693000D02*
Y707000D01*
Y693000D02*
X988000D01*
X960000Y707000D02*
X988000D01*
X974000Y695250D02*
Y704750D01*
X969250Y700000D02*
X978750D01*
X969250Y682500D02*
X978750D01*
X974000Y677750D02*
Y687250D01*
X960000Y689500D02*
X988000D01*
X960000Y675500D02*
X988000D01*
X960000D02*
Y689500D01*
X988000Y675500D02*
Y689500D01*
X969250Y664500D02*
X978750D01*
X974000Y659750D02*
Y669250D01*
X960000Y671500D02*
X988000D01*
X960000Y657500D02*
X988000D01*
X960000D02*
Y671500D01*
X988000Y657500D02*
Y671500D01*
X969250Y646750D02*
X978750D01*
X974000Y642000D02*
Y651500D01*
X960000Y653750D02*
X988000D01*
X960000Y639750D02*
X988000D01*
X960000D02*
Y653750D01*
X988000Y639750D02*
Y653750D01*
X765000Y740500D02*
Y744500D01*
X763000Y742500D02*
X767000D01*
X737500Y724500D02*
X791500D01*
Y760500D01*
X737500D02*
X791500D01*
X737500Y724500D02*
Y760500D01*
X712500Y747500D02*
Y752500D01*
X710000Y750000D02*
X715000D01*
X702500Y745500D02*
Y754500D01*
X722500Y745500D02*
Y754500D01*
X702500D02*
X722500D01*
X702500Y745500D02*
X722500D01*
X712500Y735000D02*
Y740000D01*
X710000Y737500D02*
X715000D01*
X702500Y733000D02*
Y742000D01*
X722500Y733000D02*
Y742000D01*
X702500D02*
X722500D01*
X702500Y733000D02*
X722500D01*
X687500Y747500D02*
Y752500D01*
X685000Y750000D02*
X690000D01*
X697500Y745500D02*
Y754500D01*
X677500Y745500D02*
Y754500D01*
Y745500D02*
X697500D01*
X677500Y754500D02*
X697500D01*
X790000Y772500D02*
Y777500D01*
X787500Y775000D02*
X792500D01*
X780000Y770500D02*
Y779500D01*
X800000Y770500D02*
Y779500D01*
X780000D02*
X800000D01*
X780000Y770500D02*
X800000D01*
X761750Y860250D02*
Y869750D01*
X757000Y865000D02*
X766500D01*
X754750Y851000D02*
Y879000D01*
X768750Y851000D02*
Y879000D01*
X754750Y851000D02*
X768750D01*
X754750Y879000D02*
X768750D01*
X867250Y897500D02*
X877250D01*
X872250Y892500D02*
Y902500D01*
X889750Y878250D02*
Y916750D01*
X854750Y878250D02*
Y916750D01*
X889750D01*
X854750Y878250D02*
X889750D01*
X818250Y854750D02*
Y888750D01*
X832250Y854750D02*
Y888750D01*
X818250Y854750D02*
X832250D01*
X818250Y888750D02*
X832250D01*
X825250Y866750D02*
Y876750D01*
X820250Y871750D02*
X830250D01*
X829000Y907500D02*
Y912500D01*
X826500Y910000D02*
X831500D01*
X819000Y905500D02*
Y914500D01*
X839000Y905500D02*
Y914500D01*
X819000D02*
X839000D01*
X819000Y905500D02*
X839000D01*
X865000Y763000D02*
X870000D01*
X867500Y760500D02*
Y765500D01*
X863000Y753000D02*
X872000D01*
X863000Y773000D02*
X872000D01*
X863000Y753000D02*
Y773000D01*
X872000Y753000D02*
Y773000D01*
X619000Y590000D02*
Y604000D01*
X647000Y590000D02*
Y604000D01*
X619000D02*
X647000D01*
X619000Y590000D02*
X647000D01*
X633000Y592250D02*
Y601750D01*
X628250Y597000D02*
X637750D01*
X628250Y617000D02*
X637750D01*
X632999Y612250D02*
Y621750D01*
X618999Y610000D02*
X647000D01*
X618999Y624000D02*
X647000D01*
Y610000D02*
Y624000D01*
X618999Y610000D02*
Y624000D01*
X628250Y637000D02*
X637750D01*
X633000Y632250D02*
Y641750D01*
X619000Y630000D02*
X647000D01*
X619000Y644000D02*
X647000D01*
Y630000D02*
Y644000D01*
X619000Y630000D02*
Y644000D01*
X577250Y341250D02*
Y375250D01*
X563250Y341250D02*
Y375250D01*
X577250D01*
X563250Y341250D02*
X577250D01*
X570250Y353250D02*
Y363250D01*
X565250Y358250D02*
X575250D01*
X509000Y372750D02*
X543000D01*
X509000Y386750D02*
X543000D01*
Y372750D02*
Y386750D01*
X509000Y372750D02*
Y386750D01*
X521000Y379750D02*
X531000D01*
X526000Y374750D02*
Y384750D01*
X441250Y140750D02*
Y158750D01*
X478751Y140750D02*
Y158750D01*
X441250D02*
X478751D01*
X441250Y140750D02*
X478751D01*
X464750Y149750D02*
X474750D01*
X469750Y144750D02*
Y154750D01*
X337500Y115000D02*
X347500D01*
X342500Y110000D02*
Y120000D01*
X382070Y90870D02*
Y153100D01*
X302060D02*
X382070D01*
X302060Y90870D02*
Y153100D01*
Y90870D02*
X382070D01*
X489560D02*
X569570D01*
X489560D02*
Y153100D01*
X569570D01*
Y90870D02*
Y153100D01*
X530000Y110000D02*
Y120000D01*
X525000Y115000D02*
X535000D01*
X520000Y237500D02*
X530000D01*
X525000Y232500D02*
Y242500D01*
X404500Y190500D02*
Y194500D01*
X402500Y192500D02*
X406500D01*
X397500Y207500D02*
X411500D01*
X397500Y206500D02*
Y207500D01*
Y177500D02*
Y206500D01*
Y177500D02*
X411500D01*
Y207500D01*
X380000Y190500D02*
Y194500D01*
X378000Y192500D02*
X382000D01*
X373000Y207500D02*
X387000D01*
X373000Y206500D02*
Y207500D01*
Y177500D02*
Y206500D01*
Y177500D02*
X387000D01*
Y207500D01*
X355000Y190500D02*
Y194500D01*
X353000Y192500D02*
X357000D01*
X348000Y207500D02*
X362000D01*
X348000Y206500D02*
Y207500D01*
Y177500D02*
Y206500D01*
Y177500D02*
X362000D01*
Y207500D01*
X330000Y190500D02*
Y194500D01*
X328000Y192500D02*
X332000D01*
X323000Y207500D02*
X337000D01*
X323000Y206500D02*
Y207500D01*
Y177500D02*
Y206500D01*
Y177500D02*
X337000D01*
Y207500D01*
X430000Y250000D02*
X440000D01*
X435000Y245000D02*
Y255000D01*
X302500Y245000D02*
Y255000D01*
X297500Y250000D02*
X307500D01*
X168000Y420500D02*
Y454500D01*
X182000Y420500D02*
Y454500D01*
X168000Y420500D02*
X182000D01*
X168000Y454500D02*
X182000D01*
X175000Y432500D02*
Y442500D01*
X170000Y437500D02*
X180000D01*
X145000D02*
X155000D01*
X150000Y432500D02*
Y442500D01*
X143000Y454500D02*
X157000D01*
X143000Y420500D02*
X157000D01*
Y454500D01*
X143000Y420500D02*
Y454500D01*
X365000Y750000D02*
Y760000D01*
X360000Y755000D02*
X370000D01*
X336500Y739000D02*
Y771000D01*
Y739000D02*
X393500D01*
Y771000D01*
X336500D02*
X393500D01*
X378500Y429000D02*
Y443000D01*
X406500Y429000D02*
Y443000D01*
X378500D02*
X406500D01*
X378500Y429000D02*
X406500D01*
X392500Y431250D02*
Y440751D01*
X387750Y436000D02*
X397250D01*
X378250Y455500D02*
Y469500D01*
X406250Y455500D02*
Y469500D01*
X378250D02*
X406250D01*
X378250Y455500D02*
X406250D01*
X392250Y457750D02*
Y467250D01*
X387500Y462500D02*
X397000D01*
X387500Y488500D02*
X397000D01*
X392250Y483750D02*
Y493250D01*
X378250Y481500D02*
X406250D01*
X378250Y495500D02*
X406250D01*
Y481500D02*
Y495500D01*
X378250Y481500D02*
Y495500D01*
X387750Y512750D02*
X397250D01*
X392500Y508000D02*
Y517500D01*
X378500Y505750D02*
X406500D01*
X378500Y519750D02*
X406500D01*
Y505750D02*
Y519750D01*
X378500Y505750D02*
Y519750D01*
X483000Y462750D02*
X492500D01*
X487750Y458000D02*
Y467500D01*
X473750Y455750D02*
X501750D01*
X473750Y469750D02*
X501750D01*
Y455750D02*
Y469750D01*
X473750Y455750D02*
Y469750D01*
X483500Y486750D02*
X493000D01*
X488250Y482000D02*
Y491500D01*
X474250Y479750D02*
X502250D01*
X474250Y493750D02*
X502250D01*
Y479750D02*
Y493750D01*
X474250Y479750D02*
Y493750D01*
X483000Y513000D02*
X492500D01*
X487750Y508250D02*
Y517750D01*
X473750Y506000D02*
X501750D01*
X473750Y520000D02*
X501750D01*
Y506000D02*
Y520000D01*
X473750Y506000D02*
Y520000D01*
X473750Y531250D02*
Y545250D01*
X501750Y531250D02*
Y545250D01*
X473750D02*
X501750D01*
X473750Y531250D02*
X501750D01*
X487750Y533500D02*
Y543000D01*
X483000Y538250D02*
X492500D01*
X473750Y556250D02*
Y570250D01*
X501750Y556250D02*
Y570250D01*
X473750D02*
X501750D01*
X473750Y556250D02*
X501750D01*
X487750Y558500D02*
Y568000D01*
X483000Y563250D02*
X492500D01*
X461250Y409250D02*
Y423250D01*
X489250Y409250D02*
Y423250D01*
X461250D02*
X489250D01*
X461250Y409250D02*
X489250D01*
X475250Y411500D02*
Y421000D01*
X470500Y416250D02*
X480000D01*
X473500Y655500D02*
Y669500D01*
X501500Y655500D02*
Y669500D01*
X473500D02*
X501500D01*
X473500Y655500D02*
X501500D01*
X487500Y657750D02*
Y667250D01*
X482750Y662500D02*
X492250D01*
X473500Y680500D02*
Y694500D01*
X501500Y680500D02*
Y694500D01*
X473500D02*
X501500D01*
X473500Y680500D02*
X501500D01*
X487500Y682750D02*
Y692250D01*
X482750Y687500D02*
X492250D01*
X473500Y705500D02*
Y719500D01*
X501500Y705500D02*
Y719500D01*
X473500D02*
X501500D01*
X473500Y705500D02*
X501500D01*
X487500Y707750D02*
Y717250D01*
X482750Y712500D02*
X492250D01*
X365000Y785000D02*
Y795000D01*
X360000Y790000D02*
X370000D01*
X336500Y774000D02*
Y806000D01*
Y774000D02*
X393500D01*
Y806000D01*
X336500D02*
X393500D01*
X355800Y957250D02*
X365800D01*
X360800Y952250D02*
Y962250D01*
X348000Y827000D02*
X382000D01*
X348000Y813000D02*
X382000D01*
X348000D02*
Y827000D01*
X382000Y813000D02*
Y827000D01*
X360000Y820000D02*
X370000D01*
X365000Y815000D02*
Y825000D01*
X348000Y852000D02*
X382000D01*
X348000Y838000D02*
X382000D01*
X348000D02*
Y852000D01*
X382000Y838000D02*
Y852000D01*
X360000Y845000D02*
X370000D01*
X365000Y840000D02*
Y850000D01*
X348000Y877000D02*
X382000D01*
X348000Y863000D02*
X382000D01*
X348000D02*
Y877000D01*
X382000Y863000D02*
Y877000D01*
X360000Y870000D02*
X370000D01*
X365000Y865000D02*
Y875000D01*
X1212500Y837500D02*
X1222500D01*
X1217500Y832500D02*
Y842500D01*
X1166500Y880500D02*
X1268500D01*
X1166500Y794500D02*
Y880500D01*
Y794500D02*
X1268500D01*
Y880500D01*
X1185000Y531500D02*
Y593500D01*
X1155000Y531500D02*
X1185000D01*
X1155000D02*
Y593500D01*
X1185000D01*
X1170000Y557500D02*
Y567500D01*
X1165000Y562500D02*
X1175000D01*
X1245000Y562500D02*
Y572500D01*
X1240000Y567500D02*
X1250000D01*
X1201500Y531500D02*
X1288500D01*
X1201500Y603500D02*
X1288500D01*
Y531500D02*
Y603500D01*
X1201500Y531500D02*
Y603500D01*
Y446500D02*
Y518500D01*
X1288500Y446500D02*
Y518500D01*
X1201500D02*
X1288500D01*
X1201500Y446500D02*
X1288500D01*
X1240000Y482500D02*
X1250000D01*
X1245000Y477500D02*
Y487500D01*
X1165000Y482500D02*
X1175000D01*
X1170000Y477500D02*
Y487500D01*
X1155000Y513500D02*
X1185000D01*
X1155000Y451500D02*
Y513500D01*
Y451500D02*
X1185000D01*
Y513500D01*
X1153464Y416536D02*
X1160536Y409464D01*
X1153464Y409465D02*
X1160536Y416536D01*
X1164071Y429971D02*
X1173971Y420071D01*
X1140030Y405929D02*
X1149929Y396030D01*
X1173971Y420071D01*
X1140030Y405929D02*
X1164071Y429971D01*
X1180500Y427000D02*
X1214500D01*
X1180500Y413000D02*
X1214500D01*
X1180500D02*
Y427000D01*
X1214500Y413000D02*
Y427000D01*
X1192500Y420000D02*
X1202500D01*
X1197500Y415000D02*
Y425000D01*
X1223000Y413000D02*
X1257000D01*
X1223000Y427000D02*
X1257000D01*
Y413000D02*
Y427000D01*
X1223000Y413000D02*
Y427000D01*
X1235000Y420000D02*
X1245000D01*
X1240000Y415000D02*
Y425000D01*
X1265500Y413000D02*
X1299500D01*
X1265500Y427000D02*
X1299500D01*
Y413000D02*
Y427000D01*
X1265500Y413000D02*
Y427000D01*
X1277500Y420000D02*
X1287500D01*
X1282500Y415000D02*
Y425000D01*
X1224750Y886751D02*
Y920751D01*
X1238750Y886751D02*
Y920751D01*
X1224750Y886751D02*
X1238750D01*
X1224750Y920751D02*
X1238750D01*
X1231750Y898751D02*
Y908751D01*
X1226750Y903750D02*
X1236750D01*
X520250Y320000D02*
X530250D01*
X525250Y315000D02*
Y325000D01*
X507750Y300750D02*
Y339250D01*
X542750Y300750D02*
Y339250D01*
X507750Y300750D02*
X542750D01*
X507750Y339250D02*
X542750D01*
X1157750Y886750D02*
Y920750D01*
X1171750Y886750D02*
Y920750D01*
X1157750Y886750D02*
X1171750D01*
X1157750Y920750D02*
X1171750D01*
X1164750Y898750D02*
Y908750D01*
X1159750Y903750D02*
X1169750D01*
X1180250Y886750D02*
Y920750D01*
X1194250Y886750D02*
Y920750D01*
X1180250Y886750D02*
X1194250D01*
X1180250Y920750D02*
X1194250D01*
X1187250Y898750D02*
Y908750D01*
X1182250Y903750D02*
X1192250D01*
X1202750Y886750D02*
Y920750D01*
X1216750Y886750D02*
Y920750D01*
X1202750Y886750D02*
X1216750D01*
X1202750Y920750D02*
X1216750D01*
X1209750Y898750D02*
Y908750D01*
X1204750Y903750D02*
X1214750D01*
X1209750Y936500D02*
Y946000D01*
X1205000Y941250D02*
X1214500D01*
X1216750Y927250D02*
Y955250D01*
X1202750Y927250D02*
Y955250D01*
X1216750D01*
X1202750Y927250D02*
X1216750D01*
X1187250Y936500D02*
Y946000D01*
X1182500Y941250D02*
X1192000D01*
X1194250Y927250D02*
Y955250D01*
X1180250Y927250D02*
Y955250D01*
X1194250D01*
X1180250Y927250D02*
X1194250D01*
X1164750Y936500D02*
Y946000D01*
X1160000Y941250D02*
X1169500D01*
X1171750Y927250D02*
Y955250D01*
X1157750Y927250D02*
Y955250D01*
X1171750D01*
X1157750Y927250D02*
X1171750D01*
X969250Y735750D02*
X978750D01*
X974000Y731000D02*
Y740500D01*
X960000Y742750D02*
X988000D01*
X960000Y728750D02*
X988000D01*
X960000D02*
Y742750D01*
X988000Y728750D02*
Y742750D01*
X482750Y637500D02*
X492250D01*
X487500Y632750D02*
Y642250D01*
X473500Y630500D02*
X501500D01*
X473500Y644500D02*
X501500D01*
Y630500D02*
Y644500D01*
X473500Y630500D02*
Y644500D01*
X482750Y612500D02*
X492250D01*
X487500Y607750D02*
Y617250D01*
X473500Y605500D02*
X501500D01*
X473500Y619500D02*
X501500D01*
Y605500D02*
Y619500D01*
X473500Y605500D02*
Y619500D01*
D46*
X367500Y262500D02*
D03*
D90*
X720250Y886500D02*
D03*
X508250D02*
D03*
D96*
X1042500Y115000D02*
D03*
X1017500D02*
D03*
X1067500D02*
D03*
X525000Y199500D02*
D03*
Y275500D02*
D03*
D97*
X992500Y115000D02*
D03*
D108*
X742500Y612500D02*
D03*
X821250Y569000D02*
D03*
X874250Y615250D02*
D03*
X821500Y554500D02*
D03*
X899500Y741500D02*
D03*
X907750Y818750D02*
D03*
X875250Y658250D02*
D03*
X884250Y202750D02*
D03*
X681250Y666000D02*
D03*
X663750Y653500D02*
D03*
X701000Y658500D02*
D03*
X705000Y610750D02*
D03*
X810500Y488000D02*
D03*
X825963Y494287D02*
D03*
X793000Y527250D02*
D03*
X765250D02*
D03*
X750000Y532750D02*
D03*
X742500Y537500D02*
D03*
X732500Y543000D02*
D03*
X735500Y458500D02*
D03*
X865000Y615000D02*
D03*
X941250Y290750D02*
D03*
X925000Y275000D02*
D03*
X956000Y444000D02*
D03*
X1166000Y446000D02*
D03*
X825000Y250000D02*
D03*
X815000D02*
D03*
X785000D02*
D03*
X775000D02*
D03*
X815000Y210000D02*
D03*
X785000D02*
D03*
X825000Y240000D02*
D03*
X775000Y210000D02*
D03*
Y220000D02*
D03*
Y230000D02*
D03*
Y240000D02*
D03*
X785000Y260000D02*
D03*
X775000D02*
D03*
X825000D02*
D03*
X815000D02*
D03*
X951750Y521750D02*
D03*
X955500Y534000D02*
D03*
X506250Y473750D02*
D03*
X408250Y453250D02*
D03*
X397500Y331250D02*
D03*
X578750Y397500D02*
D03*
X570500Y390500D02*
D03*
X1064000Y743250D02*
D03*
X737500Y681250D02*
D03*
X730000D02*
D03*
X696250Y678250D02*
D03*
X710000Y702000D02*
D03*
X704750Y707250D02*
D03*
X699500Y712500D02*
D03*
X674000Y731000D02*
D03*
X672750Y724500D02*
D03*
X616500Y617000D02*
D03*
X502125Y436125D02*
D03*
X488125Y453375D02*
D03*
X559787Y486713D02*
D03*
X950250Y508750D02*
D03*
X920250Y526000D02*
D03*
X832250Y588250D02*
D03*
X831000Y578750D02*
D03*
X815000Y569250D02*
D03*
X790000Y563000D02*
D03*
X732500Y548750D02*
D03*
X691500Y560250D02*
D03*
X699250Y627500D02*
D03*
X692000Y595500D02*
D03*
X719250Y615000D02*
D03*
X718750Y605750D02*
D03*
Y593500D02*
D03*
Y581500D02*
D03*
X732750Y581000D02*
D03*
X757500Y615250D02*
D03*
X757250Y607500D02*
D03*
X757500Y598000D02*
D03*
X751000Y593500D02*
D03*
X764500Y593000D02*
D03*
X766500Y610000D02*
D03*
X777500Y605000D02*
D03*
X791500Y604500D02*
D03*
X811000Y610250D02*
D03*
X828750Y621250D02*
D03*
X828625Y628875D02*
D03*
X812188Y623438D02*
D03*
X797000Y623250D02*
D03*
X777500Y625000D02*
D03*
X757500Y627500D02*
D03*
X747000Y643500D02*
D03*
X771250Y668000D02*
D03*
X829500Y642500D02*
D03*
X811750Y634000D02*
D03*
X786250Y651250D02*
D03*
X795000D02*
D03*
X830000D02*
D03*
X829750Y663250D02*
D03*
X822750Y657250D02*
D03*
X806000Y678250D02*
D03*
X740000Y703250D02*
D03*
X746750Y709500D02*
D03*
X756000Y710500D02*
D03*
X766500Y715750D02*
D03*
X771750Y720750D02*
D03*
X780750Y710250D02*
D03*
X796000Y683000D02*
D03*
X786250Y680000D02*
D03*
X778750D02*
D03*
X771375Y679875D02*
D03*
X758750Y680000D02*
D03*
X750000D02*
D03*
X745000Y665000D02*
D03*
X673500Y716500D02*
D03*
X906250Y753750D02*
D03*
X858000Y721500D02*
D03*
X358000Y282000D02*
D03*
X362250Y288750D02*
D03*
X370000Y292500D02*
D03*
X378000Y289000D02*
D03*
X380250Y282500D02*
D03*
X435250Y346250D02*
D03*
X445000Y346250D02*
D03*
X680750Y694250D02*
D03*
X686250Y688500D02*
D03*
X691500Y683250D02*
D03*
X716750Y650000D02*
D03*
X693250Y666500D02*
D03*
X649750Y658750D02*
D03*
X675000Y637500D02*
D03*
X857250Y615250D02*
D03*
X665000Y520750D02*
D03*
X615250Y362500D02*
D03*
X856250Y625102D02*
D03*
X1250442Y594360D02*
D03*
X1133856Y534670D02*
D03*
X586486Y370332D02*
D03*
X761500Y843250D02*
D03*
D110*
X821500Y554500D02*
X882750Y615750D01*
Y847750D01*
X917000Y882000D01*
X899500Y598500D02*
X908250Y589750D01*
X899500Y598500D02*
Y741500D01*
X905343Y752843D02*
X906250Y753750D01*
X905343Y601907D02*
X909750Y597500D01*
X905343Y601907D02*
Y752843D01*
X917000Y882000D02*
X1122750D01*
X1187250Y946499D01*
Y946500D01*
X909750Y597500D02*
X956000D01*
X908250Y589750D02*
X955750D01*
D111*
X595647Y723853D02*
X619750Y699750D01*
X595647Y723853D02*
Y726853D01*
X572500Y750000D02*
X595647Y726853D01*
X675750Y770500D02*
X730750D01*
X789000Y828750D01*
X936750Y262500D02*
X979044D01*
X850733D02*
X936750D01*
X897500Y807500D02*
X897825Y807175D01*
X1094675D01*
X1095000Y806850D01*
X388000Y720250D02*
X417750Y750000D01*
X572500D01*
X789250Y181769D02*
X855000Y116019D01*
Y115000D02*
Y116019D01*
X789250Y181769D02*
Y182500D01*
X843750Y219000D02*
X860250Y235500D01*
X964250D02*
X980500Y219250D01*
X860250Y235500D02*
X964250D01*
X844875Y268358D02*
X850733Y262500D01*
X844875Y268358D02*
Y286625D01*
X979044Y262500D02*
X980897Y264353D01*
X982250D01*
X980500Y219250D02*
X980750Y219500D01*
X1158250Y876000D02*
X1177250Y857000D01*
X1153000Y876000D02*
X1158250D01*
X1193250Y489240D02*
X1194000Y488490D01*
Y449000D02*
Y488490D01*
X1193250Y489240D02*
Y528000D01*
X342250Y190000D02*
Y222950D01*
Y190000D02*
X372250Y160000D01*
X393500Y110250D02*
Y233269D01*
X398500Y238269D01*
Y239000D01*
X370250Y410250D02*
X433147D01*
X240700Y539800D02*
X370250Y410250D01*
X80000Y539800D02*
X240700D01*
X298500Y457250D02*
X363750Y392000D01*
X412000D01*
X433147Y410250D02*
X441397Y402000D01*
X442750D01*
X1177250Y719938D02*
Y857000D01*
X1032500Y219500D02*
X1032750Y219750D01*
X980750Y219500D02*
X1032500D01*
X409000Y603250D02*
Y603750D01*
X176750Y836000D02*
X409000Y603750D01*
X66608Y836000D02*
X176750D01*
X60750Y600000D02*
Y830142D01*
X66608Y836000D01*
X60750Y600000D02*
X68620Y592130D01*
X78469D02*
X80000Y590600D01*
X68620Y592130D02*
X78469D01*
X396000Y563000D02*
X464750D01*
X465000Y563250D01*
X163000Y767500D02*
X392250Y538250D01*
X462094D01*
X194000Y631500D02*
X363250Y462250D01*
X468000D01*
X399750Y586750D02*
X599250D01*
X609750Y597250D01*
X269500Y717000D02*
X351500Y635000D01*
X269500Y717000D02*
Y717250D01*
X145000Y457250D02*
X298500D01*
X354000Y632500D02*
X399750Y586750D01*
X1162250Y704937D02*
X1177250Y719938D01*
X365750Y720250D02*
X388000D01*
X303750Y763000D02*
X606966D01*
X97000Y613000D02*
X115500Y631500D01*
X97000Y579250D02*
Y613000D01*
X86950Y569200D02*
X97000Y579250D01*
X115500Y631500D02*
X194000D01*
X113251Y489000D02*
X145000Y457250D01*
X80000Y565200D02*
X82164D01*
X86164Y569200D02*
X86950D01*
X82164Y565200D02*
X86164Y569200D01*
X80000Y489000D02*
X113251D01*
X80899Y767500D02*
X163000D01*
X80000Y768400D02*
X80899Y767500D01*
X216750Y742250D02*
X396000Y563000D01*
X239500Y439250D02*
X334750Y344000D01*
Y287000D02*
Y344000D01*
X755500Y326250D02*
X842814D01*
X664250Y235000D02*
X755500Y326250D01*
X720250Y419000D02*
X729500Y409750D01*
Y349750D02*
Y409750D01*
X1144500Y694600D02*
X1146250Y692850D01*
Y661750D02*
Y692850D01*
X1144500Y694600D02*
Y846769D01*
X1155250Y857519D01*
X1281250Y609000D02*
Y795858D01*
X1210750Y838500D02*
Y866358D01*
X1281250Y795858D01*
X1210750Y866358D02*
Y953250D01*
X1162250Y648750D02*
Y704937D01*
X1140500Y627000D02*
X1162250Y648750D01*
X1140500Y598350D02*
Y627000D01*
X1120400Y578250D02*
X1140500Y598350D01*
X1155250Y857519D02*
Y858250D01*
X1197250Y966750D02*
X1210750Y953250D01*
X1193250Y528000D02*
X1248250Y583000D01*
X302500Y262700D02*
X342250Y222950D01*
D112*
X570500Y728500D02*
X630750Y668250D01*
X557406Y728500D02*
X570500D01*
X554906Y726000D02*
X557406Y728500D01*
X511500Y619750D02*
Y643136D01*
X503000Y651636D02*
X511500Y643136D01*
X712932Y916432D02*
X872818D01*
X884250Y905000D01*
X644000Y847500D02*
X712932Y916432D01*
X895250Y791250D02*
X1082466D01*
X1092266Y781450D01*
X1095103Y527347D02*
X1120400Y552644D01*
X805353Y530000D02*
X807853Y532500D01*
X809000D01*
X892250Y615750D01*
Y768750D01*
X804000Y530000D02*
X805353D01*
X915000Y747500D02*
X948750Y713750D01*
Y624000D02*
Y713750D01*
X733997Y424371D02*
Y429247D01*
X865836Y561086D02*
X1030643D01*
X733997Y429247D02*
X865836Y561086D01*
X864202Y568452D02*
X1040384D01*
X713072Y429100D02*
X724850D01*
X864202Y568452D01*
X863334Y576834D02*
X1045166D01*
X723750Y437250D02*
X863334Y576834D01*
X701918Y437250D02*
X723750D01*
X466375Y445375D02*
X466500Y445500D01*
X423250Y445250D02*
X423375Y445375D01*
X466375D01*
X546463Y523963D02*
X581750Y559250D01*
X511750Y488250D02*
X546463Y522963D01*
Y523963D01*
X480500Y436000D02*
X586500Y542000D01*
X411250Y436000D02*
X480500D01*
X543000Y726000D02*
X554906D01*
X476750Y926750D02*
X522750D01*
X590000Y859500D01*
X467000Y935000D02*
X531250D01*
X594500Y871750D01*
X485250Y942750D02*
X539750D01*
X598750Y883750D01*
X562125Y159625D02*
X804000Y401500D01*
X845309Y531559D02*
X848059D01*
X804000Y483000D02*
Y490250D01*
X845309Y531559D01*
X848059D02*
X848250Y531750D01*
X733806Y424180D02*
X733997Y424371D01*
X1224000Y979000D02*
X1238000Y965000D01*
X1071000Y979000D02*
X1224000D01*
X1030250Y938250D02*
X1071000Y979000D01*
X1002000Y634000D02*
Y704553D01*
X1005000Y707553D01*
Y780000D01*
X1002000Y634000D02*
X1057750Y578250D01*
X1095000D01*
X1037729Y554000D02*
X1038000D01*
X1030643Y561086D02*
X1037729Y554000D01*
X1045166Y576834D02*
X1066800Y555200D01*
Y504850D02*
Y555200D01*
X680000Y938250D02*
X1030250D01*
X1166000Y446000D02*
Y456450D01*
X1120400Y502050D02*
X1166000Y456450D01*
X1020114Y908000D02*
X1058000D01*
X690000Y930500D02*
X1031500D01*
X1043000Y919000D02*
Y919000D01*
X1031500Y930500D02*
X1043000Y919000D01*
X914698Y893000D02*
X1061000D01*
X912699Y895000D02*
X914698Y893000D01*
X1004614Y923500D02*
X1020114Y908000D01*
X762750Y895000D02*
X912699D01*
X668500Y800750D02*
X762750Y895000D01*
X844742Y75500D02*
X1078038D01*
X793750Y126492D02*
X844742Y75500D01*
X1078038D02*
X1220216Y217678D01*
X575250Y662500D02*
X594500Y643250D01*
X594656D01*
X411500Y488250D02*
X411500Y488250D01*
X511750D01*
X452750Y525250D02*
X465250Y512750D01*
X399500Y525250D02*
X452750D01*
X411750Y512750D02*
X412001Y513000D01*
X446750D01*
X295000Y305000D02*
X325749Y274251D01*
X295000Y305000D02*
Y305750D01*
X468250Y400684D02*
X486918Y382016D01*
X630750Y469000D02*
X716750Y555000D01*
X630750Y396250D02*
Y469000D01*
X1092266Y781450D02*
X1095000D01*
X643000Y697750D02*
Y747229D01*
X640750Y749479D02*
Y749750D01*
Y749479D02*
X643000Y747229D01*
X514750Y687500D02*
X587500D01*
X616250Y658750D02*
X649750D01*
X587500Y687500D02*
X616250Y658750D01*
X462250Y608500D02*
X462250Y608500D01*
X585500D01*
X434050Y636700D02*
X463296Y665946D01*
X408500Y638488D02*
X447238Y599750D01*
X408500Y638488D02*
Y641750D01*
X499500Y497750D02*
X558750Y557000D01*
Y557250D01*
X621500Y895000D02*
X672750Y946250D01*
X872250D01*
X625500Y883750D02*
X680000Y938250D01*
X557500Y800750D02*
X668500D01*
X456250Y902000D02*
X557500Y800750D01*
X465500Y978000D02*
X494250Y949250D01*
X548250D02*
X602500Y895000D01*
X494250Y949250D02*
X548250D01*
X261500Y978000D02*
X465500D01*
X602500Y895000D02*
X621500D01*
X598750Y883750D02*
X625500D01*
X636750Y859500D02*
X700750Y923500D01*
X590000Y859500D02*
X636750D01*
X585000Y847500D02*
X644000D01*
X516068Y916432D02*
X585000Y847500D01*
X631250Y871750D02*
X690000Y930500D01*
X594500Y871750D02*
X631250D01*
X700750Y923500D02*
X1004614D01*
X457962Y916432D02*
X516068D01*
X917250Y866500D02*
X924256Y873506D01*
X1125728D01*
X60500Y856000D02*
X90187Y885687D01*
X60500Y856000D02*
Y856000D01*
X325749Y251825D02*
Y274251D01*
X320500Y302054D02*
X320548Y302006D01*
X169187Y885687D02*
X261500Y978000D01*
X669250Y788250D02*
X742500Y861500D01*
X837750D01*
X534500Y788250D02*
X669250D01*
X424300Y916450D02*
Y957250D01*
Y916450D02*
X504500Y836250D01*
X447238Y599750D02*
X473000D01*
X643000Y697750D02*
X643271D01*
X1095103Y527347D02*
X1095103D01*
X462000Y497750D02*
X499500D01*
X446750Y513000D02*
X462000Y497750D01*
X656750Y632250D02*
Y662250D01*
X641500Y617000D02*
X656750Y632250D01*
X616500Y617000D02*
X641500D01*
X514750Y662500D02*
X575250D01*
X650750Y668250D02*
X656750Y662250D01*
X630750Y668250D02*
X650750D01*
X589788Y325120D02*
X701918Y437250D01*
X90187Y885687D02*
X169187D01*
X1125728Y873506D02*
X1133348Y865886D01*
Y845198D02*
Y865886D01*
X1120400Y832250D02*
X1133348Y845198D01*
X463296Y665946D02*
Y712470D01*
X438150Y737616D02*
X463296Y712470D01*
X1213612Y594360D02*
X1250442D01*
X1153922Y534670D02*
X1213612Y594360D01*
X1133856Y534670D02*
X1153922D01*
X325749Y251825D02*
X332210Y245364D01*
X388366D01*
X419608Y276606D01*
X448818D01*
X466598Y258826D01*
X542798D01*
X713072Y429100D01*
X1040384Y568452D02*
X1055116Y553720D01*
Y502050D02*
Y553720D01*
X486918Y382016D02*
X574802D01*
X586486Y370332D01*
X506222Y221234D02*
X531876Y246888D01*
X506222Y107696D02*
Y221234D01*
Y107696D02*
X512064Y101854D01*
X561086D01*
X585724Y126492D01*
X793750D01*
X1095000Y552850D02*
X1120400Y578250D01*
X485648Y325120D02*
X589788D01*
X1066800Y504850D02*
X1095000Y476650D01*
X804000Y401500D02*
Y481250D01*
X434050Y636700D02*
X462250Y608500D01*
X433250Y636700D02*
X434050D01*
X503000Y651636D02*
Y675750D01*
X514750Y687500D01*
X398900Y923850D02*
X534500Y788250D01*
X348100Y923400D02*
Y957250D01*
Y923400D02*
X472250Y799250D01*
X484250Y812750D02*
X484750D01*
X373500Y923500D02*
X484250Y812750D01*
X373500Y923500D02*
Y957250D01*
X398900Y923850D02*
Y957250D01*
D113*
X868000Y216000D02*
X913577D01*
X922364Y143386D02*
Y207213D01*
X913577Y216000D02*
X922364Y207213D01*
Y143386D02*
X976250Y89500D01*
X1216000Y449000D02*
X1216000Y449000D01*
Y522516D01*
X976250Y89500D02*
X1071250D01*
X1095000Y113250D01*
Y143750D01*
X753500Y288500D02*
X771375Y306375D01*
X957375D01*
X753500Y251000D02*
Y288500D01*
X1157750Y614500D02*
X1170750Y627500D01*
X1120400Y552850D02*
X1148963D01*
X1157750Y561637D01*
Y614500D01*
X1243000Y522750D02*
X1281250Y561000D01*
X1262750Y627500D02*
X1281250Y609000D01*
Y561000D02*
Y609000D01*
X1216235Y522750D02*
X1243000D01*
X1170750Y627500D02*
X1262750D01*
X1216000Y522516D02*
X1216235Y522750D01*
D114*
X892000Y523000D02*
X949000Y466000D01*
X964000D02*
X1004000Y426000D01*
X949000Y466000D02*
X964000D01*
X959000Y454000D02*
X1163500Y249500D01*
X944000Y454000D02*
X959000D01*
X875000Y523000D02*
X944000Y454000D01*
X320500Y302054D02*
X320548Y302101D01*
X955750Y477500D02*
X969500D01*
X1011000Y436000D02*
X1293000D01*
X969500Y477500D02*
X1011000Y436000D01*
X1163500Y193750D02*
Y249500D01*
X1004000Y426000D02*
X1140000D01*
X1171000Y395000D01*
X1187250Y946500D02*
Y955500D01*
X1179650Y650350D02*
X1200350D01*
X1179000Y651000D02*
X1179650Y650350D01*
X1200350D02*
X1250000Y700000D01*
X194596Y479199D02*
X194750Y479353D01*
X194596Y478981D02*
X194663Y478913D01*
X194596Y478981D02*
Y479199D01*
X194750Y479353D02*
Y523500D01*
X228500Y427750D02*
X320548Y335702D01*
Y302101D02*
Y335702D01*
X1083500Y213500D02*
Y303750D01*
X1017500Y115000D02*
Y147500D01*
X1083500Y213500D01*
X910000Y523250D02*
X955750Y477500D01*
X388750Y262500D02*
X480500Y354250D01*
X516000D01*
X375037Y262500D02*
X388750D01*
X1178750Y608000D02*
X1178875Y608125D01*
X1252375D01*
X1252500Y608250D01*
X1262750Y573000D02*
Y596593D01*
X1252500Y606843D02*
X1262750Y596593D01*
X1252500Y606843D02*
Y608250D01*
X1248500Y558750D02*
X1262750Y573000D01*
X962500Y424750D02*
X1083500Y303750D01*
D116*
X175000Y940000D02*
D03*
X1272000Y48000D02*
D03*
Y940000D02*
D03*
X420000Y48000D02*
D03*
D117*
X1250000Y750000D02*
D03*
Y700000D02*
D03*
X435000Y262700D02*
D03*
X302500Y237300D02*
D03*
X449700Y957250D02*
D03*
X398900D02*
D03*
X322700D02*
D03*
X297300D02*
D03*
X348100D02*
D03*
X373500D02*
D03*
X424300D02*
D03*
X269500Y717250D02*
D03*
X303750Y763000D02*
D03*
X216750Y742250D02*
D03*
D118*
X1250000Y650000D02*
D03*
D119*
X1225000Y115000D02*
D03*
X1200000D02*
D03*
X880000D02*
D03*
X855000D02*
D03*
X355000D02*
D03*
X542500D02*
D03*
X619750Y699750D02*
D03*
X789000Y828750D02*
D03*
X897500Y807500D02*
D03*
X372250Y160000D02*
D03*
X753500Y251000D02*
D03*
X412000Y392000D02*
D03*
X442750Y402000D02*
D03*
X465000Y563250D02*
D03*
X462094Y538250D02*
D03*
X982250Y264353D02*
D03*
X351500Y635000D02*
D03*
X365750Y720250D02*
D03*
X675750Y770500D02*
D03*
X606966Y763000D02*
D03*
X194500Y478750D02*
D03*
X194750Y523500D02*
D03*
X514750Y662500D02*
D03*
Y687500D02*
D03*
X1163500Y193750D02*
D03*
D120*
X1175000Y115000D02*
D03*
X830000D02*
D03*
X330000D02*
D03*
X517500D02*
D03*
D121*
X435000Y237300D02*
D03*
X302500Y262700D02*
D03*
D122*
X433250Y712900D02*
D03*
Y687500D02*
D03*
Y662100D02*
D03*
Y636700D02*
D03*
X80000Y819200D02*
D03*
Y793800D02*
D03*
Y768400D02*
D03*
Y743000D02*
D03*
Y717600D02*
D03*
Y692200D02*
D03*
Y666800D02*
D03*
Y641400D02*
D03*
Y616000D02*
D03*
Y590600D02*
D03*
Y565200D02*
D03*
Y539800D02*
D03*
Y514400D02*
D03*
Y489000D02*
D03*
X1095000Y857650D02*
D03*
X1120400D02*
D03*
X1095000Y832250D02*
D03*
X1120400D02*
D03*
X1095000Y806850D02*
D03*
X1120400D02*
D03*
Y451250D02*
D03*
X1095000D02*
D03*
Y476650D02*
D03*
X1120400D02*
D03*
X1095000Y502050D02*
D03*
X1120400D02*
D03*
Y527450D02*
D03*
X1095000D02*
D03*
X1120400Y552850D02*
D03*
X1095000D02*
D03*
X1120400Y578250D02*
D03*
X1095000D02*
D03*
X1120400Y603650D02*
D03*
X1095000D02*
D03*
X1120400Y629050D02*
D03*
X1095000D02*
D03*
X1120400Y654450D02*
D03*
X1095000D02*
D03*
X1120400Y679850D02*
D03*
X1095000D02*
D03*
X1120400Y705250D02*
D03*
X1095000D02*
D03*
X1120400Y730650D02*
D03*
X1095000D02*
D03*
X1120400Y756050D02*
D03*
X1095000D02*
D03*
X1120400Y781450D02*
D03*
X1095000D02*
D03*
D123*
X271900Y957250D02*
D03*
D124*
X169000Y581000D02*
D03*
Y510000D02*
D03*
D125*
X511500Y619750D02*
D03*
X892250Y768750D02*
D03*
X804000Y530000D02*
D03*
X466500Y445500D02*
D03*
X543000Y726000D02*
D03*
X892000Y523000D02*
D03*
X875000D02*
D03*
X1153000Y876000D02*
D03*
X1238000Y965000D02*
D03*
X1043000Y919000D02*
D03*
X1061000Y893000D02*
D03*
X411500Y488250D02*
D03*
X468250Y400684D02*
D03*
X485648Y325120D02*
D03*
X640750Y749750D02*
D03*
X465250Y512750D02*
D03*
X910000Y523250D02*
D03*
X884250Y905000D02*
D03*
X917250Y866500D02*
D03*
X60500Y856000D02*
D03*
X438150Y737616D02*
D03*
X531876Y246888D02*
D03*
X1220216Y217678D02*
D03*
D126*
X869500Y816250D02*
D03*
X895250Y791250D02*
D03*
X915000Y747500D02*
D03*
X581750Y559250D02*
D03*
X586500Y542000D02*
D03*
X476750Y926750D02*
D03*
X467000Y935000D02*
D03*
X485250Y942750D02*
D03*
X1058000Y908000D02*
D03*
X423250Y445250D02*
D03*
X399500Y525250D02*
D03*
X630750Y396250D02*
D03*
X408500Y641750D02*
D03*
X558750Y557250D02*
D03*
X618750Y534500D02*
D03*
X456250Y902000D02*
D03*
X457962Y916432D02*
D03*
X504500Y836250D02*
D03*
X473000Y599750D02*
D03*
X472250Y799250D02*
D03*
X484750Y812750D02*
D03*
X1187250Y955500D02*
D03*
D127*
X795750Y545750D02*
D03*
X863000Y694500D02*
D03*
X876250Y544000D02*
D03*
X869250Y538000D02*
D03*
X853500Y506750D02*
D03*
X850500Y519000D02*
D03*
X848250Y531750D02*
D03*
X879500Y553250D02*
D03*
X541000Y652000D02*
D03*
X1038000Y554000D02*
D03*
X594656Y643250D02*
D03*
X563750Y655000D02*
D03*
X571656Y652500D02*
D03*
X556312Y652438D02*
D03*
X548750Y655250D02*
D03*
X1015000Y682500D02*
D03*
X1055116Y502050D02*
D03*
X956000Y597500D02*
D03*
X955750Y589750D02*
D03*
X1043500Y745750D02*
D03*
X1015000Y727500D02*
D03*
Y717500D02*
D03*
Y700000D02*
D03*
X1015250Y663750D02*
D03*
X1069000Y666750D02*
D03*
X837750Y861500D02*
D03*
X585500Y608500D02*
D03*
X571250Y616250D02*
D03*
X563750Y621250D02*
D03*
X556375Y616375D02*
D03*
X548750Y621250D02*
D03*
X541250Y616250D02*
D03*
X733806Y424180D02*
D03*
X716750Y555000D02*
D03*
X861250Y674750D02*
D03*
X872250Y946250D02*
D03*
X643000Y697750D02*
D03*
X609750Y597250D02*
D03*
D128*
X789250Y182500D02*
D03*
X561750Y160000D02*
D03*
X936750Y262500D02*
D03*
X1293000Y436000D02*
D03*
X1216000Y449000D02*
D03*
X1194000D02*
D03*
X1171000Y395000D02*
D03*
X844875Y286625D02*
D03*
X393500Y110250D02*
D03*
X1179000Y651000D02*
D03*
X1095000Y143750D02*
D03*
X334750Y287000D02*
D03*
X842814Y326250D02*
D03*
X664250Y235000D02*
D03*
X720250Y419000D02*
D03*
X729500Y349750D02*
D03*
X1146250Y661750D02*
D03*
X1210750Y838500D02*
D03*
X1155250Y858250D02*
D03*
X1252500Y608250D02*
D03*
X1197250Y966750D02*
D03*
X1178750Y608000D02*
D03*
X1248500Y558750D02*
D03*
X1216000Y522516D02*
D03*
X1248250Y583000D02*
D03*
X843750Y219000D02*
D03*
X962500Y424750D02*
D03*
X398500Y239000D02*
D03*
X516000Y354250D02*
D03*
D129*
X868000Y216000D02*
D03*
X980500Y219250D02*
D03*
X1032750Y219750D02*
D03*
D130*
X1005000Y780000D02*
D03*
X411750Y512750D02*
D03*
X295000Y305750D02*
D03*
X948750Y624000D02*
D03*
X409000Y603250D02*
D03*
X468000Y462250D02*
D03*
X228500Y427750D02*
D03*
X320548Y302006D02*
D03*
X411250Y436000D02*
D03*
X239500Y439250D02*
D03*
D131*
X367500Y262500D02*
D03*
X375037D02*
D03*
X360000D02*
D03*
D132*
X957375Y306375D02*
D03*
D133*
X508250Y886500D02*
X569750Y825000D01*
X658750D02*
X720250Y886500D01*
X569750Y825000D02*
X658750D01*
M02*
