G04*
G04 #@! TF.GenerationSoftware,Altium Limited,Altium Designer,21.8.1 (53)*
G04*
G04 Layer_Physical_Order=1*
G04 Layer_Color=255*
%FSLAX44Y44*%
%MOMM*%
G71*
G04*
G04 #@! TF.SameCoordinates,DC6FBC13-50ED-4B09-903C-A93FE52865D5*
G04*
G04*
G04 #@! TF.FilePolarity,Positive*
G04*
G01*
G75*
%ADD10C,0.2500*%
%ADD11C,0.2000*%
%ADD13C,0.2540*%
%ADD53C,3.5000*%
%ADD59C,1.6000*%
%ADD60P,1.7318X8X22.5*%
%ADD71C,0.4000*%
%ADD73O,1.4000X0.3000*%
%ADD74O,0.3000X1.4000*%
%ADD75R,1.4000X2.4000*%
%ADD76R,0.6000X1.0000*%
%ADD77R,1.0000X1.2500*%
%ADD78R,1.2500X1.0000*%
%ADD79R,1.0000X0.6000*%
%ADD80R,1.0000X2.4000*%
%ADD81R,3.3000X2.4000*%
%ADD82R,7.0000X4.0000*%
%ADD83C,16.0000*%
%ADD84R,0.8500X0.8500*%
G04:AMPARAMS|DCode=85|XSize=1.3mm|YSize=1.9mm|CornerRadius=0.0325mm|HoleSize=0mm|Usage=FLASHONLY|Rotation=90.000|XOffset=0mm|YOffset=0mm|HoleType=Round|Shape=RoundedRectangle|*
%AMROUNDEDRECTD85*
21,1,1.3000,1.8350,0,0,90.0*
21,1,1.2350,1.9000,0,0,90.0*
1,1,0.0650,0.9175,0.6175*
1,1,0.0650,0.9175,-0.6175*
1,1,0.0650,-0.9175,-0.6175*
1,1,0.0650,-0.9175,0.6175*
%
%ADD85ROUNDEDRECTD85*%
%ADD86R,4.4000X1.2000*%
%ADD87R,1.0000X0.9000*%
%ADD88R,1.0000X3.3000*%
%ADD89R,1.0000X1.5000*%
%ADD90R,0.8000X1.2000*%
%ADD91R,2.5000X1.7000*%
%ADD92R,1.7000X2.5000*%
%ADD93R,0.6000X0.6000*%
%ADD94R,0.8500X0.8500*%
%ADD95R,1.9000X2.5000*%
%ADD96R,1.9000X2.4000*%
%ADD97R,0.6000X0.6000*%
G04:AMPARAMS|DCode=98|XSize=1.5mm|YSize=1.6mm|CornerRadius=0.15mm|HoleSize=0mm|Usage=FLASHONLY|Rotation=270.000|XOffset=0mm|YOffset=0mm|HoleType=Round|Shape=RoundedRectangle|*
%AMROUNDEDRECTD98*
21,1,1.5000,1.3000,0,0,270.0*
21,1,1.2000,1.6000,0,0,270.0*
1,1,0.3000,-0.6500,-0.6000*
1,1,0.3000,-0.6500,0.6000*
1,1,0.3000,0.6500,0.6000*
1,1,0.3000,0.6500,-0.6000*
%
%ADD98ROUNDEDRECTD98*%
%ADD99R,1.5000X1.0000*%
%ADD100R,1.2000X0.8000*%
G04:AMPARAMS|DCode=101|XSize=0.8mm|YSize=2mm|CornerRadius=0.004mm|HoleSize=0mm|Usage=FLASHONLY|Rotation=90.000|XOffset=0mm|YOffset=0mm|HoleType=Round|Shape=RoundedRectangle|*
%AMROUNDEDRECTD101*
21,1,0.8000,1.9920,0,0,90.0*
21,1,0.7920,2.0000,0,0,90.0*
1,1,0.0080,0.9960,0.3960*
1,1,0.0080,0.9960,-0.3960*
1,1,0.0080,-0.9960,-0.3960*
1,1,0.0080,-0.9960,0.3960*
%
%ADD101ROUNDEDRECTD101*%
G04:AMPARAMS|DCode=102|XSize=0.5mm|YSize=0.25mm|CornerRadius=0.0125mm|HoleSize=0mm|Usage=FLASHONLY|Rotation=90.000|XOffset=0mm|YOffset=0mm|HoleType=Round|Shape=RoundedRectangle|*
%AMROUNDEDRECTD102*
21,1,0.5000,0.2250,0,0,90.0*
21,1,0.4750,0.2500,0,0,90.0*
1,1,0.0250,0.1125,0.2375*
1,1,0.0250,0.1125,-0.2375*
1,1,0.0250,-0.1125,-0.2375*
1,1,0.0250,-0.1125,0.2375*
%
%ADD102ROUNDEDRECTD102*%
G04:AMPARAMS|DCode=103|XSize=0.6mm|YSize=0.4mm|CornerRadius=0.04mm|HoleSize=0mm|Usage=FLASHONLY|Rotation=270.000|XOffset=0mm|YOffset=0mm|HoleType=Round|Shape=RoundedRectangle|*
%AMROUNDEDRECTD103*
21,1,0.6000,0.3200,0,0,270.0*
21,1,0.5200,0.4000,0,0,270.0*
1,1,0.0800,-0.1600,-0.2600*
1,1,0.0800,-0.1600,0.2600*
1,1,0.0800,0.1600,0.2600*
1,1,0.0800,0.1600,-0.2600*
%
%ADD103ROUNDEDRECTD103*%
%ADD104R,1.3000X1.0000*%
%ADD105R,3.2000X1.2000*%
%ADD106R,2.4000X3.3000*%
%ADD107R,2.4000X1.0000*%
G04:AMPARAMS|DCode=108|XSize=1.25mm|YSize=1mm|CornerRadius=0mm|HoleSize=0mm|Usage=FLASHONLY|Rotation=315.000|XOffset=0mm|YOffset=0mm|HoleType=Round|Shape=Rectangle|*
%AMROTATEDRECTD108*
4,1,4,-0.7955,0.0884,-0.0884,0.7955,0.7955,-0.0884,0.0884,-0.7955,-0.7955,0.0884,0.0*
%
%ADD108ROTATEDRECTD108*%

%ADD109C,1.0000*%
%ADD110C,0.4000*%
%ADD111C,0.5000*%
%ADD112C,1.5000*%
%ADD113C,0.7500*%
%ADD114C,0.3500*%
%ADD115C,3.4000*%
%ADD116C,2.0000*%
%ADD117P,2.1648X8X112.5*%
%ADD118C,1.5000*%
%ADD119P,1.6236X8X22.5*%
%ADD120R,2.0000X2.0000*%
%ADD121C,1.8000*%
%ADD122R,2.0000X2.0000*%
%ADD123C,3.0000*%
%ADD124C,1.0000*%
%ADD125C,0.8000*%
%ADD126C,0.6000*%
%ADD127C,1.2700*%
%ADD128C,1.7500*%
%ADD129C,1.2000*%
%ADD130C,0.3000*%
%ADD131C,2.2000*%
G36*
X1198750Y958507D02*
X1200473Y958969D01*
X1202377Y960068D01*
X1203932Y961623D01*
X1205031Y963527D01*
X1205425Y965000D01*
X1216511D01*
X1221412Y960099D01*
Y943303D01*
X1221008Y942992D01*
X1219885Y941530D01*
X1219180Y939827D01*
X1218940Y938000D01*
X1219180Y936173D01*
X1219885Y934470D01*
X1221008Y933008D01*
X1226758Y927257D01*
X1227162Y926947D01*
Y920750D01*
X1223500D01*
Y906750D01*
X1240000D01*
Y910969D01*
X1241270Y911495D01*
X1276588Y876178D01*
Y670863D01*
X1275415Y670377D01*
X1265646Y680146D01*
X1263744Y681416D01*
X1261500Y681863D01*
X1249679D01*
X1242580Y688961D01*
X1243360Y689977D01*
X1245368Y688818D01*
X1248420Y688000D01*
X1251580D01*
X1254632Y688818D01*
X1257368Y690398D01*
X1259602Y692632D01*
X1261182Y695368D01*
X1262000Y698420D01*
Y701580D01*
X1261182Y704632D01*
X1259602Y707368D01*
X1257368Y709603D01*
X1254632Y711182D01*
X1251580Y712000D01*
X1248420D01*
X1245368Y711182D01*
X1242632Y709603D01*
X1240398Y707368D01*
X1238818Y704632D01*
X1238000Y701580D01*
Y698420D01*
X1238818Y695368D01*
X1239977Y693360D01*
X1238961Y692580D01*
X1214895Y716646D01*
X1212993Y717916D01*
X1212176Y718079D01*
X1210750Y718363D01*
X1181561D01*
Y730326D01*
X1182492Y731257D01*
X1183614Y732720D01*
X1184320Y734423D01*
X1184560Y736250D01*
Y755440D01*
X1231870D01*
X1238000Y749309D01*
Y748420D01*
X1238818Y745368D01*
X1240398Y742632D01*
X1242632Y740398D01*
X1245368Y738818D01*
X1248420Y738000D01*
X1251580D01*
X1254632Y738818D01*
X1257368Y740398D01*
X1259602Y742632D01*
X1261182Y745368D01*
X1262000Y748420D01*
Y751580D01*
X1261182Y754632D01*
X1259602Y757368D01*
X1257368Y759602D01*
X1254632Y761182D01*
X1251580Y762000D01*
X1248420D01*
X1245943Y761336D01*
X1239787Y767492D01*
X1238324Y768614D01*
X1236621Y769320D01*
X1234794Y769560D01*
X1184500D01*
Y770750D01*
X1170500D01*
Y762959D01*
X1170439Y762500D01*
Y739174D01*
X1169508Y738242D01*
X1168386Y736780D01*
X1168239Y736427D01*
X1166864D01*
X1166615Y737030D01*
X1165492Y738492D01*
X1164560Y739425D01*
Y762500D01*
X1164500Y762959D01*
Y770750D01*
X1150500D01*
X1150000Y771813D01*
Y850173D01*
X1151270Y850906D01*
X1152027Y850469D01*
X1154151Y849900D01*
X1156349D01*
X1158473Y850469D01*
X1160377Y851569D01*
X1161932Y853123D01*
X1163031Y855027D01*
X1163404Y856419D01*
X1176174Y869190D01*
X1196575D01*
X1232258Y833508D01*
X1233500Y832554D01*
Y829500D01*
X1269500D01*
Y845500D01*
X1250962D01*
X1250502Y845561D01*
X1250501Y845561D01*
X1250500Y845561D01*
X1240175D01*
X1210120Y875615D01*
Y876885D01*
X1213492Y880258D01*
X1214614Y881720D01*
X1215320Y883423D01*
X1215418Y884168D01*
X1231750D01*
X1234230Y884495D01*
X1236541Y885452D01*
X1238233Y886750D01*
X1240000D01*
Y888896D01*
X1240048Y888959D01*
X1241006Y891270D01*
X1241332Y893750D01*
X1241006Y896230D01*
X1240048Y898541D01*
X1240000Y898604D01*
Y900750D01*
X1238233D01*
X1236541Y902048D01*
X1234230Y903006D01*
X1231750Y903332D01*
X1209750D01*
X1207270Y903006D01*
X1204959Y902048D01*
X1203267Y900750D01*
X1201500D01*
Y898604D01*
X1201452Y898541D01*
X1200495Y896230D01*
X1200168Y893750D01*
X1200495Y891270D01*
X1201440Y888989D01*
Y888323D01*
X1201440Y888321D01*
Y888175D01*
X1196575Y883311D01*
X1173250D01*
X1171423Y883070D01*
X1169720Y882365D01*
X1168257Y881243D01*
X1161088Y874073D01*
X1159880Y874631D01*
X1160000Y875078D01*
Y875541D01*
X1160060Y876000D01*
Y884968D01*
X1161782Y886690D01*
X1187250D01*
X1187709Y886750D01*
X1195500D01*
Y900750D01*
X1187709D01*
X1187250Y900811D01*
X1158858D01*
X1158641Y900782D01*
X1157855Y901341D01*
X1157535Y901732D01*
X1157588Y902000D01*
Y906750D01*
X1164291D01*
X1164750Y906690D01*
X1165209Y906750D01*
X1173000D01*
Y920750D01*
X1171810D01*
Y934250D01*
X1171570Y936077D01*
X1171000Y937453D01*
Y940500D01*
X1168647D01*
X1168425Y940730D01*
X1168965Y942000D01*
X1171000D01*
Y946750D01*
X1164750D01*
Y948250D01*
X1163250D01*
Y954500D01*
X1158858D01*
X1158500Y954500D01*
X1157588Y955365D01*
Y958100D01*
X1164489Y965000D01*
X1189074D01*
X1189469Y963527D01*
X1190286Y962112D01*
X1189402Y961103D01*
X1188443Y961500D01*
X1186056D01*
X1183851Y960587D01*
X1182163Y958899D01*
X1181250Y956694D01*
Y954500D01*
X1181000D01*
Y942000D01*
X1183035D01*
X1183575Y940730D01*
X1183353Y940500D01*
X1181000D01*
Y937453D01*
X1180430Y936077D01*
X1180190Y934250D01*
Y920750D01*
X1179000D01*
Y906750D01*
X1186791D01*
X1187250Y906690D01*
X1187709Y906750D01*
X1195500D01*
Y920750D01*
X1194310D01*
Y934250D01*
X1194070Y936077D01*
X1193500Y937453D01*
Y940500D01*
X1191147D01*
X1190925Y940730D01*
X1191464Y942000D01*
X1193500D01*
Y954500D01*
X1193250D01*
Y956694D01*
X1192565Y958346D01*
X1193574Y959231D01*
X1194027Y958969D01*
X1195750Y958507D01*
Y966750D01*
X1198750D01*
Y958507D01*
D02*
G37*
G36*
X1275000Y895000D02*
X1300000D01*
Y442605D01*
X1298730Y442079D01*
X1298127Y442682D01*
X1296223Y443781D01*
X1294099Y444350D01*
X1291901D01*
X1289777Y443781D01*
X1287873Y442682D01*
X1286318Y441127D01*
X1285219Y439223D01*
X1284650Y437099D01*
Y434901D01*
X1285219Y432777D01*
X1285439Y432395D01*
Y420000D01*
X1285500Y419541D01*
Y411750D01*
X1299500D01*
X1300000Y410687D01*
Y90000D01*
X1250000Y90000D01*
X1247550Y89880D01*
X1242743Y88924D01*
X1238215Y87048D01*
X1234140Y84325D01*
X1230675Y80860D01*
X1227952Y76785D01*
X1226076Y72257D01*
X1225120Y67450D01*
X1225000Y65000D01*
X1225000Y65000D01*
X800000Y65000D01*
Y107940D01*
X822810D01*
X825250Y105500D01*
X834750D01*
X839500Y110250D01*
Y119750D01*
X834750Y124500D01*
X825250D01*
X822810Y122060D01*
X800000D01*
Y140000D01*
X900000D01*
X920000Y160000D01*
Y173000D01*
X927750D01*
Y176500D01*
X920750D01*
Y179500D01*
X927750D01*
Y183000D01*
X920000D01*
Y212314D01*
X927343Y219657D01*
X928061Y220732D01*
X928314Y222000D01*
Y257872D01*
X929584Y258212D01*
X930068Y257373D01*
X931623Y255818D01*
X933527Y254719D01*
X935250Y254257D01*
Y262500D01*
Y270743D01*
X933527Y270281D01*
X931623Y269182D01*
X930068Y267627D01*
X929584Y266788D01*
X928314Y267128D01*
Y272657D01*
X928391Y272734D01*
X929000Y274204D01*
Y275796D01*
X928391Y277266D01*
X927266Y278391D01*
X925796Y279000D01*
X924204D01*
X922734Y278391D01*
X921609Y277266D01*
X921270Y276448D01*
X920000Y276700D01*
Y313440D01*
X937126D01*
X937421Y313253D01*
X937515Y313163D01*
X938014Y312436D01*
X938076Y312202D01*
X937936Y311500D01*
Y293093D01*
X937859Y293016D01*
X937250Y291546D01*
Y289954D01*
X937859Y288484D01*
X938984Y287359D01*
X940454Y286750D01*
X942046D01*
X943000Y286112D01*
Y269647D01*
X942986Y269641D01*
X941730Y269266D01*
X939973Y270281D01*
X938250Y270743D01*
Y264000D01*
X944993D01*
X944531Y265723D01*
X944429Y265900D01*
X945064Y267000D01*
X971809D01*
X972882Y266095D01*
X972817Y265853D01*
X980750D01*
Y273786D01*
X978583Y273206D01*
X977919Y272822D01*
X977139Y273838D01*
X992034Y288733D01*
X993000Y287903D01*
X993000Y286770D01*
Y279000D01*
X1006000D01*
Y288000D01*
X994266D01*
X993097Y288000D01*
X992268Y288967D01*
X999719Y296418D01*
X1071031D01*
X1093000Y274450D01*
Y267000D01*
X1103879D01*
X1104500Y266918D01*
X1124031D01*
X1156000Y234949D01*
Y229500D01*
X1164879D01*
X1165500Y229418D01*
X1166122Y229500D01*
X1174821D01*
X1175209Y229202D01*
X1177520Y228245D01*
X1180000Y227918D01*
X1182480Y228245D01*
X1184791Y229202D01*
X1185180Y229500D01*
X1204000D01*
Y245500D01*
X1189582D01*
Y342000D01*
X1204000D01*
Y355286D01*
X1205173Y355772D01*
X1215628Y345317D01*
Y222989D01*
X1214615Y221976D01*
X1213693Y220380D01*
X1213216Y218600D01*
Y216756D01*
X1213693Y214976D01*
X1214615Y213380D01*
X1215918Y212077D01*
X1217514Y211155D01*
X1219294Y210678D01*
X1221138D01*
X1222918Y211155D01*
X1224514Y212077D01*
X1225817Y213380D01*
X1226739Y214976D01*
X1227216Y216756D01*
Y218600D01*
X1226739Y220380D01*
X1225817Y221976D01*
X1224804Y222989D01*
Y347218D01*
X1224455Y348974D01*
X1223460Y350462D01*
X1198060Y375862D01*
X1196572Y376857D01*
X1194816Y377206D01*
X1170283D01*
X1160792Y386697D01*
X1161345Y387940D01*
X1166529D01*
X1167777Y387219D01*
X1169901Y386650D01*
X1172099D01*
X1174223Y387219D01*
X1176127Y388318D01*
X1177682Y389873D01*
X1178781Y391777D01*
X1179350Y393901D01*
Y396099D01*
X1178781Y398223D01*
X1177682Y400127D01*
X1176127Y401682D01*
X1174223Y402781D01*
X1172099Y403350D01*
X1169901D01*
X1167777Y402781D01*
X1166529Y402060D01*
X1163782D01*
X1154921Y410922D01*
X1154554Y411203D01*
X1150000Y415757D01*
Y423511D01*
X1169244Y442756D01*
X1170239Y444244D01*
X1170588Y446000D01*
X1170239Y447756D01*
X1169244Y449244D01*
X1167756Y450239D01*
X1166000Y450588D01*
X1164244Y450239D01*
X1162756Y449244D01*
X1153901Y440389D01*
X1152698Y440983D01*
X1152832Y442000D01*
Y452918D01*
X1155500D01*
Y452000D01*
X1184500D01*
Y473000D01*
X1155500D01*
Y472082D01*
X1152832D01*
Y519281D01*
X1165551Y532000D01*
X1184500D01*
Y553000D01*
X1163485D01*
X1153810Y562674D01*
Y613440D01*
X1162500D01*
X1164327Y613680D01*
X1165099Y614000D01*
X1169500D01*
Y620041D01*
X1169560Y620500D01*
X1169500Y620959D01*
Y627000D01*
X1169500D01*
Y631000D01*
X1169500D01*
Y637683D01*
X1169613Y638250D01*
Y643183D01*
X1170572Y644142D01*
X1174178D01*
X1175777Y643219D01*
X1177901Y642650D01*
X1180099D01*
X1182223Y643219D01*
X1184127Y644318D01*
X1185420Y645611D01*
X1186690Y645241D01*
Y613488D01*
X1185475Y613139D01*
X1185420Y613139D01*
X1183877Y614682D01*
X1181973Y615781D01*
X1179849Y616350D01*
X1177651D01*
X1175527Y615781D01*
X1173623Y614682D01*
X1172068Y613127D01*
X1170969Y611223D01*
X1170400Y609099D01*
Y607941D01*
X1165855Y603396D01*
X1164584Y601493D01*
X1164137Y599250D01*
Y593000D01*
X1155500D01*
Y572000D01*
X1184500D01*
Y593000D01*
X1175863D01*
Y596822D01*
X1178691Y599650D01*
X1179849D01*
X1181973Y600219D01*
X1183877Y601318D01*
X1185420Y602861D01*
X1185475Y602860D01*
X1186690Y602512D01*
Y525174D01*
X1174515Y513000D01*
X1155500D01*
Y492000D01*
X1174515D01*
X1189008Y477508D01*
X1190470Y476385D01*
X1192173Y475680D01*
X1194000Y475439D01*
X1216000D01*
X1216459Y475500D01*
X1230000D01*
Y489500D01*
X1216459D01*
X1216000Y489560D01*
X1196925D01*
X1184500Y501985D01*
Y503015D01*
X1198743Y517257D01*
X1199865Y518720D01*
X1200570Y520423D01*
X1200811Y522250D01*
Y537305D01*
X1202000Y537500D01*
X1202081Y537500D01*
X1214500D01*
Y544500D01*
Y551500D01*
X1202081D01*
X1202000Y551500D01*
X1200811Y551694D01*
Y560306D01*
X1202000Y560500D01*
X1202081Y560500D01*
X1230000D01*
Y561637D01*
X1236822D01*
X1240150Y558309D01*
Y557651D01*
X1240719Y555527D01*
X1241818Y553623D01*
X1243373Y552068D01*
X1245277Y550969D01*
X1247401Y550400D01*
X1249599D01*
X1251723Y550969D01*
X1253627Y552068D01*
X1255182Y553623D01*
X1256281Y555527D01*
X1256850Y557651D01*
Y559850D01*
X1256281Y561973D01*
X1255182Y563877D01*
X1253627Y565432D01*
X1251723Y566531D01*
X1249599Y567100D01*
X1247941D01*
X1243396Y571646D01*
X1241494Y572916D01*
X1239250Y573363D01*
X1230000D01*
Y574500D01*
X1202081D01*
X1202000Y574500D01*
X1200811Y574694D01*
Y583306D01*
X1202000Y583500D01*
Y583500D01*
X1215541D01*
X1216000Y583440D01*
X1237825D01*
X1240096Y581169D01*
X1240469Y579777D01*
X1241568Y577873D01*
X1243123Y576318D01*
X1245027Y575219D01*
X1247151Y574650D01*
X1249349D01*
X1251473Y575219D01*
X1253377Y576318D01*
X1254932Y577873D01*
X1256031Y579777D01*
X1256600Y581901D01*
Y584099D01*
X1256031Y586223D01*
X1254932Y588127D01*
X1254557Y588502D01*
X1255083Y589772D01*
X1266444D01*
X1268200Y590121D01*
X1269688Y591116D01*
X1284420Y605848D01*
X1285415Y607336D01*
X1285764Y609092D01*
Y878078D01*
X1285415Y879834D01*
X1284420Y881322D01*
X1271755Y893988D01*
X1271880Y894240D01*
X1272710Y895075D01*
Y895075D01*
X1275000Y895000D01*
D02*
G37*
G36*
X888518Y431546D02*
X887799Y430469D01*
X887743Y430492D01*
X885263Y430818D01*
X876500D01*
Y439000D01*
X858500D01*
Y421859D01*
X858418Y421237D01*
X858500Y420614D01*
Y411000D01*
X876500D01*
Y411655D01*
X881294D01*
X939418Y353531D01*
Y351000D01*
X939500Y350377D01*
Y335500D01*
X940458D01*
Y333193D01*
X934826Y327561D01*
X900750D01*
X898923Y327320D01*
X897220Y326615D01*
X895758Y325493D01*
X890265Y320000D01*
X871561D01*
Y326000D01*
X871320Y327827D01*
X870615Y329530D01*
X869493Y330992D01*
X865810Y334674D01*
Y336500D01*
X867000D01*
Y341168D01*
X899500D01*
Y335500D01*
X920500D01*
Y364500D01*
X899500D01*
Y360332D01*
X867000D01*
Y364500D01*
X863060D01*
Y366500D01*
X862820Y368328D01*
X862114Y370030D01*
X860992Y371493D01*
X856560Y375925D01*
Y386750D01*
X856500Y387209D01*
Y395000D01*
X842500D01*
Y387209D01*
X842440Y386750D01*
Y373000D01*
X842680Y371173D01*
X843385Y369470D01*
X844508Y368008D01*
X848939Y363576D01*
Y352500D01*
X849000Y352041D01*
Y351373D01*
X848918Y350750D01*
X849000Y350128D01*
Y336500D01*
X850218D01*
X850744Y335230D01*
X849217Y333703D01*
X846605D01*
X846037Y334031D01*
X843913Y334600D01*
X841714D01*
X839591Y334031D01*
X837687Y332932D01*
X836132Y331377D01*
X835033Y329473D01*
X834464Y327349D01*
Y325150D01*
X835033Y323027D01*
X836047Y321270D01*
X835670Y320008D01*
X835667Y320000D01*
X790235D01*
X774582Y335653D01*
X775282Y336750D01*
X776153Y336750D01*
X782500D01*
Y349250D01*
X775000D01*
Y337985D01*
X775000Y337031D01*
X773903Y336332D01*
X759243Y350992D01*
X758000Y351946D01*
Y364750D01*
X740000D01*
Y357310D01*
X733105D01*
X732723Y357531D01*
X730600Y358100D01*
X728401D01*
X726277Y357531D01*
X725246Y356935D01*
X718000D01*
Y364500D01*
X697000D01*
Y335500D01*
X718000D01*
Y342814D01*
X724813D01*
X726277Y341969D01*
X728401Y341400D01*
X730600D01*
X732723Y341969D01*
X734627Y343068D01*
X734748Y343189D01*
X740000D01*
Y336750D01*
X753516D01*
X769092Y321173D01*
X768606Y320000D01*
X674560D01*
Y335500D01*
X678000D01*
Y364500D01*
X674560D01*
Y369075D01*
X685924Y380439D01*
X748000D01*
Y379250D01*
X762000D01*
Y387041D01*
X762060Y387500D01*
Y399000D01*
X761820Y400828D01*
X761114Y402531D01*
X759992Y403993D01*
X755417Y408568D01*
Y411000D01*
X756500D01*
Y439000D01*
X738500D01*
Y428353D01*
X737230Y427827D01*
X736638Y428419D01*
X734801Y429180D01*
X732811D01*
X730974Y428419D01*
X729567Y427012D01*
X729155Y426018D01*
X727226Y424088D01*
X726932Y424127D01*
X725377Y425682D01*
X723473Y426781D01*
X721349Y427350D01*
X719151D01*
X717027Y426781D01*
X715123Y425682D01*
X713568Y424127D01*
X713113Y423338D01*
X706500D01*
Y425750D01*
X690000D01*
Y423338D01*
X681000D01*
X679244Y422989D01*
X677756Y421994D01*
X656600Y400838D01*
X641000D01*
Y413686D01*
X645250D01*
X646518Y413938D01*
X647593Y414657D01*
X678622Y445686D01*
X690000D01*
Y440250D01*
X706500D01*
Y445686D01*
X718500D01*
X719768Y445938D01*
X720843Y446657D01*
X730806Y456620D01*
X732052Y456372D01*
X732109Y456234D01*
X733234Y455109D01*
X734704Y454500D01*
X736296D01*
X737766Y455109D01*
X738891Y456234D01*
X739500Y457704D01*
Y457814D01*
X743936Y462250D01*
X857814D01*
X888518Y431546D01*
D02*
G37*
G36*
X920000Y225000D02*
X910000Y215000D01*
X865000D01*
Y215000D01*
X845000Y235000D01*
Y270000D01*
X920000D01*
Y225000D01*
D02*
G37*
G36*
X830000Y200000D02*
X770000D01*
Y265000D01*
X830000D01*
Y200000D01*
D02*
G37*
%LPC*%
G36*
X1166250Y954500D02*
Y949750D01*
X1171000D01*
Y954500D01*
X1166250D01*
D02*
G37*
G36*
X1216000D02*
X1211250D01*
Y949750D01*
X1216000D01*
Y954500D01*
D02*
G37*
G36*
X1208250D02*
X1203500D01*
Y949750D01*
X1208250D01*
Y954500D01*
D02*
G37*
G36*
X1216000Y946750D02*
X1209750D01*
X1203500D01*
Y942000D01*
X1205536D01*
X1206075Y940730D01*
X1205853Y940500D01*
X1203500D01*
Y937453D01*
X1202930Y936077D01*
X1202690Y934250D01*
Y920750D01*
X1201500D01*
Y906750D01*
X1209291D01*
X1209750Y906690D01*
X1210209Y906750D01*
X1218000D01*
Y920750D01*
X1216811D01*
Y934250D01*
X1216570Y936077D01*
X1216000Y937453D01*
Y940500D01*
X1213647D01*
X1213425Y940730D01*
X1213965Y942000D01*
X1216000D01*
Y946750D01*
D02*
G37*
G36*
X1209250Y846743D02*
X1207527Y846281D01*
X1205623Y845182D01*
X1204068Y843627D01*
X1202969Y841723D01*
X1202770Y840980D01*
X1201500Y841147D01*
Y845500D01*
X1185000D01*
Y837500D01*
Y829500D01*
X1201500D01*
Y835853D01*
X1202770Y836021D01*
X1202969Y835277D01*
X1204068Y833373D01*
X1205623Y831819D01*
X1207527Y830719D01*
X1209250Y830258D01*
Y838500D01*
Y846743D01*
D02*
G37*
G36*
X1212250D02*
Y840000D01*
X1218993D01*
X1218531Y841723D01*
X1217432Y843627D01*
X1215877Y845182D01*
X1213973Y846281D01*
X1212250Y846743D01*
D02*
G37*
G36*
X1182000Y845500D02*
X1165500D01*
Y839000D01*
X1182000D01*
Y845500D01*
D02*
G37*
G36*
X1218993Y837000D02*
X1212250D01*
Y830258D01*
X1213973Y830719D01*
X1215877Y831819D01*
X1217432Y833373D01*
X1218531Y835277D01*
X1218993Y837000D01*
D02*
G37*
G36*
X1182000Y836000D02*
X1165500D01*
Y829500D01*
X1182000D01*
Y836000D01*
D02*
G37*
G36*
X1288000Y586000D02*
X1260000D01*
Y549000D01*
X1288000D01*
Y586000D01*
D02*
G37*
G36*
X1217500Y551500D02*
Y546000D01*
X1230000D01*
Y551500D01*
X1217500D01*
D02*
G37*
G36*
X1230000Y543000D02*
X1217500D01*
Y537500D01*
X1230000D01*
Y543000D01*
D02*
G37*
G36*
X1217500Y530758D02*
Y524016D01*
X1224243D01*
X1223781Y525739D01*
X1222682Y527643D01*
X1221127Y529197D01*
X1219223Y530297D01*
X1217500Y530758D01*
D02*
G37*
G36*
X1214500D02*
X1212777Y530297D01*
X1210873Y529197D01*
X1209318Y527643D01*
X1208219Y525739D01*
X1207757Y524016D01*
X1214500D01*
Y530758D01*
D02*
G37*
G36*
X1224243Y521016D02*
X1217500D01*
Y514273D01*
X1219223Y514735D01*
X1221127Y515834D01*
X1222682Y517389D01*
X1223781Y519293D01*
X1224243Y521016D01*
D02*
G37*
G36*
X1214500D02*
X1207757D01*
X1208219Y519293D01*
X1209318Y517389D01*
X1210873Y515834D01*
X1212777Y514735D01*
X1214500Y514273D01*
Y521016D01*
D02*
G37*
G36*
X1288000Y501000D02*
X1260000D01*
Y464000D01*
X1288000D01*
Y501000D01*
D02*
G37*
G36*
X1230000Y466500D02*
X1217500D01*
Y461000D01*
X1230000D01*
Y466500D01*
D02*
G37*
G36*
X1214500D02*
X1202000D01*
Y461000D01*
X1214500D01*
Y466500D01*
D02*
G37*
G36*
X1230000Y458000D02*
X1216000D01*
X1202000D01*
Y454383D01*
X1200730Y454043D01*
X1200682Y454127D01*
X1199127Y455682D01*
X1197223Y456781D01*
X1195099Y457350D01*
X1192901D01*
X1190777Y456781D01*
X1188873Y455682D01*
X1187318Y454127D01*
X1186219Y452223D01*
X1185650Y450099D01*
Y447901D01*
X1186219Y445777D01*
X1186423Y445424D01*
Y442158D01*
X1184575Y440310D01*
X1177250D01*
X1175422Y440070D01*
X1173719Y439365D01*
X1172257Y438242D01*
X1164028Y430014D01*
X1163187Y430855D01*
X1153288Y420955D01*
X1158797Y415446D01*
X1159078Y415079D01*
X1159445Y414797D01*
X1164955Y409288D01*
X1174854Y419187D01*
X1174013Y420029D01*
X1179169Y425185D01*
X1180439Y424659D01*
Y420000D01*
X1180500Y419541D01*
Y411750D01*
X1194500D01*
Y419541D01*
X1194560Y420000D01*
Y430326D01*
X1198476Y434241D01*
X1199598Y435703D01*
X1200303Y437406D01*
X1200544Y439234D01*
Y443735D01*
X1200682Y443873D01*
X1201781Y445777D01*
X1202350Y447901D01*
Y450099D01*
X1202047Y451230D01*
X1203021Y452500D01*
X1206979D01*
X1207953Y451230D01*
X1207757Y450500D01*
X1224243D01*
X1224047Y451230D01*
X1225022Y452500D01*
X1230000D01*
Y458000D01*
D02*
G37*
G36*
X1224243Y447500D02*
X1217500D01*
Y440757D01*
X1219223Y441219D01*
X1221127Y442318D01*
X1222682Y443873D01*
X1223781Y445777D01*
X1224243Y447500D01*
D02*
G37*
G36*
X1214500D02*
X1207757D01*
X1208219Y445777D01*
X1209318Y443873D01*
X1210873Y442318D01*
X1212777Y441219D01*
X1214500Y440757D01*
Y447500D01*
D02*
G37*
G36*
X1237000Y428250D02*
X1231500D01*
Y421500D01*
X1237000D01*
Y428250D01*
D02*
G37*
G36*
X1214500D02*
X1209000D01*
Y421500D01*
X1214500D01*
Y428250D01*
D02*
G37*
G36*
X1206000D02*
X1200500D01*
Y421500D01*
X1206000D01*
Y428250D01*
D02*
G37*
G36*
X1228500D02*
X1223000D01*
Y421500D01*
X1228500D01*
Y428250D01*
D02*
G37*
G36*
X1236750Y512561D02*
X1216000D01*
X1215541Y512500D01*
X1202000D01*
Y498500D01*
X1215541D01*
X1216000Y498440D01*
X1233825D01*
X1242940Y489325D01*
Y420000D01*
X1243000Y419541D01*
Y411750D01*
X1257000D01*
Y412940D01*
X1265500D01*
Y411750D01*
X1279500D01*
Y419541D01*
X1279560Y420000D01*
X1279500Y420459D01*
Y428250D01*
X1265500D01*
Y427061D01*
X1257060D01*
Y492250D01*
X1256820Y494077D01*
X1256115Y495780D01*
X1254993Y497242D01*
X1241742Y510493D01*
X1240280Y511615D01*
X1238577Y512320D01*
X1236750Y512561D01*
D02*
G37*
G36*
X1237000Y418500D02*
X1231500D01*
Y411750D01*
X1237000D01*
Y418500D01*
D02*
G37*
G36*
X1228500D02*
X1223000D01*
Y411750D01*
X1228500D01*
Y418500D01*
D02*
G37*
G36*
X1214500D02*
X1209000D01*
Y411750D01*
X1214500D01*
Y418500D01*
D02*
G37*
G36*
X1206000D02*
X1200500D01*
Y411750D01*
X1206000D01*
Y418500D01*
D02*
G37*
G36*
X1294000Y358000D02*
X1271500D01*
Y351500D01*
X1294000D01*
Y358000D01*
D02*
G37*
G36*
X1268500D02*
X1246000D01*
Y351500D01*
X1268500D01*
Y358000D01*
D02*
G37*
G36*
X1294000Y348500D02*
X1271500D01*
Y342000D01*
X1294000D01*
Y348500D01*
D02*
G37*
G36*
X1268500D02*
X1246000D01*
Y342000D01*
X1268500D01*
Y348500D01*
D02*
G37*
G36*
X1072000Y288000D02*
X1059000D01*
Y279000D01*
X1072000D01*
Y288000D01*
D02*
G37*
G36*
X1056000D02*
X1043000D01*
Y279000D01*
X1056000D01*
Y288000D01*
D02*
G37*
G36*
X1009000D02*
Y279000D01*
X1022000D01*
Y288000D01*
X1009000D01*
D02*
G37*
G36*
X1072000Y276000D02*
X1059000D01*
Y267000D01*
X1072000D01*
Y276000D01*
D02*
G37*
G36*
X1056000D02*
X1043000D01*
Y267000D01*
X1056000D01*
Y276000D01*
D02*
G37*
G36*
X1022000D02*
X1009000D01*
Y267000D01*
X1022000D01*
Y276000D01*
D02*
G37*
G36*
X1006000D02*
X993000D01*
Y267000D01*
X1006000D01*
Y276000D01*
D02*
G37*
G36*
X983750Y273786D02*
Y265853D01*
X991683D01*
X991103Y268020D01*
X989852Y270186D01*
X988083Y271955D01*
X985917Y273206D01*
X983750Y273786D01*
D02*
G37*
G36*
X991683Y262853D02*
X983750D01*
Y254920D01*
X985917Y255500D01*
X988083Y256751D01*
X989852Y258520D01*
X991103Y260686D01*
X991683Y262853D01*
D02*
G37*
G36*
X980750D02*
X972817D01*
X973397Y260686D01*
X974648Y258520D01*
X976417Y256751D01*
X978583Y255500D01*
X980750Y254920D01*
Y262853D01*
D02*
G37*
G36*
X944993Y261000D02*
X938250D01*
Y254257D01*
X939973Y254719D01*
X941877Y255818D01*
X943432Y257373D01*
X944531Y259277D01*
X944993Y261000D01*
D02*
G37*
G36*
X1122000Y248000D02*
X1093000D01*
Y247082D01*
X1072000D01*
Y248000D01*
X1043000D01*
Y227000D01*
X1050440D01*
Y202500D01*
X1050250D01*
Y191500D01*
X1050250Y191500D01*
Y183500D01*
X1050250Y183500D01*
Y179459D01*
X1050190Y179000D01*
Y151750D01*
X1050430Y149923D01*
X1051136Y148220D01*
X1052258Y146758D01*
X1060440Y138576D01*
Y122082D01*
X1059498Y121140D01*
X1058182Y118860D01*
X1057500Y116317D01*
Y113684D01*
X1058182Y111140D01*
X1059498Y108860D01*
X1061360Y106998D01*
X1063640Y105681D01*
X1066183Y105000D01*
X1068817D01*
X1071360Y105681D01*
X1073640Y106998D01*
X1075502Y108860D01*
X1076818Y111140D01*
X1077500Y113684D01*
Y116317D01*
X1076818Y118860D01*
X1075502Y121140D01*
X1074560Y122082D01*
Y141500D01*
X1074320Y143328D01*
X1073615Y145030D01*
X1072493Y146493D01*
X1064311Y154675D01*
Y179000D01*
X1064250Y179459D01*
Y185500D01*
X1064250D01*
Y189500D01*
X1064250D01*
Y194254D01*
X1064320Y194423D01*
X1064560Y196250D01*
Y227000D01*
X1072000D01*
Y227918D01*
X1093000D01*
Y227000D01*
X1122000D01*
Y248000D01*
D02*
G37*
G36*
X1022000D02*
X993000D01*
Y247082D01*
X972000D01*
Y248000D01*
X943000D01*
Y227000D01*
X971251D01*
X971689Y226222D01*
X971828Y225730D01*
X970483Y223399D01*
X969750Y220665D01*
Y218485D01*
X960182Y208917D01*
X957000D01*
Y210750D01*
X943000D01*
Y202315D01*
X942940Y201857D01*
Y201250D01*
X943000Y200791D01*
Y191750D01*
X957000D01*
Y194796D01*
X963107D01*
X964934Y195037D01*
X966637Y195742D01*
X968099Y196864D01*
X979735Y208500D01*
X981915D01*
X983058Y208806D01*
X983972Y207736D01*
X983244Y205980D01*
X982918Y203500D01*
Y196000D01*
X983244Y193520D01*
X984202Y191209D01*
X985500Y189517D01*
Y189500D01*
X985500D01*
Y185500D01*
X985500D01*
Y185483D01*
X984202Y183791D01*
X983244Y181480D01*
X982918Y179000D01*
Y120418D01*
X982500Y120000D01*
Y110000D01*
X987148Y105352D01*
X986650Y104082D01*
X962756D01*
X959582Y107256D01*
Y173750D01*
X959256Y176230D01*
X958298Y178541D01*
X957000Y180233D01*
Y183250D01*
X950623D01*
X950000Y183332D01*
X949378Y183250D01*
X943000D01*
Y180233D01*
X941702Y178541D01*
X940745Y176230D01*
X940418Y173750D01*
Y103287D01*
X940745Y100807D01*
X940745Y100807D01*
X940745Y100806D01*
X941362Y99317D01*
X941702Y98496D01*
X941702Y98496D01*
X941702Y98495D01*
X942854Y96994D01*
X943225Y96511D01*
X943225Y96511D01*
X943225Y96511D01*
X952012Y87725D01*
X953488Y86592D01*
X953996Y86202D01*
X953996Y86202D01*
X953996Y86202D01*
X955534Y85565D01*
X956307Y85245D01*
X956307Y85245D01*
X956307Y85245D01*
X957641Y85069D01*
X958787Y84918D01*
X1008213D01*
X1010693Y85245D01*
X1013004Y86202D01*
X1014989Y87725D01*
X1024084Y96820D01*
X1025607Y98805D01*
X1026564Y101115D01*
X1026891Y103595D01*
Y111409D01*
X1027500Y113684D01*
Y116317D01*
X1027274Y117162D01*
Y141493D01*
X1031776Y145996D01*
X1032815Y147350D01*
X1033298Y147980D01*
X1033298Y147980D01*
X1033299Y147980D01*
X1033829Y149260D01*
X1034256Y150291D01*
X1034256Y150291D01*
X1034256Y150291D01*
X1034404Y151416D01*
X1034582Y152771D01*
Y177500D01*
X1034256Y179980D01*
X1033298Y182291D01*
X1033250Y182354D01*
Y184500D01*
X1031483D01*
X1029791Y185798D01*
X1027480Y186755D01*
X1025000Y187082D01*
X1022520Y186755D01*
X1020209Y185798D01*
X1018517Y184500D01*
X1016750D01*
Y182354D01*
X1016702Y182291D01*
X1015745Y179980D01*
X1015418Y177500D01*
Y156740D01*
X1010916Y152237D01*
X1009877Y150883D01*
X1009393Y150253D01*
X1009393Y150253D01*
X1009393Y150252D01*
X1008863Y148973D01*
X1008436Y147942D01*
X1008436Y147942D01*
X1008436Y147941D01*
X1008324Y147089D01*
X1008110Y145462D01*
Y118591D01*
X1007500Y116317D01*
Y113684D01*
X1007727Y112838D01*
Y107564D01*
X1004244Y104082D01*
X998350D01*
X997852Y105352D01*
X1002500Y110000D01*
Y120000D01*
X1002082Y120418D01*
Y179000D01*
X1001755Y181480D01*
X1000798Y183791D01*
X999500Y185483D01*
Y189517D01*
X1000798Y191209D01*
X1001755Y193520D01*
X1002082Y196000D01*
Y199531D01*
X1010366Y207815D01*
X1011889Y209799D01*
X1012846Y212110D01*
X1013172Y214590D01*
Y227000D01*
X1022000D01*
Y248000D01*
D02*
G37*
G36*
X1294000Y245500D02*
X1271500D01*
Y239000D01*
X1294000D01*
Y245500D01*
D02*
G37*
G36*
X1268500D02*
X1246000D01*
Y239000D01*
X1268500D01*
Y245500D01*
D02*
G37*
G36*
X1294000Y236000D02*
X1271500D01*
Y229500D01*
X1294000D01*
Y236000D01*
D02*
G37*
G36*
X1268500D02*
X1246000D01*
Y229500D01*
X1268500D01*
Y236000D01*
D02*
G37*
G36*
X1034165Y230500D02*
X1031335D01*
X1028601Y229767D01*
X1026149Y228352D01*
X1024148Y226351D01*
X1022733Y223899D01*
X1022000Y221165D01*
Y218335D01*
X1022291Y217247D01*
X1020008Y214963D01*
X1018886Y213501D01*
X1018180Y211798D01*
X1017940Y209971D01*
Y204500D01*
X1016750D01*
Y190500D01*
X1024541D01*
X1025000Y190440D01*
X1025459Y190500D01*
X1033250D01*
Y204500D01*
X1032061D01*
Y207046D01*
X1034014Y209000D01*
X1034165D01*
X1036899Y209733D01*
X1039351Y211148D01*
X1041352Y213149D01*
X1042767Y215601D01*
X1043500Y218335D01*
Y221165D01*
X1042767Y223899D01*
X1041352Y226351D01*
X1039351Y228352D01*
X1036899Y229767D01*
X1034165Y230500D01*
D02*
G37*
G36*
X1276250Y176000D02*
X1271750D01*
Y169500D01*
X1276250D01*
Y176000D01*
D02*
G37*
G36*
X1268750D02*
X1264250D01*
Y169500D01*
X1268750D01*
Y176000D01*
D02*
G37*
G36*
X1276250Y166500D02*
X1271750D01*
Y160000D01*
X1276250D01*
Y166500D01*
D02*
G37*
G36*
X1268750D02*
X1264250D01*
Y160000D01*
X1268750D01*
Y166500D01*
D02*
G37*
G36*
X1184750Y223560D02*
X1132250D01*
X1130423Y223320D01*
X1128720Y222614D01*
X1127258Y221492D01*
X1116257Y210492D01*
X1115135Y209030D01*
X1114430Y207327D01*
X1114190Y205500D01*
Y162560D01*
Y153332D01*
X1098969D01*
X1091082Y161219D01*
Y187500D01*
X1090755Y189980D01*
X1089798Y192291D01*
X1088500Y193983D01*
Y206000D01*
X1074500D01*
Y193983D01*
X1073202Y192291D01*
X1072244Y189980D01*
X1071918Y187500D01*
Y157250D01*
X1072244Y154770D01*
X1073202Y152459D01*
X1074725Y150475D01*
X1088224Y136975D01*
X1090209Y135452D01*
X1092520Y134494D01*
X1095000Y134168D01*
X1114250D01*
Y133250D01*
X1128250D01*
Y137767D01*
X1129548Y139459D01*
X1130505Y141770D01*
X1130832Y144250D01*
X1130505Y146730D01*
X1129548Y149041D01*
X1128310Y150654D01*
Y162560D01*
Y202575D01*
X1135175Y209440D01*
X1181826D01*
X1228258Y163007D01*
X1229720Y161885D01*
X1231423Y161180D01*
X1233250Y160939D01*
X1246250D01*
Y160000D01*
X1258250D01*
Y164320D01*
X1258364Y164470D01*
X1259070Y166172D01*
X1259310Y168000D01*
X1259070Y169827D01*
X1258364Y171530D01*
X1258250Y171679D01*
Y176000D01*
X1246250D01*
Y175060D01*
X1236175D01*
X1189743Y221492D01*
X1188280Y222614D01*
X1186577Y223320D01*
X1184750Y223560D01*
D02*
G37*
G36*
X1164751Y203250D02*
X1162249D01*
X1159833Y202603D01*
X1157667Y201352D01*
X1155898Y199583D01*
X1154647Y197417D01*
X1154000Y195001D01*
Y192500D01*
X1154647Y190083D01*
X1155898Y187917D01*
X1156439Y187376D01*
Y174250D01*
X1156680Y172423D01*
X1157385Y170720D01*
X1158507Y169258D01*
X1164758Y163008D01*
X1166220Y161886D01*
X1167923Y161180D01*
X1169750Y160940D01*
X1173250D01*
Y158500D01*
X1187250D01*
Y166291D01*
X1187310Y166750D01*
Y168000D01*
X1187250Y168459D01*
Y175000D01*
X1180709D01*
X1180250Y175060D01*
X1172675D01*
X1170560Y177175D01*
Y187376D01*
X1171102Y187917D01*
X1172352Y190083D01*
X1173000Y192500D01*
Y195001D01*
X1172352Y197417D01*
X1171102Y199583D01*
X1169333Y201352D01*
X1167167Y202603D01*
X1164751Y203250D01*
D02*
G37*
G36*
X1226500Y124433D02*
Y116500D01*
X1234433D01*
X1233852Y118667D01*
X1232602Y120833D01*
X1230833Y122602D01*
X1228667Y123853D01*
X1226500Y124433D01*
D02*
G37*
G36*
X1223500D02*
X1221333Y123853D01*
X1219167Y122602D01*
X1217398Y120833D01*
X1216147Y118667D01*
X1215567Y116500D01*
X1223500D01*
Y124433D01*
D02*
G37*
G36*
X1044000Y124951D02*
Y116500D01*
X1052451D01*
X1051818Y118860D01*
X1050502Y121140D01*
X1048640Y123002D01*
X1046360Y124319D01*
X1044000Y124951D01*
D02*
G37*
G36*
X1041000D02*
X1038640Y124319D01*
X1036360Y123002D01*
X1034498Y121140D01*
X1033181Y118860D01*
X1032549Y116500D01*
X1041000D01*
Y124951D01*
D02*
G37*
G36*
X881500Y124433D02*
Y116500D01*
X889433D01*
X888852Y118667D01*
X887602Y120833D01*
X885833Y122602D01*
X883667Y123853D01*
X881500Y124433D01*
D02*
G37*
G36*
X878500D02*
X876333Y123853D01*
X874167Y122602D01*
X872398Y120833D01*
X871147Y118667D01*
X870567Y116500D01*
X878500D01*
Y124433D01*
D02*
G37*
G36*
X1234433Y113500D02*
X1226500D01*
Y105567D01*
X1228667Y106147D01*
X1230833Y107398D01*
X1232602Y109167D01*
X1233852Y111333D01*
X1234433Y113500D01*
D02*
G37*
G36*
X1223500D02*
X1215567D01*
X1216147Y111333D01*
X1217398Y109167D01*
X1219167Y107398D01*
X1221333Y106147D01*
X1223500Y105567D01*
Y113500D01*
D02*
G37*
G36*
X889433D02*
X881500D01*
Y105567D01*
X883667Y106147D01*
X885833Y107398D01*
X887602Y109167D01*
X888852Y111333D01*
X889433Y113500D01*
D02*
G37*
G36*
X878500D02*
X870567D01*
X871147Y111333D01*
X872398Y109167D01*
X874167Y107398D01*
X876333Y106147D01*
X878500Y105567D01*
Y113500D01*
D02*
G37*
G36*
X856251Y124500D02*
X853749D01*
X851333Y123853D01*
X849167Y122602D01*
X847398Y120833D01*
X846148Y118667D01*
X845500Y116251D01*
Y113749D01*
X846148Y111333D01*
X847398Y109167D01*
X849167Y107398D01*
X851333Y106147D01*
X853749Y105500D01*
X856251D01*
X858667Y106147D01*
X860833Y107398D01*
X862602Y109167D01*
X863853Y111333D01*
X864500Y113749D01*
Y116251D01*
X863853Y118667D01*
X862602Y120833D01*
X860833Y122602D01*
X858667Y123853D01*
X856251Y124500D01*
D02*
G37*
G36*
X1052451Y113500D02*
X1044000D01*
Y105049D01*
X1046360Y105681D01*
X1048640Y106998D01*
X1050502Y108860D01*
X1051818Y111140D01*
X1052451Y113500D01*
D02*
G37*
G36*
X1041000D02*
X1032549D01*
X1033181Y111140D01*
X1034498Y108860D01*
X1036360Y106998D01*
X1038640Y105681D01*
X1041000Y105049D01*
Y113500D01*
D02*
G37*
G36*
X1150500Y206000D02*
X1136500D01*
Y193983D01*
X1135202Y192291D01*
X1134244Y189980D01*
X1133918Y187500D01*
Y161750D01*
X1134244Y159270D01*
X1135202Y156959D01*
X1136724Y154975D01*
X1165418Y126281D01*
Y115000D01*
X1165500Y114377D01*
Y110250D01*
X1169898Y105852D01*
X1169400Y104582D01*
X1145469D01*
X1128250Y121801D01*
Y124750D01*
X1121872D01*
X1121250Y124832D01*
X1120628Y124750D01*
X1114250D01*
Y121733D01*
X1112952Y120041D01*
X1111994Y117730D01*
X1111668Y115250D01*
X1111994Y112770D01*
X1112952Y110459D01*
X1114250Y108767D01*
Y105750D01*
X1117199D01*
X1134724Y88225D01*
X1136709Y86702D01*
X1139020Y85745D01*
X1141500Y85418D01*
X1191213D01*
X1193693Y85745D01*
X1196004Y86702D01*
X1197989Y88225D01*
X1206776Y97011D01*
X1208298Y98996D01*
X1209256Y101307D01*
X1209582Y103787D01*
Y164851D01*
X1209832Y166750D01*
X1209505Y169230D01*
X1208548Y171541D01*
X1207250Y173233D01*
Y175000D01*
X1205104D01*
X1205041Y175048D01*
X1202730Y176005D01*
X1200250Y176332D01*
X1197770Y176005D01*
X1195459Y175048D01*
X1195396Y175000D01*
X1193250D01*
Y173301D01*
X1193225Y173276D01*
X1191702Y171291D01*
X1190745Y168980D01*
X1190418Y166500D01*
Y107756D01*
X1187244Y104582D01*
X1180600D01*
X1180102Y105852D01*
X1184500Y110250D01*
Y114377D01*
X1184582Y115000D01*
Y130250D01*
X1184255Y132730D01*
X1183298Y135041D01*
X1181775Y137025D01*
X1153082Y165719D01*
Y187500D01*
X1152755Y189980D01*
X1151798Y192291D01*
X1150500Y193983D01*
Y206000D01*
D02*
G37*
G36*
X706500Y437250D02*
X699750D01*
Y431750D01*
X706500D01*
Y437250D01*
D02*
G37*
G36*
X696750D02*
X690000D01*
Y431750D01*
X696750D01*
Y437250D01*
D02*
G37*
G36*
X841500Y439000D02*
X834000D01*
Y426500D01*
X841500D01*
Y439000D01*
D02*
G37*
G36*
X791500D02*
X784000D01*
Y426500D01*
X791500D01*
Y439000D01*
D02*
G37*
G36*
X781000D02*
X773500D01*
Y426500D01*
X781000D01*
Y439000D01*
D02*
G37*
G36*
X831000D02*
X823500D01*
Y426500D01*
X831000D01*
Y439000D01*
D02*
G37*
G36*
X841500Y423500D02*
X834000D01*
Y411000D01*
X841500D01*
Y423500D01*
D02*
G37*
G36*
X831000D02*
X823500D01*
Y411000D01*
X831000D01*
Y423500D01*
D02*
G37*
G36*
X791500D02*
X784000D01*
Y411000D01*
X791500D01*
Y423500D01*
D02*
G37*
G36*
X781000D02*
X773500D01*
Y411000D01*
X781000D01*
Y423500D01*
D02*
G37*
G36*
X782000Y395750D02*
X776500D01*
Y389000D01*
X782000D01*
Y395750D01*
D02*
G37*
G36*
X773500D02*
X768000D01*
Y389000D01*
X773500D01*
Y395750D01*
D02*
G37*
G36*
X836500Y395000D02*
X831000D01*
Y388250D01*
X836500D01*
Y395000D01*
D02*
G37*
G36*
X828000D02*
X822500D01*
Y388250D01*
X828000D01*
Y395000D01*
D02*
G37*
G36*
X782000Y386000D02*
X776500D01*
Y379250D01*
X782000D01*
Y386000D01*
D02*
G37*
G36*
X773500D02*
X768000D01*
Y379250D01*
X773500D01*
Y386000D01*
D02*
G37*
G36*
X836500Y385250D02*
X831000D01*
Y378500D01*
X836500D01*
Y385250D01*
D02*
G37*
G36*
X828000D02*
X822500D01*
Y378500D01*
X828000D01*
Y385250D01*
D02*
G37*
G36*
X793000Y364750D02*
X785500D01*
Y352250D01*
X793000D01*
Y364750D01*
D02*
G37*
G36*
X782500D02*
X775000D01*
Y352250D01*
X782500D01*
Y364750D01*
D02*
G37*
G36*
X832000Y364500D02*
X824500D01*
Y352000D01*
X832000D01*
Y364500D01*
D02*
G37*
G36*
X821500D02*
X814000D01*
Y352000D01*
X821500D01*
Y364500D01*
D02*
G37*
G36*
X793000Y349250D02*
X785500D01*
Y336750D01*
X793000D01*
Y349250D01*
D02*
G37*
G36*
X832000Y349000D02*
X824500D01*
Y336500D01*
X832000D01*
Y349000D01*
D02*
G37*
G36*
X821500D02*
X814000D01*
Y336500D01*
X821500D01*
Y349000D01*
D02*
G37*
%LPD*%
D10*
X891703Y615000D02*
X892203Y615500D01*
X873000Y615000D02*
X891703D01*
X892203Y615500D02*
X910500D01*
X810000Y566000D02*
X821000Y555000D01*
X810000Y566000D02*
Y580500D01*
X571500Y741000D02*
X689000D01*
X499750Y812750D02*
X571500Y741000D01*
X689000D02*
X750000Y680000D01*
X742500Y602500D02*
Y612500D01*
X896750Y168500D02*
X904821D01*
X908500Y172179D01*
X723286Y750286D02*
X737250Y764250D01*
X785500Y743000D02*
Y762785D01*
X784036Y764250D02*
X785500Y762785D01*
Y728000D02*
Y743000D01*
X737250Y764250D02*
X784036D01*
X785500Y728000D02*
X805000Y708500D01*
X821250Y569000D02*
Y569406D01*
X820096Y570560D02*
X821250Y569406D01*
X820096Y570560D02*
Y580405D01*
X820000Y580500D02*
X820096Y580405D01*
X798156Y684750D02*
X834250D01*
X903184Y753684D01*
X796000Y683000D02*
X796406D01*
X798156Y684750D01*
X837750Y679750D02*
X899500Y741500D01*
X807906Y679750D02*
X837750D01*
X806000Y678250D02*
X806406D01*
X807906Y679750D01*
X922250Y744500D02*
Y818500D01*
X862750Y878000D02*
X922250Y818500D01*
X852750Y675000D02*
X922250Y744500D01*
X851000Y735000D02*
X863500D01*
X867500Y739000D01*
Y757500D01*
X851000Y735000D02*
X851000Y725001D01*
X907750Y771250D02*
Y818750D01*
X858000Y721500D02*
X907750Y771250D01*
X849750Y706500D02*
X913250Y770000D01*
X834500Y899500D02*
X913250Y820750D01*
Y770000D02*
Y820750D01*
X844500Y655000D02*
X871594D01*
X874844Y658250D02*
X875250D01*
X871594Y655000D02*
X874844Y658250D01*
X896750Y187750D02*
Y193750D01*
X888000Y202500D02*
X896750Y193750D01*
X655000Y486000D02*
X715250D01*
X581750Y559250D02*
X655000Y486000D01*
X647750Y480750D02*
X716250D01*
X586500Y542000D02*
X647750Y480750D01*
X925000Y222000D02*
Y275000D01*
X908500Y205500D02*
X925000Y222000D01*
X908500Y172179D02*
Y205500D01*
X837250Y531750D02*
X848250D01*
X805000Y564000D02*
X837250Y531750D01*
X699000Y672750D02*
X701250Y675000D01*
X657500Y709750D02*
X694500Y672750D01*
X699000D01*
X701250Y675000D02*
X730500D01*
X640000Y658500D02*
X647500Y666000D01*
X681250D01*
X704000Y653500D02*
X710500Y660000D01*
X663750Y653500D02*
X704000D01*
X578500Y648750D02*
X706250D01*
X576000Y646250D02*
X578500Y648750D01*
X706250D02*
X712500Y655000D01*
X649750Y658750D02*
X650000Y658500D01*
X701000D01*
X726019Y600000D02*
X726115Y599904D01*
X705000Y610750D02*
X715750Y600000D01*
X726019D01*
X832250Y588125D02*
Y588250D01*
X876250Y544000D02*
Y544125D01*
X832250Y588125D02*
X876250Y544125D01*
X850500Y519000D02*
Y519125D01*
X869250Y537875D01*
Y538000D01*
X795000Y559250D02*
Y580500D01*
X838000Y486750D02*
Y516250D01*
X795000Y559250D02*
X838000Y516250D01*
X800000Y560250D02*
X853500Y506750D01*
X800000Y560250D02*
Y580500D01*
X765000Y488000D02*
X810500D01*
X735500Y458500D02*
X765000Y488000D01*
X793000Y527250D02*
X825963Y494287D01*
X765096Y527404D02*
X765250Y527250D01*
X765000Y521500D02*
Y527000D01*
X718250Y474750D02*
X765000Y521500D01*
Y527000D02*
X765250Y527250D01*
X765096Y527404D02*
Y580405D01*
X765000Y580500D02*
X765096Y580405D01*
X731982Y510232D02*
Y514731D01*
X714250Y492500D02*
X731982Y510232D01*
Y514731D02*
X750000Y532750D01*
X742500Y537500D02*
Y602500D01*
X692000Y568750D02*
X718037Y542713D01*
X732213D01*
X732500Y543000D01*
X785000Y515500D02*
Y580500D01*
X677250Y449000D02*
X718500D01*
X785000Y515500D01*
X718000Y455000D02*
X780000Y517000D01*
X674750Y455000D02*
X718000D01*
X780000Y517000D02*
Y580500D01*
X672750Y462000D02*
X718750D01*
X775000Y518250D02*
Y580500D01*
X718750Y462000D02*
X775000Y518250D01*
X719000Y468250D02*
X770000Y519250D01*
X670750Y468250D02*
X719000D01*
X770000Y519250D02*
Y580500D01*
X910500Y615500D02*
X934750Y591250D01*
X641250Y474750D02*
X718250D01*
X838000Y486750D02*
X912500Y412250D01*
X661535Y553500D02*
X663000Y554964D01*
Y559035D01*
X653750Y553500D02*
X661535D01*
X663000Y559035D02*
X664464Y560500D01*
X691250D01*
X918250Y424750D02*
Y439250D01*
X938750Y459750D01*
Y594750D01*
X941250Y311500D02*
X965000Y335250D01*
X941250Y290750D02*
Y311500D01*
X965000Y335250D02*
Y378000D01*
X802000Y594000D02*
X838750D01*
X879500Y553250D01*
X895750Y543750D02*
Y567750D01*
X875000Y523000D02*
X895750Y543750D01*
X541000Y652000D02*
Y706250D01*
X566000Y731250D01*
X1077000Y616000D02*
X1107350D01*
X1025000Y554000D02*
Y564000D01*
X1077000Y616000D01*
X1070810Y600810D02*
X1092160D01*
X1031000Y561000D02*
X1070810Y600810D01*
X1031000Y553750D02*
Y561000D01*
X1003500Y526250D02*
X1031000Y553750D01*
X1003500Y501750D02*
Y526250D01*
X996750Y514000D02*
Y525750D01*
X1025000Y554000D01*
X1078715Y627715D02*
X1093665D01*
X1020000Y556500D02*
Y569000D01*
X1078715Y627715D01*
X990535Y541536D02*
X1015000Y566000D01*
Y575000D02*
X1081500Y641500D01*
X1015000Y566000D02*
Y575000D01*
X988785Y525285D02*
X1020000Y556500D01*
X1081500Y641500D02*
X1109500D01*
X982785Y541536D02*
X990535D01*
X982250Y541000D02*
X982785Y541536D01*
X1093665Y627715D02*
X1095000Y629050D01*
X956000Y444000D02*
X963250Y451250D01*
X1095000D01*
X834500Y899500D02*
Y910000D01*
X799750Y740000D02*
Y762250D01*
X795500Y766500D02*
X799750Y762250D01*
X795500Y766500D02*
Y775000D01*
X718000Y750000D02*
X718286Y750286D01*
X723286D01*
X725500Y737500D02*
X730500Y742500D01*
X718000Y737500D02*
X725500D01*
X730500Y742500D02*
X744500D01*
X577656Y658500D02*
X626000D01*
X571656Y652500D02*
X577656Y658500D01*
X541250Y601000D02*
Y616250D01*
X503500Y563250D02*
X541250Y601000D01*
X494750Y563250D02*
X503500D01*
X494750Y538250D02*
X504000D01*
X548750Y583000D02*
Y621250D01*
X504000Y538250D02*
X548750Y583000D01*
X556500Y566750D02*
Y616250D01*
X502750Y513000D02*
X556500Y566750D01*
X494750Y513000D02*
X502750D01*
X982250Y492250D02*
X994000D01*
X1003500Y501750D01*
X982250Y524750D02*
X982785Y525285D01*
X988785D01*
X982250Y508500D02*
X991250D01*
X996750Y514000D01*
X959053Y508500D02*
X968250D01*
X951750Y515803D02*
Y521750D01*
Y515803D02*
X959053Y508500D01*
X950250Y504000D02*
X961715Y492535D01*
X967965D02*
X968250Y492250D01*
X961715Y492535D02*
X967965D01*
X950250Y504000D02*
Y508750D01*
X955787Y529463D02*
X960500Y524750D01*
X955787Y529463D02*
Y533713D01*
X955500Y534000D02*
X955787Y533713D01*
X494750Y462750D02*
Y470250D01*
X497963Y473463D02*
X505963D01*
X494750Y470250D02*
X497963Y473463D01*
X505963D02*
X506250Y473750D01*
X531250Y646250D02*
X576000D01*
X999750Y597500D02*
X1069000Y666750D01*
X982000Y597500D02*
X999750D01*
X844500Y675000D02*
X852750D01*
X829500D02*
X844500D01*
X401250Y453250D02*
X408250D01*
X399250Y455250D02*
Y462500D01*
Y455250D02*
X401250Y453250D01*
X1043500Y745750D02*
X1081844Y707406D01*
X1092844D01*
X1095000Y705250D01*
X1064250Y743000D02*
X1108050D01*
X1064000Y743250D02*
X1064250Y743000D01*
X710107Y708643D02*
Y709643D01*
Y708643D02*
X737500Y681250D01*
X696250Y678250D02*
X699250Y681250D01*
X730000D01*
X712000Y666500D02*
X713500Y665000D01*
X730500D01*
X693250Y666500D02*
X712000D01*
X681250Y694250D02*
X699500Y712500D01*
X673750Y731250D02*
X674000Y731000D01*
X566000Y731250D02*
X673750D01*
X548750Y705000D02*
X568250Y724500D01*
X672750D01*
X556250Y652500D02*
X556312Y652438D01*
X556250Y652500D02*
Y702750D01*
X556375Y616375D02*
X556500Y616250D01*
X502000Y436000D02*
X502125Y436125D01*
X493750Y436000D02*
X502000D01*
X655875Y453375D02*
X670750Y468250D01*
X488125Y453375D02*
X655875D01*
X495287Y486713D02*
X559787D01*
X495250Y486750D02*
X495287Y486713D01*
X558750Y557250D02*
X641250Y474750D01*
X828844Y580500D02*
X830594Y578750D01*
X831000D01*
X825000Y580500D02*
X828844D01*
X692000Y568750D02*
Y595500D01*
X691250Y560500D02*
X691500Y560250D01*
X726250Y564500D02*
Y599769D01*
X716750Y555000D02*
X726250Y564500D01*
X750000Y592094D02*
X751000Y593094D01*
X750000Y580500D02*
Y592094D01*
X751000Y593094D02*
Y631000D01*
X791500Y604500D02*
X802000Y594000D01*
X755000Y580500D02*
Y590250D01*
Y525750D02*
Y580500D01*
X811000Y610250D02*
Y610250D01*
Y610250D02*
X816250Y605000D01*
X828500Y629000D02*
X828625Y628875D01*
X781632Y629000D02*
X828500D01*
X812125Y623375D02*
X812188Y623438D01*
X797125Y623375D02*
X812125D01*
X747000Y643500D02*
X771250Y667750D01*
X829750Y668000D02*
X831750Y670000D01*
X771250Y667750D02*
Y668000D01*
X829750D01*
X795250Y642250D02*
X829250D01*
X829500Y642500D01*
X837250Y711250D02*
X851000Y725001D01*
X822500Y711250D02*
X837250D01*
X903184Y753684D02*
X906184D01*
X906250Y753750D01*
X770000Y681656D02*
X771375Y680281D01*
Y679875D02*
Y680281D01*
X745000Y665000D02*
X745000Y665000D01*
X730500Y665000D02*
X745000D01*
X730500Y665000D02*
X730500Y665000D01*
X745000Y665000D02*
X745000Y665000D01*
X754939D01*
X763439Y673500D01*
X682750Y737000D02*
X710107Y709643D01*
X566500Y737000D02*
X682750D01*
X570000Y716500D02*
X673500D01*
X375000Y285594D02*
X378000Y288594D01*
X375000Y272500D02*
Y285594D01*
X378000Y288594D02*
Y289000D01*
X519000Y430000D02*
X640750D01*
X435250Y346250D02*
X519000Y430000D01*
X380000Y282250D02*
X380250Y282500D01*
X380000Y272500D02*
Y282250D01*
X521500Y422750D02*
X642500D01*
X445000Y346250D02*
X521500Y422750D01*
X397500Y331250D02*
X440750D01*
X526500Y417000D01*
X645250D01*
X640500Y637500D02*
X675000D01*
X640000Y637000D02*
X640500Y637500D01*
X757500Y592750D02*
Y598000D01*
X755000Y590250D02*
X757500Y592750D01*
X760000Y524500D02*
Y588500D01*
X764500Y593000D01*
X763439Y673500D02*
X828000D01*
X829500Y675000D01*
X763439Y673500D02*
X765000Y675061D01*
X831750Y670000D02*
X844500D01*
X744000Y631500D02*
X775750Y663250D01*
X829750D01*
X777250Y657250D02*
X822750D01*
X751000Y631000D02*
X777250Y657250D01*
X556250Y702750D02*
X570000Y716500D01*
X484750Y812750D02*
X499750D01*
X472250Y799250D02*
X504250D01*
X566500Y737000D01*
X732625Y548875D02*
Y580875D01*
X732500Y548750D02*
X732625Y548875D01*
Y580875D02*
X732750Y581000D01*
X795000Y651250D02*
X830000D01*
X829156Y621250D02*
X832906Y625000D01*
X844500D01*
X828750Y621250D02*
X829156D01*
X786250Y651250D02*
X795250Y642250D01*
X777632Y625000D02*
X781632Y629000D01*
X777500Y625000D02*
X777632D01*
X799904Y580596D02*
X800000Y580500D01*
X799904Y580596D02*
Y588096D01*
X777787Y604713D02*
X783287D01*
X799904Y588096D01*
X777500Y605000D02*
X777787Y604713D01*
X757250Y607500D02*
X762000Y602750D01*
X768750D01*
X757500Y615250D02*
X838397D01*
X838551Y615096D01*
X844405D02*
X844500Y615000D01*
X838551Y615096D02*
X844405D01*
X816250Y605000D02*
X844500D01*
X797000Y623250D02*
X797125Y623375D01*
X1026500Y652500D02*
Y716000D01*
X1015000Y727500D02*
X1026500Y716000D01*
X981000Y717750D02*
X981250Y717500D01*
X1015000D01*
X981000Y700000D02*
X981001Y700000D01*
X1015000D01*
X981000Y682500D02*
X981000Y682500D01*
X1015000D01*
X981000Y664500D02*
X981750Y663750D01*
X1015250D01*
X1020750Y646750D02*
X1026500Y652500D01*
X757500Y627500D02*
X764000Y634000D01*
X811750D01*
X730500Y670000D02*
X749156D01*
X758750Y679594D01*
Y680000D01*
X786250Y680000D02*
X790000Y683750D01*
X786250Y680000D02*
Y680000D01*
X790000Y683750D02*
Y694500D01*
X770000Y681656D02*
Y694500D01*
X779156Y680000D02*
X785000Y685844D01*
Y694500D01*
X778750Y680000D02*
X779156D01*
X715250Y486000D02*
X755000Y525750D01*
X571250Y601000D02*
X679750Y492500D01*
X714250D01*
X695750Y640000D02*
X730500D01*
X640000Y617000D02*
X672750D01*
X695750Y640000D01*
X698250Y635000D02*
X730500D01*
X640000Y597000D02*
X660250D01*
X698250Y635000D01*
X686250Y688500D02*
Y688625D01*
X704750Y707125D01*
Y707250D01*
X572250Y709750D02*
X657500D01*
X563750Y701250D02*
X572250Y709750D01*
X563750Y655000D02*
Y701250D01*
X740214Y703036D02*
X748286D01*
X749904Y694596D02*
X750000Y694500D01*
X749904Y694596D02*
Y701417D01*
X748286Y703036D02*
X749904Y701417D01*
X563750Y589500D02*
Y621250D01*
X640750Y430000D02*
X672750Y462000D01*
X548750Y655250D02*
Y705000D01*
X563750Y589500D02*
X618750Y534500D01*
X571250Y601000D02*
Y616250D01*
X718750Y581500D02*
Y593500D01*
X844500Y620000D02*
X913500D01*
X938750Y594750D01*
X934750Y539250D02*
Y591250D01*
X899251Y646751D02*
X967000Y646750D01*
X882500Y630000D02*
X899251Y646751D01*
X844500Y630000D02*
X882500D01*
X880750Y635000D02*
X910250Y664500D01*
X967000Y664500D01*
X844500Y635000D02*
X880750D01*
X878250Y640000D02*
X918224Y679974D01*
X844500Y640000D02*
X878250D01*
X918224Y679974D02*
X964474D01*
X844500Y645000D02*
X876000D01*
X931000Y700000D02*
X967000Y700000D01*
X876000Y645000D02*
X931000Y700000D01*
X942000Y717750D02*
X967000D01*
X844500Y650000D02*
X874250D01*
X942000Y717750D01*
X844500Y660000D02*
X864750D01*
X939965Y735215D02*
X966465D01*
X864750Y660000D02*
X939965Y735215D01*
X951750Y753500D02*
X967000Y753500D01*
X863250Y665000D02*
X951750Y753500D01*
X844500Y665000D02*
X863250D01*
X964474Y679974D02*
X967000Y682500D01*
X749537Y709213D02*
X754905Y703845D01*
X746750Y709500D02*
X747037Y709213D01*
X754905Y694596D02*
Y703845D01*
X747037Y709213D02*
X749537D01*
X754905Y694596D02*
X755000Y694500D01*
X740000Y703250D02*
X740214Y703036D01*
X691500Y683250D02*
X710000Y701750D01*
Y702000D01*
X756000Y710368D02*
X760000Y706368D01*
X756000Y710368D02*
Y710500D01*
X760000Y694500D02*
Y706368D01*
X780000Y709094D02*
X780750Y709844D01*
X780000Y694500D02*
Y709094D01*
X780750Y709844D02*
Y710250D01*
X766500Y715750D02*
X775000Y707250D01*
Y694500D02*
Y707250D01*
X712500Y655000D02*
X730500D01*
X710500Y660000D02*
X730500D01*
X596406Y645000D02*
X730500D01*
X594656Y643250D02*
X596406Y645000D01*
X647465Y544696D02*
X669732D01*
X646000Y546161D02*
Y574250D01*
X671197Y546161D02*
Y553197D01*
X646000Y546161D02*
X647465Y544696D01*
X669732D02*
X671197Y546161D01*
X646000Y574250D02*
X699250Y627500D01*
X722904Y609904D02*
X730404D01*
X718750Y605750D02*
X722904Y609904D01*
X730404D02*
X730500Y610000D01*
X779250Y720750D02*
X795000Y705000D01*
X771750Y720750D02*
X779250D01*
X726250Y599769D02*
X726481Y600000D01*
X730500D01*
X815000Y569250D02*
Y580500D01*
X815096Y580596D01*
X795000Y694500D02*
Y705000D01*
X745965Y725750D02*
X781250D01*
X799904Y694596D02*
Y707096D01*
X781250Y725750D02*
X799904Y707096D01*
X805000Y694500D02*
Y708500D01*
X844500Y610000D02*
X853500D01*
X895750Y567750D01*
X827750Y706500D02*
X849750D01*
X794904Y580596D02*
X795000Y580500D01*
X784000Y598000D02*
X794904Y587095D01*
Y580596D02*
Y587095D01*
X773500Y598000D02*
X784000D01*
X766500Y610000D02*
X803500D01*
X813500Y600000D02*
X844500D01*
X803500Y610000D02*
X813500Y600000D01*
X719250Y615000D02*
X719250Y615000D01*
X730500D01*
X785000Y694500D02*
X785000Y694500D01*
X815096Y703846D02*
X822500Y711250D01*
X815096Y694595D02*
Y703846D01*
X810000Y705000D02*
X819000Y714000D01*
X810000Y694500D02*
Y705000D01*
X819000Y714000D02*
Y735000D01*
X799904Y694596D02*
X800000Y694500D01*
X744000Y624750D02*
Y631500D01*
X730500Y620000D02*
X739250D01*
X744000Y624750D01*
X730500Y605000D02*
X740000D01*
X730500Y605000D02*
X730500Y605000D01*
X740000D02*
X742500Y602500D01*
X804715Y735035D02*
X818965D01*
X799750Y740000D02*
X804715Y735035D01*
X818965D02*
X819000Y735000D01*
X966465Y735215D02*
X967000Y735750D01*
X716250Y480750D02*
X760000Y524500D01*
X768750Y602750D02*
X773500Y598000D01*
X960500Y524750D02*
X968250D01*
X925825Y530325D02*
X934750Y539250D01*
X924575Y530325D02*
X925825D01*
X920250Y526000D02*
X924575Y530325D01*
X716750Y650000D02*
X730500D01*
X730500Y650000D01*
X716750Y650000D02*
X716750Y650000D01*
X671500Y567500D02*
Y585000D01*
X711500Y625000D02*
X730500D01*
X671500Y585000D02*
X711500Y625000D01*
X790000Y563000D02*
X790000Y563000D01*
X790000Y580500D02*
X790000Y580500D01*
Y563000D02*
Y580500D01*
X825096Y694595D02*
Y703846D01*
X827750Y706500D01*
X825000Y694500D02*
X825096Y694595D01*
X642500Y422750D02*
X674750Y455000D01*
X844500Y655000D02*
X844500Y655000D01*
X578750Y397500D02*
X590644Y385606D01*
Y382107D02*
Y385606D01*
Y382107D02*
X602250Y370500D01*
X607250D02*
X615250Y362500D01*
X602250Y370500D02*
X607250D01*
X654248Y574035D02*
X710212Y630000D01*
X653750Y567500D02*
X654248Y567998D01*
Y574035D01*
X710212Y630000D02*
X730500D01*
X480750Y449000D02*
X493750Y436000D01*
X480750Y449000D02*
Y462750D01*
X744500Y727215D02*
Y742500D01*
Y727215D02*
X745965Y725750D01*
X1092160Y600810D02*
X1095000Y603650D01*
X1107350Y616000D02*
X1120400Y629050D01*
X1080950Y654450D02*
X1095000D01*
X982000Y577500D02*
X1004000D01*
X1080950Y654450D01*
X1109500Y641500D02*
X1120400Y652400D01*
Y654450D01*
X981000Y735750D02*
X1016750D01*
X1085500Y667000D02*
X1101250D01*
X1016750Y735750D02*
X1085500Y667000D01*
X981000Y646750D02*
X1020750D01*
X1108050Y743000D02*
X1120400Y730650D01*
X1107750Y673500D02*
Y692600D01*
X1101250Y667000D02*
X1107750Y673500D01*
Y692600D02*
X1120400Y705250D01*
X1021350Y753500D02*
X1095000Y679850D01*
X981000Y753500D02*
X1021350D01*
X983250Y769000D02*
X1107951D01*
X981000Y771250D02*
X983250Y769000D01*
X1107951D02*
X1120400Y781450D01*
X862750Y878000D02*
Y885500D01*
X645250Y417000D02*
X677250Y449000D01*
X1062500Y545500D02*
X1084319D01*
X1091669Y552850D01*
X1095000D01*
X1084019Y534500D02*
X1091069Y527450D01*
X1062500Y534500D02*
X1084019D01*
X1091069Y527450D02*
X1095000D01*
X1050000Y534500D02*
X1062500D01*
X1037500D02*
X1050000D01*
Y545500D02*
X1062500D01*
X1037500D02*
X1050000D01*
X761500Y843250D02*
Y857750D01*
X761750Y858000D01*
X570250Y368250D02*
X570500Y368500D01*
Y390500D01*
X825500Y861500D02*
X837750D01*
X825250Y861750D02*
X825500Y861500D01*
X765000Y675061D02*
Y694500D01*
X815000D02*
X815096Y694595D01*
X370000Y272500D02*
Y292500D01*
X362250Y288344D02*
X365000Y285594D01*
Y272500D02*
Y285594D01*
X362250Y288344D02*
Y288750D01*
X358000Y281594D02*
Y282000D01*
X360000Y272500D02*
Y279595D01*
X358000Y281594D02*
X360000Y279595D01*
X805000Y564000D02*
Y580500D01*
X912500Y412250D02*
X930750D01*
X965000Y378000D01*
D11*
X570750Y628500D02*
X578000Y621250D01*
X518000Y630250D02*
X519750Y628500D01*
X570750D01*
X487750Y630250D02*
X518000D01*
X480500Y637500D02*
X487750Y630250D01*
X884500Y202500D02*
X888000D01*
X884250Y202750D02*
X884500Y202500D01*
X578000Y607750D02*
Y621250D01*
Y607750D02*
X665000Y520750D01*
X915399Y625102D02*
X943250Y597251D01*
X856250Y625102D02*
X915399D01*
X943250Y447750D02*
Y597251D01*
Y447750D02*
X953500Y437500D01*
X1106650D02*
X1120400Y451250D01*
X953500Y437500D02*
X1106650D01*
D13*
X375000Y242000D02*
X404500Y212500D01*
Y201000D02*
Y212500D01*
X375000Y242000D02*
Y252500D01*
X380000Y201000D02*
Y216500D01*
X370000Y226500D02*
Y252500D01*
Y226500D02*
X380000Y216500D01*
X365000Y231000D02*
Y252500D01*
X355072Y221072D02*
X365000Y231000D01*
X355072Y201072D02*
Y221072D01*
X330000Y201000D02*
Y211000D01*
X360000Y241000D01*
X355000Y201000D02*
X355072Y201072D01*
X360000Y241000D02*
Y252500D01*
X336000D02*
X355000D01*
X610250Y234750D02*
X611500Y236000D01*
X335000Y253500D02*
X336000Y252500D01*
D53*
X720250Y886500D02*
D03*
X508250D02*
D03*
D59*
X1042500Y115000D02*
D03*
X1017500D02*
D03*
X1067500D02*
D03*
X525000Y199500D02*
D03*
Y275500D02*
D03*
D60*
X992500Y115000D02*
D03*
D71*
X873000Y615000D02*
D03*
X821000Y555000D02*
D03*
X742500Y612500D02*
D03*
X821250Y569000D02*
D03*
X899500Y741500D02*
D03*
X907750Y818750D02*
D03*
X875250Y658250D02*
D03*
X884250Y202750D02*
D03*
X681250Y666000D02*
D03*
X663750Y653500D02*
D03*
X701000Y658500D02*
D03*
X705000Y610750D02*
D03*
X810500Y488000D02*
D03*
X825963Y494287D02*
D03*
X793000Y527250D02*
D03*
X765250D02*
D03*
X750000Y532750D02*
D03*
X742500Y537500D02*
D03*
X732500Y543000D02*
D03*
X735500Y458500D02*
D03*
X865000Y615000D02*
D03*
X941250Y290750D02*
D03*
X925000Y275000D02*
D03*
X956000Y444000D02*
D03*
X1166000Y446000D02*
D03*
X825000Y250000D02*
D03*
X815000D02*
D03*
X785000D02*
D03*
X775000D02*
D03*
X815000Y210000D02*
D03*
X785000D02*
D03*
X825000Y240000D02*
D03*
X775000Y210000D02*
D03*
Y220000D02*
D03*
Y230000D02*
D03*
Y240000D02*
D03*
X785000Y260000D02*
D03*
X775000D02*
D03*
X825000D02*
D03*
X815000D02*
D03*
X951750Y521750D02*
D03*
X955500Y534000D02*
D03*
X506250Y473750D02*
D03*
X408250Y453250D02*
D03*
X397500Y331250D02*
D03*
X578750Y397500D02*
D03*
X570500Y390500D02*
D03*
X1064000Y743250D02*
D03*
X737500Y681250D02*
D03*
X730000D02*
D03*
X696250Y678250D02*
D03*
X710000Y702000D02*
D03*
X704750Y707250D02*
D03*
X699500Y712500D02*
D03*
X674000Y731000D02*
D03*
X672750Y724500D02*
D03*
X616500Y617000D02*
D03*
X502125Y436125D02*
D03*
X488125Y453375D02*
D03*
X559787Y486713D02*
D03*
X950250Y508750D02*
D03*
X920250Y526000D02*
D03*
X832250Y588250D02*
D03*
X831000Y578750D02*
D03*
X815000Y569250D02*
D03*
X790000Y563000D02*
D03*
X732500Y548750D02*
D03*
X691500Y560250D02*
D03*
X699250Y627500D02*
D03*
X692000Y595500D02*
D03*
X719250Y615000D02*
D03*
X718750Y605750D02*
D03*
Y593500D02*
D03*
Y581500D02*
D03*
X732750Y581000D02*
D03*
X757500Y615250D02*
D03*
X757250Y607500D02*
D03*
X757500Y598000D02*
D03*
X751000Y593500D02*
D03*
X764500Y593000D02*
D03*
X766500Y610000D02*
D03*
X777500Y605000D02*
D03*
X791500Y604500D02*
D03*
X811000Y610250D02*
D03*
X828750Y621250D02*
D03*
X828625Y628875D02*
D03*
X812188Y623438D02*
D03*
X797000Y623250D02*
D03*
X777500Y625000D02*
D03*
X757500Y627500D02*
D03*
X747000Y643500D02*
D03*
X771250Y668000D02*
D03*
X829500Y642500D02*
D03*
X811750Y634000D02*
D03*
X786250Y651250D02*
D03*
X795000D02*
D03*
X830000D02*
D03*
X829750Y663250D02*
D03*
X822750Y657250D02*
D03*
X806000Y678250D02*
D03*
X740000Y703250D02*
D03*
X746750Y709500D02*
D03*
X756000Y710500D02*
D03*
X766500Y715750D02*
D03*
X771750Y720750D02*
D03*
X780750Y710250D02*
D03*
X796000Y683000D02*
D03*
X786250Y680000D02*
D03*
X778750D02*
D03*
X771375Y679875D02*
D03*
X758750Y680000D02*
D03*
X750000D02*
D03*
X745000Y665000D02*
D03*
X673500Y716500D02*
D03*
X906250Y753750D02*
D03*
X858000Y721500D02*
D03*
X358000Y282000D02*
D03*
X362250Y288750D02*
D03*
X370000Y292500D02*
D03*
X378000Y289000D02*
D03*
X380250Y282500D02*
D03*
X435250Y346250D02*
D03*
X445000Y346250D02*
D03*
X680750Y694250D02*
D03*
X686250Y688500D02*
D03*
X691500Y683250D02*
D03*
X716750Y650000D02*
D03*
X693250Y666500D02*
D03*
X649750Y658750D02*
D03*
X675000Y637500D02*
D03*
X857250Y615250D02*
D03*
X665000Y520750D02*
D03*
X615250Y362500D02*
D03*
X856250Y625102D02*
D03*
X1250442Y594360D02*
D03*
X1133856Y534670D02*
D03*
X586486Y370332D02*
D03*
X761500Y843250D02*
D03*
D73*
X844500Y675000D02*
D03*
Y670000D02*
D03*
Y665000D02*
D03*
Y660000D02*
D03*
Y655000D02*
D03*
Y650000D02*
D03*
Y645000D02*
D03*
Y640000D02*
D03*
Y635000D02*
D03*
Y630000D02*
D03*
Y625000D02*
D03*
Y620000D02*
D03*
Y615000D02*
D03*
Y610000D02*
D03*
Y605000D02*
D03*
Y600000D02*
D03*
X730500D02*
D03*
Y605000D02*
D03*
Y610000D02*
D03*
Y615000D02*
D03*
Y620000D02*
D03*
Y625000D02*
D03*
Y630000D02*
D03*
Y635000D02*
D03*
Y640000D02*
D03*
Y645000D02*
D03*
Y650000D02*
D03*
Y655000D02*
D03*
Y660000D02*
D03*
Y665000D02*
D03*
Y670000D02*
D03*
Y675000D02*
D03*
D74*
X825000Y580500D02*
D03*
X820000D02*
D03*
X815000D02*
D03*
X810000D02*
D03*
X805000D02*
D03*
X800000D02*
D03*
X795000D02*
D03*
X790000D02*
D03*
X785000D02*
D03*
X780000D02*
D03*
X775000D02*
D03*
X770000D02*
D03*
X765000D02*
D03*
X760000D02*
D03*
X755000D02*
D03*
X750000D02*
D03*
Y694500D02*
D03*
X755000D02*
D03*
X760000D02*
D03*
X765000D02*
D03*
X770000D02*
D03*
X775000D02*
D03*
X780000D02*
D03*
X785000D02*
D03*
X790000D02*
D03*
X795000D02*
D03*
X800000D02*
D03*
X805000D02*
D03*
X810000D02*
D03*
X815000D02*
D03*
X820000D02*
D03*
X825000D02*
D03*
D75*
X382000Y720000D02*
D03*
X347000D02*
D03*
X749000Y350750D02*
D03*
X784000D02*
D03*
X858000Y350500D02*
D03*
X823000D02*
D03*
X867500Y425000D02*
D03*
X832500D02*
D03*
X747500D02*
D03*
X782500D02*
D03*
X347500Y755000D02*
D03*
X382500D02*
D03*
X347500Y790000D02*
D03*
X382500D02*
D03*
D76*
X859000Y197500D02*
D03*
X868500Y173500D02*
D03*
X849500D02*
D03*
X430500Y125000D02*
D03*
X411500D02*
D03*
X421000Y101000D02*
D03*
X862750Y885500D02*
D03*
X881750D02*
D03*
X872250Y909500D02*
D03*
X534750Y332000D02*
D03*
X515750D02*
D03*
X525250Y308000D02*
D03*
D77*
X458000Y115500D02*
D03*
X478000D02*
D03*
X823250Y187000D02*
D03*
X803250D02*
D03*
X1157500Y762500D02*
D03*
X1177500D02*
D03*
X643000Y682750D02*
D03*
X623000D02*
D03*
X1200250Y166750D02*
D03*
X1180250D02*
D03*
X849500Y386750D02*
D03*
X829500D02*
D03*
X775000Y387500D02*
D03*
X755000D02*
D03*
X516000Y379750D02*
D03*
X536000D02*
D03*
X375000Y820000D02*
D03*
X355000D02*
D03*
X375000Y845000D02*
D03*
X355000D02*
D03*
X375000Y870000D02*
D03*
X355000D02*
D03*
X1207500Y420000D02*
D03*
X1187500D02*
D03*
X1230000D02*
D03*
X1250000D02*
D03*
X1272500D02*
D03*
X1292500D02*
D03*
D78*
X783250Y158000D02*
D03*
Y138000D02*
D03*
X1025000Y177500D02*
D03*
Y197500D02*
D03*
X698250Y438750D02*
D03*
Y418750D02*
D03*
X825250Y881750D02*
D03*
Y861750D02*
D03*
X570250Y348250D02*
D03*
Y368250D02*
D03*
X175000Y447500D02*
D03*
Y427500D02*
D03*
X150000D02*
D03*
Y447500D02*
D03*
X1231750Y913750D02*
D03*
Y893750D02*
D03*
X1164750Y913750D02*
D03*
Y893750D02*
D03*
X1187250Y913750D02*
D03*
Y893750D02*
D03*
X1209750Y913750D02*
D03*
Y893750D02*
D03*
D79*
X896750Y187500D02*
D03*
Y168500D02*
D03*
X920750Y178000D02*
D03*
D80*
X823000Y286500D02*
D03*
X777000D02*
D03*
X800000D02*
D03*
X887500D02*
D03*
X864500D02*
D03*
X910500D02*
D03*
D81*
X800000Y228500D02*
D03*
X887500D02*
D03*
D82*
X675000Y287500D02*
D03*
Y187500D02*
D03*
D83*
X614250Y871500D02*
D03*
D84*
X640000Y658500D02*
D03*
X626000D02*
D03*
X968250Y524750D02*
D03*
X982250D02*
D03*
X982000Y597500D02*
D03*
X968000D02*
D03*
X982000Y577500D02*
D03*
X968000D02*
D03*
X1160500Y677500D02*
D03*
X1174500D02*
D03*
X1160500Y712500D02*
D03*
X1174500D02*
D03*
X982250Y541000D02*
D03*
X968250D02*
D03*
Y508500D02*
D03*
X982250D02*
D03*
X968250Y492250D02*
D03*
X982250D02*
D03*
X932250Y424750D02*
D03*
X918250D02*
D03*
X981000Y771250D02*
D03*
X967000D02*
D03*
X981000Y753500D02*
D03*
X967000D02*
D03*
X967000Y717750D02*
D03*
X981000D02*
D03*
X967000Y700000D02*
D03*
X981000D02*
D03*
Y682500D02*
D03*
X967000D02*
D03*
X981000Y664500D02*
D03*
X967000D02*
D03*
X981000Y646750D02*
D03*
X967000D02*
D03*
X640000Y597000D02*
D03*
X626000D02*
D03*
Y617000D02*
D03*
X640000D02*
D03*
X626000Y637000D02*
D03*
X640000D02*
D03*
X399500Y436000D02*
D03*
X385500D02*
D03*
X399250Y462500D02*
D03*
X385250D02*
D03*
X385250Y488500D02*
D03*
X399250D02*
D03*
X385500Y512750D02*
D03*
X399500D02*
D03*
X480750Y462750D02*
D03*
X494750D02*
D03*
X481250Y486750D02*
D03*
X495250D02*
D03*
X480750Y513000D02*
D03*
X494750D02*
D03*
X494750Y538250D02*
D03*
X480750D02*
D03*
X494750Y563250D02*
D03*
X480750D02*
D03*
X482250Y416250D02*
D03*
X468250D02*
D03*
X494500Y662500D02*
D03*
X480500D02*
D03*
X494500Y687500D02*
D03*
X480500D02*
D03*
X494500Y712500D02*
D03*
X480500D02*
D03*
X981000Y735750D02*
D03*
X967000D02*
D03*
X480500Y637500D02*
D03*
X494500D02*
D03*
X480500Y612500D02*
D03*
X494500D02*
D03*
D85*
X851000Y790000D02*
D03*
X819000D02*
D03*
X851000Y735000D02*
D03*
X819000D02*
D03*
D86*
X1270000Y350000D02*
D03*
X1180000D02*
D03*
Y237500D02*
D03*
X1270000D02*
D03*
D87*
X1162500Y620500D02*
D03*
Y637500D02*
D03*
X992500Y179000D02*
D03*
Y196000D02*
D03*
X1057250Y179000D02*
D03*
Y196000D02*
D03*
X404500Y184000D02*
D03*
Y201000D02*
D03*
X380000Y184000D02*
D03*
Y201000D02*
D03*
X355000Y184000D02*
D03*
Y201000D02*
D03*
X330000Y184000D02*
D03*
Y201000D02*
D03*
D88*
X1081500Y187500D02*
D03*
X1143500D02*
D03*
D89*
X950000Y201250D02*
D03*
Y173750D02*
D03*
X1121250Y115250D02*
D03*
Y142750D02*
D03*
D90*
X1252250Y168000D02*
D03*
X1270250D02*
D03*
D91*
X1107500Y237500D02*
D03*
Y277500D02*
D03*
X1057500Y237500D02*
D03*
Y277500D02*
D03*
X1007500Y237500D02*
D03*
Y277500D02*
D03*
X957500D02*
D03*
Y237500D02*
D03*
X1170000Y542500D02*
D03*
Y582500D02*
D03*
Y502500D02*
D03*
Y462500D02*
D03*
D92*
X667500Y350000D02*
D03*
X707500D02*
D03*
X910000D02*
D03*
X950000D02*
D03*
D93*
X1062500Y534500D02*
D03*
Y545500D02*
D03*
X1050000D02*
D03*
Y534500D02*
D03*
X1037500D02*
D03*
Y545500D02*
D03*
X867500Y768500D02*
D03*
Y757500D02*
D03*
D94*
X671500Y553500D02*
D03*
Y567500D02*
D03*
X653750Y553500D02*
D03*
Y567500D02*
D03*
X761750Y872000D02*
D03*
Y858000D02*
D03*
X1209750Y934250D02*
D03*
Y948250D02*
D03*
X1187250Y934250D02*
D03*
Y948250D02*
D03*
X1164750Y934250D02*
D03*
Y948250D02*
D03*
D95*
X785500Y743000D02*
D03*
D96*
X744500Y742500D02*
D03*
D97*
X718000Y750000D02*
D03*
X707000D02*
D03*
X718000Y737500D02*
D03*
X707000D02*
D03*
X682000Y750000D02*
D03*
X693000D02*
D03*
X795500Y775000D02*
D03*
X784500D02*
D03*
X834500Y910000D02*
D03*
X823500D02*
D03*
D98*
X611750Y384250D02*
D03*
Y347250D02*
D03*
D99*
X446250Y149750D02*
D03*
X473750D02*
D03*
D100*
X400000Y271500D02*
D03*
Y253500D02*
D03*
X335000D02*
D03*
Y271500D02*
D03*
D101*
X367500Y262500D02*
D03*
D102*
X355000Y252500D02*
D03*
X360000D02*
D03*
X365000D02*
D03*
X370000D02*
D03*
X375000D02*
D03*
X380000D02*
D03*
X355000Y272500D02*
D03*
X360000D02*
D03*
X365000D02*
D03*
X370000D02*
D03*
X375000D02*
D03*
X380000D02*
D03*
D103*
X214000Y447500D02*
D03*
X201000D02*
D03*
X214000Y429500D02*
D03*
X207500Y447500D02*
D03*
X201000Y429500D02*
D03*
D104*
X194750Y509250D02*
D03*
X144750D02*
D03*
X194250Y581500D02*
D03*
X144250D02*
D03*
D105*
X1251500Y837500D02*
D03*
X1183500D02*
D03*
D106*
X1274000Y567500D02*
D03*
Y482500D02*
D03*
D107*
X1216000Y544500D02*
D03*
Y567500D02*
D03*
Y590500D02*
D03*
Y505500D02*
D03*
Y482500D02*
D03*
Y459500D02*
D03*
D108*
X1149929Y405929D02*
D03*
X1164071Y420071D02*
D03*
D109*
X216750Y742250D02*
X252000D01*
X272750Y763000D01*
X303750Y763000D01*
X80750Y742250D02*
X216750D01*
X332858Y694750D02*
X375321D01*
X327000Y700608D02*
X332858Y694750D01*
X327000Y700608D02*
Y771500D01*
X623000Y682750D02*
Y695147D01*
X619750Y698397D02*
Y699750D01*
Y698397D02*
X623000Y695147D01*
X88965Y699000D02*
X161250D01*
X347500Y512750D02*
X385500D01*
X161250Y699000D02*
X347500Y512750D01*
X159500Y681250D02*
X352250Y488500D01*
X385250D01*
X99500Y681250D02*
X159500D01*
X359250Y462500D02*
X385750D01*
X157750Y664000D02*
X359250Y462500D01*
X104765Y664000D02*
X157750D01*
X1165001Y542500D02*
Y543500D01*
X1162500Y546000D02*
X1165001Y543500D01*
X789500Y829250D02*
X875750D01*
X789000Y828750D02*
X789500Y829250D01*
X764000Y806000D02*
X784500D01*
X689000D02*
X764000D01*
X720250Y886500D02*
X729500D01*
X537750Y957250D02*
X689000Y806000D01*
X892250Y768750D02*
Y774000D01*
X860250Y806000D02*
X892250Y774000D01*
X875750Y829250D02*
X897500Y807500D01*
X784500Y775000D02*
Y806000D01*
X689000D02*
X693000Y802000D01*
X784500Y806000D02*
X860250D01*
X1270250Y168000D02*
Y237500D01*
X820750Y350750D02*
X822750Y352750D01*
X823000Y286562D02*
X844812D01*
X382500Y720000D02*
Y755000D01*
X381179Y718679D02*
X382500Y720000D01*
X920750Y178000D02*
Y178250D01*
Y155750D02*
Y178000D01*
X421000Y101000D02*
Y103876D01*
X394017Y109733D02*
X415142D01*
X420875Y98875D02*
X423250Y96500D01*
X415142Y109733D02*
X421000Y103876D01*
X381179Y700608D02*
Y718679D01*
X375321Y694750D02*
X381179Y700608D01*
X844267Y206733D02*
Y218483D01*
X843750Y219000D02*
X844267Y218483D01*
Y206733D02*
X853500Y197500D01*
X859000D01*
X793231Y185750D02*
X803250D01*
X789981Y182500D02*
X793231Y185750D01*
X803250D02*
Y187000D01*
X789250Y182500D02*
X789981D01*
X783250Y120858D02*
X789108Y115000D01*
X830000D01*
X783250Y120858D02*
Y138000D01*
X800000Y217000D02*
X802250Y219250D01*
X736750Y153750D02*
X800000Y217000D01*
Y228500D01*
X802250Y219250D02*
X821000D01*
X821250Y219000D01*
X843750D01*
X936750Y194250D02*
Y262500D01*
X920750Y178250D02*
X936750Y194250D01*
X880000Y115000D02*
X920750Y155750D01*
X473750Y149750D02*
X476250D01*
X525000Y198500D01*
Y199500D01*
X591000Y153750D02*
X736750D01*
X936233Y263017D02*
Y278909D01*
X928642Y286500D02*
X936233Y278909D01*
Y263017D02*
X936750Y262500D01*
X910500Y286500D02*
X928642D01*
X823000Y286562D02*
Y350500D01*
Y286500D02*
Y286562D01*
Y286492D02*
Y286500D01*
X382500Y755000D02*
Y790000D01*
X375000Y820000D02*
Y845000D01*
Y810250D02*
Y820000D01*
X1164750Y893750D02*
X1187250D01*
X1158858D02*
X1164750D01*
X950000Y201857D02*
X963107D01*
X347500Y755000D02*
Y790000D01*
Y720000D02*
Y755000D01*
X349500Y804750D02*
X355000Y810250D01*
X349500Y792000D02*
Y804750D01*
X347500Y790000D02*
X349500Y792000D01*
X1164750Y956750D02*
X1174750Y966750D01*
X1164750Y948250D02*
Y956750D01*
X1174750Y966750D02*
X1197250D01*
X1153000Y887892D02*
X1158858Y893750D01*
X1153000Y876000D02*
Y887892D01*
X1208500Y888321D02*
Y893750D01*
X1199500Y876250D02*
X1208500Y885250D01*
X1199500Y876250D02*
X1199500Y876250D01*
X1237250Y838500D01*
X1173250Y876250D02*
X1199500D01*
X1292500Y435500D02*
X1293000Y436000D01*
X1292500Y420000D02*
Y435500D01*
X1187500Y433250D02*
X1193483Y439234D01*
Y448483D02*
X1194000Y449000D01*
X1193483Y439234D02*
Y448483D01*
X1149929Y405929D02*
X1149929D01*
X1160858Y395000D01*
X1171000D01*
X1226000Y938000D02*
X1231750Y932250D01*
X530500Y96500D02*
X541543Y107543D01*
Y114043D01*
X542500Y115000D01*
X423250Y96500D02*
X530500D01*
X844812Y286562D02*
X844875Y286625D01*
X317750Y184000D02*
X330000D01*
X302500Y199250D02*
Y237300D01*
Y199250D02*
X317750Y184000D01*
X380000Y167750D02*
Y184000D01*
X372767Y160517D02*
X380000Y167750D01*
X355000Y115000D02*
X355035Y115035D01*
X366785D02*
X456750Y205000D01*
Y256842D01*
X355035Y115035D02*
X366785D01*
X375000Y870000D02*
X395000D01*
X449700Y924700D01*
X380500Y792000D02*
Y804750D01*
Y792000D02*
X382500Y790000D01*
X375000Y810250D02*
X380500Y804750D01*
X355000Y810250D02*
Y820000D01*
X80400Y819600D02*
X354600D01*
X629500Y255000D02*
Y375892D01*
X623642Y381750D02*
X629500Y375892D01*
X614250Y381750D02*
X623642D01*
X1250000Y420000D02*
Y492250D01*
X1216000Y505500D02*
X1236750D01*
X1250000Y492250D01*
X1164071Y420071D02*
X1177250Y433250D01*
X1187500D01*
Y420000D02*
Y433250D01*
X667500Y295000D02*
Y372000D01*
X393500Y110250D02*
X394017Y109733D01*
X982250Y265642D02*
X990608Y274000D01*
X1004000D02*
X1007500Y277500D01*
X990608Y274000D02*
X1004000D01*
X611750Y384250D02*
X614250Y381750D01*
X411250Y488500D02*
X411500Y488250D01*
X399250Y488500D02*
X411250D01*
X399500Y512750D02*
X411750D01*
X389000Y394250D02*
X438500Y443750D01*
X295000Y394250D02*
X389000D01*
X438500Y443750D02*
Y583500D01*
X453250Y433250D02*
Y472000D01*
X412000Y392000D02*
X453250Y433250D01*
X295000Y305750D02*
Y394250D01*
X176750D02*
X295000D01*
X166000Y405000D02*
X176750Y394250D01*
X442750Y403124D02*
X455876Y416250D01*
X442750Y402000D02*
Y403124D01*
X455876Y416250D02*
X468250D01*
X1208500Y893750D02*
X1209750D01*
X1208500Y888321D02*
X1208500Y888321D01*
X1208500Y885250D02*
Y888321D01*
X1160500Y712500D02*
Y733500D01*
X1157500Y736500D02*
Y762500D01*
Y736500D02*
X1160500Y733500D01*
X1174500Y712500D02*
Y733250D01*
X1177500Y736250D02*
Y762500D01*
X1174500Y733250D02*
X1177500Y736250D01*
X1188500Y677500D02*
X1222501D01*
X1193750Y522250D02*
Y672250D01*
X1174500Y677500D02*
X1188500D01*
X1193750Y672250D01*
X1180250Y166750D02*
Y168000D01*
X1169750D02*
X1180250D01*
X1163500Y174250D02*
X1169750Y168000D01*
X1163500Y174250D02*
Y193750D01*
X1270249Y157249D02*
Y167999D01*
X1270250Y168000D01*
X1225000Y115000D02*
X1226353D01*
X1228853Y117500D02*
X1230500D01*
X1226353Y115000D02*
X1228853Y117500D01*
X1230500D02*
X1270249Y157249D01*
X775000Y387500D02*
Y398250D01*
Y375500D02*
Y387500D01*
X516000Y379750D02*
Y393500D01*
Y354250D02*
Y379750D01*
X982250Y264353D02*
Y265642D01*
X1025000Y197500D02*
Y209971D01*
X1032750Y217721D01*
X963107Y201857D02*
X980500Y219250D01*
X950000Y201250D02*
Y201857D01*
X1032750Y217721D02*
Y219750D01*
X409000Y603250D02*
X440000D01*
X474250Y637500D01*
X465000Y563250D02*
X465000Y563250D01*
X480750D01*
X469259Y462750D02*
X480750D01*
X469142Y462633D02*
X469259Y462750D01*
X468383Y462633D02*
X469142D01*
X468000Y462250D02*
X468383Y462633D01*
X320548Y302006D02*
X346750D01*
X516000Y393500D02*
X530000Y407500D01*
X650500D01*
X681750Y438750D01*
X822750Y353000D02*
X825000Y355250D01*
Y368500D02*
X829500Y373000D01*
X825000Y355250D02*
Y368500D01*
X849500Y373000D02*
Y386750D01*
X856000Y352500D02*
Y366500D01*
X849500Y373000D02*
X856000Y366500D01*
Y352500D02*
X858750Y349749D01*
X829500Y373000D02*
Y382571D01*
X829500Y382571D01*
Y386750D01*
X667500Y372000D02*
X683000Y387500D01*
X755000D01*
X747500Y425000D02*
X748357Y424143D01*
Y405643D02*
Y424143D01*
Y405643D02*
X755000Y399000D01*
Y387500D02*
Y399000D01*
X775000Y398250D02*
X782018Y405268D01*
Y424518D02*
X782500Y425000D01*
X782018Y405268D02*
Y424518D01*
X782000Y352750D02*
X784000Y350750D01*
X775000Y375500D02*
X782000Y368500D01*
Y352750D02*
Y368500D01*
X858750Y331750D02*
Y349749D01*
X842814Y326250D02*
X843206Y326642D01*
X852142D01*
X858000Y332500D01*
X864500Y286500D02*
Y326000D01*
X858000Y332500D02*
X864500Y326000D01*
X629500Y255000D02*
X649500Y235000D01*
X664250D01*
X1184750Y216500D02*
X1233250Y168000D01*
X1132250Y216500D02*
X1184750D01*
X1233250Y168000D02*
X1252250D01*
X1121250Y162560D02*
Y205500D01*
Y144250D02*
Y162560D01*
X1057250Y151750D02*
X1067500Y141500D01*
X1057250Y151750D02*
Y179000D01*
X1057500Y196250D02*
Y237500D01*
X1067500Y115000D02*
Y141500D01*
X80000Y717600D02*
X80350Y717250D01*
X269500D01*
X399500Y436000D02*
X411250D01*
X411250Y436000D01*
X449700Y924700D02*
Y957250D01*
X375000Y845000D02*
Y870000D01*
X80000Y616000D02*
X111000Y647000D01*
X156250D01*
X367250Y436000D01*
X800000Y286500D02*
Y300250D01*
Y228500D02*
Y286500D01*
X478250Y246250D02*
X525000Y199500D01*
X478250Y246250D02*
Y261750D01*
X467500Y612500D02*
X480500D01*
X438500Y583500D02*
X467500Y612500D01*
X82164Y641400D02*
X104765Y664000D01*
X525000Y275500D02*
Y308000D01*
X462000Y538250D02*
X480750D01*
X782500Y425000D02*
X832500D01*
X776321Y450750D02*
X782179Y444892D01*
X334875Y271625D02*
Y286875D01*
X525000Y275500D02*
Y308000D01*
X754250Y346000D02*
X800000Y300250D01*
X753000Y346000D02*
X754250D01*
X752357Y346643D02*
X753000Y346000D01*
X80000Y641400D02*
X82164D01*
X747250Y350250D02*
X747875Y349625D01*
X675000Y287500D02*
X676000Y286500D01*
X667500Y295000D02*
X675000Y287500D01*
X745000Y450750D02*
X776321D01*
X698250Y438750D02*
X733000D01*
X745000Y450750D01*
X681750Y438750D02*
X698250D01*
X474250Y637500D02*
X480500D01*
X89050Y670800D02*
X99500Y681250D01*
X82164Y666800D02*
X86164Y670800D01*
X80000Y666800D02*
X82164D01*
X86164Y670800D02*
X89050D01*
X82164Y692200D02*
X88965Y699000D01*
X80000Y692200D02*
X82164D01*
X531250Y646250D02*
Y703000D01*
X521750Y712500D02*
X531250Y703000D01*
X522500Y637500D02*
X531250Y646250D01*
X365500Y720000D02*
X365750Y720250D01*
X347500Y720000D02*
X365500D01*
X668250Y763000D02*
X675750Y770500D01*
X606966Y763000D02*
X668250D01*
X449700Y957250D02*
X537750D01*
X729500Y886500D02*
X743999Y872000D01*
X761750D01*
X693000Y750000D02*
Y802000D01*
Y750000D02*
X707000D01*
X610000Y597000D02*
X626000D01*
X468000Y486750D02*
X481250D01*
X453250Y472000D02*
X468000Y486750D01*
X125000Y416750D02*
X136750Y405000D01*
X166000D01*
X125000Y416750D02*
Y499750D01*
X110350Y514400D02*
X125000Y499750D01*
X80000Y514400D02*
X110350D01*
X80000Y743000D02*
X80750Y742250D01*
X494500Y662500D02*
X514750D01*
X494500Y687500D02*
X514750D01*
X494500Y712500D02*
X521750D01*
X367250Y436000D02*
X385500D01*
X304700Y793800D02*
X327000Y771500D01*
X80000Y793800D02*
X304700D01*
X782179Y425321D02*
X782500Y425000D01*
X782179Y425321D02*
Y444892D01*
X144750Y509250D02*
Y581000D01*
X150000Y427500D02*
X175000D01*
X346750Y302000D02*
X383750D01*
X400000Y285750D01*
X355000Y820000D02*
Y845000D01*
X334750Y287000D02*
X334875Y286875D01*
X454250Y285750D02*
X478250Y261750D01*
X400000Y285750D02*
X454250D01*
X400000Y271500D02*
Y285750D01*
X271900Y921850D02*
Y957250D01*
Y921850D02*
X323750Y870000D01*
X355000Y845000D02*
Y870000D01*
X323750D02*
X355000D01*
X720000Y418750D02*
X720250Y419000D01*
X707625Y349875D02*
X729375D01*
X729500Y349750D02*
X730000Y350250D01*
X707500Y350000D02*
X707625Y349875D01*
X729375D02*
X729500Y349750D01*
X730000Y350250D02*
X747250D01*
X1146250Y661750D02*
X1146750Y661250D01*
Y620500D02*
Y661250D01*
Y620500D02*
X1162500D01*
X1146750Y559750D02*
Y620500D01*
X1183500Y837500D02*
X1184000Y838000D01*
X1210250D02*
X1210750Y838500D01*
X1184000Y838000D02*
X1210250D01*
X1237250Y838500D02*
X1250500D01*
X1251500Y837500D01*
X1155250Y858250D02*
X1173250Y876250D01*
X1146750Y559750D02*
X1160500Y546000D01*
X1162500D01*
X1222501Y677500D02*
X1250000Y650000D01*
X1197250Y966019D02*
X1209750Y953519D01*
Y948250D02*
Y953519D01*
X1197250Y966019D02*
Y966750D01*
X1209750Y913750D02*
Y934250D01*
X1187250Y913750D02*
Y934250D01*
X1164750Y913750D02*
Y934250D01*
X1247294Y750000D02*
X1250000D01*
X1177500Y762500D02*
X1234794D01*
X1247294Y750000D01*
X1174000Y502500D02*
X1193750Y522250D01*
X1170000Y502500D02*
X1174000D01*
X1194000Y482500D02*
X1216000D01*
X1177500Y499000D02*
X1194000Y482500D01*
X1174000Y502500D02*
X1177500Y499000D01*
X1216000Y590500D02*
X1240750D01*
X1248250Y583000D01*
X1250000Y420000D02*
X1272500D01*
X932250Y424750D02*
X962500D01*
X887500Y286500D02*
Y307250D01*
Y228500D02*
Y286500D01*
X397984Y239516D02*
Y253016D01*
Y239516D02*
X398500Y239000D01*
X515750Y332000D02*
Y353250D01*
X435000Y262700D02*
X450892D01*
X456750Y256842D01*
X355000Y115000D02*
Y184000D01*
X330000Y115000D02*
Y184000D01*
X545250Y199500D02*
X591000Y153750D01*
X525000Y199500D02*
X545250D01*
X676000Y286500D02*
X777000D01*
X947519Y330269D02*
Y347518D01*
X937750Y320500D02*
X947519Y330269D01*
X900750Y320500D02*
X937750D01*
X887500Y307250D02*
X900750Y320500D01*
X1121250Y205500D02*
X1132250Y216500D01*
D110*
X626000Y673843D02*
X628343Y671500D01*
X626000Y673843D02*
Y679750D01*
X628343Y671500D02*
X688250D01*
X693250Y666500D01*
X375037Y260963D02*
Y262500D01*
X623000Y682750D02*
X626000Y679750D01*
X910000Y523250D02*
Y570000D01*
X865000Y615000D02*
X910000Y570000D01*
X902250Y543000D02*
Y569831D01*
X892000Y532750D02*
X902250Y543000D01*
X892000Y523000D02*
Y532750D01*
X377037Y260500D02*
X380000Y257536D01*
X959250Y577500D02*
X968000D01*
X955750Y581000D02*
Y589750D01*
Y581000D02*
X959250Y577500D01*
X861250Y674750D02*
X956750Y770250D01*
X966001D02*
X967000Y771250D01*
X956750Y770250D02*
X966001D01*
X857250Y614831D02*
X902250Y569831D01*
X857250Y614831D02*
Y615250D01*
X956000Y597500D02*
X968000D01*
X693250Y666500D02*
X693250D01*
X375037Y260963D02*
X375500Y260500D01*
X377037D01*
X380000Y252500D02*
Y257536D01*
D111*
X503952Y612500D02*
X511202Y619750D01*
X511500D01*
X494500Y612500D02*
X503952D01*
X770053Y872803D02*
X817250Y920000D01*
X762553Y872803D02*
X770053D01*
X761750Y872000D02*
X762553Y872803D01*
X817250Y920000D02*
X885250D01*
X895500Y909750D01*
X869500Y816250D02*
X869875D01*
X894875Y791250D01*
X895250D01*
X795750Y545750D02*
X795941Y545559D01*
Y539412D02*
Y545559D01*
X804000Y530000D02*
Y531353D01*
X795941Y539412D02*
X804000Y531353D01*
X892125Y768625D02*
X892250Y768750D01*
X867625Y768625D02*
X892125D01*
X867500Y768500D02*
X867625Y768625D01*
X863000Y694771D02*
X915000Y746771D01*
Y747500D01*
X863000Y694500D02*
Y694771D01*
X805278Y530000D02*
X832500Y502778D01*
X804000Y530000D02*
X805278D01*
X868500Y187000D02*
X868500Y187000D01*
Y173500D02*
Y187000D01*
Y187000D02*
X896250D01*
X823250D02*
X868500D01*
X896250D02*
X896750Y187500D01*
X466500Y445500D02*
X467750D01*
X482250Y431000D01*
Y416250D02*
Y431000D01*
X433750Y726000D02*
X543000D01*
X427736Y732014D02*
Y843736D01*
Y732014D02*
X433750Y726000D01*
X476750Y892750D02*
Y926750D01*
X418338Y847338D02*
X467000Y896000D01*
Y935000D01*
X438150Y840650D02*
X485250Y887750D01*
Y942750D01*
X887750Y168250D02*
X896250D01*
X881750Y162250D02*
X887750Y168250D01*
X849000Y162250D02*
X881750D01*
X849000D02*
Y173000D01*
X844750Y158000D02*
X849000Y162250D01*
Y173000D02*
X849500Y173500D01*
X783250Y158000D02*
X844750D01*
X535500Y132750D02*
X561750Y159000D01*
Y160000D01*
X449250Y132750D02*
X535500D01*
X446250Y135750D02*
Y149750D01*
Y135750D02*
X449250Y132750D01*
X430500Y125000D02*
Y136500D01*
X443750Y149750D01*
X446250D01*
X430500Y125000D02*
X431000Y124500D01*
Y117929D02*
Y124500D01*
Y117929D02*
X433429Y115500D01*
X458000D01*
X517250Y115250D02*
X517500Y115000D01*
X478250Y115250D02*
X517250D01*
X478000Y115500D02*
X478250Y115250D01*
X848059Y531941D02*
X848250Y531750D01*
X848059Y531941D02*
Y532441D01*
X135000Y422000D02*
X140250Y416750D01*
X135000Y455750D02*
X144750Y465500D01*
X135000Y422000D02*
Y455750D01*
X720000Y418750D02*
X728376D01*
X1153000Y960000D02*
X1172000Y979000D01*
X1209000D02*
X1226000Y962000D01*
X1172000Y979000D02*
X1209000D01*
X1153000Y902000D02*
Y960000D01*
X1140750Y889750D02*
X1153000Y902000D01*
X1140750Y686250D02*
Y889750D01*
X1149500Y677500D02*
X1160500D01*
X1140750Y686250D02*
X1149500Y677500D01*
X1005000Y780000D02*
Y813500D01*
X872250Y946250D02*
X1005000Y813500D01*
X1037809Y545809D02*
Y553809D01*
X1038000Y554000D01*
X1037500Y545500D02*
X1037809Y545809D01*
X1121394Y276500D02*
X1157448Y240447D01*
X1120394Y277500D02*
X1121394Y276500D01*
X1133500Y407500D02*
Y413500D01*
X1168382Y372618D02*
X1194816D01*
X1133500Y407500D02*
X1168382Y372618D01*
X1133500Y413500D02*
X1166000Y446000D01*
X1244000Y915254D02*
Y935000D01*
Y915254D02*
X1281176Y878078D01*
X1238000Y941000D02*
X1244000Y935000D01*
X1238000Y941000D02*
Y964571D01*
X1226000Y938000D02*
Y962000D01*
X1231750Y913750D02*
Y932250D01*
X1058574Y907426D02*
X1069386D01*
X1119162Y857650D01*
X1058000Y908000D02*
X1058574Y907426D01*
X1119162Y857650D02*
X1120400D01*
X1043000Y884250D02*
Y919000D01*
Y884250D02*
X1095000Y832250D01*
X1061000Y892325D02*
X1095000Y858325D01*
Y857650D02*
Y858325D01*
X1061000Y892325D02*
Y893000D01*
X416000Y184000D02*
X435000Y203000D01*
X404500Y184000D02*
X416000D01*
X435000Y203000D02*
Y237300D01*
X892571Y885500D02*
X895500Y888429D01*
Y909750D01*
X881750Y885500D02*
X892571D01*
X948750Y550000D02*
X957750Y541000D01*
X968250D01*
X948750Y550000D02*
Y624000D01*
X528500Y234750D02*
X610250D01*
X321500Y256429D02*
X324429Y253500D01*
X335000D01*
X321500Y256429D02*
Y278250D01*
X423250Y445250D02*
X423750Y445750D01*
Y528000D01*
X387250Y537500D02*
X399500Y525250D01*
X387250Y537500D02*
Y614500D01*
X395500Y556250D02*
X423750Y528000D01*
X388500Y368500D02*
X412000Y392000D01*
X388500Y328049D02*
Y368500D01*
X391429Y325120D02*
X485648D01*
X388500Y328049D02*
X391429Y325120D01*
X630750Y396250D02*
X658500D01*
X681000Y418750D01*
X534750Y332000D02*
Y378500D01*
X536000Y379750D01*
X640750Y749750D02*
X640875Y749875D01*
X681875D01*
X591000Y749750D02*
X640750D01*
X681875Y749875D02*
X682000Y750000D01*
X585500Y608500D02*
X614000Y637000D01*
X626000D01*
X408500Y641750D02*
Y854250D01*
X456250Y902000D01*
X480500Y512750D02*
X480750Y513000D01*
X465250Y512750D02*
X480500D01*
X427736Y843736D02*
X476750Y892750D01*
X872250Y875572D02*
Y894353D01*
X882897Y905000D01*
X884250D01*
X872250Y875572D02*
X881322Y866500D01*
X917250D01*
X207500Y447500D02*
Y456750D01*
X194500Y469750D02*
Y478750D01*
Y469750D02*
X207500Y456750D01*
X201000Y442179D02*
X203929Y439250D01*
X239500D01*
X201000Y442179D02*
Y447500D01*
X223250Y407250D02*
X239500Y423500D01*
Y439250D01*
X182750Y407250D02*
X223250D01*
X307500Y292250D02*
X321500Y278250D01*
X307500Y292250D02*
Y306250D01*
X317500Y316250D01*
X570250Y334929D02*
Y348250D01*
X534750Y332000D02*
X567321D01*
X570250Y334929D01*
X504500Y836250D02*
X591000Y749750D01*
X450500Y549751D02*
Y577250D01*
X473000Y599750D01*
X387250Y614500D02*
X399250Y626500D01*
X410854D01*
X418338Y633984D01*
X681000Y418750D02*
X698250D01*
X671197Y553197D02*
X671500Y553500D01*
X822750Y352750D02*
Y353000D01*
X643000Y697750D02*
X643000Y697750D01*
Y682750D02*
Y697750D01*
Y682750D02*
X643000Y682750D01*
X447000Y316250D02*
X528500Y234750D01*
X317500Y316250D02*
X447000D01*
X1216000Y420000D02*
Y428250D01*
X398018Y681518D02*
Y856488D01*
X351500Y635000D02*
X398018Y681518D01*
X450500Y549751D02*
X461500Y538750D01*
X395500Y610250D02*
X402750Y617500D01*
X395500Y556250D02*
Y610250D01*
X616500Y617000D02*
X616500Y617000D01*
X626000D01*
X438150Y737616D02*
Y840650D01*
X418338Y633984D02*
Y847338D01*
X63429Y641400D02*
X80000D01*
X60500Y644329D02*
Y856000D01*
Y644329D02*
X63429Y641400D01*
X707000Y737500D02*
Y750000D01*
X698250Y418750D02*
X720000D01*
X1121250Y142750D02*
Y144250D01*
X1168518Y239000D02*
X1178500D01*
X1165500D02*
X1168518D01*
X1180000Y237500D01*
X1165047Y239454D02*
X1168518Y239000D01*
X1157448Y240447D02*
X1165047Y239454D01*
X531250Y646250D02*
X532000Y647000D01*
X728376Y418750D02*
X733806Y424180D01*
X1107500Y277500D02*
X1120394D01*
X398018Y856488D02*
X457962Y916432D01*
X1281176Y609092D02*
Y878078D01*
X1266444Y594360D02*
X1281176Y609092D01*
X1250442Y594360D02*
X1266444D01*
X1133856Y534670D02*
Y590194D01*
X1120400Y603650D02*
X1133856Y590194D01*
X1055116Y502050D02*
X1095000D01*
X468250Y400684D02*
Y416250D01*
X586486Y301498D02*
Y370332D01*
X531876Y246888D02*
X586486Y301498D01*
X1220216Y217678D02*
Y347218D01*
X1194816Y372618D02*
X1220216Y347218D01*
X832500Y425000D02*
Y502778D01*
X1178500Y239000D02*
X1180000Y237500D01*
X494500Y637500D02*
X522500D01*
X402750Y617500D02*
X437000D01*
X470750Y651250D02*
X490785D01*
X437000Y617500D02*
X470750Y651250D01*
X493714Y661715D02*
X494500Y662500D01*
X493714Y654179D02*
Y661715D01*
X490785Y651250D02*
X493714Y654179D01*
X173250Y416750D02*
X182750Y407250D01*
X140250Y416750D02*
X173250D01*
X144750Y465500D02*
Y509250D01*
X144250Y581500D02*
X144750Y581000D01*
D112*
X1143250Y462500D02*
Y523250D01*
X1162500Y542500D01*
X1170000D01*
X1270000Y237750D02*
X1270250Y237500D01*
X868478Y216478D02*
X870978D01*
X883000Y228500D01*
X887500D01*
X868000Y216000D02*
X868478Y216478D01*
X868000Y421237D02*
X885263D01*
X949000Y351000D02*
Y357500D01*
X885263Y421237D02*
X949000Y357500D01*
Y351000D02*
X950000Y350000D01*
X1050000Y425000D02*
X1126250D01*
X1032000Y306000D02*
Y407000D01*
X1050000Y425000D01*
X1032000Y306000D02*
X1075000D01*
X995750D02*
X1032000D01*
X1104500Y276500D02*
X1121394D01*
X611500Y236000D02*
Y347250D01*
X1165047Y239454D02*
X1165500Y239000D01*
X1128000Y276500D02*
X1165047Y239454D01*
X1121394Y276500D02*
X1128000D01*
X675000Y187500D02*
X725000D01*
X620287D02*
X675000D01*
X1126250Y425000D02*
X1143250Y442000D01*
X1216000Y428250D02*
Y449000D01*
X1216000Y449000D02*
X1216000Y449000D01*
X1216000Y449000D02*
Y457000D01*
X1143250Y442000D02*
Y462500D01*
X1170000D01*
X611500Y196287D02*
Y236000D01*
Y196287D02*
X620287Y187500D01*
X753500Y216000D02*
Y251000D01*
X725000Y187500D02*
X753500Y216000D01*
X1270000Y237750D02*
Y350000D01*
X1230000Y403500D02*
X1268500Y365000D01*
Y351500D02*
Y365000D01*
X1230000Y403500D02*
Y420000D01*
X1225000Y93250D02*
Y115000D01*
X1003590Y214590D02*
Y236500D01*
X992500Y196000D02*
Y203500D01*
X1003590Y214590D01*
Y236500D02*
X1004590Y237500D01*
X1007500D01*
X858500Y350750D02*
X909250D01*
X1081500Y157250D02*
Y187500D01*
Y157250D02*
X1095000Y143750D01*
X1200000Y103787D02*
Y166500D01*
X1141500Y95000D02*
X1191213D01*
X1200000Y103787D01*
X1175000Y115000D02*
Y130250D01*
X1143500Y161750D02*
Y187500D01*
Y161750D02*
X1175000Y130250D01*
X1120750Y143750D02*
X1121250Y144250D01*
X1095000Y143750D02*
X1120750D01*
X1057500Y237500D02*
X1058500D01*
X1056000D02*
X1107500D01*
X1207500Y420000D02*
X1216000D01*
X1230000D01*
X920500Y74500D02*
X1059000D01*
X1200000Y166500D02*
X1200250Y166750D01*
X968250Y278500D02*
X995750Y306000D01*
X1075000D02*
X1104500Y276500D01*
X957250Y306500D02*
X957375Y306375D01*
X957500Y306250D01*
Y277500D02*
Y306250D01*
Y277500D02*
X958501Y278500D01*
X968250D01*
X785000Y350750D02*
X820750D01*
X1209750Y893750D02*
X1231750D01*
X1216000Y522516D02*
Y544500D01*
X1206250Y74500D02*
X1225000Y93250D01*
X1059000Y74500D02*
X1206250D01*
X1042691Y90809D02*
X1059000Y74500D01*
X880000Y115000D02*
X920500Y74500D01*
X1017500Y115000D02*
X1017692Y115191D01*
X1017309Y114809D02*
X1017500Y115000D01*
X957500Y237500D02*
X1007500D01*
Y277500D02*
X1057500D01*
X1121250Y115250D02*
X1141500Y95000D01*
X950000Y103287D02*
Y173750D01*
X958787Y94500D02*
X1008213D01*
X950000Y103287D02*
X958787Y94500D01*
X1017309Y103595D02*
Y114809D01*
X1008213Y94500D02*
X1017309Y103595D01*
X1042691Y90809D02*
Y114809D01*
X992500Y115000D02*
Y179000D01*
X1042500Y115000D02*
X1042691Y114809D01*
X1017692Y145462D02*
X1025000Y152771D01*
Y177500D01*
X1017692Y115191D02*
Y145462D01*
X1180000Y237500D02*
Y350000D01*
D113*
X779250Y852250D02*
X808750Y881750D01*
X779250Y843000D02*
Y852250D01*
X808750Y881750D02*
X825250D01*
X764000Y806000D02*
X764500Y806500D01*
Y828250D01*
X779250Y843000D01*
X823500Y883000D02*
Y910000D01*
Y883000D02*
X824750Y881750D01*
X360000Y262500D02*
X367500D01*
X353250D02*
X360000D01*
X375037D02*
X381500D01*
X390250Y253750D02*
X399750D01*
X381500Y262500D02*
X390250Y253750D01*
X399750D02*
X400000Y253500D01*
X344500Y271250D02*
X353250Y262500D01*
X335000Y271500D02*
X335250Y271250D01*
X344500D01*
X185250Y426250D02*
X194500Y417000D01*
X175000Y427500D02*
X176250Y426250D01*
X181893D01*
X181893Y426250D02*
X185250D01*
X181893Y426250D02*
X181893Y426250D01*
X194500Y417000D02*
X209607D01*
X152080Y457580D02*
X186875Y492375D01*
X152080Y448750D02*
Y457580D01*
X150000Y447500D02*
X150830D01*
X152080Y448750D01*
X186875Y492375D02*
X202625D01*
X197500Y429500D02*
X201000D01*
X180750Y446250D02*
X197500Y429500D01*
X175000Y447500D02*
X176250Y446250D01*
X180750D01*
X354600Y819600D02*
X355000Y820000D01*
X1163000Y637500D02*
X1163750Y638250D01*
X1168143Y650005D02*
X1178005D01*
X1162500Y637500D02*
X1163000D01*
X1163750Y638250D02*
Y645612D01*
X1168143Y650005D01*
X1178005D02*
X1179000Y651000D01*
X194250Y566250D02*
X212750Y547750D01*
X194250Y566250D02*
Y581500D01*
X212750Y502500D02*
Y547750D01*
X202625Y492375D02*
X212750Y502500D01*
X225532Y429500D02*
X227282Y427750D01*
X214000Y429500D02*
X225532D01*
X227282Y427750D02*
X228500D01*
X835000Y909500D02*
X872250D01*
X194750Y509250D02*
Y523500D01*
X80000Y819200D02*
X80400Y819600D01*
X433450Y662300D02*
X480300D01*
X433250Y662100D02*
X433450Y662300D01*
X480300D02*
X480500Y662500D01*
X433250Y687500D02*
X480500D01*
X480300Y712700D02*
X480500Y712500D01*
X433250Y712900D02*
X433450Y712700D01*
X480300D01*
X209607Y417000D02*
X214000Y421394D01*
Y429500D01*
X1273500Y629250D02*
Y664000D01*
X1261500Y676000D02*
X1273500Y664000D01*
X1252500Y608250D02*
X1273500Y629250D01*
X1247250Y676000D02*
X1261500D01*
X1210750Y712500D02*
X1247250Y676000D01*
X1174500Y712500D02*
X1210750D01*
X1187250Y948250D02*
Y955500D01*
X1170000Y582500D02*
Y599250D01*
X1178750Y608000D01*
X1239250Y567500D02*
X1248000Y558750D01*
X1248500D01*
X1216000Y567500D02*
X1239250D01*
X367500Y262500D02*
X375037D01*
D114*
X346750Y281000D02*
Y302000D01*
Y281000D02*
X355000Y272750D01*
Y272500D02*
Y272750D01*
D115*
X175000Y940000D02*
D03*
X1272000Y48000D02*
D03*
Y940000D02*
D03*
X420000Y48000D02*
D03*
D116*
X1250000Y750000D02*
D03*
Y700000D02*
D03*
X435000Y262700D02*
D03*
X302500Y237300D02*
D03*
X449700Y957250D02*
D03*
X398900D02*
D03*
X322700D02*
D03*
X297300D02*
D03*
X348100D02*
D03*
X373500D02*
D03*
X424300D02*
D03*
X269500Y717250D02*
D03*
X303750Y763000D02*
D03*
X216750Y742250D02*
D03*
D117*
X1250000Y650000D02*
D03*
D118*
X1225000Y115000D02*
D03*
X1200000D02*
D03*
X880000D02*
D03*
X855000D02*
D03*
X355000D02*
D03*
X542500D02*
D03*
X619750Y699750D02*
D03*
X789000Y828750D02*
D03*
X897500Y807500D02*
D03*
X372250Y160000D02*
D03*
X753500Y251000D02*
D03*
X412000Y392000D02*
D03*
X442750Y402000D02*
D03*
X465000Y563250D02*
D03*
X462094Y538250D02*
D03*
X982250Y264353D02*
D03*
X351500Y635000D02*
D03*
X365750Y720250D02*
D03*
X675750Y770500D02*
D03*
X606966Y763000D02*
D03*
X194500Y478750D02*
D03*
X194750Y523500D02*
D03*
X514750Y662500D02*
D03*
Y687500D02*
D03*
X1163500Y193750D02*
D03*
D119*
X1175000Y115000D02*
D03*
X830000D02*
D03*
X330000D02*
D03*
X517500D02*
D03*
D120*
X435000Y237300D02*
D03*
X302500Y262700D02*
D03*
D121*
X433250Y712900D02*
D03*
Y687500D02*
D03*
Y662100D02*
D03*
Y636700D02*
D03*
X80000Y819200D02*
D03*
Y793800D02*
D03*
Y768400D02*
D03*
Y743000D02*
D03*
Y717600D02*
D03*
Y692200D02*
D03*
Y666800D02*
D03*
Y641400D02*
D03*
Y616000D02*
D03*
Y590600D02*
D03*
Y565200D02*
D03*
Y539800D02*
D03*
Y514400D02*
D03*
Y489000D02*
D03*
X1095000Y857650D02*
D03*
X1120400D02*
D03*
X1095000Y832250D02*
D03*
X1120400D02*
D03*
X1095000Y806850D02*
D03*
X1120400D02*
D03*
Y451250D02*
D03*
X1095000D02*
D03*
Y476650D02*
D03*
X1120400D02*
D03*
X1095000Y502050D02*
D03*
X1120400D02*
D03*
Y527450D02*
D03*
X1095000D02*
D03*
X1120400Y552850D02*
D03*
X1095000D02*
D03*
X1120400Y578250D02*
D03*
X1095000D02*
D03*
X1120400Y603650D02*
D03*
X1095000D02*
D03*
X1120400Y629050D02*
D03*
X1095000D02*
D03*
X1120400Y654450D02*
D03*
X1095000D02*
D03*
X1120400Y679850D02*
D03*
X1095000D02*
D03*
X1120400Y705250D02*
D03*
X1095000D02*
D03*
X1120400Y730650D02*
D03*
X1095000D02*
D03*
X1120400Y756050D02*
D03*
X1095000D02*
D03*
X1120400Y781450D02*
D03*
X1095000D02*
D03*
D122*
X271900Y957250D02*
D03*
D123*
X169000Y581000D02*
D03*
Y510000D02*
D03*
D124*
X511500Y619750D02*
D03*
X892250Y768750D02*
D03*
X804000Y530000D02*
D03*
X466500Y445500D02*
D03*
X543000Y726000D02*
D03*
X892000Y523000D02*
D03*
X875000D02*
D03*
X1153000Y876000D02*
D03*
X1238000Y965000D02*
D03*
X1043000Y919000D02*
D03*
X1061000Y893000D02*
D03*
X411500Y488250D02*
D03*
X468250Y400684D02*
D03*
X485648Y325120D02*
D03*
X640750Y749750D02*
D03*
X465250Y512750D02*
D03*
X910000Y523250D02*
D03*
X884250Y905000D02*
D03*
X917250Y866500D02*
D03*
X60500Y856000D02*
D03*
X438150Y737616D02*
D03*
X531876Y246888D02*
D03*
X1220216Y217678D02*
D03*
D125*
X869500Y816250D02*
D03*
X895250Y791250D02*
D03*
X915000Y747500D02*
D03*
X581750Y559250D02*
D03*
X586500Y542000D02*
D03*
X476750Y926750D02*
D03*
X467000Y935000D02*
D03*
X485250Y942750D02*
D03*
X1058000Y908000D02*
D03*
X423250Y445250D02*
D03*
X399500Y525250D02*
D03*
X630750Y396250D02*
D03*
X408500Y641750D02*
D03*
X558750Y557250D02*
D03*
X618750Y534500D02*
D03*
X456250Y902000D02*
D03*
X457962Y916432D02*
D03*
X504500Y836250D02*
D03*
X473000Y599750D02*
D03*
X472250Y799250D02*
D03*
X484750Y812750D02*
D03*
X1187250Y955500D02*
D03*
D126*
X795750Y545750D02*
D03*
X863000Y694500D02*
D03*
X876250Y544000D02*
D03*
X869250Y538000D02*
D03*
X853500Y506750D02*
D03*
X850500Y519000D02*
D03*
X848250Y531750D02*
D03*
X879500Y553250D02*
D03*
X541000Y652000D02*
D03*
X1038000Y554000D02*
D03*
X594656Y643250D02*
D03*
X563750Y655000D02*
D03*
X571656Y652500D02*
D03*
X556312Y652438D02*
D03*
X548750Y655250D02*
D03*
X1015000Y682500D02*
D03*
X1055116Y502050D02*
D03*
X956000Y597500D02*
D03*
X955750Y589750D02*
D03*
X1043500Y745750D02*
D03*
X1015000Y727500D02*
D03*
Y717500D02*
D03*
Y700000D02*
D03*
X1015250Y663750D02*
D03*
X1069000Y666750D02*
D03*
X837750Y861500D02*
D03*
X585500Y608500D02*
D03*
X571250Y616250D02*
D03*
X563750Y621250D02*
D03*
X556375Y616375D02*
D03*
X548750Y621250D02*
D03*
X541250Y616250D02*
D03*
X733806Y424180D02*
D03*
X716750Y555000D02*
D03*
X861250Y674750D02*
D03*
X872250Y946250D02*
D03*
X643000Y697750D02*
D03*
X609750Y597250D02*
D03*
D127*
X789250Y182500D02*
D03*
X561750Y160000D02*
D03*
X936750Y262500D02*
D03*
X1293000Y436000D02*
D03*
X1216000Y449000D02*
D03*
X1194000D02*
D03*
X1171000Y395000D02*
D03*
X844875Y286625D02*
D03*
X393500Y110250D02*
D03*
X1179000Y651000D02*
D03*
X1095000Y143750D02*
D03*
X334750Y287000D02*
D03*
X842814Y326250D02*
D03*
X664250Y235000D02*
D03*
X720250Y419000D02*
D03*
X729500Y349750D02*
D03*
X1146250Y661750D02*
D03*
X1210750Y838500D02*
D03*
X1155250Y858250D02*
D03*
X1252500Y608250D02*
D03*
X1197250Y966750D02*
D03*
X1178750Y608000D02*
D03*
X1248500Y558750D02*
D03*
X1216000Y522516D02*
D03*
X1248250Y583000D02*
D03*
X843750Y219000D02*
D03*
X962500Y424750D02*
D03*
X398500Y239000D02*
D03*
X516000Y354250D02*
D03*
D128*
X868000Y216000D02*
D03*
X980500Y219250D02*
D03*
X1032750Y219750D02*
D03*
D129*
X1005000Y780000D02*
D03*
X411750Y512750D02*
D03*
X295000Y305750D02*
D03*
X948750Y624000D02*
D03*
X409000Y603250D02*
D03*
X468000Y462250D02*
D03*
X228500Y427750D02*
D03*
X320548Y302006D02*
D03*
X411250Y436000D02*
D03*
X239500Y439250D02*
D03*
D130*
X367500Y262500D02*
D03*
X375037D02*
D03*
X360000D02*
D03*
D131*
X957375Y306375D02*
D03*
M02*
