G04*
G04 #@! TF.GenerationSoftware,Altium Limited,Altium Designer,21.8.1 (53)*
G04*
G04 Layer_Physical_Order=2*
G04 Layer_Color=16711680*
%FSLAX44Y44*%
%MOMM*%
G71*
G04*
G04 #@! TF.SameCoordinates,DC6FBC13-50ED-4B09-903C-A93FE52865D5*
G04*
G04*
G04 #@! TF.FilePolarity,Positive*
G04*
G01*
G75*
%ADD10C,0.2500*%
%ADD11C,0.2000*%
%ADD53C,3.5000*%
%ADD59C,1.6000*%
%ADD60P,1.7318X8X22.5*%
%ADD71C,0.4000*%
G04:AMPARAMS|DCode=101|XSize=0.8mm|YSize=2mm|CornerRadius=0.004mm|HoleSize=0mm|Usage=FLASHONLY|Rotation=90.000|XOffset=0mm|YOffset=0mm|HoleType=Round|Shape=RoundedRectangle|*
%AMROUNDEDRECTD101*
21,1,0.8000,1.9920,0,0,90.0*
21,1,0.7920,2.0000,0,0,90.0*
1,1,0.0080,0.9960,0.3960*
1,1,0.0080,0.9960,-0.3960*
1,1,0.0080,-0.9960,-0.3960*
1,1,0.0080,-0.9960,0.3960*
%
%ADD101ROUNDEDRECTD101*%
%ADD109C,1.0000*%
%ADD110C,0.4000*%
%ADD111C,0.5000*%
%ADD112C,1.5000*%
%ADD113C,0.7500*%
%ADD115C,3.4000*%
%ADD116C,2.0000*%
%ADD117P,2.1648X8X112.5*%
%ADD118C,1.5000*%
%ADD119P,1.6236X8X22.5*%
%ADD120R,2.0000X2.0000*%
%ADD121C,1.8000*%
%ADD122R,2.0000X2.0000*%
%ADD123C,3.0000*%
%ADD124C,1.0000*%
%ADD125C,0.8000*%
%ADD126C,0.6000*%
%ADD127C,1.2700*%
%ADD128C,1.7500*%
%ADD129C,1.2000*%
%ADD130C,0.3000*%
%ADD131C,2.2000*%
%ADD132C,2.0000*%
G36*
X830000Y237186D02*
X823907Y231093D01*
X823189Y230018D01*
X822936Y228750D01*
Y205001D01*
X823189Y203732D01*
X823907Y202658D01*
X824982Y201939D01*
X825318Y201192D01*
X824656Y200000D01*
X770000D01*
Y265000D01*
X830000D01*
Y237186D01*
D02*
G37*
D10*
X873000Y614594D02*
Y615000D01*
X872250Y613844D02*
X873000Y614594D01*
X872250Y613250D02*
Y613844D01*
X791750Y532750D02*
X872250Y613250D01*
X750000Y532750D02*
X791750D01*
X623750Y781000D02*
X652500Y752250D01*
Y729750D02*
Y752250D01*
X466750Y781000D02*
X623750D01*
X613750Y776000D02*
X632000Y757750D01*
Y699000D02*
X669000Y662000D01*
X632000Y699000D02*
Y757750D01*
X762250Y621250D02*
X765250Y624250D01*
X751250Y621250D02*
X762250D01*
X742500Y612500D02*
X751250Y621250D01*
X800750Y627000D02*
Y836000D01*
X761500Y843250D02*
X793500D01*
X800750Y836000D01*
X869500Y816250D02*
X869750Y816000D01*
Y743750D02*
Y816000D01*
X811500Y685500D02*
X869750Y743750D01*
X644500Y588250D02*
X730500D01*
X757500Y615250D01*
X799723Y546420D02*
X820963Y567660D01*
Y568713D01*
X796420Y546420D02*
X799723D01*
X820963Y568713D02*
X821250Y569000D01*
X795750Y545750D02*
X796420Y546420D01*
X784500Y543000D02*
X810750Y569250D01*
X815000D01*
X742500Y537500D02*
X788447D01*
X795750Y544803D01*
Y545750D01*
X732500Y543000D02*
X784500D01*
X875250Y658250D02*
Y658464D01*
X837750Y861500D02*
X877250Y822000D01*
X875250Y658464D02*
X877250Y660464D01*
Y822000D01*
X822500Y668750D02*
X848250Y694500D01*
X863000D01*
X907750Y818750D02*
X1007078D01*
X1008328Y820000D01*
X1107250D01*
X1120400Y806850D01*
X681250Y673000D02*
X691500Y683250D01*
X681250Y666000D02*
Y673000D01*
X663750Y630750D02*
Y653500D01*
X584893Y552393D02*
X585393D01*
X506250Y473750D02*
X584893Y552393D01*
X585393D02*
X663750Y630750D01*
X701000Y658500D02*
X709500Y650000D01*
X716750D01*
X693250Y622500D02*
X705000Y610750D01*
X693250Y622500D02*
Y666500D01*
X687750Y620500D02*
X702250Y606000D01*
X710250D02*
X719250Y615000D01*
X702250Y606000D02*
X710250D01*
X876500Y544250D02*
X929500D01*
X876250Y544000D02*
X876500Y544250D01*
X869250Y538000D02*
X921000D01*
X950250Y508750D01*
X853500Y506750D02*
X942970Y417280D01*
X944720D01*
X1033999Y328001D01*
X825963Y494287D02*
Y494375D01*
X850500Y518912D01*
Y519000D01*
X847500Y525000D02*
X853750D01*
X810500Y488000D02*
X847500Y525000D01*
X765250Y527250D02*
X793000D01*
X853750Y525000D02*
X934750Y444000D01*
X711250Y458500D02*
X735500D01*
X615250Y362500D02*
X711250Y458500D01*
X865000Y615000D02*
X869250Y619250D01*
Y628750D01*
X1033999Y266750D02*
Y328001D01*
X1018500Y251250D02*
X1033999Y266750D01*
X925000Y275000D02*
X925250D01*
X941000Y290750D02*
X941250D01*
X925250Y275000D02*
X941000Y290750D01*
X879500Y553250D02*
X936250D01*
X955500Y534000D01*
X541000Y652000D02*
X541125Y651875D01*
Y616375D02*
X541250Y616250D01*
X541125Y616375D02*
Y651875D01*
X975750Y485250D02*
X996750Y464250D01*
X920250Y526000D02*
X961000Y485250D01*
X975750D01*
X996750Y464250D02*
X1108000D01*
X934750Y444000D02*
X956000D01*
X929500Y544250D02*
X951750Y522000D01*
Y521750D02*
Y522000D01*
X571453Y652297D02*
X571656Y652500D01*
X571250Y616250D02*
X571453Y616453D01*
Y652297D01*
X408250Y453250D02*
X408313Y453313D01*
X488062D01*
X488125Y453375D01*
X362250Y296000D02*
X397500Y331250D01*
X1015000Y717500D02*
X1043250Y745750D01*
X1043500D01*
X1107300Y666750D02*
X1120400Y679850D01*
X1069000Y666750D02*
X1107300D01*
X737500Y681250D02*
X761394Y657356D01*
X761893D02*
X785500Y633750D01*
X761394Y657356D02*
X761893D01*
X732807Y684807D02*
X736250Y688250D01*
X730000Y681656D02*
X732807Y684463D01*
X730000Y681250D02*
Y681656D01*
X732807Y684463D02*
Y684807D01*
X652500Y729750D02*
X732000Y650250D01*
X687750Y669750D02*
X696250Y678250D01*
X712911Y694161D02*
X734250Y715500D01*
X674000Y731000D02*
X710839Y694161D01*
X712911D01*
X672750Y724500D02*
X709589Y687661D01*
X712661D01*
X556312Y652438D02*
X556375Y652375D01*
Y616375D02*
Y652375D01*
X502125Y436125D02*
X502250Y436250D01*
X547250D01*
X795000Y570250D02*
X813000Y588250D01*
X832250D01*
X847500Y595250D02*
Y616750D01*
X831000Y578750D02*
X847500Y595250D01*
X701750Y570500D02*
X778500D01*
X691500Y560250D02*
X701750Y570500D01*
X791250Y604500D02*
X791500D01*
X784750Y598000D02*
X791250Y604500D01*
X757500Y598000D02*
X784750D01*
X835625Y628500D02*
X835750D01*
X828625Y628875D02*
X835250D01*
X835625Y628500D01*
X806000Y629625D02*
Y678250D01*
Y629625D02*
X812188Y623438D01*
X747000Y643094D02*
Y643500D01*
Y643094D02*
X750840Y639254D01*
Y638660D02*
Y639254D01*
X771312Y679812D02*
X771375Y679875D01*
X758750Y680000D02*
X759037Y679713D01*
X771312Y668063D02*
Y679812D01*
X759537Y679713D02*
X771250Y668000D01*
X759037Y679713D02*
X759537D01*
X771250Y668000D02*
X771312Y668063D01*
X829500Y642500D02*
X847250D01*
X831406Y664500D02*
X851000D01*
X861250Y674750D01*
X811500Y634250D02*
Y685500D01*
X736250Y688250D02*
X790750D01*
X796000Y683000D01*
X745000Y665000D02*
X777787Y632213D01*
Y625287D02*
Y632213D01*
X785500Y621250D02*
Y633750D01*
X719250Y682500D02*
X740000Y703250D01*
X707500Y682500D02*
X719250D01*
X673500Y716500D02*
X707500Y682500D01*
X838107Y701607D02*
X858000Y721500D01*
X836607Y701607D02*
X838107D01*
X817000Y682000D02*
X836607Y701607D01*
X383547Y836703D02*
X444249Y776000D01*
X613750D01*
X398122Y849629D02*
X466750Y781000D01*
X378000Y289000D02*
X435250Y346250D01*
Y346250D01*
X380250Y282500D02*
X412024Y314273D01*
X413023D01*
X445000Y346250D01*
X826250Y228750D02*
X848750Y251250D01*
X826250Y205001D02*
Y228750D01*
X848750Y251250D02*
X1018500D01*
X675000Y637500D02*
Y646679D01*
X677500Y649179D01*
Y656869D01*
X675000Y659369D02*
X677500Y656869D01*
X675000Y659369D02*
Y677500D01*
X732750Y581000D02*
X752500D01*
X764500Y593000D01*
X822500Y657500D02*
X822750Y657250D01*
X822500Y657500D02*
Y668750D01*
X829750Y663250D02*
X830156D01*
X831406Y664500D01*
X687750Y620500D02*
Y669750D01*
X732000Y650250D02*
X751750D01*
X732500Y548750D02*
X783750D01*
X795000Y560000D01*
X846750Y651250D02*
X869250Y628750D01*
X830000Y651250D02*
X846750D01*
X847250Y642500D02*
X863715Y626035D01*
X835750Y628500D02*
X847500Y616750D01*
X828750Y609500D02*
Y621250D01*
X828750Y621250D02*
X828750Y621250D01*
X786250Y660000D02*
Y680000D01*
Y660000D02*
X795000Y651250D01*
X778750Y658750D02*
X786250Y651250D01*
X778750Y658750D02*
Y680000D01*
X777500Y625000D02*
X777787Y625287D01*
X777844Y605000D02*
X791750Y618906D01*
X777500Y605000D02*
X777844D01*
X791750Y618906D02*
Y638250D01*
X757250Y607500D02*
X762000Y602750D01*
X767000D01*
X800750Y599750D02*
Y609422D01*
X797000Y613172D02*
Y623250D01*
Y613172D02*
X800750Y609422D01*
X863715Y621715D02*
Y626035D01*
X857250Y615250D02*
X863715Y621715D01*
X1069500Y718000D02*
X1127500D01*
X1015250Y663750D02*
X1069500Y718000D01*
X1063150Y730650D02*
X1095000D01*
X1015000Y682500D02*
X1063150Y730650D01*
X1043550Y756050D02*
X1095000D01*
X1015000Y727500D02*
X1043550Y756050D01*
X1015000Y700000D02*
Y700250D01*
X1058000Y743250D01*
X1064000D01*
X750000Y680000D02*
X791750Y638250D01*
X811500Y634250D02*
X811750Y634000D01*
X817000Y609000D02*
Y682000D01*
X775750Y574750D02*
X800750Y599750D01*
X646771Y694250D02*
X680750D01*
X643271Y697750D02*
X646771Y694250D01*
X686000Y688500D02*
X686250D01*
X675000Y677500D02*
X686000Y688500D01*
X548750Y621250D02*
Y655250D01*
X563750Y621250D02*
Y655000D01*
X712661Y687661D02*
X734500Y709500D01*
X718750Y581500D02*
X725500Y574750D01*
X775750D01*
X718750Y593500D02*
Y605750D01*
X734250Y715500D02*
X751000D01*
X756000Y710500D01*
X734500Y709500D02*
X746750D01*
X699500Y712500D02*
X716750Y729750D01*
X762750D01*
X704750Y707250D02*
X722250Y724750D01*
X757500D01*
X710000Y702000D02*
X728750Y720750D01*
X753500D01*
X751750Y650250D02*
X770500Y631500D01*
X764000Y710250D02*
X780750D01*
X753500Y720750D02*
X764000Y710250D01*
X757500Y724750D02*
X766500Y715750D01*
X762750Y729750D02*
X771750Y720750D01*
X559787Y486713D02*
X570963D01*
X618750Y534500D01*
X669000Y618500D02*
Y662000D01*
Y618500D02*
X692000Y595500D01*
X353500Y297250D02*
X644500Y588250D01*
X699250Y627500D02*
X757500D01*
X750840Y638660D02*
X754393Y635107D01*
X383547Y836703D02*
Y836703D01*
X727250Y557000D02*
X784000D01*
X699106Y528856D02*
X727250Y557000D01*
X699106Y454607D02*
Y528856D01*
X714750Y561750D02*
X781000D01*
X624563Y471563D02*
X714750Y561750D01*
X624563Y433313D02*
Y471563D01*
X581750Y390500D02*
X624563Y433313D01*
X784000Y557000D02*
X790000Y563000D01*
X781000Y561750D02*
X828750Y609500D01*
X778500Y570500D02*
X817000Y609000D01*
X795000Y560000D02*
Y570250D01*
X767000Y602750D02*
X785500Y621250D01*
X800750Y627000D02*
X811000Y616750D01*
Y610250D02*
Y616750D01*
X770500Y614000D02*
Y631500D01*
X754393Y635107D02*
X758894D01*
X765250Y628750D01*
Y624250D02*
Y628750D01*
X766500Y610000D02*
X770500Y614000D01*
X570500Y390500D02*
X581750D01*
X607750Y363250D02*
X699106Y454607D01*
X547250Y436250D02*
X578750Y404750D01*
Y397500D02*
Y404750D01*
X362250Y288750D02*
Y296000D01*
X1108000Y464250D02*
X1120400Y476650D01*
X1127500Y718000D02*
X1134500Y725000D01*
Y741950D01*
X1120400Y756050D02*
X1134500Y741950D01*
X419000Y351500D02*
X430750Y363250D01*
X370000Y292625D02*
X419000Y341625D01*
Y351500D01*
X430750Y363250D02*
X607750D01*
X370000Y292500D02*
Y292625D01*
X297300Y922950D02*
X383547Y836703D01*
X396122Y849629D02*
X398122D01*
X322700Y923050D02*
X396122Y849629D01*
X322700Y923050D02*
Y957250D01*
X297300Y922950D02*
Y957250D01*
X353500Y286500D02*
Y297250D01*
Y286500D02*
X358000Y282000D01*
D11*
X826250Y205001D02*
X828501Y202750D01*
X884250D01*
X665000Y520750D02*
X710250Y566000D01*
X779500D01*
X822250Y608750D01*
X844102Y637250D02*
X856250Y625102D01*
X826750Y637250D02*
X844102D01*
X822250Y632750D02*
X826750Y637250D01*
X822250Y608750D02*
Y632750D01*
D53*
X720250Y886500D02*
D03*
X508250D02*
D03*
D59*
X1042500Y115000D02*
D03*
X1017500D02*
D03*
X1067500D02*
D03*
X525000Y199500D02*
D03*
Y275500D02*
D03*
D60*
X992500Y115000D02*
D03*
D71*
X873000Y615000D02*
D03*
X821000Y555000D02*
D03*
X742500Y612500D02*
D03*
X821250Y569000D02*
D03*
X899500Y741500D02*
D03*
X907750Y818750D02*
D03*
X875250Y658250D02*
D03*
X884250Y202750D02*
D03*
X681250Y666000D02*
D03*
X663750Y653500D02*
D03*
X701000Y658500D02*
D03*
X705000Y610750D02*
D03*
X810500Y488000D02*
D03*
X825963Y494287D02*
D03*
X793000Y527250D02*
D03*
X765250D02*
D03*
X750000Y532750D02*
D03*
X742500Y537500D02*
D03*
X732500Y543000D02*
D03*
X735500Y458500D02*
D03*
X865000Y615000D02*
D03*
X941250Y290750D02*
D03*
X925000Y275000D02*
D03*
X956000Y444000D02*
D03*
X1166000Y446000D02*
D03*
X825000Y250000D02*
D03*
X815000D02*
D03*
X785000D02*
D03*
X775000D02*
D03*
X815000Y210000D02*
D03*
X785000D02*
D03*
X825000Y240000D02*
D03*
X775000Y210000D02*
D03*
Y220000D02*
D03*
Y230000D02*
D03*
Y240000D02*
D03*
X785000Y260000D02*
D03*
X775000D02*
D03*
X825000D02*
D03*
X815000D02*
D03*
X951750Y521750D02*
D03*
X955500Y534000D02*
D03*
X506250Y473750D02*
D03*
X408250Y453250D02*
D03*
X397500Y331250D02*
D03*
X578750Y397500D02*
D03*
X570500Y390500D02*
D03*
X1064000Y743250D02*
D03*
X737500Y681250D02*
D03*
X730000D02*
D03*
X696250Y678250D02*
D03*
X710000Y702000D02*
D03*
X704750Y707250D02*
D03*
X699500Y712500D02*
D03*
X674000Y731000D02*
D03*
X672750Y724500D02*
D03*
X616500Y617000D02*
D03*
X502125Y436125D02*
D03*
X488125Y453375D02*
D03*
X559787Y486713D02*
D03*
X950250Y508750D02*
D03*
X920250Y526000D02*
D03*
X832250Y588250D02*
D03*
X831000Y578750D02*
D03*
X815000Y569250D02*
D03*
X790000Y563000D02*
D03*
X732500Y548750D02*
D03*
X691500Y560250D02*
D03*
X699250Y627500D02*
D03*
X692000Y595500D02*
D03*
X719250Y615000D02*
D03*
X718750Y605750D02*
D03*
Y593500D02*
D03*
Y581500D02*
D03*
X732750Y581000D02*
D03*
X757500Y615250D02*
D03*
X757250Y607500D02*
D03*
X757500Y598000D02*
D03*
X751000Y593500D02*
D03*
X764500Y593000D02*
D03*
X766500Y610000D02*
D03*
X777500Y605000D02*
D03*
X791500Y604500D02*
D03*
X811000Y610250D02*
D03*
X828750Y621250D02*
D03*
X828625Y628875D02*
D03*
X812188Y623438D02*
D03*
X797000Y623250D02*
D03*
X777500Y625000D02*
D03*
X757500Y627500D02*
D03*
X747000Y643500D02*
D03*
X771250Y668000D02*
D03*
X829500Y642500D02*
D03*
X811750Y634000D02*
D03*
X786250Y651250D02*
D03*
X795000D02*
D03*
X830000D02*
D03*
X829750Y663250D02*
D03*
X822750Y657250D02*
D03*
X806000Y678250D02*
D03*
X740000Y703250D02*
D03*
X746750Y709500D02*
D03*
X756000Y710500D02*
D03*
X766500Y715750D02*
D03*
X771750Y720750D02*
D03*
X780750Y710250D02*
D03*
X796000Y683000D02*
D03*
X786250Y680000D02*
D03*
X778750D02*
D03*
X771375Y679875D02*
D03*
X758750Y680000D02*
D03*
X750000D02*
D03*
X745000Y665000D02*
D03*
X673500Y716500D02*
D03*
X906250Y753750D02*
D03*
X858000Y721500D02*
D03*
X358000Y282000D02*
D03*
X362250Y288750D02*
D03*
X370000Y292500D02*
D03*
X378000Y289000D02*
D03*
X380250Y282500D02*
D03*
X435250Y346250D02*
D03*
X445000Y346250D02*
D03*
X680750Y694250D02*
D03*
X686250Y688500D02*
D03*
X691500Y683250D02*
D03*
X716750Y650000D02*
D03*
X693250Y666500D02*
D03*
X649750Y658750D02*
D03*
X675000Y637500D02*
D03*
X857250Y615250D02*
D03*
X665000Y520750D02*
D03*
X615250Y362500D02*
D03*
X856250Y625102D02*
D03*
X1250442Y594360D02*
D03*
X1133856Y534670D02*
D03*
X586486Y370332D02*
D03*
X761500Y843250D02*
D03*
D101*
X367500Y262500D02*
D03*
D109*
X595647Y723853D02*
X619750Y699750D01*
X595647Y723853D02*
Y726853D01*
X572500Y750000D02*
X595647Y726853D01*
X675750Y770500D02*
X730750D01*
X789000Y828750D01*
X936750Y262500D02*
X979044D01*
X850733D02*
X936750D01*
X897500Y807500D02*
X897825Y807175D01*
X1094675D01*
X1095000Y806850D01*
X388000Y720250D02*
X417750Y750000D01*
X572500D01*
X789250Y181769D02*
X855000Y116019D01*
Y115000D02*
Y116019D01*
X789250Y181769D02*
Y182500D01*
X843750Y219000D02*
X860250Y235500D01*
X964250D02*
X980500Y219250D01*
X860250Y235500D02*
X964250D01*
X844875Y268358D02*
X850733Y262500D01*
X844875Y268358D02*
Y286625D01*
X979044Y262500D02*
X980897Y264353D01*
X982250D01*
X980500Y219250D02*
X980750Y219500D01*
X1158250Y876000D02*
X1177250Y857000D01*
X1153000Y876000D02*
X1158250D01*
X1193250Y489240D02*
X1194000Y488490D01*
Y449000D02*
Y488490D01*
X1193250Y489240D02*
Y528000D01*
X342250Y190000D02*
Y222950D01*
Y190000D02*
X372250Y160000D01*
X393500Y110250D02*
Y233269D01*
X398500Y238269D01*
Y239000D01*
X370250Y410250D02*
X433147D01*
X240700Y539800D02*
X370250Y410250D01*
X80000Y539800D02*
X240700D01*
X298500Y457250D02*
X363750Y392000D01*
X412000D01*
X433147Y410250D02*
X441397Y402000D01*
X442750D01*
X1177250Y719938D02*
Y857000D01*
X1032500Y219500D02*
X1032750Y219750D01*
X980750Y219500D02*
X1032500D01*
X409000Y603250D02*
Y603750D01*
X176750Y836000D02*
X409000Y603750D01*
X66608Y836000D02*
X176750D01*
X60750Y600000D02*
Y830142D01*
X66608Y836000D01*
X60750Y600000D02*
X68620Y592130D01*
X78469D02*
X80000Y590600D01*
X68620Y592130D02*
X78469D01*
X396000Y563000D02*
X464750D01*
X465000Y563250D01*
X163000Y767500D02*
X392250Y538250D01*
X462094D01*
X194000Y631500D02*
X363250Y462250D01*
X468000D01*
X399750Y586750D02*
X599250D01*
X609750Y597250D01*
X269500Y717000D02*
X351500Y635000D01*
X269500Y717000D02*
Y717250D01*
X145000Y457250D02*
X298500D01*
X354000Y632500D02*
X399750Y586750D01*
X1162250Y704937D02*
X1177250Y719938D01*
X365750Y720250D02*
X388000D01*
X303750Y763000D02*
X606966D01*
X97000Y613000D02*
X115500Y631500D01*
X97000Y579250D02*
Y613000D01*
X86950Y569200D02*
X97000Y579250D01*
X115500Y631500D02*
X194000D01*
X113251Y489000D02*
X145000Y457250D01*
X80000Y565200D02*
X82164D01*
X86164Y569200D02*
X86950D01*
X82164Y565200D02*
X86164Y569200D01*
X80000Y489000D02*
X113251D01*
X80899Y767500D02*
X163000D01*
X80000Y768400D02*
X80899Y767500D01*
X216750Y742250D02*
X396000Y563000D01*
X239500Y439250D02*
X334750Y344000D01*
Y287000D02*
Y344000D01*
X755500Y326250D02*
X842814D01*
X664250Y235000D02*
X755500Y326250D01*
X720250Y419000D02*
X729500Y409750D01*
Y349750D02*
Y409750D01*
X1144500Y694600D02*
X1146250Y692850D01*
Y661750D02*
Y692850D01*
X1144500Y694600D02*
Y846769D01*
X1155250Y857519D01*
X1281250Y609000D02*
Y795858D01*
X1210750Y838500D02*
Y866358D01*
X1281250Y795858D01*
X1210750Y866358D02*
Y953250D01*
X1162250Y648750D02*
Y704937D01*
X1140500Y627000D02*
X1162250Y648750D01*
X1140500Y598350D02*
Y627000D01*
X1120400Y578250D02*
X1140500Y598350D01*
X1155250Y857519D02*
Y858250D01*
X1197250Y966750D02*
X1210750Y953250D01*
X1193250Y528000D02*
X1248250Y583000D01*
X302500Y262700D02*
X342250Y222950D01*
D110*
X882750Y616750D02*
Y847750D01*
X821000Y555000D02*
X882750Y616750D01*
Y847750D02*
X917000Y882000D01*
X899500Y598500D02*
X908250Y589750D01*
X899500Y598500D02*
Y741500D01*
X905343Y752843D02*
X906250Y753750D01*
X905343Y601907D02*
X909750Y597500D01*
X905343Y601907D02*
Y752843D01*
X917000Y882000D02*
X1122750D01*
X1187250Y946499D01*
Y946500D01*
X909750Y597500D02*
X956000D01*
X908250Y589750D02*
X955750D01*
D111*
X892250Y616897D02*
Y768750D01*
X805353Y530000D02*
X892250Y616897D01*
X804000Y530000D02*
X805353D01*
X570500Y728500D02*
X630750Y668250D01*
X557406Y728500D02*
X570500D01*
X554906Y726000D02*
X557406Y728500D01*
X511500Y619750D02*
Y643136D01*
X503000Y651636D02*
X511500Y643136D01*
X712932Y916432D02*
X872818D01*
X884250Y905000D01*
X644000Y847500D02*
X712932Y916432D01*
X895250Y791250D02*
X1082466D01*
X1092266Y781450D01*
X1095103Y527347D02*
X1120400Y552644D01*
X915000Y747500D02*
X948750Y713750D01*
Y624000D02*
Y713750D01*
X733997Y424371D02*
Y429247D01*
X865836Y561086D02*
X1030643D01*
X733997Y429247D02*
X865836Y561086D01*
X864202Y568452D02*
X1040384D01*
X713072Y429100D02*
X724850D01*
X864202Y568452D01*
X863334Y576834D02*
X1045166D01*
X723750Y437250D02*
X863334Y576834D01*
X701918Y437250D02*
X723750D01*
X466375Y445375D02*
X466500Y445500D01*
X423250Y445250D02*
X423375Y445375D01*
X466375D01*
X546463Y523963D02*
X581750Y559250D01*
X511750Y488250D02*
X546463Y522963D01*
Y523963D01*
X480500Y436000D02*
X586500Y542000D01*
X411250Y436000D02*
X480500D01*
X543000Y726000D02*
X554906D01*
X476750Y926750D02*
X522750D01*
X590000Y859500D01*
X467000Y935000D02*
X531250D01*
X594500Y871750D01*
X485250Y942750D02*
X539750D01*
X598750Y883750D01*
X562125Y159625D02*
X804000Y401500D01*
X845309Y531559D02*
X848059D01*
X804000Y483000D02*
Y490250D01*
X845309Y531559D01*
X848059D02*
X848250Y531750D01*
X733806Y424180D02*
X733997Y424371D01*
X1224000Y979000D02*
X1238000Y965000D01*
X1071000Y979000D02*
X1224000D01*
X1030250Y938250D02*
X1071000Y979000D01*
X1002000Y634000D02*
Y704553D01*
X1005000Y707553D01*
Y780000D01*
X1002000Y634000D02*
X1057750Y578250D01*
X1095000D01*
X1037729Y554000D02*
X1038000D01*
X1030643Y561086D02*
X1037729Y554000D01*
X1045166Y576834D02*
X1066800Y555200D01*
Y504850D02*
Y555200D01*
X680000Y938250D02*
X1030250D01*
X1166000Y446000D02*
Y456450D01*
X1120400Y502050D02*
X1166000Y456450D01*
X1020114Y908000D02*
X1058000D01*
X690000Y930500D02*
X1031500D01*
X1043000Y919000D02*
Y919000D01*
X1031500Y930500D02*
X1043000Y919000D01*
X914698Y893000D02*
X1061000D01*
X912699Y895000D02*
X914698Y893000D01*
X1004614Y923500D02*
X1020114Y908000D01*
X762750Y895000D02*
X912699D01*
X668500Y800750D02*
X762750Y895000D01*
X844742Y75500D02*
X1078038D01*
X793750Y126492D02*
X844742Y75500D01*
X1078038D02*
X1220216Y217678D01*
X575250Y662500D02*
X594500Y643250D01*
X594656D01*
X411500Y488250D02*
X411500Y488250D01*
X511750D01*
X452750Y525250D02*
X465250Y512750D01*
X399500Y525250D02*
X452750D01*
X411750Y512750D02*
X412001Y513000D01*
X446750D01*
X295000Y305000D02*
X325749Y274251D01*
X295000Y305000D02*
Y305750D01*
X468250Y400684D02*
X486918Y382016D01*
X630750Y469000D02*
X716750Y555000D01*
X630750Y396250D02*
Y469000D01*
X1092266Y781450D02*
X1095000D01*
X643000Y697750D02*
Y747229D01*
X640750Y749479D02*
Y749750D01*
Y749479D02*
X643000Y747229D01*
X514750Y687500D02*
X587500D01*
X616250Y658750D02*
X649750D01*
X587500Y687500D02*
X616250Y658750D01*
X462250Y608500D02*
X462250Y608500D01*
X585500D01*
X434050Y636700D02*
X463296Y665946D01*
X408500Y638488D02*
X447238Y599750D01*
X408500Y638488D02*
Y641750D01*
X499500Y497750D02*
X558750Y557000D01*
Y557250D01*
X621500Y895000D02*
X672750Y946250D01*
X872250D01*
X625500Y883750D02*
X680000Y938250D01*
X557500Y800750D02*
X668500D01*
X456250Y902000D02*
X557500Y800750D01*
X465500Y978000D02*
X494250Y949250D01*
X548250D02*
X602500Y895000D01*
X494250Y949250D02*
X548250D01*
X261500Y978000D02*
X465500D01*
X602500Y895000D02*
X621500D01*
X598750Y883750D02*
X625500D01*
X636750Y859500D02*
X700750Y923500D01*
X590000Y859500D02*
X636750D01*
X585000Y847500D02*
X644000D01*
X516068Y916432D02*
X585000Y847500D01*
X631250Y871750D02*
X690000Y930500D01*
X594500Y871750D02*
X631250D01*
X700750Y923500D02*
X1004614D01*
X457962Y916432D02*
X516068D01*
X917250Y866500D02*
X924256Y873506D01*
X1125728D01*
X60500Y856000D02*
X90187Y885687D01*
X60500Y856000D02*
Y856000D01*
X325749Y251825D02*
Y274251D01*
X320500Y302054D02*
X320548Y302006D01*
X169187Y885687D02*
X261500Y978000D01*
X669250Y788250D02*
X742500Y861500D01*
X837750D01*
X534500Y788250D02*
X669250D01*
X424300Y916450D02*
Y957250D01*
Y916450D02*
X504500Y836250D01*
X447238Y599750D02*
X473000D01*
X643000Y697750D02*
X643271D01*
X1095103Y527347D02*
X1095103D01*
X462000Y497750D02*
X499500D01*
X446750Y513000D02*
X462000Y497750D01*
X656750Y632250D02*
Y662250D01*
X641500Y617000D02*
X656750Y632250D01*
X616500Y617000D02*
X641500D01*
X514750Y662500D02*
X575250D01*
X650750Y668250D02*
X656750Y662250D01*
X630750Y668250D02*
X650750D01*
X589788Y325120D02*
X701918Y437250D01*
X90187Y885687D02*
X169187D01*
X1125728Y873506D02*
X1133348Y865886D01*
Y845198D02*
Y865886D01*
X1120400Y832250D02*
X1133348Y845198D01*
X463296Y665946D02*
Y712470D01*
X438150Y737616D02*
X463296Y712470D01*
X1213612Y594360D02*
X1250442D01*
X1153922Y534670D02*
X1213612Y594360D01*
X1133856Y534670D02*
X1153922D01*
X325749Y251825D02*
X332210Y245364D01*
X388366D01*
X419608Y276606D01*
X448818D01*
X466598Y258826D01*
X542798D01*
X713072Y429100D01*
X1040384Y568452D02*
X1055116Y553720D01*
Y502050D02*
Y553720D01*
X486918Y382016D02*
X574802D01*
X586486Y370332D01*
X506222Y221234D02*
X531876Y246888D01*
X506222Y107696D02*
Y221234D01*
Y107696D02*
X512064Y101854D01*
X561086D01*
X585724Y126492D01*
X793750D01*
X1095000Y552850D02*
X1120400Y578250D01*
X485648Y325120D02*
X589788D01*
X1066800Y504850D02*
X1095000Y476650D01*
X804000Y401500D02*
Y481250D01*
X434050Y636700D02*
X462250Y608500D01*
X433250Y636700D02*
X434050D01*
X503000Y651636D02*
Y675750D01*
X514750Y687500D01*
X398900Y923850D02*
X534500Y788250D01*
X348100Y923400D02*
Y957250D01*
Y923400D02*
X472250Y799250D01*
X484250Y812750D02*
X484750D01*
X373500Y923500D02*
X484250Y812750D01*
X373500Y923500D02*
Y957250D01*
X398900Y923850D02*
Y957250D01*
D112*
X868000Y216000D02*
X913577D01*
X922364Y143386D02*
Y207213D01*
X913577Y216000D02*
X922364Y207213D01*
Y143386D02*
X976250Y89500D01*
X1216000Y449000D02*
X1216000Y449000D01*
Y522516D01*
X976250Y89500D02*
X1071250D01*
X1095000Y113250D01*
Y143750D01*
X753500Y288500D02*
X771375Y306375D01*
X957375D01*
X753500Y251000D02*
Y288500D01*
X1157750Y614500D02*
X1170750Y627500D01*
X1120400Y552850D02*
X1148963D01*
X1157750Y561637D01*
Y614500D01*
X1243000Y522750D02*
X1281250Y561000D01*
X1262750Y627500D02*
X1281250Y609000D01*
Y561000D02*
Y609000D01*
X1216235Y522750D02*
X1243000D01*
X1170750Y627500D02*
X1262750D01*
X1216000Y522516D02*
X1216235Y522750D01*
D113*
X892000Y523000D02*
X949000Y466000D01*
X964000D02*
X1004000Y426000D01*
X949000Y466000D02*
X964000D01*
X959000Y454000D02*
X1163500Y249500D01*
X944000Y454000D02*
X959000D01*
X875000Y523000D02*
X944000Y454000D01*
X320500Y302054D02*
X320548Y302101D01*
X955750Y477500D02*
X969500D01*
X1011000Y436000D02*
X1293000D01*
X969500Y477500D02*
X1011000Y436000D01*
X1163500Y193750D02*
Y249500D01*
X1004000Y426000D02*
X1140000D01*
X1171000Y395000D01*
X1187250Y946500D02*
Y955500D01*
X1179650Y650350D02*
X1200350D01*
X1179000Y651000D02*
X1179650Y650350D01*
X1200350D02*
X1250000Y700000D01*
X194596Y479199D02*
X194750Y479353D01*
X194596Y478981D02*
X194663Y478913D01*
X194596Y478981D02*
Y479199D01*
X194750Y479353D02*
Y523500D01*
X228500Y427750D02*
X320548Y335702D01*
Y302101D02*
Y335702D01*
X1083500Y213500D02*
Y303750D01*
X1017500Y115000D02*
Y147500D01*
X1083500Y213500D01*
X910000Y523250D02*
X955750Y477500D01*
X388750Y262500D02*
X480500Y354250D01*
X516000D01*
X375037Y262500D02*
X388750D01*
X1178750Y608000D02*
X1178875Y608125D01*
X1252375D01*
X1252500Y608250D01*
X1262750Y573000D02*
Y596593D01*
X1252500Y606843D02*
X1262750Y596593D01*
X1252500Y606843D02*
Y608250D01*
X1248500Y558750D02*
X1262750Y573000D01*
X962500Y424750D02*
X1083500Y303750D01*
D115*
X175000Y940000D02*
D03*
X1272000Y48000D02*
D03*
Y940000D02*
D03*
X420000Y48000D02*
D03*
D116*
X1250000Y750000D02*
D03*
Y700000D02*
D03*
X435000Y262700D02*
D03*
X302500Y237300D02*
D03*
X449700Y957250D02*
D03*
X398900D02*
D03*
X322700D02*
D03*
X297300D02*
D03*
X348100D02*
D03*
X373500D02*
D03*
X424300D02*
D03*
X269500Y717250D02*
D03*
X303750Y763000D02*
D03*
X216750Y742250D02*
D03*
D117*
X1250000Y650000D02*
D03*
D118*
X1225000Y115000D02*
D03*
X1200000D02*
D03*
X880000D02*
D03*
X855000D02*
D03*
X355000D02*
D03*
X542500D02*
D03*
X619750Y699750D02*
D03*
X789000Y828750D02*
D03*
X897500Y807500D02*
D03*
X372250Y160000D02*
D03*
X753500Y251000D02*
D03*
X412000Y392000D02*
D03*
X442750Y402000D02*
D03*
X465000Y563250D02*
D03*
X462094Y538250D02*
D03*
X982250Y264353D02*
D03*
X351500Y635000D02*
D03*
X365750Y720250D02*
D03*
X675750Y770500D02*
D03*
X606966Y763000D02*
D03*
X194500Y478750D02*
D03*
X194750Y523500D02*
D03*
X514750Y662500D02*
D03*
Y687500D02*
D03*
X1163500Y193750D02*
D03*
D119*
X1175000Y115000D02*
D03*
X830000D02*
D03*
X330000D02*
D03*
X517500D02*
D03*
D120*
X435000Y237300D02*
D03*
X302500Y262700D02*
D03*
D121*
X433250Y712900D02*
D03*
Y687500D02*
D03*
Y662100D02*
D03*
Y636700D02*
D03*
X80000Y819200D02*
D03*
Y793800D02*
D03*
Y768400D02*
D03*
Y743000D02*
D03*
Y717600D02*
D03*
Y692200D02*
D03*
Y666800D02*
D03*
Y641400D02*
D03*
Y616000D02*
D03*
Y590600D02*
D03*
Y565200D02*
D03*
Y539800D02*
D03*
Y514400D02*
D03*
Y489000D02*
D03*
X1095000Y857650D02*
D03*
X1120400D02*
D03*
X1095000Y832250D02*
D03*
X1120400D02*
D03*
X1095000Y806850D02*
D03*
X1120400D02*
D03*
Y451250D02*
D03*
X1095000D02*
D03*
Y476650D02*
D03*
X1120400D02*
D03*
X1095000Y502050D02*
D03*
X1120400D02*
D03*
Y527450D02*
D03*
X1095000D02*
D03*
X1120400Y552850D02*
D03*
X1095000D02*
D03*
X1120400Y578250D02*
D03*
X1095000D02*
D03*
X1120400Y603650D02*
D03*
X1095000D02*
D03*
X1120400Y629050D02*
D03*
X1095000D02*
D03*
X1120400Y654450D02*
D03*
X1095000D02*
D03*
X1120400Y679850D02*
D03*
X1095000D02*
D03*
X1120400Y705250D02*
D03*
X1095000D02*
D03*
X1120400Y730650D02*
D03*
X1095000D02*
D03*
X1120400Y756050D02*
D03*
X1095000D02*
D03*
X1120400Y781450D02*
D03*
X1095000D02*
D03*
D122*
X271900Y957250D02*
D03*
D123*
X169000Y581000D02*
D03*
Y510000D02*
D03*
D124*
X511500Y619750D02*
D03*
X892250Y768750D02*
D03*
X804000Y530000D02*
D03*
X466500Y445500D02*
D03*
X543000Y726000D02*
D03*
X892000Y523000D02*
D03*
X875000D02*
D03*
X1153000Y876000D02*
D03*
X1238000Y965000D02*
D03*
X1043000Y919000D02*
D03*
X1061000Y893000D02*
D03*
X411500Y488250D02*
D03*
X468250Y400684D02*
D03*
X485648Y325120D02*
D03*
X640750Y749750D02*
D03*
X465250Y512750D02*
D03*
X910000Y523250D02*
D03*
X884250Y905000D02*
D03*
X917250Y866500D02*
D03*
X60500Y856000D02*
D03*
X438150Y737616D02*
D03*
X531876Y246888D02*
D03*
X1220216Y217678D02*
D03*
D125*
X869500Y816250D02*
D03*
X895250Y791250D02*
D03*
X915000Y747500D02*
D03*
X581750Y559250D02*
D03*
X586500Y542000D02*
D03*
X476750Y926750D02*
D03*
X467000Y935000D02*
D03*
X485250Y942750D02*
D03*
X1058000Y908000D02*
D03*
X423250Y445250D02*
D03*
X399500Y525250D02*
D03*
X630750Y396250D02*
D03*
X408500Y641750D02*
D03*
X558750Y557250D02*
D03*
X618750Y534500D02*
D03*
X456250Y902000D02*
D03*
X457962Y916432D02*
D03*
X504500Y836250D02*
D03*
X473000Y599750D02*
D03*
X472250Y799250D02*
D03*
X484750Y812750D02*
D03*
X1187250Y955500D02*
D03*
D126*
X795750Y545750D02*
D03*
X863000Y694500D02*
D03*
X876250Y544000D02*
D03*
X869250Y538000D02*
D03*
X853500Y506750D02*
D03*
X850500Y519000D02*
D03*
X848250Y531750D02*
D03*
X879500Y553250D02*
D03*
X541000Y652000D02*
D03*
X1038000Y554000D02*
D03*
X594656Y643250D02*
D03*
X563750Y655000D02*
D03*
X571656Y652500D02*
D03*
X556312Y652438D02*
D03*
X548750Y655250D02*
D03*
X1015000Y682500D02*
D03*
X1055116Y502050D02*
D03*
X956000Y597500D02*
D03*
X955750Y589750D02*
D03*
X1043500Y745750D02*
D03*
X1015000Y727500D02*
D03*
Y717500D02*
D03*
Y700000D02*
D03*
X1015250Y663750D02*
D03*
X1069000Y666750D02*
D03*
X837750Y861500D02*
D03*
X585500Y608500D02*
D03*
X571250Y616250D02*
D03*
X563750Y621250D02*
D03*
X556375Y616375D02*
D03*
X548750Y621250D02*
D03*
X541250Y616250D02*
D03*
X733806Y424180D02*
D03*
X716750Y555000D02*
D03*
X861250Y674750D02*
D03*
X872250Y946250D02*
D03*
X643000Y697750D02*
D03*
X609750Y597250D02*
D03*
D127*
X789250Y182500D02*
D03*
X561750Y160000D02*
D03*
X936750Y262500D02*
D03*
X1293000Y436000D02*
D03*
X1216000Y449000D02*
D03*
X1194000D02*
D03*
X1171000Y395000D02*
D03*
X844875Y286625D02*
D03*
X393500Y110250D02*
D03*
X1179000Y651000D02*
D03*
X1095000Y143750D02*
D03*
X334750Y287000D02*
D03*
X842814Y326250D02*
D03*
X664250Y235000D02*
D03*
X720250Y419000D02*
D03*
X729500Y349750D02*
D03*
X1146250Y661750D02*
D03*
X1210750Y838500D02*
D03*
X1155250Y858250D02*
D03*
X1252500Y608250D02*
D03*
X1197250Y966750D02*
D03*
X1178750Y608000D02*
D03*
X1248500Y558750D02*
D03*
X1216000Y522516D02*
D03*
X1248250Y583000D02*
D03*
X843750Y219000D02*
D03*
X962500Y424750D02*
D03*
X398500Y239000D02*
D03*
X516000Y354250D02*
D03*
D128*
X868000Y216000D02*
D03*
X980500Y219250D02*
D03*
X1032750Y219750D02*
D03*
D129*
X1005000Y780000D02*
D03*
X411750Y512750D02*
D03*
X295000Y305750D02*
D03*
X948750Y624000D02*
D03*
X409000Y603250D02*
D03*
X468000Y462250D02*
D03*
X228500Y427750D02*
D03*
X320548Y302006D02*
D03*
X411250Y436000D02*
D03*
X239500Y439250D02*
D03*
D130*
X367500Y262500D02*
D03*
X375037D02*
D03*
X360000D02*
D03*
D131*
X957375Y306375D02*
D03*
D132*
X508250Y886500D02*
X569750Y825000D01*
X658750D02*
X720250Y886500D01*
X569750Y825000D02*
X658750D01*
M02*
