M48
;Layer_Color=9474304
;FILE_FORMAT=4:4
METRIC,LZ
;TYPE=PLATED
T1F00S00C0.2000
T2F00S00C0.3000
T3F00S00C0.4000
T4F00S00C0.5000
T5F00S00C0.5800
T6F00S00C0.6000
T7F00S00C0.7000
T8F00S00C0.7112
T9F00S00C0.7500
T10F00S00C0.8000
T11F00S00C1.0000
T12F00S00C1.1000
T13F00S00C1.2000
T14F00S00C2.5000
T15F00S00C3.0000
;TYPE=NON_PLATED
T16F00S00C3.4000
%
T01
X0036Y002625
X003675
X00375037
X0038025Y002825
X00378Y00289
X0037Y002925
X0036225Y0028875
X00358Y00282
X003975Y0033125
X0043525Y0034625
X00445Y0034625
X00586486Y00370332
X005705Y003905
X0061525Y003625
X00775Y0026
Y0025
X00785
Y0026
X00775Y0024
Y0023
Y0022
Y0021
X00785
X00815
Y0025
Y0026
X00825
Y0025
Y0024
X0088425Y0020275
X00925Y00275
X0094125Y0029075
X01250442Y0059436
X01133856Y0053467
X01166Y00446
X00956Y00444
X0095025Y0050875
X0095175Y0052175
X009555Y00534
X0092025Y00526
X00825963Y00494287
X008105Y00488
X00821Y00555
X0082125Y00569
X00815Y0056925
X00831Y0057875
X0083225Y0058825
X0082875Y0062125
X00828625Y00628875
X008295Y006425
X0083Y0065125
X0082975Y0066325
X0082275Y0065725
X00795Y0065125
X00797Y0062325
X00812188Y00623438
X0081175Y00634
X00811Y0061025
X0085725Y0061525
X00865Y00615
X00873
X0085625Y00625102
X0087525Y0065825
X00858Y007215
X008995Y007415
X0090625Y0075375
X01015Y007275
Y007175
Y007
X0101525Y0066375
X01069Y0066675
X01064Y0074325
X010435Y0074575
X00806Y0067825
X00796Y00683
X0078625Y0068
X0077875
X00771375Y00679875
X0077125Y00668
X0075875Y0068
X0075
X007375Y0068125
X0073
X00745Y00665
X00747Y006435
X007575Y006275
Y0061525
X0075725Y006075
X007575Y00598
X00751Y005935
X007645Y00593
X007665Y0061
X007775Y00605
X007915Y006045
X007775Y00625
X0078625Y0065125
X0078075Y0071025
X0077175Y0072075
X007665Y0071575
X00756Y007105
X0074675Y007095
X0074Y0070325
X0071Y00702
X0070475Y0070725
X006995Y007125
X006735Y007165
X0067275Y007245
X00674Y00731
X0068075Y0069425
X0068625Y006885
X006915Y0068325
X0069625Y0067825
X0069325Y006665
X0068125Y00666
X00701Y006585
X0071675Y0065
X0071925Y00615
X0071875Y0060575
Y005935
Y005815
X0073275Y00581
X007325Y0054875
Y00543
X007425Y005375
X0075Y0053275
X0076525Y0052725
X00793
X0079Y00563
X007425Y006125
X00705Y0061075
X0069925Y006275
X00675Y006375
X0066375Y006535
X0064975Y0065875
X006165Y00617
X00692Y005955
X006915Y0056025
X00665Y0052075
X007355Y004585
X00559787Y00486713
X0050625Y0047375
X00488125Y00453375
X00502125Y00436125
X0040825Y0045325
X0057875Y003975
X007615Y0084325
X0090775Y0081875
T02
X0079575Y0054575
X0084825Y0053175
X008505Y00519
X008535Y0050675
X0086925Y00538
X0087625Y00544
X008795Y0055325
X0095575Y0058975
X00956Y005975
X01038Y00554
X01055116Y0050205
X01015Y006825
X0086125Y0067475
X00863Y006945
X00643Y0069775
X00594656Y0064325
X00571656Y006525
X0056375Y00655
X00556312Y00652438
X0054875Y0065525
X00541Y00652
X0054125Y0061625
X0054875Y0062125
X00556375Y00616375
X0056375Y0062125
X0057125Y0061625
X005855Y006085
X0060975Y0059725
X0071675Y00555
X00733806Y0042418
X0083775Y008615
X0087225Y0094625
T03
X0063075Y0039625
X00915Y007475
X0089525Y0079125
X0061875Y005345
X005865Y00542
X0058175Y0055925
X0055875Y0055725
X00473Y0059975
X004085Y0064175
X003995Y0052525
X0042325Y0044525
X0047225Y0079925
X0048475Y0081275
X005045Y0083625
X0045625Y00902
X00457962Y00916432
X00467Y00935
X0047675Y0092675
X0048525Y0094275
X008695Y0081625
X01058Y00908
T04
X00531876Y00246888
X00485648Y0032512
X01220216Y00217678
X0094875Y00624
X0089225Y0076875
X0064075Y0074975
X00543Y00726
X0043815Y00737616
X005115Y0061975
X0046525Y0051275
X004665Y004455
X0046825Y00400684
X004115Y0048825
X000605Y00856
X0091725Y008665
X0088425Y00905
X01043Y00919
X01061Y00893
X0118725Y009555
X01238Y00965
T05
X00804Y0053
T06
X00875Y00523
X00892
X0091Y0052325
X01005Y0078
X00409Y0060325
X0041175Y0051275
X0041125Y00436
X00468Y0046225
X01153Y00876
T07
X00295Y0030575
T08
X003935Y0011025
X0037225Y0016
X0033475Y00287
X003985Y00239
X00516Y0035425
X007295Y0034975
X0066425Y00235
X0078925Y001825
X0056175Y0016
X0084375Y00219
X00844875Y00286625
X00842814Y0032625
X0093675Y002625
X01095Y0014375
X01171Y00395
X01194Y00449
X01216
X01216Y00522516
X012485Y0055875
X0124825Y00583
X012525Y0060825
X01293Y00436
X0117875Y00608
X01179Y00651
X0114625Y0066175
X009625Y0042475
X0072025Y00419
X0115525Y0085825
X0121075Y008385
X0119725Y0096675
T09
X011635Y0019375
T10
X00320548Y00302006
X00412Y00392
X00525Y002755
Y001995
X0044275Y00402
X00462094Y0053825
X00465Y0056325
X0051475Y006625
Y006875
X0061975Y0069975
X00606966Y00763
X0067575Y007705
X0036575Y0072025
X003515Y00635
X0019475Y005235
X001945Y0047875
X002395Y0043925
X002285Y0042775
X00789Y0082875
X008975Y008075
T11
X0033Y00115
X00355
X005175
X005425
X007535Y00251
X00868Y00216
X0088Y00115
X00855
X0083
X009925
X010175
X010425
X010675
X01175
X0103275Y0021975
X009805Y0021925
X0098225Y00264353
X012Y00115
X01225
X002695Y0071725
X0021675Y0074225
X0030375Y00763
T12
X003025Y002373
Y002627
X00435
Y002373
X01095Y0045125
X011204
Y0047665
X01095
Y0050205
X011204
Y0052745
X01095
Y0055285
X011204
Y0057825
X01095
Y0060365
X011204
Y0062905
X01095
Y0065445
X011204
Y0067985
X01095
Y0070525
X011204
Y0073065
X01095
Y0075605
X011204
Y0078145
X01095
X0043325Y007129
Y006875
Y006621
Y006367
X0008Y006414
Y006668
Y006922
Y007176
Y00743
Y007684
Y00616
Y005906
Y005652
Y005398
Y005144
Y00489
Y007938
Y008192
X002719Y0095725
X002973
X003227
X003481
X003735
X003989
X004243
X004497
X01095Y0085765
X011204
Y0083225
X01095
Y0080685
X011204
T13
X00957375Y00306375
X0125Y0065
Y007
Y0075
T14
X0050825Y008865
X0072025
T15
X00169Y0051
Y00581
T16
X0042Y00048
X01272
X00175Y0094
X01272Y0094
M30
