%TF.GenerationSoftware,Altium Limited,Altium Designer,21.8.1 (53)*%
G04 Layer_Color=0*
%FSLAX44Y44*%
%MOMM*%
%TF.SameCoordinates,BA67B65F-379A-4084-973E-2E511AD72F1B*%
%TF.FilePolarity,Positive*%
%TF.FileFunction,Profile,NP*%
%TF.Part,Single*%
G01*
G75*
%TA.AperFunction,Profile*%
%ADD10C,0.0254*%
G36*
X215000Y490985D02*
X215000Y490000D01*
X215384Y488068D01*
X216138Y486248D01*
X217232Y484610D01*
X218625Y483217D01*
X220263Y482123D01*
X222083Y481369D01*
X224015Y480985D01*
X225000Y480985D01*
X225985Y480985D01*
X227917Y481369D01*
X229737Y482123D01*
X231375Y483217D01*
X232768Y484610D01*
X233862Y486248D01*
X234616Y488068D01*
X235000Y490000D01*
X235000Y490985D01*
X235000Y491970D01*
X234616Y493902D01*
X233862Y495722D01*
X232768Y497360D01*
X231375Y498753D01*
X229737Y499847D01*
X227917Y500601D01*
X225985Y500985D01*
X225000Y500985D01*
X224015Y500985D01*
X222083Y500601D01*
X220263Y499847D01*
X218625Y498753D01*
X217232Y497360D01*
X216138Y495722D01*
X215384Y493902D01*
X215000Y491970D01*
X215000Y490985D01*
X215000Y490985D01*
X215000Y490985D01*
X215000Y490985D01*
X215000Y490985D02*
G37*
G36*
X106000Y601000D02*
X106000Y600015D01*
X106384Y598083D01*
X107138Y596263D01*
X108232Y594625D01*
X109625Y593232D01*
X111263Y592138D01*
X113083Y591384D01*
X115015Y591000D01*
X116000Y591000D01*
X116985Y591000D01*
X118917Y591384D01*
X120737Y592138D01*
X122375Y593232D01*
X123767Y594625D01*
X124862Y596263D01*
X125616Y598083D01*
X126000Y600015D01*
X126000Y601000D01*
X126000Y601985D01*
X125616Y603917D01*
X124862Y605737D01*
X123767Y607375D01*
X122375Y608768D01*
X120737Y609862D01*
X118917Y610616D01*
X116985Y611000D01*
X116000Y611000D01*
X115015Y611000D01*
X113083Y610616D01*
X111263Y609862D01*
X109625Y608768D01*
X108232Y607375D01*
X107138Y605737D01*
X106384Y603917D01*
X106000Y601985D01*
X106000Y601000D01*
X106000Y601000D01*
X106000Y601000D01*
X106000Y601000D01*
X106000Y601000D02*
G37*
G36*
X60000Y379000D02*
X60000Y377030D01*
X60769Y373166D01*
X62276Y369526D01*
X64465Y366251D01*
X67251Y363465D01*
X70526Y361276D01*
X74166Y359769D01*
X78030Y359000D01*
X80000Y359000D01*
X80000Y359000D01*
X100000Y359000D01*
X101970Y359000D01*
X105834Y359769D01*
X109473Y361276D01*
X112749Y363465D01*
X115535Y366251D01*
X117724Y369526D01*
X119231Y373166D01*
X120000Y377030D01*
X120000Y379000D01*
X120000Y380970D01*
X119231Y384834D01*
X117724Y388474D01*
X115535Y391749D01*
X112749Y394535D01*
X109473Y396724D01*
X105834Y398231D01*
X101970Y399000D01*
X100000Y399000D01*
X100000Y399000D01*
X80000Y399000D01*
X78030Y399000D01*
X74166Y398231D01*
X70526Y396724D01*
X67251Y394535D01*
X64465Y391749D01*
X62276Y388474D01*
X60769Y384834D01*
X60000Y380970D01*
X60000Y379000D01*
X60000Y379000D01*
X60000Y379000D02*
G37*
G36*
X60000Y930000D02*
X60000Y928030D01*
X60769Y924166D01*
X62276Y920526D01*
X64465Y917251D01*
X67251Y914465D01*
X70526Y912276D01*
X74166Y910769D01*
X78030Y910000D01*
X80000Y910000D01*
X80000Y910000D01*
X100000Y910000D01*
X101970Y910000D01*
X105834Y910769D01*
X109474Y912276D01*
X112749Y914465D01*
X115535Y917251D01*
X117724Y920526D01*
X119231Y924166D01*
X120000Y928030D01*
X120000Y930000D01*
X120000Y931970D01*
X119231Y935834D01*
X117724Y939473D01*
X115535Y942749D01*
X112749Y945535D01*
X109473Y947724D01*
X105834Y949231D01*
X101970Y950000D01*
X100000Y950000D01*
X100000Y950000D01*
X80000Y950000D01*
X78030Y950000D01*
X74166Y949231D01*
X70526Y947724D01*
X67251Y945535D01*
X64465Y942749D01*
X62276Y939473D01*
X60769Y935834D01*
X60000Y931970D01*
X60000Y930000D01*
X60000Y930000D01*
X60000Y930000D02*
G37*
G36*
X1079000Y379000D02*
X1079000Y377030D01*
X1079769Y373166D01*
X1081276Y369526D01*
X1083465Y366251D01*
X1086251Y363465D01*
X1089526Y361276D01*
X1093166Y359769D01*
X1097030Y359000D01*
X1099000Y359000D01*
X1099000Y359000D01*
X1119000Y359000D01*
X1120970Y359000D01*
X1124834Y359769D01*
X1128474Y361276D01*
X1131749Y363465D01*
X1134535Y366251D01*
X1136724Y369526D01*
X1138231Y373166D01*
X1139000Y377030D01*
X1139000Y379000D01*
X1139000Y380970D01*
X1138231Y384834D01*
X1136724Y388474D01*
X1134535Y391749D01*
X1131749Y394535D01*
X1128474Y396724D01*
X1124834Y398231D01*
X1120970Y399000D01*
X1119000Y399000D01*
X1119000Y399000D01*
X1099000Y399000D01*
X1097030Y399000D01*
X1093166Y398231D01*
X1089526Y396724D01*
X1086251Y394535D01*
X1083465Y391749D01*
X1081276Y388474D01*
X1079769Y384834D01*
X1079000Y380970D01*
X1079000Y379000D01*
X1079000Y379000D01*
X1079000Y379000D02*
G37*
G36*
X1079000Y930000D02*
X1079000Y928030D01*
X1079769Y924166D01*
X1081276Y920526D01*
X1083465Y917251D01*
X1086251Y914465D01*
X1089526Y912276D01*
X1093166Y910769D01*
X1097030Y910000D01*
X1099000Y910000D01*
X1099000Y910000D01*
X1119000Y910000D01*
X1120970Y910000D01*
X1124834Y910769D01*
X1128474Y912276D01*
X1131749Y914465D01*
X1134535Y917251D01*
X1136724Y920526D01*
X1138231Y924166D01*
X1139000Y928030D01*
X1139000Y930000D01*
X1139000Y931970D01*
X1138231Y935834D01*
X1136724Y939473D01*
X1134535Y942749D01*
X1131749Y945535D01*
X1128474Y947724D01*
X1124834Y949231D01*
X1120970Y950000D01*
X1119000Y950000D01*
X1119000Y950000D01*
X1099000Y950000D01*
X1097030Y950000D01*
X1093166Y949231D01*
X1089526Y947724D01*
X1086251Y945535D01*
X1083465Y942749D01*
X1081276Y939473D01*
X1079769Y935834D01*
X1079000Y931970D01*
X1079000Y930000D01*
X1079000Y930000D01*
X1079000Y930000D02*
G37*
D10*
X522500Y990000D02*
G03*
X706250Y990000I91875J94143D01*
G01*
X257250Y990000D01*
X1310000Y990000D01*
X1310000Y0D01*
X770000Y0D01*
X770000Y24999D01*
X770000Y24999D02*
G03*
X675000Y120000I-94999J2D01*
G01*
X675000Y120000D02*
G03*
X580000Y25000I-3J-94997D01*
G01*
X580000Y0D01*
X280000Y0D01*
X280000Y325000D01*
X280000Y325000D02*
G03*
X272000Y333000I-7998J2D01*
G01*
X37000Y333000D01*
X37000Y548000D01*
X37000Y548000D02*
G03*
X29000Y556000I-7998J2D01*
G01*
X0Y556000D01*
X0Y788000D01*
X29000Y788000D01*
X29000Y788000D02*
G03*
X37000Y796000I0J8000D01*
G01*
X37000Y990000D01*
X522500Y990000D01*
%TF.MD5,418420c166e12eaa6f9755a4cdafa856*%
M02*
