G04*
G04 #@! TF.GenerationSoftware,Altium Limited,Altium Designer,23.1.1 (15)*
G04*
G04 Layer_Color=65535*
%FSLAX44Y44*%
%MOMM*%
G71*
G04*
G04 #@! TF.SameCoordinates,2F936F8F-47D6-4811-9C51-17D86596E71E*
G04*
G04*
G04 #@! TF.FilePolarity,Positive*
G04*
G01*
G75*
%ADD10C,0.2500*%
%ADD11C,0.2000*%
%ADD12C,0.2540*%
D10*
X62600Y60150D02*
G03*
X62600Y60150I-1250J0D01*
G01*
D11*
X179100Y90300D02*
G03*
X179100Y90300I-13000J0D01*
G01*
Y14100D02*
G03*
X179100Y14100I-13000J0D01*
G01*
X26700Y39500D02*
G03*
X26700Y39500I-13000J0D01*
G01*
X179100D02*
G03*
X179100Y39500I-13000J0D01*
G01*
Y64900D02*
G03*
X179100Y64900I-13000J0D01*
G01*
X26700D02*
G03*
X26700Y64900I-13000J0D01*
G01*
Y14100D02*
G03*
X26700Y14100I-13000J0D01*
G01*
X71900Y94000D02*
X107900D01*
X71900Y112000D02*
X107900D01*
Y94000D02*
Y112000D01*
X71900Y94000D02*
Y112000D01*
X95300Y88600D02*
X141300D01*
X95300Y66600D02*
X141300D01*
X95300D02*
Y88600D01*
X141300Y66600D02*
Y88600D01*
X44500Y66600D02*
X90500D01*
X44500Y88600D02*
X90500D01*
Y66600D02*
Y88600D01*
X44500Y66600D02*
Y88600D01*
X72350Y10150D02*
Y56400D01*
X104350D01*
Y10150D02*
Y56400D01*
X72350Y10150D02*
X104350D01*
D12*
X77204Y34418D02*
Y19182D01*
X84822D01*
X87361Y21722D01*
Y31878D01*
X84822Y34418D01*
X77204D01*
X102596Y19182D02*
X92439D01*
X102596Y29339D01*
Y31878D01*
X100057Y34418D01*
X94978D01*
X92439Y31878D01*
X37018Y90304D02*
X21783D01*
Y97922D01*
X24322Y100461D01*
X29400D01*
X31939Y97922D01*
Y90304D01*
Y95382D02*
X37018Y100461D01*
Y113157D02*
X21783D01*
X29400Y105539D01*
Y115696D01*
X118304Y95382D02*
Y110618D01*
X125922D01*
X128461Y108078D01*
Y103000D01*
X125922Y100461D01*
X118304D01*
X123383D02*
X128461Y95382D01*
X133539Y108078D02*
X136078Y110618D01*
X141157D01*
X143696Y108078D01*
Y105539D01*
X141157Y103000D01*
X138618D01*
X141157D01*
X143696Y100461D01*
Y97922D01*
X141157Y95382D01*
X136078D01*
X133539Y97922D01*
X51800Y108078D02*
X49261Y110618D01*
X44183D01*
X41643Y108078D01*
Y97922D01*
X44183Y95382D01*
X49261D01*
X51800Y97922D01*
X56878Y95382D02*
X61957D01*
X59418D01*
Y110618D01*
X56878Y108078D01*
M02*
