G04*
G04 #@! TF.GenerationSoftware,Altium Limited,Altium Designer,23.1.1 (15)*
G04*
G04 Layer_Color=8388736*
%FSLAX44Y44*%
%MOMM*%
G71*
G04*
G04 #@! TF.SameCoordinates,2F936F8F-47D6-4811-9C51-17D86596E71E*
G04*
G04*
G04 #@! TF.FilePolarity,Negative*
G04*
G01*
G75*
%ADD16R,1.2032X1.4532*%
%ADD17R,1.2032X1.8032*%
G04:AMPARAMS|DCode=18|XSize=1.7532mm|YSize=0.8032mm|CornerRadius=0.4016mm|HoleSize=0mm|Usage=FLASHONLY|Rotation=0.000|XOffset=0mm|YOffset=0mm|HoleType=Round|Shape=RoundedRectangle|*
%AMROUNDEDRECTD18*
21,1,1.7532,0.0000,0,0,0.0*
21,1,0.9500,0.8032,0,0,0.0*
1,1,0.8032,0.4750,0.0000*
1,1,0.8032,-0.4750,0.0000*
1,1,0.8032,-0.4750,0.0000*
1,1,0.8032,0.4750,0.0000*
%
%ADD18ROUNDEDRECTD18*%
%ADD19C,2.2032*%
D16*
X99900Y103000D02*
D03*
X79900D02*
D03*
D17*
X103300Y77600D02*
D03*
X133300D02*
D03*
X82500D02*
D03*
X52500D02*
D03*
D18*
X115300Y52200D02*
D03*
Y39500D02*
D03*
Y26800D02*
D03*
Y14100D02*
D03*
X61300D02*
D03*
Y26800D02*
D03*
Y39500D02*
D03*
Y52200D02*
D03*
D19*
X166100Y90300D02*
D03*
Y14100D02*
D03*
X13700Y39500D02*
D03*
X166100D02*
D03*
Y64900D02*
D03*
X13700D02*
D03*
Y14100D02*
D03*
M02*
