G04*
G04 #@! TF.GenerationSoftware,Altium Limited,Altium Designer,23.1.1 (15)*
G04*
G04 Layer_Physical_Order=1*
G04 Layer_Color=255*
%FSLAX44Y44*%
%MOMM*%
G71*
G04*
G04 #@! TF.SameCoordinates,2F936F8F-47D6-4811-9C51-17D86596E71E*
G04*
G04*
G04 #@! TF.FilePolarity,Positive*
G04*
G01*
G75*
%ADD13R,1.0000X1.2500*%
%ADD14R,1.0000X1.6000*%
G04:AMPARAMS|DCode=15|XSize=1.55mm|YSize=0.6mm|CornerRadius=0.3mm|HoleSize=0mm|Usage=FLASHONLY|Rotation=0.000|XOffset=0mm|YOffset=0mm|HoleType=Round|Shape=RoundedRectangle|*
%AMROUNDEDRECTD15*
21,1,1.5500,0.0000,0,0,0.0*
21,1,0.9500,0.6000,0,0,0.0*
1,1,0.6000,0.4750,0.0000*
1,1,0.6000,-0.4750,0.0000*
1,1,0.6000,-0.4750,0.0000*
1,1,0.6000,0.4750,0.0000*
%
%ADD15ROUNDEDRECTD15*%
%ADD20C,0.4000*%
%ADD21C,2.0000*%
D13*
X99900Y103000D02*
D03*
X79900D02*
D03*
D14*
X103300Y77600D02*
D03*
X133300D02*
D03*
X82500D02*
D03*
X52500D02*
D03*
D15*
X115300Y52200D02*
D03*
Y39500D02*
D03*
Y26800D02*
D03*
Y14100D02*
D03*
X61300D02*
D03*
Y26800D02*
D03*
Y39500D02*
D03*
Y52200D02*
D03*
D20*
X82540Y18540D02*
Y55709D01*
X52500Y64087D02*
X54843Y61743D01*
X71243Y67006D02*
Y93093D01*
Y67006D02*
X82540Y55709D01*
X67257Y61743D02*
X76000Y53000D01*
X54843Y61743D02*
X67257D01*
X52500Y64087D02*
Y77600D01*
X76000Y29143D02*
Y53000D01*
X99900Y84000D02*
Y103000D01*
Y84000D02*
X103300Y80600D01*
Y77600D02*
Y80600D01*
X101000Y54543D02*
Y75300D01*
X103343Y52200D02*
X115300D01*
X101000Y54543D02*
X103343Y52200D01*
X101000Y75300D02*
X103300Y77600D01*
X82500D02*
X103300D01*
X61300Y26800D02*
X73657D01*
X76000Y29143D01*
X71243Y93093D02*
X79900Y101750D01*
X78100Y14100D02*
X82540Y18540D01*
X133300Y77600D02*
X133300D01*
X130300Y74600D02*
X133300Y77600D01*
X130300Y74600D02*
X140000Y64900D01*
X61300Y14100D02*
X78100D01*
X79900Y101750D02*
Y103000D01*
X13700Y64900D02*
X26400Y52200D01*
X61300D01*
X13700Y39500D02*
X61300D01*
X13700Y14100D02*
X61300D01*
X115300D02*
X166100D01*
X135800Y26800D02*
X148500Y39500D01*
X166100D01*
X115300Y26800D02*
X135800D01*
X138000Y47000D02*
Y62900D01*
X140000Y64900D01*
X130500Y39500D02*
X138000Y47000D01*
X115300Y39500D02*
X130500D01*
X140000Y64900D02*
X166100D01*
X99900Y103000D02*
X153400D01*
X166100Y90300D01*
D21*
D03*
Y14100D02*
D03*
X13700Y39500D02*
D03*
X166100D02*
D03*
Y64900D02*
D03*
X13700D02*
D03*
Y14100D02*
D03*
M02*
