<?xml version="1.0" encoding="UTF-8" standalone="no"?>
<svg
   xmlns:dc="http://purl.org/dc/elements/1.1/"
   xmlns:cc="http://creativecommons.org/ns#"
   xmlns:rdf="http://www.w3.org/1999/02/22-rdf-syntax-ns#"
   xmlns:svg="http://www.w3.org/2000/svg"
   xmlns="http://www.w3.org/2000/svg"
   xmlns:sodipodi="http://sodipodi.sourceforge.net/DTD/sodipodi-0.dtd"
   xmlns:inkscape="http://www.inkscape.org/namespaces/inkscape"
   width="210mm"
   height="297mm"
   viewBox="0 0 210 297"
   version="1.1"
   id="svg8"
   inkscape:version="1.0.2-2 (e86c870879, 2021-01-15)"
   sodipodi:docname="Лого.svg">
  <defs
     id="defs2" />
  <sodipodi:namedview
     id="base"
     pagecolor="#ffffff"
     bordercolor="#666666"
     borderopacity="1.0"
     inkscape:pageopacity="0.0"
     inkscape:pageshadow="2"
     inkscape:zoom="2.56"
     inkscape:cx="145.1958"
     inkscape:cy="197.61711"
     inkscape:document-units="mm"
     inkscape:current-layer="layer1"
     inkscape:document-rotation="0"
     showgrid="false"
     inkscape:window-width="1920"
     inkscape:window-height="1001"
     inkscape:window-x="-9"
     inkscape:window-y="-9"
     inkscape:window-maximized="1" />
  <metadata
     id="metadata5">
    <rdf:RDF>
      <cc:Work
         rdf:about="">
        <dc:format>image/svg+xml</dc:format>
        <dc:type
           rdf:resource="http://purl.org/dc/dcmitype/StillImage" />
        <dc:title />
      </cc:Work>
    </rdf:RDF>
  </metadata>
  <g
     inkscape:label="Слой 1"
     inkscape:groupmode="layer"
     id="layer1">
    <path
       id="path915"
       style="fill:#ff0000;fill-opacity:1;stroke-width:0.264583"
       d="m 45.383793,100.74579 c -1.605502,0 -3.211372,0.61514 -4.441589,1.84536 L 25.776721,117.75663 H 64.990347 L 49.824864,102.59115 c -1.230217,-1.23022 -2.835571,-1.84536 -4.441071,-1.84536 z m -19.696989,65.90657 15.2554,15.2554 c 2.460434,2.46043 6.422226,2.46043 8.88266,0 l 15.255401,-15.2554 z"
       sodipodi:nodetypes="ssccsscsscc" />
    <path
       id="path913"
       style="fill:#000000;fill-opacity:1;stroke-width:0.264583"
       d="m 31.992879,128.31413 c 0.0016,0.0847 0.0057,0.16902 0.0057,0.25425 v 8.39483 c 0,0.003 2e-6,0.005 0,0.008 H 67.84341 v 0.0351 c 0.164962,-0.0102 0.330925,-0.0165 0.49816,-0.0165 5.047832,0 9.111588,4.71667 9.111588,10.57558 v 6.71432 l 7.588684,-7.58868 c 2.460435,-2.46044 2.460435,-6.42223 0,-8.88267 l -9.493999,-9.49399 z"
       sodipodi:nodetypes="csscccsscsscc" />
    <path
       id="rect867"
       style="fill:#e2e4e5;fill-opacity:1;stroke-width:0.264583"
       d="m 13.775386,129.75797 -8.0501542,8.05016 c -2.460436,2.46043 -2.460436,6.42222 0,8.88266 l 9.4045942,9.40459 h 44.102728 c -5.2e-4,-0.045 -0.003,-0.0897 -0.003,-0.13487 v -8.39536 c 0,-0.0125 10e-4,-0.0247 10e-4,-0.0372 H 23.269897 c -0.127124,0.006 -0.254473,0.0114 -0.382922,0.0114 -5.047834,0 -9.111589,-4.71719 -9.111589,-10.5761 z"
       sodipodi:nodetypes="cssccssccssc" />
    <rect
       style="fill:#ff0000;fill-opacity:1;stroke-width:0.264583"
       id="rect855"
       width="62.36607"
       height="62.36607"
       x="37.422245"
       y="-23.349237"
       ry="6.2808337"
       transform="rotate(45)" />
    <rect
       style="fill:#000000;fill-opacity:1;stroke-width:0.32137"
       id="rect857"
       width="123.61864"
       height="8.5532646"
       x="-18.097435"
       y="29.338675" />
    <rect
       style="fill:#000000;fill-opacity:1;stroke-width:0.32137"
       id="rect857-4"
       width="123.61864"
       height="8.5532646"
       x="-18.974415"
       y="70.120346" />
    <rect
       style="fill:#000000;fill-opacity:1;stroke-width:0.187289"
       id="rect857-8"
       width="41.985317"
       height="8.5532646"
       x="21.979269"
       y="49.773956" />
    <rect
       style="fill:#000000;fill-opacity:1;stroke-width:0.37669"
       id="rect863-7"
       width="17.857193"
       height="28.922287"
       x="55.236973"
       y="49.777504"
       ry="8.3367977" />
    <rect
       style="fill:#000000;fill-opacity:1;stroke-width:0.37669"
       id="rect863-7-5"
       width="17.857193"
       height="28.922287"
       x="13.142021"
       y="29.387762"
       ry="8.3367977" />
  </g>
</svg>
